<svg width="275" height="578" viewBox="0 0 275 578" fill="none" xmlns="http://www.w3.org/2000/svg">
<path d="M142.373 224.802L25.9412 292.915C12.0984 301.013 3.56448 315.823 3.49923 331.86L2.50977 575.083L271.572 575.083L271.572 331.037C271.572 315.445 263.56 300.947 250.358 292.652L142.373 224.802Z" fill="#B85172"/>
<path d="M143.748 0.0156242L142.373 224.802M142.373 224.802L25.9412 292.915C12.0984 301.013 3.56448 315.823 3.49923 331.86L2.50977 575.083L271.572 575.083L271.572 331.037C271.572 315.445 263.56 300.947 250.358 292.652L142.373 224.802Z" stroke="#B85172" stroke-width="5"/>
<path d="M143.503 231.863L30.9576 293.251C16.3937 301.195 7.33203 316.46 7.33203 333.049L7.33203 570.656L266.742 570.656L266.742 331.746C266.742 315.854 258.42 301.122 244.809 292.919L143.503 231.863Z" stroke="white" stroke-width="2.66667"/>
</svg>
