<svg width="117" height="120" viewBox="0 0 117 120" fill="none" xmlns="http://www.w3.org/2000/svg">
<path d="M109.805 86C98.777 86.2856 93.8031 90.3651 87.1133 96.5479C96.6485 96.1648 102.625 95.4794 112.139 99.7948" stroke="#FDDC7A" stroke-width="2"/>
<path d="M40.5074 105.909L73.2004 99.1104L77.25 97.0848C58.1512 81.337 46.7278 72.9039 36.6431 69.619C33.7225 68.6676 30.9141 68.1481 28.0641 68.0077C14.5301 69.1144 9.18874 73.6125 0 82.1843C2.84892 91.6167 7.45016 95.4576 17.7953 101.28C26.6962 106.839 31.6738 106.884 40.5074 105.909Z" fill="#F6D676"/>
<path d="M36.6431 69.619C46.7278 72.9039 58.1512 81.337 77.25 97.0848L79.0145 96.2977C90.129 71.7456 85.809 59.5926 79.9987 37.7715C70.2187 14.3961 63.8224 9.06652 52.2231 1.02747C45.3526 -1.22523 43.305 0.228463 41.3732 5.3673V20.2673C40.0747 31.3498 37.7398 35.2831 32.5487 40.8103C30.3328 43.6625 29.3372 45.366 28.0641 48.4776C24.0463 61.6124 29.2964 64.0163 36.6431 69.619Z" fill="#F6D676"/>
<path d="M91.5718 29.6703C85.5914 30.0787 83.6223 32.9263 79.9987 37.7715C85.809 59.5926 90.129 71.7456 79.0145 96.2977L79.0443 96.2844C90.1706 88.7392 96.8014 81.9627 111.391 53.974C116.697 40.18 118.052 32.3332 112.548 17.8079C107.824 12.542 105.7 13.0856 102.711 21.1351C99.2859 25.3833 96.7169 27.1234 91.5718 29.6703Z" fill="#E8C65F"/>
<path d="M56.7305 116.988C66.2586 103.428 72.2889 97.3369 87.5047 96.4023" stroke="#FDDC7A" stroke-width="6" stroke-linecap="round"/>
</svg>
