<svg width="114" height="117" viewBox="0 0 114 117" fill="none" xmlns="http://www.w3.org/2000/svg">
<path d="M106.557 83.5C95.9138 83.7757 91.1131 87.7131 84.6562 93.6806C93.8594 93.3108 99.6275 92.6493 108.811 96.8144" stroke="#FDDC7A" stroke-width="2"/>
<path d="M88.9532 29.1371C83.1811 29.5312 81.2805 32.2797 77.7831 36.9562C83.3911 58.0173 87.5606 69.7471 76.8332 93.4442L76.8619 93.4314C87.6008 86.1489 94.0007 79.6084 108.082 52.5943C113.204 39.2808 114.512 31.7072 109.199 17.6877C104.639 12.6053 102.59 13.1299 99.7044 20.8991C96.3986 24.9994 93.9191 26.6789 88.9532 29.1371Z" fill="#FFDC73"/>
<path d="M35.9373 67.6945C45.6708 70.865 56.6964 79.0045 75.1301 94.2039L76.8332 93.4442C87.5606 69.7471 83.3911 58.0173 77.7831 36.9562C68.3437 14.3947 62.1701 9.25078 50.9747 1.49169C44.3435 -0.682566 42.3672 0.720506 40.5027 5.68039V20.0615C39.2494 30.7581 36.9958 34.5543 31.9855 39.8891C29.8467 42.642 28.8859 44.2862 27.6571 47.2893C23.7792 59.9668 28.8465 62.287 35.9373 67.6945Z" fill="#FFDC73"/>
<path d="M39.6671 102.721L71.2215 96.1589L75.1301 94.2039C56.6964 79.0045 45.6708 70.865 35.9373 67.6945C33.1184 66.7763 30.4078 66.2749 27.6571 66.1394C14.5944 67.2075 9.43906 71.5489 0.570312 79.8223C3.32002 88.9262 7.76103 92.6333 17.7459 98.253C26.3368 103.619 31.1411 103.662 39.6671 102.721Z" fill="#FFDC73"/>
<path d="M75.1301 94.2039C56.6964 79.0045 45.6708 70.865 35.9373 67.6945M75.1301 94.2039L71.2215 96.1589L39.6671 102.721C31.1411 103.662 26.3368 103.619 17.7459 98.253C7.76103 92.6333 3.32002 88.9262 0.570312 79.8223C9.43906 71.5489 14.5944 67.2075 27.6571 66.1394C30.4078 66.2749 33.1184 66.7763 35.9373 67.6945M75.1301 94.2039L76.8332 93.4442M35.9373 67.6945C28.8465 62.287 23.7792 59.9668 27.6571 47.2893C28.8859 44.2862 29.8467 42.642 31.9855 39.8891C36.9958 34.5543 39.2494 30.7581 40.5027 20.0615V5.68039C42.3672 0.720506 44.3435 -0.682566 50.9747 1.49169C62.1701 9.25078 68.3437 14.3947 77.7831 36.9562M77.7831 36.9562C81.2805 32.2797 83.1811 29.5312 88.9532 29.1371C93.9191 26.6789 96.3986 24.9994 99.7044 20.8991C102.59 13.1299 104.639 12.6053 109.199 17.6877C114.512 31.7072 113.204 39.2808 108.082 52.5943C94.0007 79.6084 87.6008 86.1489 76.8619 93.4314M77.7831 36.9562C83.3911 58.0173 87.5606 69.7471 76.8332 93.4442M76.8619 93.4314L76.8057 93.5049C76.8149 93.4847 76.824 93.4644 76.8332 93.4442M76.8619 93.4314L76.8332 93.4442" stroke="#9E8F62"/>
<path d="M55.332 113.408C64.5284 100.32 70.3487 94.441 85.0346 93.5391" stroke="#FDDC7A" stroke-width="6" stroke-linecap="round"/>
</svg>
