<svg width="157" height="156" viewBox="0 0 157 156" fill="none" xmlns="http://www.w3.org/2000/svg">
<path d="M37.5669 20.7743C38.9439 33.8392 34.9004 40.3461 28.6401 49.2061C27.6103 37.8881 27.4905 30.7253 20.9162 20.1622" stroke="#FDDC7A" stroke-width="2"/>
<path d="M24.8262 105.69L27.7716 66.032L29.5338 60.9356C51.0965 81.038 62.8294 93.215 68.2756 104.612C69.8529 107.912 70.9029 111.147 71.5117 114.49C72.3088 130.642 67.8282 137.648 59.1356 149.83C47.5557 147.933 42.3054 143.097 33.8226 131.787C25.8749 122.142 25.0479 116.272 24.8262 105.69Z" fill="#F6D676"/>
<path d="M68.2756 104.612C62.8294 93.215 51.0965 81.038 29.5338 60.9356L30.1889 58.7298C57.4504 41.7902 72.4712 45.0017 99.139 48.47C128.259 56.3837 135.546 63.1076 146.841 75.5535C150.569 83.3155 149.171 85.9591 143.404 89.0387L125.811 91.3549C112.927 94.6109 108.646 97.9792 102.927 104.968C99.9039 108.027 98.0473 109.468 94.5713 111.455C79.6873 118.24 76.0328 112.415 68.2756 104.612Z" fill="#F6D676"/>
<path d="M106.905 33.546C107.353 40.6707 104.297 43.4384 99.139 48.47C72.4712 45.0017 57.4504 41.7902 30.1889 58.7298L30.1999 58.6926C37.3792 44.3826 44.3496 35.5001 75.1286 13.9232C90.5905 5.51354 99.6448 2.69373 117.651 6.93481C124.603 11.6943 124.291 14.2861 115.251 19.067C110.768 23.7715 109.113 27.0752 106.905 33.546Z" fill="#E8C65F"/>
<path d="M9.22552 88.2586C23.7555 74.9006 30.0098 66.8336 28.748 48.7227" stroke="#FDDC7A" stroke-width="6" stroke-linecap="round"/>
</svg>
