<svg width="120" height="123" viewBox="0 0 120 123" fill="none" xmlns="http://www.w3.org/2000/svg">
<path d="M6.88296 88.0664C18.1118 88.3572 23.1764 92.5111 29.9883 98.8068C20.2791 98.4167 14.1938 97.7188 4.5058 102.113" stroke="#FDDC7A" stroke-width="2"/>
<path d="M25.4526 30.7117C31.5421 31.1275 33.5472 34.0271 37.237 38.9607C31.3206 61.18 26.9218 73.5547 38.2391 98.5548L38.2088 98.5413C26.8794 90.8583 20.1276 83.9582 5.27198 55.4588C-0.131308 41.4132 -1.51116 33.4232 4.09356 18.6328C8.90404 13.2709 11.0663 13.8243 14.1102 22.0208C17.5978 26.3465 20.2137 28.1183 25.4526 30.7117Z" fill="#FFDC73"/>
<path d="M81.3836 71.3893C71.1149 74.7341 59.4831 83.3211 40.0358 99.3563L38.2391 98.5548C26.9218 73.5547 31.3206 61.18 37.237 38.9607C47.1953 15.1588 53.7084 9.73195 65.5194 1.54622C72.5152 -0.74759 74.6002 0.732631 76.5672 5.96524V21.1371C77.8894 32.4218 80.2669 36.4268 85.5527 42.055C87.8091 44.9592 88.8228 46.6938 90.1191 49.8621C94.2102 63.2366 88.8644 65.6844 81.3836 71.3893Z" fill="#FFDC73"/>
<path d="M77.4488 108.342L44.1593 101.419L40.0358 99.3563C59.4831 83.3211 71.1149 74.7341 81.3836 71.3893C84.3575 70.4206 87.2171 69.8915 90.1191 69.7486C103.9 70.8755 109.339 75.4556 118.695 84.1839C115.794 93.7884 111.109 97.6993 100.575 103.628C91.512 109.289 86.4436 109.335 77.4488 108.342Z" fill="#FFDC73"/>
<path d="M40.0358 99.3563C59.4831 83.3211 71.1149 74.7341 81.3836 71.3893M40.0358 99.3563L44.1593 101.419L77.4488 108.342C86.4436 109.335 91.512 109.289 100.575 103.628C111.109 97.6993 115.794 93.7884 118.695 84.1839C109.339 75.4556 103.9 70.8755 90.1191 69.7486C87.2171 69.8915 84.3575 70.4206 81.3836 71.3893M40.0358 99.3563L38.2391 98.5548M81.3836 71.3893C88.8644 65.6844 94.2102 63.2366 90.1191 49.8621C88.8228 46.6938 87.8091 44.9592 85.5527 42.055C80.2669 36.4268 77.8894 32.4218 76.5672 21.1371V5.96524C74.6002 0.732631 72.5152 -0.74759 65.5194 1.54622C53.7084 9.73195 47.1953 15.1588 37.237 38.9607M37.237 38.9607C33.5472 34.0271 31.5421 31.1275 25.4526 30.7117C20.2137 28.1183 17.5978 26.3465 14.1102 22.0208C11.0663 13.8243 8.90404 13.2709 4.09356 18.6328C-1.51116 33.4232 -0.131308 41.4132 5.27198 55.4588C20.1276 83.9582 26.8794 90.8583 38.2088 98.5413M37.237 38.9607C31.3206 61.18 26.9218 73.5547 38.2391 98.5548M38.2088 98.5413L38.2681 98.6189C38.2584 98.5975 38.2487 98.5761 38.2391 98.5548M38.2088 98.5413L38.2391 98.5548" stroke="#9E8F62"/>
<path d="M60.9297 119.622C51.2277 105.814 45.0873 99.6117 29.5939 98.6602" stroke="#FDDC7A" stroke-width="6" stroke-linecap="round"/>
</svg>
