<svg width="119" height="123" viewBox="0 0 119 123" fill="none" xmlns="http://www.w3.org/2000/svg">
<path d="M6.38296 87.5664C17.6118 87.8572 22.6764 92.0111 29.4883 98.3068C19.7791 97.9167 13.6938 97.2188 4.0058 101.613" stroke="#FDDC7A" stroke-width="2"/>
<path d="M76.9488 107.842L43.6593 100.919L39.5358 98.8563C58.9831 82.8211 70.6149 74.2341 80.8836 70.8893C83.8575 69.9206 86.7171 69.3915 89.6191 69.2486C103.4 70.3755 108.839 74.9556 118.195 83.6839C115.294 93.2884 110.609 97.1993 100.075 103.128C91.012 108.789 85.9436 108.835 76.9488 107.842Z" fill="#F6D676"/>
<path d="M80.8836 70.8893C70.6149 74.2341 58.9831 82.8211 39.5358 98.8563L37.7391 98.0548C26.4218 73.0547 30.8206 60.68 36.737 38.4607C46.6953 14.6588 53.2084 9.23195 65.0194 1.04622C72.0152 -1.24759 74.1002 0.232631 76.0672 5.46524V20.6371C77.3894 31.9218 79.7669 35.9268 85.0527 41.555C87.3091 44.4592 88.3228 46.1938 89.6191 49.3621C93.7102 62.7366 88.3644 65.1844 80.8836 70.8893Z" fill="#F6D676"/>
<path d="M24.9526 30.2117C31.0421 30.6275 33.0472 33.5271 36.737 38.4607C30.8206 60.68 26.4218 73.0547 37.7391 98.0548L37.7088 98.0413C26.3794 90.3584 19.6276 83.4582 4.77198 54.9588C-0.631304 40.9132 -2.01115 32.9232 3.59356 18.1328C8.40404 12.7709 10.5663 13.3243 13.6102 21.5208C17.0978 25.8465 19.7137 27.6183 24.9526 30.2117Z" fill="#E8C65F"/>
<path d="M60.4297 119.122C50.7277 105.314 44.5873 99.1117 29.0939 98.1602" stroke="#FDDC7A" stroke-width="6" stroke-linecap="round"/>
</svg>
