<svg width="157" height="161" viewBox="0 0 157 161" fill="none" xmlns="http://www.w3.org/2000/svg">
<path d="M29.2038 30.503C31.876 43.1293 28.5857 49.898 23.3682 59.191C21.2127 48.2365 20.3682 41.2496 12.8717 31.5957" stroke="#FDDC7A" stroke-width="2"/>
<path d="M98.2511 35.9472C99.4118 42.8635 96.7066 45.8782 92.1779 51.3185C65.7678 50.6375 50.7644 49.0247 25.8464 68.3452L25.8534 68.3077C31.4154 53.5959 37.3245 44.2088 65.2086 19.9999C79.4629 10.2124 88.0238 6.53769 106.049 8.85336C113.325 12.7981 113.284 15.3623 104.936 20.9518C101.033 26.0039 99.751 29.4002 98.2511 35.9472Z" fill="#FFDC73"/>
<path d="M67.7212 109.31C61.2423 98.7272 48.5412 88.0202 25.4303 70.567L25.8464 68.3452C50.7644 49.0247 65.7678 50.6375 92.1779 51.3185C121.436 56.0942 129.239 61.9244 141.539 72.9387C145.97 80.1446 144.873 82.8698 139.55 86.4646L122.595 90.5143C110.336 95.0041 106.495 98.7301 101.616 106.139C98.9731 109.436 97.3052 111.032 94.1105 113.326C80.2559 121.468 76.0934 116.147 67.7212 109.31Z" fill="#FFDC73"/>
<path d="M25.375 114.776L24.2259 75.7258L25.4303 70.567C48.5412 88.0202 61.2423 98.7272 67.7212 109.31C69.5976 112.375 70.9521 115.43 71.8864 118.635C74.3055 134.336 70.6387 141.637 63.3819 154.423C51.8741 153.745 46.2529 149.553 36.8156 139.363C28.0702 130.745 26.6661 125.093 25.375 114.776Z" fill="#FFDC73"/>
<path d="M25.4303 70.567C48.5412 88.0202 61.2423 98.7272 67.7212 109.31M25.4303 70.567L24.2259 75.7258L25.375 114.776C26.6661 125.093 28.0702 130.745 36.8156 139.363C46.2529 149.553 51.8741 153.745 63.3819 154.423C70.6387 141.637 74.3055 134.336 71.8864 118.635C70.9521 115.43 69.5976 112.375 67.7212 109.31M25.4303 70.567L25.8464 68.3452M67.7212 109.31C76.0934 116.147 80.2559 121.468 94.1105 113.326C97.3052 111.032 98.9731 109.436 101.616 106.139C106.495 98.7301 110.336 95.0041 122.595 90.5143L139.55 86.4646C144.873 82.8698 145.97 80.1446 141.539 72.9387C129.239 61.9244 121.436 56.0942 92.1779 51.3185M92.1779 51.3185C96.7066 45.8782 99.4118 42.8635 98.2511 35.9472C99.751 29.4002 101.033 26.0039 104.936 20.9518C113.284 15.3623 113.325 12.7981 106.049 8.85336C88.0238 6.53769 79.4629 10.2124 65.2086 19.9999C37.3245 44.2088 31.4154 53.5959 25.8534 68.3077M92.1779 51.3185C65.7678 50.6375 50.7644 49.0247 25.8464 68.3452M25.8534 68.3077L25.7825 68.3948C25.8038 68.3782 25.8251 68.3617 25.8464 68.3452M25.8534 68.3077L25.8464 68.3452" stroke="#9E8F62"/>
<path d="M8.36752 99.3138C21.2088 84.7858 26.5009 76.2682 23.4288 58.6996" stroke="#FDDC7A" stroke-width="6" stroke-linecap="round"/>
</svg>
