<svg width="543" height="1135" viewBox="0 0 543 1135" fill="none" xmlns="http://www.w3.org/2000/svg">
<path d="M241.843 203.562C347.186 327.668 549.376 777.27 538.421 1134.29L546.087 1036.63C599.146 634.683 405.275 439.409 257.993 183.744L241.843 203.562Z" fill="url(#paint0_linear_3509_9259)"/>
<path d="M175.193 116.658C92.549 128.55 74.8965 137.664 68.5089 156.133C75.457 165.91 107.939 157.9 167.805 142.702C91.4666 175.82 63.099 191.387 71.1303 206.958C93.1979 213.883 123.781 194.249 174.699 163.882C120.144 211.322 96.274 234.536 99.4242 252.906C113.883 263.013 137.989 237.061 174.308 203.938C164.61 250.816 160.672 273.398 169.132 274.871C186.523 273.751 197.66 242.871 216.547 209.13C226.978 243.783 232.853 261.695 243.695 259.214C279.496 243.433 259.586 199.208 252.025 145.05C295.319 209.268 316.423 230.825 342.883 218.349C358.926 192.608 340.469 172.775 272.076 130.479C355.592 153.721 398.833 164.475 412.499 143.257C418.876 125.068 375.793 120.328 320.696 109.312L323.683 108.657C391.925 93.6842 431.035 85.1035 427.72 75.8818C419.401 62.542 383.405 71.8779 337.787 78.5566C370.164 54.8221 399.675 35.4222 399.8 28.975C390.133 12.2168 358.232 30.1382 305.654 57.7356L175.193 116.658Z" fill="url(#paint1_linear_3509_9259)"/>
<ellipse cx="241.558" cy="126.175" rx="39.511" ry="28.5427" transform="rotate(-20.99 241.558 126.175)" fill="#E8D26F"/>
<path d="M276.932 124.58C277.947 127.226 263.953 144.852 250.415 150.046C236.877 155.24 215.422 150.073 214.406 147.428C213.391 144.782 233.201 145.659 246.739 140.465C260.277 135.271 275.917 121.934 276.932 124.58Z" fill="#E0C26B"/>
<defs>
<linearGradient id="paint0_linear_3509_9259" x1="427.932" y1="197.082" x2="688.662" y2="1082.17" gradientUnits="userSpaceOnUse">
<stop stop-color="#9BB86E"/>
<stop offset="1" stop-color="#405026"/>
</linearGradient>
<linearGradient id="paint1_linear_3509_9259" x1="255.784" y1="12.8339" x2="236.306" y2="279.773" gradientUnits="userSpaceOnUse">
<stop offset="0.519231" stop-color="white"/>
<stop offset="1" stop-color="#ECDEAC"/>
</linearGradient>
</defs>
</svg>
