<svg width="467" height="825" viewBox="0 0 467 825" fill="none" xmlns="http://www.w3.org/2000/svg">
<path d="M394.689 209.335C446.578 327.612 450.685 594.476 431.173 814.182L438.739 806.17C591.553 619.489 463.38 415.794 413.238 206.872L394.689 209.335Z" fill="url(#paint0_linear_3413_1909)"/>
<path d="M524.567 192.121C514.805 201.817 497.44 207.447 439.099 188.449C402.758 170.681 385.565 169.357 362.06 185.96C329.822 175.546 279.92 157.852 278.399 146.691C278.962 139.759 288.559 133.402 338.276 145.811L340.452 146.355C307.229 121.637 280.09 104.774 289.762 95.2519C305.173 86.1459 330.616 106.886 379.016 148.516C346.344 99.6251 340.047 81.075 358.388 69.8558C379.662 70.4231 387.197 90.9211 396.67 145.691C407.871 108.807 392.481 81.4173 420.937 82.8848C428.866 84.7911 426.428 122.866 422.969 148.265C445.589 132.87 457.583 80.7758 469.446 85.653C474.613 89.3095 469.722 116.398 449.26 143.104C483.25 133.705 499.764 105.335 506.322 116.412C502.911 129.111 503.927 145.92 453.563 158.565C496.406 155.612 521.808 143.834 534.362 155.332C535.024 167.82 507.627 175.217 447.11 171.75C491.343 181.323 522.889 183.668 524.567 192.121Z" fill="url(#paint1_linear_3413_1909)"/>
<path d="M361.795 161.88C304.365 140.1 289.916 139.52 279.651 148.706C280.902 157.212 304.581 163.707 348.369 175.406C287.972 168.997 264.447 168.635 264.475 181.113C276.457 193.185 302.767 191.809 345.799 190.957C294.745 201.101 271.591 207.062 267.532 219.552C273.533 230.911 297.748 223.338 332.248 215.63C310.41 241.246 300.365 253.845 305.351 257.741C316.977 263.18 334.436 247.981 357.859 233.743C353.106 258.886 350.961 272.053 358.801 274.339C387.209 277.191 389.005 242.775 402.092 206.563C408.79 261.609 415.291 282.405 436.556 284.008C455.484 273.722 450.124 254.928 419.905 204.609C466.235 248.46 490.648 270.371 506.536 262.048C516.701 253.03 490.393 234.9 458.395 208.645L460.546 209.293C509.679 224.086 537.836 232.564 538.753 225.683C537.798 214.487 488.186 206.783 456.447 194.831C486.961 200.298 543.107 206.622 539.579 200.259C536.05 193.896 505.089 169.275 439.869 173.353L361.795 161.88Z" fill="url(#paint2_linear_3413_1909)"/>
<ellipse cx="28.8844" cy="20.2355" rx="28.8844" ry="20.2355" transform="matrix(0.98915 0.14691 -0.110211 0.993908 373.435 161.336)" fill="#E8D26F"/>
<path d="M423.2 197.171C422.978 199.168 408.071 205.15 397.586 203.593C387.101 202.036 374.931 191.269 375.152 189.272C375.374 187.275 387.902 194.804 398.388 196.362C408.873 197.919 423.421 195.174 423.2 197.171Z" fill="#E0C26B"/>
<defs>
<linearGradient id="paint0_linear_3413_1909" x1="547.915" y1="298.598" x2="344.306" y2="831.061" gradientUnits="userSpaceOnUse">
<stop stop-color="#9BB86E"/>
<stop offset="1" stop-color="#405026"/>
</linearGradient>
<linearGradient id="paint1_linear_3413_1909" x1="332.419" y1="19.4915" x2="391.464" y2="279.845" gradientUnits="userSpaceOnUse">
<stop offset="0.413462" stop-color="white"/>
<stop offset="1" stop-color="#FFF5CF"/>
</linearGradient>
<linearGradient id="paint2_linear_3413_1909" x1="463.537" y1="343.828" x2="395.605" y2="59.5892" gradientUnits="userSpaceOnUse">
<stop offset="0.413462" stop-color="white"/>
<stop offset="1" stop-color="#FFF5CF"/>
</linearGradient>
</defs>
</svg>
