<svg width="896" height="1396" viewBox="0 0 896 1396" fill="none" xmlns="http://www.w3.org/2000/svg">
<path d="M498.824 209.374C550.714 327.651 554.821 594.515 535.309 814.221L542.874 806.209C695.688 619.528 567.516 415.833 517.374 206.911L498.824 209.374Z" fill="url(#paint0_linear_3509_9257)"/>
<path d="M628.703 192.16C618.94 201.856 601.576 207.486 543.235 188.488C506.894 170.72 489.7 169.396 466.195 185.999C433.958 175.585 384.055 157.891 382.535 146.73C383.098 139.798 392.695 133.441 442.412 145.85L444.588 146.394C411.365 121.676 384.226 104.813 393.898 95.2909C409.308 86.185 434.752 106.925 483.152 148.555C450.48 99.6641 444.183 81.1141 462.523 69.8948C483.798 70.4622 491.333 90.9601 500.805 145.73C512.007 108.846 496.617 81.4564 525.073 82.9238C533.002 84.8302 530.564 122.905 527.105 148.304C549.725 132.909 561.719 80.8149 573.582 85.692C578.749 89.3486 573.858 116.437 553.396 143.143C587.386 133.744 603.9 105.374 610.458 116.451C607.047 129.15 608.063 145.959 557.699 158.604C600.541 155.651 625.944 143.873 638.498 155.371C639.16 167.859 611.762 175.256 551.246 171.789C595.479 181.362 627.024 183.707 628.703 192.16Z" fill="url(#paint1_linear_3509_9257)"/>
<path d="M465.931 161.919C408.501 140.139 394.052 139.559 383.787 148.745C385.038 157.251 408.717 163.746 452.505 175.446C392.108 169.036 368.583 168.674 368.611 181.152C380.593 193.224 406.902 191.848 449.935 190.996C398.881 201.14 375.727 207.101 371.667 219.591C377.669 230.95 401.884 223.377 436.384 215.669C414.546 241.285 404.5 253.884 409.487 257.78C421.113 263.22 438.571 248.02 461.995 233.782C457.241 258.925 455.097 272.092 462.937 274.378C491.344 277.23 493.141 242.814 506.227 206.602C512.926 261.648 519.426 282.444 540.692 284.047C559.62 273.761 554.259 254.967 524.041 204.648C570.371 248.499 594.784 270.41 610.672 262.087C620.837 253.069 594.529 234.939 562.531 208.685L564.682 209.332C613.814 224.125 641.972 232.603 642.888 225.722C641.934 214.526 592.322 206.822 560.583 194.87C591.097 200.337 647.243 206.661 643.714 200.298C640.186 193.935 609.225 169.314 544.005 173.392L465.931 161.919Z" fill="url(#paint2_linear_3509_9257)"/>
<ellipse cx="28.8844" cy="20.2355" rx="28.8844" ry="20.2355" transform="matrix(0.98915 0.14691 -0.110211 0.993908 477.57 161.375)" fill="#E8D26F"/>
<path d="M527.336 197.21C527.114 199.207 512.207 205.189 501.721 203.632C491.236 202.075 479.067 191.308 479.288 189.311C479.509 187.314 492.038 194.843 502.523 196.401C513.008 197.958 527.557 195.213 527.336 197.21Z" fill="#E0C26B"/>
<path d="M270.679 203.562C376.023 327.668 578.212 777.27 567.258 1134.29L574.923 1036.63C627.983 634.683 434.111 439.409 286.829 183.744L270.679 203.562Z" fill="url(#paint3_linear_3509_9257)"/>
<path d="M204.03 116.658C121.386 128.55 103.733 137.664 97.3454 156.133C104.294 165.91 136.775 157.9 196.642 142.702C120.303 175.82 91.9356 191.387 99.9668 206.958C122.034 213.883 152.617 194.249 203.536 163.882C148.981 211.322 125.111 234.536 128.261 252.906C142.719 263.013 166.825 237.061 203.144 203.938C193.447 250.816 189.508 273.398 197.969 274.871C215.359 273.751 226.497 242.871 245.383 209.13C255.815 243.783 261.69 261.695 272.531 259.214C308.333 243.433 288.422 199.208 280.862 145.05C324.156 209.268 345.259 230.825 371.719 218.349C387.763 192.608 369.306 172.775 300.913 130.479C384.428 153.721 427.669 164.475 441.336 143.257C447.712 125.068 404.629 120.328 349.533 109.312L352.52 108.657C420.762 93.6842 459.871 85.1035 456.556 75.8818C448.238 62.542 412.241 71.8779 366.623 78.5566C399.001 54.8221 428.512 35.4222 428.637 28.975C418.97 12.2168 387.069 30.1382 334.491 57.7356L204.03 116.658Z" fill="url(#paint4_linear_3509_9257)"/>
<path d="M258.548 376.46C374.998 504.394 555.018 1026.85 580.767 1394.58L588.572 1304.38C643.699 883.22 422.763 623.169 274.938 355.666L258.548 376.46Z" fill="url(#paint5_linear_3509_9257)"/>
<path d="M427.383 256.224C421.922 274.987 404.764 293.847 322.814 309.836C267.963 312.38 246.552 322.433 229.084 359.184C183.854 368.124 112.832 379.996 103.861 367.086C100.091 358.041 107.493 343.563 174.906 325.214L177.857 324.411C122.28 316.15 79.0149 313.559 84.4785 295.076C97.0725 273.204 140.795 281.793 225.363 300.852C154.951 262.011 135.53 243.121 150.273 216.613C176.08 202.836 198.23 223.317 244.665 285.302C234.419 231.587 198.458 207.844 233.43 190.301C244.135 187.283 265.624 236.517 277.767 270.609C294.951 235.97 275.905 162.712 293.218 160.728C301.742 161.778 313.255 198.956 305.901 246.258C340.528 211.369 342.092 164.675 357.036 174.051C361.096 192.241 373.085 212.551 320.958 262.646C370.302 229.784 393.132 197.769 415.517 203.587C424.313 218.74 396.288 246.639 321.692 283.514C380.728 265.356 419.957 246.805 427.383 256.224Z" fill="url(#paint6_linear_3509_9257)"/>
<path d="M213.339 329.273C130.695 341.165 113.043 350.279 106.655 368.748C113.603 378.524 146.085 370.515 205.952 355.317C129.613 388.435 101.245 404.002 109.276 419.573C131.344 426.498 161.927 406.864 212.845 376.497C158.29 423.937 134.42 447.152 137.57 465.521C152.029 475.628 176.135 449.676 212.454 416.553C202.756 463.431 198.818 486.013 207.278 487.486C224.669 486.366 235.806 455.486 254.693 421.745C265.124 456.399 270.999 474.31 281.841 471.829C317.642 456.048 297.732 411.823 290.171 357.665C333.465 421.883 354.569 443.44 381.029 430.964C397.072 405.223 378.616 385.39 310.223 343.094C393.738 366.336 436.979 377.09 450.645 355.872C457.022 337.683 413.939 332.944 358.842 321.927L361.829 321.272C430.071 306.299 469.181 297.719 465.866 288.497C457.547 275.157 393.276 299.314 347.658 305.993C387.655 292.046 458.856 261.714 450.557 256.167C442.259 250.619 389.451 240.938 314.064 290.445L213.339 329.273Z" fill="url(#paint7_linear_3509_9257)"/>
<ellipse cx="274.039" cy="333.14" rx="39.511" ry="28.5427" transform="rotate(-20.99 274.039 333.14)" fill="#E8D26F"/>
<path d="M309.421 331.553C310.436 334.198 296.442 351.825 282.904 357.019C269.366 362.213 247.91 357.046 246.895 354.4C245.88 351.754 265.69 352.631 279.228 347.437C292.766 342.243 308.405 328.907 309.421 331.553Z" fill="#E0C26B"/>
<ellipse cx="246.676" cy="115.175" rx="39.511" ry="28.5427" transform="rotate(-20.99 246.676 115.175)" fill="#E8D26F"/>
<path d="M282.046 113.576C283.061 116.222 269.067 133.848 255.529 139.042C241.991 144.236 220.535 139.07 219.52 136.424C218.505 133.778 238.315 134.655 251.853 129.461C265.391 124.267 281.03 110.93 282.046 113.576Z" fill="#E0C26B"/>
<defs>
<linearGradient id="paint0_linear_3509_9257" x1="652.051" y1="298.637" x2="448.442" y2="831.1" gradientUnits="userSpaceOnUse">
<stop stop-color="#9BB86E"/>
<stop offset="1" stop-color="#405026"/>
</linearGradient>
<linearGradient id="paint1_linear_3509_9257" x1="436.555" y1="19.5306" x2="495.6" y2="279.884" gradientUnits="userSpaceOnUse">
<stop offset="0.413462" stop-color="white"/>
<stop offset="1" stop-color="#FFF5CF"/>
</linearGradient>
<linearGradient id="paint2_linear_3509_9257" x1="567.673" y1="343.867" x2="499.741" y2="59.6282" gradientUnits="userSpaceOnUse">
<stop offset="0.413462" stop-color="white"/>
<stop offset="1" stop-color="#FFF5CF"/>
</linearGradient>
<linearGradient id="paint3_linear_3509_9257" x1="456.769" y1="197.082" x2="717.499" y2="1082.17" gradientUnits="userSpaceOnUse">
<stop stop-color="#9BB86E"/>
<stop offset="1" stop-color="#405026"/>
</linearGradient>
<linearGradient id="paint4_linear_3509_9257" x1="284.62" y1="12.8339" x2="265.142" y2="279.773" gradientUnits="userSpaceOnUse">
<stop offset="0.519231" stop-color="white"/>
<stop offset="1" stop-color="#ECDEAC"/>
</linearGradient>
<linearGradient id="paint5_linear_3509_9257" x1="463.097" y1="369.361" x2="745.642" y2="1289.05" gradientUnits="userSpaceOnUse">
<stop stop-color="#9BB86E"/>
<stop offset="1" stop-color="#405026"/>
</linearGradient>
<linearGradient id="paint6_linear_3509_9257" x1="86.9342" y1="171.367" x2="337.561" y2="444.416" gradientUnits="userSpaceOnUse">
<stop offset="0.322115" stop-color="white"/>
<stop offset="1" stop-color="#FFF5CF"/>
</linearGradient>
<linearGradient id="paint7_linear_3509_9257" x1="451.639" y1="487.336" x2="174" y2="191.786" gradientUnits="userSpaceOnUse">
<stop offset="0.322115" stop-color="white"/>
<stop offset="1" stop-color="#FFF5CF"/>
</linearGradient>
</defs>
</svg>
