<svg width="303" height="387" viewBox="0 0 303 387" fill="none" xmlns="http://www.w3.org/2000/svg">
<path d="M87.6831 295.891C91.4492 260.004 95.2625 249.436 125.947 214.087C131.146 204.338 134.115 217.675 140.521 208.364C127.667 208.832 148.665 208.16 131.978 198.853C122.408 201.042 70.2188 215.202 66.7592 221.534C60.6438 232.727 69.7225 247.915 70.0527 263.517C73.6221 298.757 72.7921 315.63 69.0441 343.372C66.906 351.53 65.9514 356.043 68.6095 363.84C71.7401 368.833 72.5309 371.905 72.7121 377.612C72.3862 384.637 75.8004 381.93 77.7047 380.102C77.8109 379.81 77.2014 382.155 79.471 375.834C85.2021 371.252 83.4315 368.346 81.1756 363.22C78.3432 356.919 84.079 352.428 93.4784 344.521C97.3771 341.137 100.354 339.624 93.628 331.288C82.4515 317.995 83.2885 310.102 87.6831 295.891Z" fill="#DBCFC3"/>
<path d="M143.261 212.034C136.596 214.022 144.555 201.364 138.737 207.253C132.922 211.073 99.3613 218.055 95.0719 218.976L83.0379 222.013C77.2113 229.904 71.9761 236.149 77.3586 245.879C89.9982 260.447 94.0711 275.026 104.688 302.135C112.705 319.441 112.759 330.602 113.616 351.605C113.34 358.286 113.737 362.05 119.34 369.285C121.902 372.879 122.502 375.029 121.533 379.405L121.548 379.442C122.917 383.015 123.689 385.028 127.464 380.579C131.663 375.225 133.887 372.22 131.086 366.739C125.477 358.756 126.848 354.833 130.422 347.963C137.709 341.159 140.536 337.507 134.556 332.119C126.289 326.582 124.026 322.011 122.705 312.362C122.5 294.011 121.573 284.43 116.494 267.967C112.563 256.599 114.622 255.328 108.626 248.16L142.02 245.535C141.405 241.715 133.035 215.311 134.718 211C135.513 208.137 153.062 212.204 151.257 213.413C147.536 215.242 146.458 211.214 145.354 214.058C144.205 217.794 173.617 211.551 172.404 208.109C169.108 190.318 134.079 226.766 143.261 212.034Z" fill="#F0E0D1"/>
<path d="M108.764 120.736L118.229 131.707C122.541 138.11 122.286 141.562 117.853 147.686L107.442 164.429C111.55 160.765 108.613 161.791 117.101 156.849C123.154 153.497 126.662 151.799 134.818 151.457C136.628 151.381 137.932 151.504 140.709 152.026C151.849 159.052 158.955 167.212 170.652 177.225C175.478 181.339 178.061 183.656 187.696 187.537C198.653 190.256 204.934 191.473 216.178 192.775L244.901 196.319C248.497 198.562 250.521 199.392 254.239 199.24C259.62 197.305 262.285 197.832 267.018 199.161C270.813 198.12 272.067 197.378 268.68 195.097L260.751 193.698C259.073 192.646 259.266 191.791 260.379 190.123C263.266 187.871 265.254 186.869 271.454 187.025C274.691 187.505 276.45 187.169 279.252 185.677C281.378 184.314 280.984 183.447 279.761 182.507C281.961 180.454 281.913 179.972 278.181 180.574C279.744 178.959 279.734 178.463 275.103 179.216C271.203 180.317 268.632 180.455 264.549 180.314C261.848 180.474 260.338 180.686 257.758 181.859C249.626 185.297 245.305 186.162 238.219 186.469C225.901 184.128 219.522 182.638 212.501 178.292C204.726 172.747 200.238 169.857 190.147 168.478C178.619 163.852 173.667 158.707 165.677 148.247L150.336 131.085C147.476 127.882 144.893 126.451 139.468 124.281L132.609 119.988L125.971 112.317C119.498 116.925 115.782 119.152 108.764 120.736Z" fill="#F0E0D1"/>
<path d="M93.1691 79.1515C88.8029 84.4928 87.3256 87.4811 89.91 92.6881C83.6612 90.696 81.412 88.7547 79.4344 83.3508C78.3404 75.546 79.3819 71.3353 85.802 64.2038C93.855 58.8594 99.4853 58.0566 110.706 60.551C122.402 55.7017 127.605 56.7766 136.206 60.5897C135.707 58.0144 135.274 56.8209 135.433 53.1629C136.589 49.2659 136.74 47.1066 142.304 42.9581C149.228 39.1995 153.001 39.3028 159.75 41.1433L159.811 41.1823C164.063 43.8627 166.668 45.5051 168.297 52.5062L172.592 55.672C176.231 60.8768 176.902 63.9006 173.567 69.8054C166.745 78.8514 161.812 78.6431 152.957 77.9692C155.672 87.0471 156.808 92.1887 153.529 101.848C149.876 111.355 146.912 116.187 135.523 121.426L128.854 113.834C131.362 111.903 132.826 110.849 134.123 107.974L137.966 101.342C142.72 96.3198 145.338 93.4846 148.674 87.8623C149.542 86.5258 149.772 85.9665 147.349 86.6971L127.863 95.4522C126.309 97.4723 125.348 97.0505 123.64 96.3872C124.407 99.4094 124.625 101.1 124.455 104.222C122.779 108.983 122.226 111.614 122.752 116.027C124.794 122.421 126.69 125.002 134.299 123.961C132.086 126.237 130.775 127.289 124.023 128.245C115.794 123.662 114.082 118.407 115.187 105.186C114.433 97.0409 112.949 93.8948 108.032 92.09C100.068 88.9171 96.3893 86.478 93.1691 79.1515Z" fill="#7A504D" stroke="#563A38" stroke-width="0.535928"/>
<path d="M123.265 116.215C128.25 114.369 130.947 113.17 134.012 107.826C135.799 103.988 137.186 101.981 140.403 98.6788L148.614 87.8447C150.102 85.7708 149.59 85.689 147.495 86.6771L128.241 95.5238C126.535 96.5356 125.576 96.9059 123.723 96.6353C124.881 100.713 125.151 103.037 123.695 107.331C122.863 111.027 122.175 113.178 123.265 116.215Z" fill="#F0E0D1"/>
<path d="M86.4684 102.827C90.7065 99.6147 91.2797 97.3884 90.1031 92.9506C86.9654 87.2235 88.8467 84.3103 93.1837 79.1844C95.8053 85.701 98.8211 88.521 108.763 92.3853C115.021 97.0891 115.12 100.715 114.867 107.31C114.422 112.5 114.666 115.363 115.729 120.408C105.345 123.857 105.42 126.713 97.7263 126.813C94.2506 127.943 92.2238 126.423 92.2193 121.073C89.5271 119.808 89.1896 118.015 90.3894 116.686C90.5913 115.578 90.6485 116.053 90.1475 115.009C89.6466 113.966 87.1356 114.088 87.9142 111.718C88.5079 109.5 88.576 108.356 86.275 106.894C84.9407 105.419 84.6025 104.55 86.4684 102.827Z" fill="#F0E0D1"/>
<path d="M123.521 110.724C125.368 108.02 126.47 106.969 128.686 108.118C130.594 107.959 130.151 107.188 129.578 105.654C128.984 104.476 128.765 103.811 129.717 102.576L137.688 97.6227L144.31 91.0547L133.814 96.9435C130.591 99.0583 128.743 100.234 125.253 102.329C123.201 109.208 122.632 111.552 123.521 110.724Z" fill="#D5C5B6"/>
<path d="M159.506 246.042L189.802 264.726L181.825 256.469C181.474 253.995 181.564 252.929 184.813 254.829C189.565 258.695 196.75 258.875 210.177 258.923C192.651 252.018 186.765 247.902 174.941 240.643L191.686 243.39L175.899 238.331C156.284 235.846 148.801 229.209 135.638 217.102C145.132 231.629 157.761 238.966 187.675 251.585C177.738 253.431 171.562 252.04 159.506 246.042Z" fill="#D59C66"/>
<path d="M127.971 221.82C128.794 230.467 130.569 237.699 138.868 259.459C139.869 265.057 140.995 268.369 148.072 276.063C151.13 279.935 152.512 282.39 153.459 288.169C154.571 292.572 155.223 291.978 156.576 287.845C155.509 281.126 155.669 277.496 150.376 270.022C145.449 264.011 145.983 260.732 144.994 254.83C159.163 264.513 168.015 268.335 189.802 264.726L159.506 246.042C171.562 252.04 177.738 253.431 187.675 251.585C157.761 238.966 145.132 231.629 135.638 217.102C148.801 229.209 156.284 235.846 175.899 238.331L191.686 243.39L174.941 240.643C186.765 247.902 192.651 252.018 210.177 258.923C218.097 258.628 221.67 258.055 226.244 256.253C218.622 253.72 214.365 251.562 211.66 249.09C211.565 249.004 211.473 248.917 211.381 248.829C203.892 241.828 198.878 238.197 186.568 233.632C176.742 232.338 171.72 230.932 163.021 227.703C154.111 223.075 150.769 222.908 137.787 212.283C135.16 209.839 133.904 208.252 132.165 204.705C128.862 202.821 127.672 204.024 126.311 209.01C126.44 209.5 126.561 209.979 126.675 210.453C126.694 210.532 126.713 210.61 126.731 210.688C126.948 211.611 127.136 212.515 127.296 213.434C127.424 214.175 127.534 214.926 127.626 215.706C127.839 217.518 127.952 219.481 127.971 221.82Z" fill="#F7BB81"/>
<path d="M141.956 152.626C131.401 148.876 124.615 150.165 109.954 160.36C104.028 168.691 104.729 174.458 115.216 187.396C118.635 189.955 121.953 195.073 123.759 199.741C124.447 201.518 124.915 203.229 125.087 204.71L145.847 189.428L154.697 184.942C153.447 182.8 152.351 181.72 148.771 180.222C146.5 179.582 146.58 177.341 146.593 173.532L149.133 158.051L141.956 152.626Z" fill="#F7BB81"/>
<path d="M193.126 201.003C175.87 192.505 170.142 191.671 159.018 189.433C155.483 189.218 154.981 187.864 154.697 184.942L145.847 189.428L125.087 204.71C125.553 206.28 125.961 207.683 126.311 209.01C127.672 204.024 128.862 202.821 132.165 204.705C133.904 208.252 135.16 209.839 137.787 212.283C150.769 222.908 154.111 223.075 163.021 227.703C171.72 230.932 176.742 232.338 186.568 233.632C198.878 238.197 203.892 241.828 211.381 248.829C209.29 246.822 208.163 244.595 207.052 241.792C203.904 239.181 201.953 237.773 197.305 235.696L190.921 231.963C189.451 230.329 189.662 229.787 192.209 229.602C203.55 229.086 208.171 230.349 217.1 231.969C215.448 231.371 214.203 230.622 212.711 229.697C215.928 228.251 218.556 227.407 221.532 227.447L191.915 226.774C184.983 228.331 180.895 228.918 172.336 228.252C164.591 226.96 160.467 225.389 153.076 220.75L141.595 212.309C137.763 209.423 136.362 207.349 134.638 203.088C133.968 200.505 134.927 200.303 137.801 201.869C145.245 210.016 149.301 213.495 156.459 216.752C162.044 219.423 168.546 221.444 174.773 221.875C182.25 222.745 186.327 223.389 195.875 221.939L212.76 219.053L228.018 220.108C226.847 219.542 225.571 218.976 224.177 218.326C228.105 217.43 231.188 216.557 233.769 215.663L214.98 216.877L198.108 219.373C188.978 220.411 183.841 220.894 174.547 219.702C165.56 217.77 162.48 216.496 157.471 214.199C148.747 209.247 145.467 205.749 140.579 199.013C139.704 197.425 139.982 197.112 142.887 198.271C153.67 206.031 158.517 207.598 166.791 209.688C158.644 204.571 153.977 201.753 147.032 195.887C145.857 194.427 146.144 194.107 148.978 194.688C169.508 203.016 180.99 206.467 201.331 206.757C198.645 205.34 196.14 203.499 193.126 201.003Z" fill="#D59C66"/>
<path d="M207.052 241.792C217.152 242.389 221.983 241.053 229.776 237.012C231.445 235.29 231.521 234.48 227.944 233.646C222.421 233.331 219.375 232.794 217.1 231.969C208.171 230.349 203.55 229.086 192.209 229.602C189.662 229.787 189.451 230.329 190.921 231.963L197.305 235.696C201.953 237.773 203.904 239.181 207.052 241.792Z" fill="#F7BB81"/>
<path d="M248.146 208.422C250.217 206.302 249.593 205.86 246.034 206.171C230.12 209.811 223.602 210.233 212.879 210.411C207.992 209.534 204.533 208.447 201.331 206.757C180.99 206.467 169.508 203.016 148.978 194.688C146.144 194.107 145.857 194.427 147.032 195.887C153.977 201.753 158.644 204.571 166.791 209.688C158.517 207.598 153.67 206.031 142.887 198.271C139.982 197.112 139.704 197.425 140.579 199.013C145.467 205.749 148.747 209.247 157.471 214.199C162.48 216.496 165.56 217.77 174.547 219.702C183.841 220.894 188.978 220.411 198.108 219.373L214.98 216.877L233.769 215.663C239.854 213.557 243.147 211.336 248.146 208.422Z" fill="#F7BB81"/>
<path d="M232.459 230.508C237.624 233.922 238.387 233.567 237.249 230.01C235.034 224.146 232.184 222.122 228.018 220.108L212.76 219.053L195.875 221.939C186.327 223.389 182.25 222.745 174.773 221.875C168.546 221.444 162.044 219.423 156.459 216.752C149.301 213.495 145.245 210.016 137.801 201.869C134.927 200.303 133.968 200.505 134.638 203.088C136.362 207.349 137.763 209.423 141.595 212.309L153.076 220.75C160.467 225.389 164.591 226.96 172.336 228.252C180.895 228.918 184.983 228.331 191.915 226.774L221.532 227.447C224.513 227.487 227.842 228.414 232.459 230.508Z" fill="#F7BB81"/>
<path d="M110.176 213.375C116.848 220.065 120.665 222.472 127.971 221.82C127.952 219.481 127.839 217.518 127.626 215.706C125.645 218.104 120.571 216.736 110.176 213.375Z" fill="#F7BB81"/>
<path d="M127.296 213.434C127.136 212.515 126.948 211.611 126.731 210.688C126.713 210.61 126.694 210.532 126.675 210.453C125.882 209.93 119.912 209.907 103.066 210.298C112.651 212.872 117.865 213.549 127.296 213.434Z" fill="#F7BB81"/>
<path d="M104.984 205.012C114.68 204.388 120.434 201.352 125.087 204.71C124.915 203.229 124.447 201.518 123.759 199.741C110.236 198.328 107.5 202.984 104.984 205.012Z" fill="#F7BB81"/>
<path fill-rule="evenodd" clip-rule="evenodd" d="M115.266 205.225C119.018 203.824 121.423 202.925 125.087 204.71C119.799 205.089 116.749 205.453 112.986 207.207C119.167 206.94 122.433 207.006 126.311 209.01C97.3454 209.107 99.7747 208.787 104.165 208.209L104.262 208.196C109.24 207.476 112.595 206.223 115.266 205.225Z" fill="#F7BB81"/>
<path d="M126.311 209.01C125.961 207.683 125.553 206.28 125.087 204.71C119.799 205.089 116.749 205.453 112.986 207.207C119.167 206.94 122.433 207.006 126.311 209.01Z" fill="#D59C66"/>
<path d="M183.603 167.387C222.096 166.293 238.153 161.125 259.011 145.703C268.887 136.489 268.119 132.35 258.688 126.359C237.6 119.635 228.225 123.334 210.193 125.868C241.687 108.286 255.766 95.3979 276.509 68.5256L288.401 46.8347C291.993 34.2842 288.695 30.8766 276.734 29.286C264.144 28.1036 257.974 30.8926 247.229 35.7501L246.821 35.9344L253.363 16.0304C254.212 1.7105 247.842 2.20765 232.813 7.71157C197.286 26.8861 194.896 40.3064 178.028 63.5459C163.625 87.9163 153.989 99.9149 147.206 132.42L147.693 132.959C162.504 149.382 170.961 158.76 183.603 167.387Z" fill="#D9D9D9"/>
<path d="M157.308 142.847C215.69 98.4886 221.791 76.8107 246.999 36.4265C209.316 61.3553 185 67.3466 152.351 136.913L157.308 142.847Z" fill="#D1C3C3"/>
<path d="M162.998 149.337C181.281 141.714 190.821 136.142 207.762 125.979C188.225 129.786 177.416 133.186 158.743 144.634L162.998 149.337Z" fill="#D1C3C3"/>
<path d="M94.7415 91.1148C97.8557 88.3978 99.6422 88.0029 103.44 89.3341" stroke="#6F524D" stroke-width="0.535928"/>
<path d="M96.0361 101.864C96.9822 103.431 101.194 106.318 103.49 100.121C99.8712 98.748 100.825 98.0616 103.727 96.8726C102.92 96.4365 102.385 95.8509 101.829 94.7916C98.6661 93.9225 96.953 95.2116 95.5034 97.3104C95.3595 98.8846 95.1327 100.681 96.0361 101.864Z" fill="#6B4644"/>
<path d="M101.204 93.4435C98.6458 92.9435 97.015 93.6843 95.7542 95.4029C95.642 96.1086 95.5564 96.7301 95.5034 97.3104C96.953 95.2116 98.6661 93.9225 101.829 94.7916C101.628 94.4091 101.424 93.9648 101.204 93.4435Z" fill="#855855"/>
<path d="M107.276 97.5233L109.623 95.6726C109.85 95.4751 109.811 95.4151 107.388 95.9898L104.938 94.8362C104.219 94.5743 101.811 93.5621 101.204 93.4435C101.424 93.9648 101.628 94.4091 101.829 94.7916C103.294 95.1943 105.07 96.0601 107.276 97.5233Z" fill="#855855"/>
<path d="M95.7542 95.4029C94.7416 96.7832 93.9678 98.7942 93.1439 101.3C93.9831 99.8744 94.7031 98.469 95.5034 97.3104C95.5564 96.7301 95.642 96.1086 95.7542 95.4029Z" fill="#855855"/>
<path d="M107.388 95.9898C109.811 95.4151 109.85 95.4751 109.623 95.6726L107.276 97.5233C105.07 96.0601 103.294 95.1943 101.829 94.7916M107.388 95.9898C105.793 95.1092 106.155 95.2794 104.938 94.8362M107.388 95.9898L104.938 94.8362M107.388 95.9898C109.137 95.124 109.438 94.6723 109.243 93.9027M107.16 99.105C105.019 104.276 102.287 105.466 95.7192 104.64M104.938 94.8362C107.004 95.047 106.907 94.7532 107.254 93.5395M104.938 94.8362C104.219 94.5743 101.811 93.5621 101.204 93.4435M95.7542 95.4029C94.7416 96.7832 93.9678 98.7942 93.1439 101.3C93.9831 99.8744 94.7031 98.469 95.5034 97.3104M95.7542 95.4029C97.015 93.6843 98.6458 92.9435 101.204 93.4435M95.7542 95.4029C95.642 96.1086 95.5564 96.7301 95.5034 97.3104M101.204 93.4435C101.424 93.9648 101.628 94.4091 101.829 94.7916M101.829 94.7916C98.6661 93.9225 96.953 95.2116 95.5034 97.3104M101.829 94.7916C102.385 95.8509 102.92 96.4365 103.727 96.8726C100.825 98.0616 99.8712 98.748 103.49 100.121C101.194 106.318 96.9822 103.431 96.0361 101.864C95.1327 100.681 95.3595 98.8846 95.5034 97.3104M103.189 94.0126C105.255 94.2235 105.627 93.6999 105.974 92.4861" stroke="#905A50" stroke-width="0.535928"/>
<circle cx="107.405" cy="107.34" r="4.17235" transform="rotate(4.17341 107.405 107.34)" fill="#EEBDA8"/>
</svg>
