<svg width="572" height="1257" viewBox="0 0 572 1257" fill="none" xmlns="http://www.w3.org/2000/svg">
<path d="M258.548 237.464C374.998 365.398 555.018 887.851 580.767 1255.59L588.572 1165.38C643.699 744.224 422.762 484.173 274.938 216.669L258.548 237.464Z" fill="url(#paint0_linear_3413_1936)"/>
<path d="M427.383 117.232C421.922 135.995 404.764 154.854 322.814 170.844C267.963 173.388 246.552 183.441 229.084 220.192C183.854 229.132 112.832 241.004 103.861 228.094C100.091 219.049 107.493 204.571 174.906 186.222L177.857 185.419C122.28 177.157 79.0149 174.567 84.4785 156.084C97.0724 134.212 140.795 142.801 225.363 161.86C154.951 123.019 135.53 104.129 150.273 77.6213C176.08 63.8437 198.23 84.3249 244.665 146.309C234.419 92.5947 198.458 68.8515 233.43 51.3085C244.135 48.2911 265.624 97.5252 277.767 131.617C294.951 96.978 275.905 23.7194 293.218 21.7355C301.742 22.7859 313.255 59.9634 305.901 107.265C340.527 72.3768 342.092 25.6831 357.036 35.0583C361.096 53.2486 373.085 73.5586 320.958 123.654C370.302 90.7913 393.132 58.7766 415.517 64.5952C424.313 79.748 396.288 107.647 321.691 144.522C380.728 126.364 419.957 107.813 427.383 117.232Z" fill="url(#paint1_linear_3413_1936)"/>
<path d="M213.339 190.281C130.695 202.173 113.043 211.287 106.655 229.756C113.603 239.532 146.085 231.523 205.952 216.325C129.613 249.443 101.245 265.01 109.276 280.581C131.344 287.506 161.927 267.871 212.845 237.504C158.29 284.944 134.42 308.159 137.57 326.529C152.029 336.636 176.135 310.684 212.454 277.561C202.756 324.439 198.818 347.021 207.278 348.494C224.669 347.374 235.806 316.494 254.693 282.753C265.124 317.406 270.999 335.318 281.841 332.837C317.642 317.056 297.732 272.83 290.171 218.673C333.465 282.89 354.569 304.448 381.029 291.972C397.072 266.231 378.615 246.397 310.223 204.101C393.738 227.344 436.979 238.098 450.645 216.88C457.022 198.691 413.939 193.951 358.842 182.935L361.829 182.28C430.071 167.307 469.181 158.727 465.866 149.505C457.547 136.165 393.276 160.322 347.658 167C387.655 153.054 458.856 122.722 450.557 117.175C442.259 111.627 389.45 101.946 314.064 151.452L213.339 190.281Z" fill="url(#paint2_linear_3413_1936)"/>
<ellipse cx="274.039" cy="194.144" rx="39.511" ry="28.5427" transform="rotate(-20.99 274.039 194.144)" fill="#E8D26F"/>
<path d="M309.421 192.556C310.436 195.202 296.442 212.829 282.904 218.023C269.366 223.217 247.91 218.05 246.895 215.404C245.88 212.758 265.69 213.635 279.228 208.441C292.766 203.247 308.405 189.911 309.421 192.556Z" fill="#E0C26B"/>
<defs>
<linearGradient id="paint0_linear_3413_1936" x1="463.096" y1="230.365" x2="745.642" y2="1150.06" gradientUnits="userSpaceOnUse">
<stop stop-color="#9BB86E"/>
<stop offset="1" stop-color="#405026"/>
</linearGradient>
<linearGradient id="paint1_linear_3413_1936" x1="86.9342" y1="32.3746" x2="337.561" y2="305.423" gradientUnits="userSpaceOnUse">
<stop offset="0.322115" stop-color="white"/>
<stop offset="1" stop-color="#FFF5CF"/>
</linearGradient>
<linearGradient id="paint2_linear_3413_1936" x1="451.639" y1="348.344" x2="174" y2="52.7937" gradientUnits="userSpaceOnUse">
<stop offset="0.322115" stop-color="white"/>
<stop offset="1" stop-color="#FFF5CF"/>
</linearGradient>
</defs>
</svg>
