<svg width="125" height="131" viewBox="0 0 125 131" fill="none" xmlns="http://www.w3.org/2000/svg">
<path d="M55.1338 5.07715C61.3608 2.21959 68.551 2.35528 74.666 5.44531L98.6484 17.5645C103.435 19.9834 107.201 24.0326 109.267 28.9824L120.528 55.9756C122.85 61.5398 122.841 67.8027 120.504 73.3604L109.162 100.332C107.158 105.098 103.575 109.028 99.0137 111.462L75.0889 124.228C68.7422 127.614 61.1582 127.761 54.6846 124.624L27.123 111.269C22.3495 108.955 18.5465 105.03 16.3857 100.186L4.61816 73.8018C2.02613 67.9898 2.01662 61.3517 4.5918 55.5322L16.2812 29.1162C18.5027 24.0961 22.4833 20.0612 27.4727 17.7715L55.1338 5.07715Z" fill="white" stroke="#B85172"/>
<path d="M54.9434 13.0293C60.8936 10.2987 67.7641 10.4282 73.6074 13.3809L93.0488 23.2051C97.6228 25.5165 101.221 29.3856 103.194 34.1152L112.488 56.3916C114.707 61.7086 114.698 67.6941 112.465 73.0049L103.088 95.3047C101.173 99.8585 97.748 103.614 93.3896 105.939L74.0098 116.28C67.9452 119.516 60.6986 119.658 54.5127 116.66L31.9023 105.703C27.3408 103.493 23.7063 99.7416 21.6416 95.1123L11.9697 73.4258C9.49299 67.8722 9.48369 61.5295 11.9443 55.9688L21.5361 34.2939C23.6589 29.497 27.4619 25.641 32.2295 23.4531L54.9434 13.0293Z" stroke="#B85172" stroke-width="5"/>
</svg>
