<svg width="71" height="77" viewBox="0 0 71 77" fill="none" xmlns="http://www.w3.org/2000/svg">
<path d="M39.3652 27.179C38.9481 9.95411 37.5402 2.95511 29.1819 3.43105C19.0957 7.82612 23.0801 15.6342 27.9223 28.3022C11.7589 20.8588 5.42468 19.6928 2.1444 26.6692C1.7163 35.3851 9.2095 37.3757 23.9246 40.3758C7.12208 50.7441 3.62376 55.4262 9.26594 61.5079C15.9248 66.5254 21.5295 60.5684 31.7393 49.0864C31.7045 67.653 33.3171 73.7666 40.8757 72.7707C51.0499 71.5827 48.2314 63.1245 43.2322 48.1224L43.1793 47.9635C59.4754 55.6623 64.2238 54.9555 68.7512 49.0077C69.3067 40.959 63.6165 38.3776 47.3377 36.0055C63.8476 24.565 66.8145 20.2859 63.0661 15.2114C56.2939 9.71688 50.7157 13.7865 39.3652 27.179Z" fill="white"/>
<circle cx="35.5015" cy="38.0573" r="6.96701" transform="rotate(174.394 35.5015 38.0573)" fill="#EDD87B"/>
</svg>
