<svg width="82" height="95" viewBox="0 0 82 95" fill="none" xmlns="http://www.w3.org/2000/svg">
<path d="M0.00250752 0.00179079L6.45173 0.00179135L19.5732 9.67781C44.3651 -3.68883 51.9331 -1.68419 61.8296 7.12044C52.1232 15.408 43.4643 16.6587 24.6874 15.3493C32.6839 24.658 36.2582 30.4193 41.701 41.0361L38.5874 42.3698L29.6914 26.9146C28.8064 47.9262 24.6011 51.6792 16.9034 57.9395C10.864 41.8539 12.3738 33.8821 25.3546 22.1324C18.1866 12.5736 12.0479 7.90472 0.00250752 0.00179079Z" fill="#7B9C5E"/>
<path d="M39.4019 85.99C29.2909 61.2668 26.3268 49.0904 42.865 40.7866C61.2799 35.0622 66.7716 45.8042 74.7557 70.4157L60.9855 66.4767C61.1041 87.1187 57.8123 87.6303 47.7075 74.0773L39.4019 85.99Z" fill="#F7E498"/>
</svg>
