<svg width="89" height="77" viewBox="0 0 89 77" fill="none" xmlns="http://www.w3.org/2000/svg">
<path d="M88.5992 51.7602H82.5836C67.1322 46.9077 60.1649 47.2336 48.9907 50.1002C36.5505 72.7357 27.8695 73.423 12.5977 76.1257C15.9444 58.9147 25.3574 52.0748 54.4845 45.0199C44.6396 40.6205 41.1483 38.0011 39.3463 32.9939C48.1074 30.6952 53.4176 32.3934 64.0236 43.3601C75.3066 45.9229 80.7037 47.6787 88.5992 51.7602Z" fill="#7B9C5E"/>
<path d="M30.2894 24.3624C24.2977 14.2954 21.1292 10.6179 16.3355 13.6875C11.825 19.6554 16.7899 22.9531 23.8838 28.8442C11.8243 29.8244 7.68226 31.2461 8.0653 36.4737C10.7185 41.7809 15.8222 40.4613 25.5418 37.3313C19.0438 49.0785 18.5325 53.0194 23.9039 54.7413C29.5228 55.4935 30.857 50.0947 33.0772 39.8863C39.2486 50.899 42.243 53.9836 46.3896 50.8727C52.0217 46.7756 47.5309 42.704 39.5654 35.4821L39.4811 35.4057C51.7045 34.5325 54.2823 32.5301 54.9812 27.4959C52.6261 22.5417 48.3937 22.9099 37.9569 26.9334C43.924 14.6485 44.2548 11.1236 40.3414 9.36697C34.4963 8.36991 32.5483 12.6416 30.2894 24.3624Z" fill="white"/>
<circle cx="31.6295" cy="32.096" r="4.73709" transform="rotate(145.021 31.6295 32.096)" fill="#EDD87B"/>
</svg>
