<svg width="57" height="95" viewBox="0 0 57 95" fill="none" xmlns="http://www.w3.org/2000/svg">
<path d="M40.0293 94.4555C39.2781 91.0054 38.8291 89.0189 37.9713 85.2891C51.4751 77.6285 53.2915 72.2384 52.5102 61.8589C44.5034 64.4659 41.1108 68.1578 36.1419 77.5513C36.4245 66.2509 35.4269 60.3067 33.9592 49.639L30.5239 50.3576C32.2836 60.4925 32.6267 65.3269 32.0814 72.4246C23.4304 59.3862 18.4264 56.7424 9.404 56.7791C11.8257 68.7555 14.2655 74.9702 32.7933 79.6931C34.7904 85.5963 35.4872 88.8012 35.4929 94.2795L40.0293 94.4555Z" fill="#7B9C5E"/>
<path d="M38.7232 9.52749C46.1113 33.7154 47.9495 45.3107 32.6253 50.2958C15.7962 52.6278 11.605 41.9455 6.10925 18.1946L18.1473 23.9629C19.4134 5.07857 22.3877 5.12936 30.5127 19.1072L38.7232 9.52749Z" fill="#EAADAE"/>
</svg>
