<svg width="74" height="80" viewBox="0 0 74 80" fill="none" xmlns="http://www.w3.org/2000/svg">
<path d="M30.8615 50.4008C28.2034 68.5385 28.422 76.1309 37.2724 77.1339C48.639 74.3376 45.864 65.4337 43.0628 51.2794C58.6747 61.9895 65.1075 64.3505 69.8011 57.6242C71.8164 48.5613 64.3164 45.1274 49.4247 39.3368C68.9078 31.4838 73.4177 27.2027 68.594 19.8112C62.5129 13.353 55.5651 18.5925 42.7952 28.7982C46.1683 9.33478 45.576 2.634 37.4707 2.31996C26.5882 1.73744 28.0238 11.1135 30.5701 27.7438L30.597 27.9198C14.8918 16.9181 9.78545 16.8058 3.96888 22.2294C1.94002 30.5697 7.44302 34.2992 24.0874 39.7122C4.71842 48.7422 0.838261 52.6962 3.85707 58.6912C9.97123 65.67 16.5521 62.4049 30.8615 50.4008Z" fill="white"/>
<circle cx="36.882" cy="39.6912" r="7.4124" transform="rotate(4.1186 36.882 39.6912)" fill="#EDD87B"/>
</svg>
