<svg width="133" height="133" viewBox="0 0 133 133" fill="none" xmlns="http://www.w3.org/2000/svg">
<path d="M22.6201 53.1755C51.7728 59.5753 63.6872 65.477 73.8749 81.5918C64.3643 109.567 70.858 115.666 79.7168 128.801C92.6624 112.668 86.0618 101.157 76.2551 81.0048L70.531 71.5155C79.4366 75.442 83.7822 75.8598 89.7558 71.7168C80.1776 62.2031 74.7342 62.1637 64.982 64.1414L48.2264 56.4393C36.5353 35.9919 30.5213 30.3348 20.7775 29.8706C19.5561 38.1206 22.4958 43.0934 29.4062 52.1196L21.1803 51.6258L22.6201 53.1755Z" fill="#7B9C5E"/>
<path d="M107.361 82.3272C116.29 75.1798 119.421 71.6215 115.808 67.3984C109.431 63.8388 106.909 69.0833 102.166 76.7352C99.5967 65.205 97.6652 61.3906 92.6614 62.4637C87.8858 65.7427 89.8479 70.5008 94.1811 79.4793C81.9478 74.7745 78.0681 74.8098 77.125 80.2355C77.1529 85.7703 82.553 86.3348 92.7233 87.1097C82.9032 94.558 80.3227 97.8683 83.8884 101.46C88.6075 106.356 91.9413 101.466 97.8544 92.7921L97.917 92.7002C100.404 104.403 102.687 106.627 107.649 106.626C112.124 103.683 111.199 99.6393 105.905 90.0875C118.587 94.2066 122.04 94.0527 123.213 90.0322C123.391 84.2458 118.999 82.9362 107.361 82.3272Z" fill="white"/>
<circle cx="100.055" cy="84.663" r="4.62496" transform="rotate(-132.893 100.055 84.663)" fill="#EDD87B"/>
</svg>
