<svg width="82" height="95" viewBox="0 0 82 95" fill="none" xmlns="http://www.w3.org/2000/svg">
<path d="M81.163 95.0041H74.7138L61.5924 85.3281C36.8004 98.6947 29.2324 96.6901 19.3359 87.8854C29.0423 79.5978 37.7013 78.3471 56.4782 79.6566C48.4816 70.3479 44.9074 64.5866 39.4646 53.9698L42.5782 52.6361L51.4742 68.0913C52.3592 47.0797 56.5644 43.3267 64.2622 37.0664C70.3015 53.152 68.7918 61.1237 55.811 72.8735C62.979 82.4322 69.1177 87.1011 81.163 95.0041Z" fill="#7B9C5E"/>
<path d="M41.7636 9.01587C51.8747 33.7391 54.8387 45.9154 38.3006 54.2193C19.8856 59.9437 14.394 49.2017 6.40982 24.5902L20.1801 28.5291C20.0614 7.88719 23.3533 7.37559 33.4581 20.9285L41.7636 9.01587Z" fill="#F7E498"/>
</svg>
