<svg width="52" height="55" viewBox="0 0 52 55" fill="none" xmlns="http://www.w3.org/2000/svg">
<path d="M28.5219 29.5634L32.2954 32.5834C23.9175 38.6438 20.883 36.5727 19.0125 24.7001C27.413 17.6421 30.959 18.2925 34.7433 29.5226L28.5219 29.5634Z" fill="#EAC2C6"/>
<path d="M12.0416 31.138C15.9879 37.808 18.8171 40.3906 25.9109 41.3918L25.8911 41.406C21.8724 44.273 19.6139 45.8843 15.1006 42.1474C9.88826 36.7986 10.9352 34.8394 12.0416 31.138Z" fill="#EAC2C6"/>
<path d="M14.8093 30.0332C16.7633 17.794 20.4838 14.0741 33.8191 15.3824C26.8342 10.8444 22.8954 9.42281 15.7973 13.8516C11.3694 19.7781 11.8338 23.4047 14.8093 30.0332Z" fill="#EAC2C6"/>
<path d="M33.2118 19.5466C40.4818 30.4297 40.3788 35.5124 27.7915 41.6661C34.595 42.9937 38.4392 43.899 43.4744 35.7221C44.4405 28.5062 39.808 25.3965 33.2118 19.5466Z" fill="#EAC2C6"/>
<path fill-rule="evenodd" clip-rule="evenodd" d="M14.5716 45.7743C21.2578 55.9164 25.8212 57.5395 36.1162 50.4251C46.2036 51.6095 49.7514 49.4761 47.9877 34.8719C55.8917 13.0614 50.182 9.46581 35.0141 7.18811C26.0794 -3.04841 21.248 -1.50157 12.4777 6.50817C-4.4889 12.8185 -0.913489 19.6797 4.418 31.6723C1.32691 42.4563 2.55008 46.2915 14.5716 45.7743ZM33.8191 15.3824C20.4838 14.0741 16.7633 17.794 14.8093 30.0332C11.8338 23.4047 11.3694 19.7781 15.7973 13.8516C22.8954 9.42281 26.8342 10.8444 33.8191 15.3824ZM25.9109 41.3918C18.8171 40.3906 15.9879 37.808 12.0416 31.138C10.9352 34.8394 9.88826 36.7986 15.1006 42.1474C19.6139 45.8843 21.8724 44.273 25.8911 41.406L25.9109 41.3918ZM27.7915 41.6661C40.3788 35.5124 40.4818 30.4297 33.2118 19.5466C39.808 25.3965 44.4405 28.5062 43.4744 35.7221C38.4392 43.899 34.595 42.9937 27.7915 41.6661ZM32.2954 32.5834L28.5219 29.5634L34.7433 29.5226C30.959 18.2925 27.413 17.6421 19.0125 24.7001C20.883 36.5727 23.9175 38.6438 32.2954 32.5834Z" fill="#F5E7E8"/>
</svg>
