<svg width="48" height="52" viewBox="0 0 48 52" fill="none" xmlns="http://www.w3.org/2000/svg">
<path d="M27.6961 18.7106C29.4126 6.99766 29.2714 2.09461 23.5561 1.44692C16.2157 3.2527 18.0078 9.00264 19.8168 18.1432C9.7349 11.2269 5.58072 9.70216 2.54972 14.0458C1.24831 19.8985 6.09162 22.1161 15.7084 25.8554C3.1266 30.9268 0.21422 33.6914 3.32924 38.4647C7.25631 42.6353 11.743 39.2517 19.9895 32.6611C17.8113 45.2301 18.1938 49.5574 23.428 49.7602C30.4557 50.1363 29.5286 44.0815 27.8843 33.342L27.8669 33.2283C38.009 40.333 41.3066 40.4055 45.0628 36.9031C46.373 31.517 42.8192 29.1086 32.0706 25.613C44.5787 19.7817 47.0845 17.2282 45.135 13.3568C41.1866 8.85002 36.9368 10.9586 27.6961 18.7106Z" fill="white"/>
<circle cx="23.8113" cy="25.6284" r="4.78677" transform="rotate(-175.881 23.8113 25.6284)" fill="#EDD87B"/>
</svg>
