<svg width="57" height="95" viewBox="0 0 57 95" fill="none" xmlns="http://www.w3.org/2000/svg">
<path d="M16.4824 0.446837C17.2336 3.89693 17.6826 5.88342 18.5404 9.61327C5.0366 17.2738 3.22021 22.6639 4.00151 33.0434C12.0083 30.4364 15.4009 26.7445 20.3699 17.351C20.0873 28.6515 21.0848 34.5956 22.5525 45.2634L25.9878 44.5448C24.2281 34.4098 23.885 29.5754 24.4303 22.4778C33.0813 35.5162 38.0853 38.16 47.1077 38.1233C44.686 26.1469 42.2463 19.9321 23.7184 15.2093C21.7213 9.30607 21.0245 6.10114 21.0188 0.622834L16.4824 0.446837Z" fill="#7B9C5E"/>
<path d="M17.7885 85.3749C10.4004 61.187 8.56222 49.5917 23.8864 44.6066C40.7155 42.2745 44.9067 52.9569 50.4025 76.7078L38.3644 70.9394C37.0983 89.8238 34.124 89.773 25.999 75.7951L17.7885 85.3749Z" fill="#EAADAE"/>
</svg>
