<svg width="74" height="79" viewBox="0 0 74 79" fill="none" xmlns="http://www.w3.org/2000/svg">
<path d="M33.255 50.1622C34.3395 67.3579 36.0177 74.2971 44.3513 73.4975C54.2595 68.7147 49.9754 61.067 44.6457 48.5962C61.0855 55.4074 67.4602 56.3269 70.4675 49.2286C70.5574 40.5027 62.9927 38.8041 48.1723 36.3767C64.5603 25.3648 67.8745 20.5506 62.0008 14.6922C55.1524 9.93666 49.7829 16.1064 40.0258 27.9756C39.3408 9.42161 37.4925 3.37509 29.9781 4.66324C19.8577 6.24485 23.002 14.5874 28.5789 29.3844L28.638 29.5411C12.0557 22.4799 7.33827 23.3702 3.04479 29.4891C2.8018 37.5532 8.58771 39.9121 24.9463 41.6514C8.89225 53.7232 6.09351 58.1142 10.0358 63.0396C17.0159 68.2674 22.4321 63.9846 33.255 50.1622Z" fill="white"/>
<circle cx="36.7064" cy="39.1444" r="6.96701" transform="rotate(-7.82763 36.7064 39.1444)" fill="#EDD87B"/>
</svg>
