<svg width="65" height="76" viewBox="0 0 65 76" fill="none" xmlns="http://www.w3.org/2000/svg">
<path d="M34.1421 43.0852C29.7251 56.6158 25.8451 62.0735 17.4233 69.5735C16.2143 49.3269 13.66 41.2103 3.96204 35.5938C-2.26714 48.4132 -2.33115 56.5728 12.4297 75.546C24.7073 70.5544 30.5023 64.819 37.3994 45.5824L34.1421 43.0852Z" fill="#7B9C5E"/>
<path d="M27.7032 31.8388C24.6862 19.5136 29.1499 17.4959 40.2338 16.3729C48.0269 26.2651 53.6409 32.1293 32.158 34.4916C45.5026 40.2279 49.2685 35.8337 51.8983 19.7746C49.2998 14.9439 47.4307 12.8643 40.3039 14.5659C36.1563 9.78408 33.6035 9.71856 28.8805 13.5865C19.9482 19.7183 18.301 23.564 27.7032 31.8388Z" fill="#A9586F"/>
<path d="M42.9015 28.8479C45.1461 24.4787 43.7192 22.2753 38.6712 20.4662C35.7634 22.5435 35.8421 24.0385 38.4152 27.066C40.4829 29.1783 41.3928 29.5488 42.9015 28.8479Z" fill="#AA586F"/>
<path fill-rule="evenodd" clip-rule="evenodd" d="M32.4786 42.1171C54.4948 56.8705 59.1597 52.4579 59.4984 31.5703C65.9293 21.3282 65.8255 16.6405 53.038 11.9332C43.6808 -1.2459 37.8008 -2.32747 26.0166 7.84374C14.9944 8.41897 11.1641 10.7932 13.6388 23.1394C7.83066 40.008 13.4833 43.1033 32.4786 42.1171ZM40.2338 16.3729C29.1499 17.4959 24.6862 19.5136 27.7032 31.8388C18.301 23.564 19.9482 19.7183 28.8805 13.5865C33.6035 9.71856 36.1563 9.78408 40.3039 14.5659C47.4307 12.8643 49.2998 14.9439 51.8983 19.7746C49.2685 35.8337 45.5026 40.2279 32.158 34.4916C53.6409 32.1293 48.0269 26.2651 40.2338 16.3729ZM38.6712 20.4662C43.7192 22.2753 45.1461 24.4787 42.9015 28.8479C41.3928 29.5488 40.4829 29.1783 38.4152 27.066C35.8421 24.0385 35.7634 22.5435 38.6712 20.4662Z" fill="#E2A2A3"/>
</svg>
