<svg width="116" height="69" viewBox="0 0 116 69" fill="none" xmlns="http://www.w3.org/2000/svg">
<path d="M97.1615 9.64159C72.6308 26.644 60.1977 31.356 41.4575 27.8517C27.435 1.84315 18.5474 2.44996 2.89453 0C5.903 20.4649 18.8288 23.4638 40.2675 29.995L51.1157 32.26C42.1776 36.112 38.9138 39.0114 37.8833 46.2076C51.3725 45.6656 55.1063 41.7045 60.2949 33.2136L77.342 26.1802C100.28 31.532 108.518 30.9763 115.49 24.1536C110.277 17.6436 104.633 16.4127 93.3163 15.332L99.2768 9.64159H97.1615Z" fill="#7B9C5E"/>
<path d="M18.1286 51.872C17.2871 63.2789 17.7634 67.9942 23.3163 68.2218C30.2649 65.9722 28.1389 60.5553 25.7613 51.872C35.9571 57.8377 40.0663 59.0188 42.6859 54.6225C43.5339 48.892 38.7125 47.091 29.1853 44.1546C40.9585 38.3943 43.5733 35.5279 40.2402 31.144C36.1662 27.3974 32.0772 30.9695 24.5873 37.8931C25.8143 25.6291 25.1454 21.4855 20.0871 21.6533C13.2884 21.7785 14.602 27.5492 16.9319 37.7847L16.9566 37.8931C6.68956 31.7501 3.50666 31.9091 0.129834 35.545C-0.759051 40.8265 2.8328 42.9009 13.4338 45.5237C1.78441 52.0113 -0.453166 54.646 1.69421 58.2416C5.81202 62.3108 9.76122 59.9839 18.1286 51.872Z" fill="white"/>
<circle cx="21.3867" cy="44.9375" r="4.62496" fill="#EDD87B"/>
</svg>
