<svg width="65" height="76" viewBox="0 0 65 76" fill="none" xmlns="http://www.w3.org/2000/svg">
<path d="M30.3032 32.4639C34.7202 18.9333 38.6002 13.4755 47.022 5.97558C48.231 26.2222 50.7853 34.3388 60.4833 39.9553C66.7124 27.1359 66.7765 18.9763 52.0156 0.00306394C39.738 4.99474 33.943 10.7301 27.0458 29.9667L30.3032 32.4639Z" fill="#7B9C5E"/>
<path d="M36.7421 43.7103C39.7591 56.0355 35.2954 58.0532 24.2115 59.1762C16.4184 49.284 10.8044 43.4198 32.2873 41.0575C18.9427 35.3211 15.1768 39.7154 12.547 55.7745C15.1455 60.6052 17.0146 62.6848 24.1414 60.9832C28.289 65.765 30.8418 65.8305 35.5648 61.9626C44.4971 55.8308 46.1443 51.9851 36.7421 43.7103Z" fill="#A9586F"/>
<path d="M21.5438 46.7012C19.2992 51.0704 20.7261 53.2738 25.7741 55.0829C28.6819 53.0056 28.6032 51.5106 26.0301 48.483C23.9624 46.3708 23.0525 46.0003 21.5438 46.7012Z" fill="#AA586F"/>
<path fill-rule="evenodd" clip-rule="evenodd" d="M31.9667 33.432C9.9505 18.6786 5.28564 23.0912 4.94687 43.9788C-1.48401 54.2209 -1.38019 58.9086 11.4073 63.6159C20.7645 76.795 26.6445 77.8766 38.4287 67.7054C49.4509 67.1301 53.2812 64.7559 50.8065 52.4097C56.6146 35.5411 50.962 32.4458 31.9667 33.432ZM24.2115 59.1762C35.2954 58.0532 39.7591 56.0355 36.7421 43.7103C46.1443 51.9851 44.4971 55.8308 35.5648 61.9626C30.8418 65.8305 28.289 65.765 24.1414 60.9832C17.0146 62.6848 15.1455 60.6052 12.547 55.7745C15.1768 39.7154 18.9427 35.3211 32.2873 41.0575C10.8044 43.4198 16.4184 49.284 24.2115 59.1762ZM25.7741 55.0829C20.7261 53.2738 19.2992 51.0704 21.5438 46.7012C23.0525 46.0003 23.9624 46.3708 26.0301 48.483C28.6032 51.5106 28.6819 53.0056 25.7741 55.0829Z" fill="#E2A2A3"/>
</svg>
