<svg width="119" height="70" viewBox="0 0 119 70" fill="none" xmlns="http://www.w3.org/2000/svg">
<path d="M18.6894 56.4378C43.8608 40.3991 56.4672 36.1727 75.0574 40.4009C88.0611 66.9334 96.9656 66.6716 112.512 69.7266C110.299 49.1605 97.499 45.6627 76.3297 38.3053L65.5774 35.6215C74.6581 32.1188 78.0319 29.3481 79.3406 22.1973C65.8405 22.2159 61.9559 26.0294 56.4421 34.3126L39.1351 40.6799C16.4222 34.443 8.16893 34.6789 0.937752 41.2261C5.89428 47.9333 11.4864 49.3821 22.7523 50.9007L16.5756 56.3558L18.6894 56.4378Z" fill="#7B9C5E"/>
<path d="M99.3028 17.2916C100.586 5.92596 100.293 1.19576 94.7528 0.753091C87.7223 2.73163 89.6367 8.22685 91.6758 16.9958C81.7189 10.6393 77.6586 9.29979 74.8706 13.5913C73.801 19.2846 78.549 21.2712 87.9552 24.5746C75.9675 29.8742 73.2436 32.6371 76.4043 37.1469C80.3299 41.0486 84.5544 37.6378 92.307 31.0097C90.6055 43.2169 91.1133 47.3833 96.1743 47.4117C102.973 47.5502 101.884 41.7329 99.9525 31.4147L99.932 31.3055C109.953 37.8419 113.14 37.8064 116.655 34.3041C117.748 29.0611 114.239 26.849 103.748 23.8172C115.64 17.7861 117.978 15.2401 115.972 11.5639C112.015 7.33818 107.978 9.51027 99.3028 17.2916Z" fill="white"/>
<circle cx="95.7766" cy="24.1016" r="4.62496" transform="rotate(-177.778 95.7766 24.1016)" fill="#EDD87B"/>
</svg>
