<svg width="1440" height="930" viewBox="0 0 1440 930" fill="none" xmlns="http://www.w3.org/2000/svg">
<rect y="-1" width="1440" height="872.867" fill="#B55373"/>
<path d="M-1.32034 864.089C-2.26217 871.384 -1.63006 878.794 0.533843 885.827C2.69775 892.859 6.34372 899.352 11.2287 904.872C16.1137 910.392 22.1254 914.813 28.863 917.839C35.6007 920.866 42.9095 922.428 50.3021 922.423C57.6947 922.418 65.0013 920.845 71.7348 917.81C78.4682 914.774 84.4738 910.345 89.3511 904.818C94.2284 899.291 97.8654 892.794 100.019 885.758C102.174 878.723 102.795 871.312 101.844 864.018L50.2662 870.681L-1.32034 864.089Z" fill="#B55373"/>
<path d="M101.852 864.089C100.91 871.384 101.542 878.794 103.706 885.827C105.87 892.859 109.516 899.352 114.401 904.872C119.286 910.392 125.297 914.813 132.035 917.839C138.773 920.866 146.081 922.428 153.474 922.423C160.867 922.418 168.173 920.845 174.907 917.81C181.64 914.774 187.646 910.345 192.523 904.818C197.4 899.291 201.037 892.794 203.191 885.758C205.346 878.723 205.967 871.312 205.015 864.018L153.438 870.681L101.852 864.089Z" fill="#B55373"/>
<path d="M205.016 864.089C204.074 871.384 204.706 878.794 206.87 885.827C209.034 892.859 212.68 899.352 217.565 904.872C222.45 910.392 228.461 914.813 235.199 917.839C241.937 920.866 249.245 922.428 256.638 922.423C264.031 922.418 271.337 920.845 278.071 917.81C284.804 914.774 290.81 910.345 295.687 904.818C300.564 899.291 304.201 892.794 306.355 885.758C308.51 878.723 309.131 871.312 308.179 864.018L256.602 870.681L205.016 864.089Z" fill="#B55373"/>
<path d="M308.055 864.089C307.113 871.384 307.745 878.794 309.909 885.827C312.073 892.859 315.719 899.352 320.604 904.872C325.489 910.392 331.5 914.813 338.238 917.839C344.976 920.866 352.284 922.428 359.677 922.423C367.07 922.418 374.376 920.845 381.11 917.81C387.843 914.774 393.849 910.345 398.726 904.818C403.603 899.291 407.24 892.794 409.394 885.758C411.549 878.723 412.17 871.312 411.219 864.018L359.641 870.681L308.055 864.089Z" fill="#B55373"/>
<path d="M411.227 864.089C410.285 871.384 410.917 878.794 413.081 885.827C415.245 892.859 418.891 899.352 423.776 904.872C428.661 910.392 434.672 914.813 441.41 917.839C448.148 920.866 455.456 922.428 462.849 922.423C470.242 922.418 477.548 920.845 484.282 917.81C491.015 914.774 497.021 910.345 501.898 904.818C506.775 899.291 510.412 892.794 512.566 885.758C514.721 878.723 515.342 871.312 514.39 864.018L462.813 870.681L411.227 864.089Z" fill="#B55373"/>
<path d="M514.406 864.089C513.464 871.384 514.097 878.794 516.26 885.827C518.424 892.859 522.07 899.352 526.955 904.872C531.84 910.392 537.852 914.813 544.59 917.839C551.327 920.866 558.636 922.428 566.029 922.423C573.421 922.418 580.728 920.845 587.461 917.81C594.195 914.774 600.2 910.345 605.078 904.818C609.955 899.291 613.592 892.794 615.746 885.758C617.9 878.723 618.522 871.312 617.57 864.018L565.993 870.681L514.406 864.089Z" fill="#B55373"/>
<path d="M617.57 864.089C616.628 871.384 617.261 878.794 619.424 885.827C621.588 892.859 625.234 899.352 630.119 904.872C635.004 910.392 641.016 914.813 647.754 917.839C654.491 920.866 661.8 922.428 669.193 922.423C676.585 922.418 683.892 920.845 690.625 917.81C697.359 914.774 703.364 910.345 708.242 904.818C713.119 899.291 716.756 892.794 718.91 885.758C721.064 878.723 721.686 871.312 720.734 864.018L669.157 870.681L617.57 864.089Z" fill="#B55373"/>
<path d="M720.727 864.089C719.785 871.384 720.417 878.794 722.581 885.827C724.745 892.859 728.391 899.352 733.276 904.872C738.161 910.392 744.172 914.813 750.91 917.839C757.648 920.866 764.956 922.428 772.349 922.423C779.742 922.418 787.048 920.845 793.782 917.81C800.515 914.774 806.521 910.345 811.398 904.818C816.275 899.291 819.912 892.794 822.066 885.758C824.221 878.723 824.842 871.312 823.89 864.018L772.313 870.681L720.727 864.089Z" fill="#B55373"/>
<path d="M823.914 864.089C822.972 871.384 823.604 878.794 825.768 885.827C827.932 892.859 831.578 899.352 836.463 904.872C841.348 910.392 847.36 914.813 854.097 917.839C860.835 920.866 868.144 922.428 875.536 922.423C882.929 922.418 890.236 920.845 896.969 917.81C903.703 914.774 909.708 910.345 914.585 904.818C919.463 899.291 923.1 892.794 925.254 885.758C927.408 878.723 928.03 871.312 927.078 864.018L875.501 870.681L823.914 864.089Z" fill="#B55373"/>
<path d="M929.273 865.077C928.332 872.372 928.964 879.782 931.128 886.815C933.291 893.847 936.937 900.34 941.822 905.86C946.707 911.38 952.719 915.801 959.457 918.827C966.194 921.854 973.503 923.417 980.896 923.412C988.288 923.407 995.595 921.834 1002.33 918.798C1009.06 915.762 1015.07 911.333 1019.94 905.806C1024.82 900.28 1028.46 893.782 1030.61 886.747C1032.77 879.711 1033.39 872.3 1032.44 865.006L980.86 871.669L929.273 865.077Z" fill="#B55373"/>
<path d="M1030.27 863.314C1029.32 870.646 1029.96 878.095 1032.12 885.164C1034.28 892.233 1037.93 898.759 1042.81 904.308C1047.7 909.856 1053.71 914.3 1060.45 917.342C1067.19 920.384 1074.5 921.955 1081.89 921.95C1089.28 921.945 1096.59 920.364 1103.32 917.312C1110.05 914.261 1116.06 909.809 1120.94 904.254C1125.81 898.698 1129.45 892.167 1131.61 885.095C1133.76 878.023 1134.38 870.573 1133.43 863.242L1081.85 869.94L1030.27 863.314Z" fill="#B55373"/>
<path d="M1131.77 863.314C1130.83 870.646 1131.46 878.095 1133.63 885.164C1135.79 892.233 1139.44 898.759 1144.32 904.308C1149.21 909.856 1155.22 914.3 1161.96 917.342C1168.69 920.384 1176 921.955 1183.4 921.95C1190.79 921.945 1198.1 920.364 1204.83 917.312C1211.56 914.261 1217.57 909.809 1222.44 904.254C1227.32 898.698 1230.96 892.167 1233.11 885.095C1235.27 878.023 1235.89 870.573 1234.94 863.242L1183.36 869.94L1131.77 863.314Z" fill="#B55373"/>
<path d="M1234.96 863.314C1234.02 870.646 1234.65 878.095 1236.82 885.164C1238.98 892.233 1242.62 898.759 1247.51 904.308C1252.39 909.856 1258.41 914.3 1265.14 917.342C1271.88 920.384 1279.19 921.955 1286.58 921.95C1293.98 921.945 1301.28 920.364 1308.02 917.312C1314.75 914.261 1320.76 909.809 1325.63 904.254C1330.51 898.698 1334.15 892.167 1336.3 885.095C1338.45 878.023 1339.08 870.573 1338.12 863.242L1286.55 869.94L1234.96 863.314Z" fill="#B55373"/>
<path d="M1338.13 863.314C1337.19 870.646 1337.82 878.095 1339.99 885.164C1342.15 892.233 1345.8 898.759 1350.68 904.308C1355.57 909.856 1361.58 914.3 1368.32 917.342C1375.05 920.384 1382.36 921.955 1389.76 921.95C1397.15 921.945 1404.45 920.364 1411.19 917.312C1417.92 914.261 1423.93 909.809 1428.8 904.254C1433.68 898.698 1437.32 892.167 1439.47 885.095C1441.63 878.023 1442.25 870.573 1441.3 863.242L1389.72 869.94L1338.13 863.314Z" fill="#B55373"/>
</svg>
