<svg width="1455" height="1098" viewBox="0 0 1455 1098" fill="none" xmlns="http://www.w3.org/2000/svg">
<rect x="6.70703" y="71.3594" width="1441.57" height="960.016" fill="#B55373"/>
<path d="M9.84295 70.0478C8.90104 62.6931 9.53321 55.2215 11.6973 48.1312C13.8614 41.0408 17.5077 34.4946 22.3931 28.9291C27.2785 23.3635 33.2908 18.9064 40.029 15.8549C46.7673 12.8035 54.0767 11.2278 61.47 11.2329C68.8633 11.238 76.1705 12.8239 82.9046 15.8846C89.6386 18.9454 95.6447 23.4108 100.522 28.9832C105.4 34.5555 109.037 41.1067 111.192 48.2001C113.346 55.2934 113.968 62.7658 113.016 70.1192L61.4341 63.4015L9.84295 70.0478Z" fill="#97415D"/>
<path d="M113.019 66.0478C112.077 58.6931 112.709 51.2215 114.873 44.1312C117.037 37.0408 120.683 30.4946 125.569 24.9291C130.454 19.3635 136.467 14.9064 143.205 11.8549C149.943 8.8035 157.252 7.22781 164.646 7.23293C172.039 7.23805 179.346 8.82386 186.08 11.8846C192.814 14.9454 198.82 19.4108 203.698 24.9832C208.576 30.5555 212.213 37.1067 214.368 44.2001C216.522 51.2934 217.144 58.7658 216.192 66.1192L164.61 59.4015L113.019 66.0478Z" fill="#97415D"/>
<path d="M216.21 66.0478C215.268 58.6931 215.9 51.2215 218.064 44.1312C220.229 37.0408 223.875 30.4946 228.76 24.9291C233.646 19.3635 239.658 14.9064 246.396 11.8549C253.134 8.8035 260.444 7.22781 267.837 7.23293C275.23 7.23805 282.538 8.82386 289.272 11.8846C296.006 14.9454 302.012 19.4108 306.89 24.9832C311.767 30.5555 315.405 37.1067 317.559 44.2001C319.713 51.2934 320.335 58.7658 319.383 66.1192L267.801 59.4015L216.21 66.0478Z" fill="#97415D"/>
<path d="M319.261 66.0478C318.319 58.6931 318.951 51.2215 321.115 44.1312C323.279 37.0408 326.926 30.4946 331.811 24.9291C336.696 19.3635 342.709 14.9064 349.447 11.8549C356.185 8.8035 363.495 7.22781 370.888 7.23293C378.281 7.23805 385.588 8.82386 392.323 11.8846C399.057 14.9454 405.063 19.4108 409.94 24.9832C414.818 30.5555 418.455 37.1067 420.61 44.2001C422.764 51.2934 423.386 58.7658 422.434 66.1192L370.852 59.4015L319.261 66.0478Z" fill="#97415D"/>
<path d="M422.445 66.0478C421.503 58.6931 422.135 51.2215 424.299 44.1312C426.463 37.0408 430.109 30.4946 434.995 24.9291C439.88 19.3635 445.892 14.9064 452.631 11.8549C459.369 8.8035 466.678 7.22781 474.072 7.23293C481.465 7.23805 488.772 8.82386 495.506 11.8846C502.24 14.9454 508.246 19.4108 513.124 24.9832C518.002 30.5555 521.639 37.1067 523.793 44.2001C525.948 51.2934 526.57 58.7658 525.618 66.1192L474.036 59.4015L422.445 66.0478Z" fill="#97415D"/>
<path d="M525.62 66.0478C524.678 58.6931 525.311 51.2215 527.475 44.1312C529.639 37.0408 533.285 30.4946 538.17 24.9291C543.056 19.3635 549.068 14.9064 555.806 11.8549C562.545 8.8035 569.854 7.22781 577.247 7.23293C584.641 7.23805 591.948 8.82386 598.682 11.8846C605.416 14.9454 611.422 19.4108 616.3 24.9832C621.178 30.5555 624.815 37.1067 626.969 44.2001C629.123 51.2934 629.745 58.7658 628.793 66.1192L577.211 59.4015L525.62 66.0478Z" fill="#97415D"/>
<path d="M628.8 66.0478C627.858 58.6931 628.49 51.2215 630.654 44.1312C632.818 37.0408 636.465 30.4946 641.35 24.9291C646.236 19.3635 652.248 14.9064 658.986 11.8549C665.724 8.8035 673.034 7.22781 680.427 7.23293C687.82 7.23805 695.128 8.82386 701.862 11.8846C708.596 14.9454 714.602 19.4108 719.479 24.9832C724.357 30.5555 727.994 37.1067 730.149 44.2001C732.303 51.2934 732.925 58.7658 731.973 66.1192L680.391 59.4015L628.8 66.0478Z" fill="#97415D"/>
<path d="M731.999 66.0478C731.057 58.6931 731.689 51.2215 733.854 44.1312C736.018 37.0408 739.664 30.4946 744.549 24.9291C749.435 19.3635 755.447 14.9064 762.185 11.8549C768.924 8.8035 776.233 7.22781 783.626 7.23293C791.02 7.23805 798.327 8.82386 805.061 11.8846C811.795 14.9454 817.801 19.4108 822.679 24.9832C827.556 30.5555 831.194 37.1067 833.348 44.2001C835.502 51.2934 836.124 58.7658 835.172 66.1192L783.59 59.4015L731.999 66.0478Z" fill="#97415D"/>
<path d="M835.175 66.0478C834.233 58.6931 834.865 51.2215 837.029 44.1312C839.193 37.0408 842.84 30.4946 847.725 24.9291C852.611 19.3635 858.623 14.9064 865.361 11.8549C872.099 8.8035 879.409 7.22781 886.802 7.23293C894.195 7.23805 901.503 8.82386 908.237 11.8846C914.971 14.9454 920.977 19.4108 925.854 24.9832C930.732 30.5555 934.369 37.1067 936.524 44.2001C938.678 51.2934 939.3 58.7658 938.348 66.1192L886.766 59.4015L835.175 66.0478Z" fill="#97415D"/>
<path d="M940.351 65.0361C939.409 57.6814 940.041 50.2098 942.205 43.1194C944.369 36.0291 948.016 29.4829 952.901 23.9173C957.786 18.3518 963.799 13.8947 970.537 10.8432C977.275 7.79178 984.585 6.21609 991.978 6.22121C999.371 6.22633 1006.68 7.81214 1013.41 10.8729C1020.15 13.9337 1026.15 18.3991 1031.03 23.9714C1035.91 29.5438 1039.55 36.095 1041.7 43.1883C1043.85 50.2817 1044.48 57.7541 1043.52 65.1075L991.942 58.3898L940.351 65.0361Z" fill="#97415D"/>
<path d="M1041.54 66.04C1040.6 58.6853 1041.23 51.2137 1043.39 44.1233C1045.56 37.033 1049.2 30.4868 1054.09 24.9213C1058.97 19.3557 1064.99 14.8986 1071.72 11.8471C1078.46 8.79569 1085.77 7.22 1093.17 7.22512C1100.56 7.23024 1107.87 8.81605 1114.6 11.8768C1121.33 14.9376 1127.34 19.403 1132.22 24.9754C1137.1 30.5477 1140.73 37.0989 1142.89 44.1922C1145.04 51.2856 1145.66 58.758 1144.71 66.1114L1093.13 59.3937L1041.54 66.04Z" fill="#97415D"/>
<path d="M1143.07 66.04C1142.12 58.6853 1142.76 51.2137 1144.92 44.1233C1147.08 37.033 1150.73 30.4868 1155.62 24.9213C1160.5 19.3557 1166.51 14.8986 1173.25 11.8471C1179.99 8.79569 1187.3 7.22 1194.69 7.22512C1202.09 7.23024 1209.39 8.81605 1216.13 11.8768C1222.86 14.9376 1228.87 19.403 1233.75 24.9754C1238.62 30.5477 1242.26 37.0989 1244.41 44.1922C1246.57 51.2856 1247.19 58.758 1246.24 66.1114L1194.66 59.3937L1143.07 66.04Z" fill="#97415D"/>
<path d="M1246.24 66.04C1245.3 58.6853 1245.93 51.2137 1248.1 44.1233C1250.26 37.033 1253.91 30.4868 1258.79 24.9213C1263.68 19.3557 1269.69 14.8986 1276.43 11.8471C1283.17 8.79569 1290.48 7.22 1297.87 7.22512C1305.26 7.23024 1312.57 8.81605 1319.3 11.8768C1326.04 14.9376 1332.04 19.403 1336.92 24.9754C1341.8 30.5477 1345.44 37.0989 1347.59 44.1922C1349.74 51.2856 1350.37 58.758 1349.41 66.1114L1297.83 59.3937L1246.24 66.04Z" fill="#97415D"/>
<path d="M1350.73 73.9885C1349.78 66.6338 1350.3 59.1772 1352.24 52.116C1354.18 45.0547 1357.49 38.551 1361.97 33.0384C1366.44 27.5258 1371.97 23.1311 1378.18 20.1471C1384.4 17.1631 1391.16 15.6585 1398.01 15.7337C1404.86 15.8088 1411.64 17.4618 1417.91 20.5826C1424.18 23.7035 1429.78 28.2203 1434.36 33.8321C1438.93 39.4438 1442.36 46.0215 1444.42 53.1267C1446.48 60.2318 1447.13 67.7011 1446.32 75.0365L1398.46 67.8386L1350.73 73.9885Z" fill="#97415D"/>
<path d="M1445.78 1032.81C1446.72 1040.17 1446.09 1047.64 1443.94 1054.73C1441.79 1061.82 1438.17 1068.36 1433.32 1073.93C1428.47 1079.5 1422.5 1083.95 1415.81 1087C1409.12 1090.06 1401.86 1091.63 1394.52 1091.63C1387.18 1091.62 1379.93 1090.04 1373.24 1086.97C1366.55 1083.91 1360.59 1079.45 1355.75 1073.88C1350.91 1068.3 1347.29 1061.75 1345.15 1054.66C1343.02 1047.57 1342.4 1040.09 1343.34 1032.74L1394.56 1039.46L1445.78 1032.81Z" fill="#97415D"/>
<path d="M1343.34 1032.81C1344.28 1040.17 1343.65 1047.64 1341.5 1054.73C1339.35 1061.82 1335.73 1068.36 1330.88 1073.93C1326.03 1079.5 1320.06 1083.95 1313.37 1087C1306.68 1090.06 1299.42 1091.63 1292.08 1091.63C1284.74 1091.62 1277.49 1090.04 1270.8 1086.97C1264.11 1083.91 1258.15 1079.45 1253.31 1073.88C1248.46 1068.3 1244.85 1061.75 1242.71 1054.66C1240.57 1047.57 1239.96 1040.09 1240.9 1032.74L1292.12 1039.46L1343.34 1032.81Z" fill="#97415D"/>
<path d="M1240.88 1032.81C1241.82 1040.17 1241.19 1047.64 1239.04 1054.73C1236.89 1061.82 1233.27 1068.36 1228.42 1073.93C1223.57 1079.5 1217.6 1083.95 1210.91 1087C1204.22 1090.06 1196.96 1091.63 1189.62 1091.63C1182.28 1091.62 1175.03 1090.04 1168.34 1086.97C1161.66 1083.91 1155.69 1079.45 1150.85 1073.88C1146.01 1068.3 1142.4 1061.75 1140.26 1054.66C1138.12 1047.57 1137.5 1040.09 1138.45 1032.74L1189.66 1039.46L1240.88 1032.81Z" fill="#97415D"/>
<path d="M1138.57 1032.81C1139.51 1040.17 1138.88 1047.64 1136.73 1054.73C1134.58 1061.82 1130.96 1068.36 1126.11 1073.93C1121.26 1079.5 1115.29 1083.95 1108.6 1087C1101.91 1090.06 1094.65 1091.63 1087.31 1091.63C1079.97 1091.62 1072.72 1090.04 1066.03 1086.97C1059.34 1083.91 1053.38 1079.45 1048.54 1073.88C1043.69 1068.3 1040.08 1061.75 1037.94 1054.66C1035.8 1047.57 1035.19 1040.09 1036.13 1032.74L1087.35 1039.46L1138.57 1032.81Z" fill="#97415D"/>
<path d="M1036.12 1032.81C1037.05 1040.17 1036.43 1047.64 1034.28 1054.73C1032.13 1061.82 1028.51 1068.36 1023.66 1073.93C1018.81 1079.5 1012.84 1083.95 1006.15 1087C999.457 1090.06 992.199 1091.63 984.859 1091.63C977.518 1091.62 970.263 1090.04 963.577 1086.97C956.891 1083.91 950.927 1079.45 946.084 1073.88C941.241 1068.3 937.63 1061.75 935.491 1054.66C933.352 1047.57 932.734 1040.09 933.68 1032.74L984.894 1039.46L1036.12 1032.81Z" fill="#97415D"/>
<path d="M933.677 1032.81C934.612 1040.17 933.984 1047.64 931.835 1054.73C929.687 1061.82 926.066 1068.36 921.216 1073.93C916.365 1079.5 910.396 1083.95 903.706 1087C897.015 1090.06 889.758 1091.63 882.417 1091.63C875.077 1091.62 867.821 1090.04 861.135 1086.97C854.449 1083.91 848.486 1079.45 843.643 1073.88C838.8 1068.3 835.188 1061.75 833.049 1054.66C830.91 1047.57 830.293 1040.09 831.238 1032.74L882.453 1039.46L933.677 1032.81Z" fill="#97415D"/>
<path d="M831.235 1032.81C832.17 1040.17 831.543 1047.64 829.394 1054.73C827.245 1061.82 823.625 1068.36 818.774 1073.93C813.924 1079.5 807.954 1083.95 801.264 1087C794.574 1090.06 787.316 1091.63 779.976 1091.63C772.635 1091.62 765.38 1090.04 758.694 1086.97C752.008 1083.91 746.044 1079.45 741.201 1073.88C736.358 1068.3 732.747 1061.75 730.608 1054.66C728.469 1047.57 727.852 1040.09 728.797 1032.74L780.011 1039.46L831.235 1032.81Z" fill="#97415D"/>
<path d="M728.77 1032.81C729.706 1040.17 729.078 1047.64 726.929 1054.73C724.781 1061.82 721.16 1068.36 716.31 1073.93C711.459 1079.5 705.49 1083.95 698.799 1087C692.109 1090.06 684.852 1091.63 677.511 1091.63C670.17 1091.62 662.915 1090.04 656.229 1086.97C649.543 1083.91 643.58 1079.45 638.737 1073.88C633.893 1068.3 630.282 1061.75 628.143 1054.66C626.004 1047.57 625.387 1040.09 626.332 1032.74L677.547 1039.46L728.77 1032.81Z" fill="#97415D"/>
<path d="M626.329 1032.81C627.264 1040.17 626.637 1047.64 624.488 1054.73C622.339 1061.82 618.719 1068.36 613.868 1073.93C609.018 1079.5 603.048 1083.95 596.358 1087C589.668 1090.06 582.41 1091.63 575.07 1091.63C567.729 1091.62 560.474 1090.04 553.788 1086.97C547.101 1083.91 541.138 1079.45 536.295 1073.88C531.452 1068.3 527.841 1061.75 525.702 1054.66C523.563 1047.57 522.945 1040.09 523.891 1032.74L575.105 1039.46L626.329 1032.81Z" fill="#97415D"/>
<path d="M521.895 1029.82C522.831 1037.18 522.203 1044.65 520.054 1051.74C517.906 1058.83 514.285 1065.38 509.435 1070.94C504.584 1076.51 498.615 1080.96 491.924 1084.02C485.234 1087.07 477.977 1088.64 470.636 1088.64C463.295 1088.63 456.04 1087.05 449.354 1083.99C442.668 1080.93 436.705 1076.46 431.862 1070.89C427.018 1065.32 423.407 1058.76 421.268 1051.67C419.129 1044.58 418.512 1037.11 419.457 1029.75L470.672 1036.47L521.895 1029.82Z" fill="#97415D"/>
<path d="M421.434 1032.82C422.37 1040.17 421.742 1047.65 419.593 1054.74C417.445 1061.83 413.824 1068.37 408.974 1073.94C404.123 1079.5 398.154 1083.96 391.463 1087.01C384.773 1090.06 377.516 1091.64 370.175 1091.63C362.834 1091.63 355.579 1090.04 348.893 1086.98C342.207 1083.92 336.244 1079.46 331.401 1073.88C326.558 1068.31 322.946 1061.76 320.807 1054.67C318.668 1047.57 318.051 1040.1 318.996 1032.75L370.211 1039.47L421.434 1032.82Z" fill="#97415D"/>
<path d="M320.63 1032.82C321.565 1040.17 320.937 1047.65 318.789 1054.74C316.64 1061.83 313.02 1068.37 308.169 1073.94C303.318 1079.5 297.349 1083.96 290.659 1087.01C283.968 1090.06 276.711 1091.64 269.37 1091.63C262.03 1091.63 254.774 1090.04 248.088 1086.98C241.402 1083.92 235.439 1079.46 230.596 1073.88C225.753 1068.31 222.141 1061.76 220.002 1054.67C217.864 1047.57 217.246 1040.1 218.191 1032.75L269.406 1039.47L320.63 1032.82Z" fill="#97415D"/>
<path d="M218.188 1032.82C219.124 1040.17 218.496 1047.65 216.347 1054.74C214.199 1061.83 210.578 1068.37 205.728 1073.94C200.877 1079.5 194.908 1083.96 188.217 1087.01C181.527 1090.06 174.27 1091.64 166.929 1091.63C159.588 1091.63 152.333 1090.04 145.647 1086.98C138.961 1083.92 132.997 1079.46 128.154 1073.88C123.311 1068.31 119.7 1061.76 117.561 1054.67C115.422 1047.57 114.805 1040.1 115.75 1032.75L166.965 1039.47L218.188 1032.82Z" fill="#97415D"/>
<path d="M115.731 1032.82C116.667 1040.17 116.039 1047.65 113.89 1054.74C111.741 1061.83 108.121 1068.37 103.271 1073.94C98.4199 1079.5 92.4505 1083.96 85.7602 1087.01C79.0699 1090.06 71.8125 1091.64 64.4719 1091.63C57.1312 1091.63 49.876 1090.04 43.1899 1086.98C36.5038 1083.92 30.5404 1079.46 25.6974 1073.88C20.8544 1068.31 17.2431 1061.76 15.1041 1054.67C12.9651 1047.57 12.3476 1040.1 13.2929 1032.75L64.5075 1039.47L115.731 1032.82Z" fill="#97415D"/>
<path d="M6.73264 77.4944C5.77889 70.0692 6.26594 62.5457 8.16131 55.4254C10.0567 48.3052 13.3168 41.7517 17.7244 36.2021C22.1319 30.6525 27.5856 26.2341 33.7218 23.2416C39.858 20.2491 46.5358 18.7513 53.3099 18.8479C60.084 18.9445 66.7987 20.6334 73.0065 23.802C79.2143 26.9706 84.7724 31.546 89.3103 37.2233C93.8482 42.9005 97.2617 49.5492 99.3231 56.7259C101.384 63.9026 102.046 71.4425 101.265 78.8429L53.9205 71.4332L6.73264 77.4944Z" fill="#B55373"/>
<path d="M101.114 78.7921C100.161 71.3669 100.801 63.8237 102.992 56.6654C105.183 49.5072 108.875 42.8983 113.822 37.2793C118.769 31.6604 124.857 27.1606 131.68 24.0799C138.502 20.9993 145.904 19.4085 153.39 19.4136C160.876 19.4188 168.275 21.0198 175.094 24.1099C181.912 27.2 187.994 31.7082 192.933 37.334C197.872 42.9597 201.555 49.5737 203.736 56.735C205.918 63.8963 206.547 71.4404 205.583 78.8642L153.354 72.0821L101.114 78.7921Z" fill="#B55373"/>
<path d="M205.591 78.7921C204.637 71.3669 205.277 63.8237 207.468 56.6654C209.66 49.5072 213.352 42.8983 218.299 37.2793C223.245 31.6604 229.333 27.1606 236.156 24.0799C242.979 20.9993 250.38 19.4085 257.866 19.4136C265.353 19.4188 272.752 21.0198 279.57 24.1099C286.389 27.2 292.471 31.7082 297.41 37.334C302.349 42.9597 306.032 49.5737 308.213 56.735C310.394 63.8963 311.024 71.4404 310.06 78.8642L257.83 72.0821L205.591 78.7921Z" fill="#B55373"/>
<path d="M309.927 78.7921C308.973 71.3669 309.613 63.8237 311.804 56.6654C313.996 49.5072 317.688 42.8983 322.635 37.2793C327.581 31.6604 333.669 27.1606 340.492 24.0799C347.315 20.9993 354.716 19.4085 362.202 19.4136C369.689 19.4188 377.088 21.0198 383.906 24.1099C390.725 27.2 396.806 31.7082 401.745 37.334C406.685 42.9597 410.367 49.5737 412.549 56.735C414.73 63.8963 415.36 71.4404 414.396 78.8642L362.166 72.0821L309.927 78.7921Z" fill="#B55373"/>
<path d="M414.411 78.7921C413.457 71.3669 414.097 63.8237 416.289 56.6654C418.48 49.5072 422.172 42.8983 427.119 37.2793C432.066 31.6604 438.154 27.1606 444.976 24.0799C451.799 20.9993 459.201 19.4085 466.687 19.4136C474.173 19.4188 481.572 21.0198 488.391 24.1099C495.209 27.2 501.291 31.7082 506.23 37.334C511.169 42.9597 514.852 49.5737 517.033 56.735C519.215 63.8963 519.844 71.4404 518.88 78.8642L466.65 72.0821L414.411 78.7921Z" fill="#B55373"/>
<path d="M518.888 78.7921C517.934 71.3669 518.574 63.8237 520.765 56.6654C522.957 49.5072 526.649 42.8983 531.596 37.2793C536.542 31.6604 542.63 27.1606 549.453 24.0799C556.276 20.9993 563.677 19.4085 571.163 19.4136C578.649 19.4188 586.049 21.0198 592.867 24.1099C599.686 27.2 605.767 31.7082 610.706 37.334C615.645 42.9597 619.328 49.5737 621.51 56.735C623.691 63.8963 624.321 71.4404 623.357 78.8642L571.127 72.0821L518.888 78.7921Z" fill="#B55373"/>
<path d="M623.356 78.7921C622.403 71.3669 623.043 63.8237 625.234 56.6654C627.425 49.5072 631.117 42.8983 636.064 37.2793C641.011 31.6604 647.099 27.1606 653.922 24.0799C660.745 20.9993 668.146 19.4085 675.632 19.4136C683.118 19.4188 690.517 21.0198 697.336 24.1099C704.155 27.2 710.236 31.7082 715.175 37.334C720.114 42.9597 723.797 49.5737 725.979 56.735C728.16 63.8963 728.79 71.4404 727.826 78.8642L675.596 72.0821L623.356 78.7921Z" fill="#B55373"/>
<path d="M727.841 78.7921C726.887 71.3669 727.527 63.8237 729.718 56.6654C731.91 49.5072 735.602 42.8983 740.549 37.2793C745.495 31.6604 751.583 27.1606 758.406 24.0799C765.229 20.9993 772.63 19.4085 780.116 19.4136C787.603 19.4188 795.002 21.0198 801.82 24.1099C808.639 27.2 814.721 31.7082 819.66 37.334C824.599 42.9597 828.282 49.5737 830.463 56.735C832.644 63.8963 833.274 71.4404 832.31 78.8642L780.08 72.0821L727.841 78.7921Z" fill="#B55373"/>
<path d="M832.317 78.7921C831.364 71.3669 832.004 63.8237 834.195 56.6654C836.386 49.5072 840.078 42.8983 845.025 37.2793C849.972 31.6604 856.06 27.1606 862.883 24.0799C869.706 20.9993 877.107 19.4085 884.593 19.4136C892.079 19.4188 899.478 21.0198 906.297 24.1099C913.116 27.2 919.197 31.7082 924.136 37.334C929.075 42.9597 932.758 49.5737 934.94 56.735C937.121 63.8963 937.751 71.4404 936.787 78.8642L884.557 72.0821L832.317 78.7921Z" fill="#B55373"/>
<path d="M938.825 78.7843C937.871 71.3591 938.512 63.8159 940.703 56.6576C942.894 49.4993 946.586 42.8904 951.533 37.2715C956.48 31.6526 962.568 27.1528 969.39 24.0721C976.213 20.9914 983.615 19.4007 991.101 19.4058C998.587 19.411 1005.99 21.012 1012.8 24.1021C1019.62 27.1922 1025.7 31.7004 1030.64 37.3262C1035.58 42.9519 1039.27 49.5659 1041.45 56.7272C1043.63 63.8885 1044.26 71.4325 1043.29 78.8564L991.064 72.0743L938.825 78.7843Z" fill="#B55373"/>
<path d="M1041.29 78.7921C1040.34 71.3669 1040.98 63.8237 1043.17 56.6654C1045.36 49.5072 1049.05 42.8983 1054 37.2793C1058.95 31.6604 1065.04 27.1606 1071.86 24.0799C1078.68 20.9993 1086.08 19.4085 1093.57 19.4136C1101.06 19.4188 1108.45 21.0198 1115.27 24.1099C1122.09 27.2 1128.17 31.7082 1133.11 37.334C1138.05 42.9597 1141.73 49.5737 1143.92 56.735C1146.1 63.8963 1146.73 71.4404 1145.76 78.8642L1093.53 72.0821L1041.29 78.7921Z" fill="#B55373"/>
<path d="M1144.1 78.7921C1143.14 71.3669 1143.78 63.8237 1145.98 56.6654C1148.17 49.5072 1151.86 42.8983 1156.81 37.2793C1161.75 31.6604 1167.84 27.1606 1174.66 24.0799C1181.49 20.9993 1188.89 19.4085 1196.37 19.4136C1203.86 19.4188 1211.26 21.0198 1218.08 24.1099C1224.9 27.2 1230.98 31.7082 1235.92 37.334C1240.86 42.9597 1244.54 49.5737 1246.72 56.735C1248.9 63.8963 1249.53 71.4404 1248.57 78.8642L1196.34 72.0821L1144.1 78.7921Z" fill="#B55373"/>
<path d="M1248.58 78.7921C1247.62 71.3669 1248.26 63.8237 1250.45 56.6654C1252.64 49.5072 1256.34 42.8983 1261.28 37.2793C1266.23 31.6604 1272.32 27.1606 1279.14 24.0799C1285.96 20.9993 1293.36 19.4085 1300.85 19.4136C1308.34 19.4188 1315.74 21.0198 1322.55 24.1099C1329.37 27.2 1335.45 31.7082 1340.39 37.334C1345.33 42.9597 1349.02 49.5737 1351.2 56.735C1353.38 63.8963 1354.01 71.4404 1353.04 78.8642L1300.81 72.0821L1248.58 78.7921Z" fill="#B55373"/>
<path d="M1353.05 78.7903C1352.1 71.3652 1352.6 63.8403 1354.51 56.7174C1356.43 49.5945 1359.72 43.0373 1364.16 37.4829C1368.61 31.9285 1374.1 27.5046 1380.29 24.5061C1386.47 21.5075 1393.2 20.0033 1400.02 20.0937C1406.84 20.1841 1413.6 21.8669 1419.85 25.0301C1426.1 28.1933 1431.7 32.7642 1436.26 38.4379C1440.83 44.1116 1444.26 50.7579 1446.33 57.9335C1448.4 65.1092 1449.06 72.6494 1448.27 80.0514L1400.59 72.6847L1353.05 78.7903Z" fill="#B55373"/>
<path d="M1448.15 1019.17C1449.09 1026.56 1448.46 1034.06 1446.3 1041.19C1444.13 1048.31 1440.49 1054.89 1435.61 1060.48C1430.73 1066.07 1424.72 1070.55 1417.99 1073.61C1411.26 1076.68 1403.95 1078.26 1396.57 1078.25C1389.18 1078.25 1381.88 1076.66 1375.15 1073.58C1368.42 1070.51 1362.42 1066.02 1357.55 1060.42C1352.68 1054.82 1349.04 1048.24 1346.89 1041.12C1344.74 1033.99 1344.12 1026.48 1345.07 1019.1L1396.6 1025.85L1448.15 1019.17Z" fill="#B55373"/>
<path d="M1345.05 1019.17C1346 1026.56 1345.36 1034.06 1343.2 1041.19C1341.04 1048.31 1337.4 1054.89 1332.52 1060.48C1327.63 1066.07 1321.63 1070.55 1314.9 1073.61C1308.16 1076.68 1300.86 1078.26 1293.47 1078.25C1286.09 1078.25 1278.79 1076.66 1272.06 1073.58C1265.33 1070.51 1259.33 1066.02 1254.46 1060.42C1249.58 1054.82 1245.95 1048.24 1243.8 1041.12C1241.64 1033.99 1241.02 1026.48 1241.97 1019.1L1293.51 1025.85L1345.05 1019.17Z" fill="#B55373"/>
<path d="M1241.98 1019.17C1242.92 1026.56 1242.29 1034.06 1240.12 1041.19C1237.96 1048.31 1234.32 1054.89 1229.44 1060.48C1224.56 1066.07 1218.55 1070.55 1211.82 1073.61C1205.08 1076.68 1197.78 1078.26 1190.4 1078.25C1183.01 1078.25 1175.71 1076.66 1168.98 1073.58C1162.25 1070.51 1156.25 1066.02 1151.38 1060.42C1146.51 1054.82 1142.87 1048.24 1140.72 1041.12C1138.57 1033.99 1137.95 1026.48 1138.9 1019.1L1190.43 1025.85L1241.98 1019.17Z" fill="#B55373"/>
<path d="M1139.02 1019.17C1139.96 1026.56 1139.33 1034.06 1137.17 1041.19C1135.01 1048.31 1131.36 1054.89 1126.48 1060.48C1121.6 1066.07 1115.6 1070.55 1108.86 1073.61C1102.13 1076.68 1094.83 1078.26 1087.44 1078.25C1080.06 1078.25 1072.76 1076.66 1066.03 1073.58C1059.3 1070.51 1053.3 1066.02 1048.43 1060.42C1043.55 1054.82 1039.92 1048.24 1037.77 1041.12C1035.61 1033.99 1034.99 1026.48 1035.94 1019.1L1087.48 1025.85L1139.02 1019.17Z" fill="#B55373"/>
<path d="M1035.94 1019.17C1036.88 1026.56 1036.25 1034.06 1034.08 1041.19C1031.92 1048.31 1028.28 1054.89 1023.4 1060.48C1018.52 1066.07 1012.51 1070.55 1005.78 1073.61C999.046 1076.68 991.743 1078.26 984.357 1078.25C976.97 1078.25 969.669 1076.66 962.941 1073.58C956.213 1070.51 950.213 1066.02 945.339 1060.42C940.466 1054.82 936.832 1048.24 934.68 1041.12C932.527 1033.99 931.906 1026.48 932.857 1019.1L984.392 1025.85L1035.94 1019.17Z" fill="#B55373"/>
<path d="M932.843 1019.17C933.784 1026.56 933.153 1034.06 930.99 1041.19C928.828 1048.31 925.185 1054.89 920.304 1060.48C915.423 1066.07 909.416 1070.55 902.684 1073.61C895.952 1076.68 888.649 1078.26 881.263 1078.25C873.876 1078.25 866.576 1076.66 859.848 1073.58C853.12 1070.51 847.119 1066.02 842.246 1060.42C837.372 1054.82 833.738 1048.24 831.586 1041.12C829.434 1033.99 828.812 1026.48 829.763 1019.1L881.299 1025.85L932.843 1019.17Z" fill="#B55373"/>
<path d="M829.761 1019.17C830.702 1026.56 830.07 1034.06 827.908 1041.19C825.746 1048.31 822.103 1054.89 817.222 1060.48C812.341 1066.07 806.334 1070.55 799.602 1073.61C792.87 1076.68 785.567 1078.26 778.181 1078.25C770.794 1078.25 763.494 1076.66 756.766 1073.58C750.038 1070.51 744.037 1066.02 739.164 1060.42C734.29 1054.82 730.656 1048.24 728.504 1041.12C726.352 1033.99 725.73 1026.48 726.681 1019.1L778.217 1025.85L829.761 1019.17Z" fill="#B55373"/>
<path d="M726.667 1019.17C727.608 1026.56 726.977 1034.06 724.815 1041.19C722.652 1048.31 719.009 1054.89 714.128 1060.48C709.248 1066.07 703.241 1070.55 696.509 1073.61C689.776 1076.68 682.474 1078.26 675.087 1078.25C667.7 1078.25 660.4 1076.66 653.672 1073.58C646.944 1070.51 640.943 1066.02 636.07 1060.42C631.197 1054.82 627.563 1048.24 625.41 1041.12C623.258 1033.99 622.637 1026.48 623.588 1019.1L675.123 1025.85L726.667 1019.17Z" fill="#B55373"/>
<path d="M623.577 1019.17C624.518 1026.56 623.887 1034.06 621.725 1041.19C619.563 1048.31 615.92 1054.89 611.039 1060.48C606.158 1066.07 600.151 1070.55 593.419 1073.61C586.687 1076.68 579.384 1078.26 571.997 1078.25C564.611 1078.25 557.31 1076.66 550.582 1073.58C543.854 1070.51 537.853 1066.02 532.98 1060.42C528.107 1054.82 524.473 1048.24 522.32 1041.12C520.168 1033.99 519.547 1026.48 520.498 1019.1L572.033 1025.85L623.577 1019.17Z" fill="#B55373"/>
<path d="M518.425 1020.19C519.366 1027.58 518.735 1035.08 516.572 1042.21C514.41 1049.33 510.767 1055.91 505.886 1061.5C501.005 1067.09 494.999 1071.56 488.266 1074.63C481.534 1077.7 474.231 1079.28 466.845 1079.27C459.458 1079.27 452.158 1077.68 445.43 1074.6C438.702 1071.53 432.701 1067.04 427.828 1061.44C422.954 1055.84 419.32 1049.26 417.168 1042.14C415.016 1035.01 414.394 1027.5 415.345 1020.12L466.881 1026.87L518.425 1020.19Z" fill="#B55373"/>
<path d="M417.324 1019.18C418.265 1026.57 417.633 1034.08 415.471 1041.2C413.309 1048.32 409.666 1054.9 404.785 1060.49C399.904 1066.08 393.897 1070.56 387.165 1073.63C380.433 1076.69 373.13 1078.27 365.743 1078.27C358.357 1078.26 351.056 1076.67 344.328 1073.6C337.6 1070.52 331.599 1066.04 326.726 1060.44C321.853 1054.84 318.219 1048.26 316.066 1041.13C313.914 1034.01 313.293 1026.5 314.244 1019.11L365.779 1025.86L417.324 1019.18Z" fill="#B55373"/>
<path d="M315.894 1019.18C316.835 1026.57 316.203 1034.08 314.041 1041.2C311.879 1048.32 308.236 1054.9 303.355 1060.49C298.474 1066.08 292.467 1070.56 285.735 1073.63C279.003 1076.69 271.7 1078.27 264.314 1078.27C256.927 1078.26 249.626 1076.67 242.898 1073.6C236.17 1070.52 230.17 1066.04 225.296 1060.44C220.423 1054.84 216.789 1048.26 214.637 1041.13C212.484 1034.01 211.863 1026.5 212.814 1019.11L264.349 1025.86L315.894 1019.18Z" fill="#B55373"/>
<path d="M212.804 1019.18C213.745 1026.57 213.113 1034.08 210.951 1041.2C208.789 1048.32 205.146 1054.9 200.265 1060.49C195.384 1066.08 189.377 1070.56 182.645 1073.63C175.913 1076.69 168.61 1078.27 161.224 1078.27C153.837 1078.26 146.536 1076.67 139.809 1073.6C133.081 1070.52 127.08 1066.04 122.207 1060.44C117.333 1054.84 113.699 1048.26 111.547 1041.13C109.395 1034.01 108.773 1026.5 109.724 1019.11L161.26 1025.86L212.804 1019.18Z" fill="#B55373"/>
<path d="M109.71 1019.18C110.651 1026.57 110.02 1034.08 107.858 1041.2C105.695 1048.32 102.052 1054.9 97.1715 1060.49C92.2905 1066.08 86.2837 1070.56 79.5515 1073.63C72.8194 1076.69 65.5166 1078.27 58.13 1078.27C50.7434 1078.26 43.4427 1076.67 36.7148 1073.6C29.9868 1070.52 23.9862 1066.04 19.1129 1060.44C14.2395 1054.84 10.6056 1048.26 8.45318 1041.13C6.30079 1034.01 5.67948 1026.5 6.63065 1019.11L58.1659 1025.86L109.71 1019.18Z" fill="#B55373"/>
</svg>
