<svg width="1455" height="937" viewBox="0 0 1455 937" fill="none" xmlns="http://www.w3.org/2000/svg">
<path d="M1447.78 873.057C1448.72 880.412 1448.34 887.852 1446.66 894.88C1444.98 901.908 1442.05 908.363 1438.06 913.815C1434.06 919.267 1429.09 923.591 1423.49 926.498C1417.89 929.405 1411.77 930.829 1405.56 930.674C1399.34 930.519 1393.17 928.789 1387.44 925.6C1381.72 922.411 1376.58 917.835 1372.37 912.179C1368.16 906.522 1364.97 899.914 1363.01 892.795C1361.06 885.677 1360.39 878.211 1361.04 870.896L1404.54 878.641L1447.78 873.057Z" fill="#97415D"/>
<path d="M1361.3 870.933C1362.24 878.287 1361.61 885.759 1359.45 892.849C1357.29 899.94 1353.65 906.486 1348.78 912.051C1343.9 917.617 1337.91 922.074 1331.18 925.126C1324.46 928.177 1317.17 929.753 1309.79 929.748C1302.42 929.742 1295.13 928.157 1288.41 925.096C1281.69 922.035 1275.7 917.57 1270.83 911.997C1265.97 906.425 1262.34 899.874 1260.19 892.78C1258.04 885.687 1257.42 878.215 1258.37 870.861L1309.83 877.579L1361.3 870.933Z" fill="#97415D"/>
<path d="M1258.35 870.933C1259.29 878.287 1258.66 885.759 1256.5 892.849C1254.34 899.94 1250.71 906.486 1245.83 912.051C1240.96 917.617 1234.96 922.074 1228.24 925.126C1221.52 928.177 1214.22 929.753 1206.85 929.748C1199.47 929.742 1192.18 928.157 1185.46 925.096C1178.75 922.035 1172.76 917.57 1167.89 911.997C1163.02 906.425 1159.39 899.874 1157.25 892.78C1155.1 885.687 1154.48 878.215 1155.43 870.861L1206.88 877.579L1258.35 870.933Z" fill="#97415D"/>
<path d="M1155.55 870.933C1156.49 878.287 1155.86 885.759 1153.7 892.849C1151.54 899.94 1147.9 906.486 1143.03 912.051C1138.15 917.617 1132.16 922.074 1125.43 925.126C1118.71 928.177 1111.42 929.753 1104.04 929.748C1096.67 929.742 1089.38 928.157 1082.66 925.096C1075.94 922.035 1069.95 917.57 1065.08 911.997C1060.22 906.425 1056.59 899.874 1054.44 892.78C1052.29 885.687 1051.67 878.215 1052.62 870.861L1104.08 877.579L1155.55 870.933Z" fill="#97415D"/>
<path d="M1052.61 870.933C1053.55 878.287 1052.92 885.759 1050.76 892.849C1048.6 899.94 1044.97 906.486 1040.09 912.051C1035.22 917.617 1029.22 922.074 1022.5 925.126C1015.78 928.177 1008.49 929.753 1001.11 929.748C993.734 929.742 986.445 928.157 979.727 925.096C973.009 922.035 967.017 917.57 962.151 911.997C957.285 906.425 953.656 899.874 951.507 892.78C949.358 885.687 948.738 878.215 949.687 870.861L1001.15 877.579L1052.61 870.933Z" fill="#97415D"/>
<path d="M949.684 870.933C950.623 878.287 949.993 885.759 947.834 892.849C945.675 899.94 942.037 906.486 937.164 912.051C932.29 917.617 926.292 922.074 919.57 925.126C912.848 928.177 905.556 929.753 898.18 929.748C890.805 929.742 883.515 928.157 876.797 925.096C870.079 922.035 864.087 917.57 859.221 911.997C854.355 906.425 850.727 899.874 848.577 892.78C846.428 885.687 845.808 878.215 846.758 870.861L898.216 877.579L949.684 870.933Z" fill="#97415D"/>
<path d="M846.75 870.933C847.69 878.287 847.059 885.759 844.9 892.849C842.741 899.94 839.104 906.486 834.23 912.051C829.356 917.617 823.358 922.074 816.636 925.126C809.914 928.177 802.622 929.753 795.247 929.748C787.871 929.742 780.581 928.157 773.863 925.096C767.145 922.035 761.154 917.57 756.288 911.997C751.422 906.425 747.793 899.874 745.644 892.78C743.495 885.687 742.874 878.215 743.824 870.861L795.283 877.579L846.75 870.933Z" fill="#97415D"/>
<path d="M743.805 870.933C744.744 878.287 744.114 885.759 741.955 892.849C739.796 899.94 736.158 906.486 731.285 912.051C726.411 917.617 720.413 922.074 713.691 925.126C706.969 928.177 699.677 929.753 692.301 929.748C684.926 929.742 677.636 928.157 670.918 925.096C664.2 922.035 658.208 917.57 653.342 911.997C648.476 906.425 644.848 899.874 642.699 892.78C640.549 885.687 639.929 878.215 640.879 870.861L692.337 877.579L743.805 870.933Z" fill="#97415D"/>
<path d="M640.871 870.933C641.811 878.287 641.18 885.759 639.021 892.849C636.862 899.94 633.225 906.486 628.351 912.051C623.477 917.617 617.48 922.074 610.757 925.126C604.035 928.177 596.743 929.753 589.368 929.748C581.992 929.742 574.702 928.157 567.985 925.096C561.267 922.035 555.275 917.57 550.409 911.997C545.543 906.425 541.914 899.874 539.765 892.78C537.616 885.687 536.995 878.215 537.945 870.861L589.404 877.579L640.871 870.933Z" fill="#97415D"/>
<path d="M535.961 871.941C536.901 879.295 536.27 886.767 534.111 893.857C531.952 900.947 528.315 907.494 523.441 913.059C518.567 918.625 512.569 923.082 505.847 926.133C499.125 929.185 491.833 930.76 484.458 930.755C477.082 930.75 469.792 929.164 463.074 926.104C456.356 923.043 450.365 918.577 445.499 913.005C440.633 907.433 437.004 900.882 434.855 893.788C432.706 886.695 432.085 879.222 433.035 871.869L484.493 878.587L535.961 871.941Z" fill="#97415D"/>
<path d="M435.016 870.941C435.955 878.295 435.325 885.767 433.166 892.857C431.007 899.947 427.369 906.494 422.496 912.059C417.622 917.625 411.624 922.082 404.902 925.133C398.18 928.185 390.888 929.76 383.512 929.755C376.137 929.75 368.847 928.164 362.129 925.104C355.411 922.043 349.419 917.577 344.553 912.005C339.687 906.433 336.059 899.882 333.91 892.788C331.76 885.695 331.14 878.222 332.09 870.869L383.548 877.587L435.016 870.941Z" fill="#97415D"/>
<path d="M333.735 870.941C334.674 878.295 334.044 885.767 331.885 892.857C329.726 899.947 326.088 906.494 321.214 912.059C316.341 917.625 310.343 922.082 303.621 925.133C296.899 928.185 289.607 929.76 282.231 929.755C274.855 929.75 267.566 928.164 260.848 925.104C254.13 922.043 248.138 917.577 243.272 912.005C238.406 906.433 234.777 899.882 232.628 892.788C230.479 885.695 229.859 878.222 230.808 870.869L282.267 877.587L333.735 870.941Z" fill="#97415D"/>
<path d="M230.801 870.941C231.741 878.295 231.11 885.767 228.951 892.857C226.792 899.947 223.155 906.494 218.281 912.059C213.407 917.625 207.409 922.082 200.687 925.133C193.965 928.185 186.673 929.76 179.297 929.755C171.922 929.75 164.632 928.164 157.914 925.104C151.196 922.043 145.205 917.577 140.338 912.005C135.472 906.433 131.844 899.882 129.695 892.788C127.546 885.695 126.925 878.222 127.875 870.869L179.333 877.587L230.801 870.941Z" fill="#97415D"/>
<path d="M127.863 870.941C128.803 878.295 128.172 885.767 126.014 892.857C123.855 899.947 120.217 906.494 115.343 912.059C110.47 917.625 104.472 922.082 97.7496 925.133C91.0275 928.185 83.7356 929.76 76.36 929.755C68.9844 929.75 61.6946 928.164 54.9767 925.104C48.2588 922.043 42.2671 917.577 37.401 912.005C32.5349 906.433 28.9064 899.882 26.7572 892.788C24.608 885.695 23.9876 878.222 24.9374 870.869L76.3958 877.587L127.863 870.941Z" fill="#97415D"/>
<path d="M6.62497 865.093C5.68314 872.388 6.31525 879.798 8.47916 886.831C10.6431 893.863 14.289 900.356 19.174 905.876C24.059 911.396 30.0707 915.817 36.8083 918.843C43.546 921.87 50.8548 923.432 58.2474 923.427C65.64 923.422 72.9466 921.849 79.6801 918.814C86.4135 915.778 92.4191 911.349 97.2964 905.822C102.174 900.295 105.811 893.798 107.965 886.762C110.119 879.727 110.741 872.315 109.789 865.022L58.2115 871.685L6.62497 865.093Z" fill="#B55373"/>
<path d="M109.797 865.093C108.855 872.388 109.487 879.798 111.651 886.831C113.815 893.863 117.461 900.356 122.346 905.876C127.231 911.396 133.243 915.817 139.98 918.843C146.718 921.87 154.027 923.432 161.419 923.427C168.812 923.422 176.119 921.849 182.852 918.814C189.585 915.778 195.591 911.349 200.468 905.822C205.346 900.295 208.983 893.798 211.137 886.762C213.291 879.727 213.913 872.315 212.961 865.022L161.383 871.685L109.797 865.093Z" fill="#B55373"/>
<path d="M212.961 865.093C212.019 872.388 212.651 879.798 214.815 886.831C216.979 893.863 220.625 900.356 225.51 905.876C230.395 911.396 236.407 915.817 243.144 918.843C249.882 921.87 257.191 923.432 264.583 923.427C271.976 923.422 279.283 921.849 286.016 918.814C292.749 915.778 298.755 911.349 303.632 905.822C308.51 900.295 312.147 893.798 314.301 886.762C316.455 879.727 317.077 872.315 316.125 865.022L264.547 871.685L212.961 865.093Z" fill="#B55373"/>
<path d="M316 865.093C315.058 872.388 315.69 879.798 317.854 886.831C320.018 893.863 323.664 900.356 328.549 905.876C333.434 911.396 339.446 915.817 346.183 918.843C352.921 921.87 360.23 923.432 367.622 923.427C375.015 923.422 382.322 921.849 389.055 918.814C395.789 915.778 401.794 911.349 406.671 905.822C411.549 900.295 415.186 893.798 417.34 886.762C419.494 879.727 420.116 872.315 419.164 865.022L367.586 871.685L316 865.093Z" fill="#B55373"/>
<path d="M419.172 865.093C418.23 872.388 418.862 879.798 421.026 886.831C423.19 893.863 426.836 900.356 431.721 905.876C436.606 911.396 442.618 915.817 449.355 918.843C456.093 921.87 463.402 923.432 470.794 923.427C478.187 923.422 485.494 921.849 492.227 918.814C498.96 915.778 504.966 911.349 509.843 905.822C514.721 900.295 518.358 893.798 520.512 886.762C522.666 879.727 523.288 872.315 522.336 865.022L470.758 871.685L419.172 865.093Z" fill="#B55373"/>
<path d="M522.352 865.093C521.41 872.388 522.042 879.798 524.206 886.831C526.37 893.863 530.016 900.356 534.901 905.876C539.786 911.396 545.797 915.817 552.535 918.843C559.273 921.87 566.581 923.432 573.974 923.427C581.367 923.422 588.673 921.849 595.407 918.814C602.14 915.778 608.146 911.349 613.023 905.822C617.9 900.295 621.537 893.798 623.691 886.762C625.846 879.727 626.467 872.315 625.515 865.022L573.938 871.685L522.352 865.093Z" fill="#B55373"/>
<rect x="7.94531" width="1440" height="872.867" fill="#B55373"/>
<path d="M625.516 865.093C624.574 872.388 625.206 879.798 627.37 886.831C629.534 893.863 633.18 900.356 638.065 905.876C642.95 911.396 648.961 915.817 655.699 918.843C662.437 921.87 669.745 923.432 677.138 923.427C684.531 923.422 691.837 921.849 698.571 918.814C705.304 915.778 711.31 911.349 716.187 905.822C721.064 900.295 724.701 893.798 726.855 886.762C729.01 879.727 729.631 872.315 728.679 865.022L677.102 871.685L625.516 865.093Z" fill="#B55373"/>
<path d="M728.672 865.093C727.73 872.388 728.362 879.798 730.526 886.831C732.69 893.863 736.336 900.356 741.221 905.876C746.106 911.396 752.118 915.817 758.855 918.843C765.593 921.87 772.902 923.432 780.294 923.427C787.687 923.422 794.994 921.849 801.727 918.814C808.46 915.778 814.466 911.349 819.343 905.822C824.221 900.295 827.858 893.798 830.012 886.762C832.166 879.727 832.788 872.315 831.836 865.022L780.258 871.685L728.672 865.093Z" fill="#B55373"/>
<path d="M831.859 865.093C830.918 872.388 831.55 879.798 833.714 886.831C835.877 893.863 839.523 900.356 844.408 905.876C849.293 911.396 855.305 915.817 862.043 918.843C868.78 921.87 876.089 923.432 883.482 923.427C890.874 923.422 898.181 921.849 904.914 918.814C911.648 915.778 917.653 911.349 922.531 905.822C927.408 900.295 931.045 893.798 933.199 886.762C935.353 879.727 935.975 872.315 935.023 865.022L883.446 871.685L831.859 865.093Z" fill="#B55373"/>
<path d="M937.223 866.081C936.281 873.376 936.913 880.786 939.077 887.819C941.241 894.851 944.887 901.344 949.772 906.864C954.657 912.384 960.668 916.805 967.406 919.831C974.144 922.858 981.452 924.421 988.845 924.416C996.238 924.41 1003.54 922.838 1010.28 919.802C1017.01 916.766 1023.02 912.337 1027.89 906.81C1032.77 901.284 1036.41 894.786 1038.56 887.75C1040.72 880.715 1041.34 873.304 1040.39 866.01L988.809 872.673L937.223 866.081Z" fill="#B55373"/>
<path d="M1038.21 864.317C1037.27 871.65 1037.91 879.099 1040.07 886.168C1042.23 893.236 1045.88 899.763 1050.76 905.311C1055.65 910.86 1061.66 915.304 1068.4 918.346C1075.14 921.388 1082.44 922.959 1089.84 922.954C1097.23 922.949 1104.54 921.368 1111.27 918.316C1118 915.265 1124.01 910.813 1128.89 905.258C1133.76 899.702 1137.4 893.171 1139.55 886.099C1141.71 879.027 1142.33 871.577 1141.38 864.246L1089.8 870.944L1038.21 864.317Z" fill="#B55373"/>
<path d="M1139.72 864.317C1138.78 871.65 1139.41 879.099 1141.58 886.168C1143.74 893.236 1147.39 899.763 1152.27 905.311C1157.16 910.86 1163.17 915.304 1169.91 918.346C1176.64 921.388 1183.95 922.959 1191.35 922.954C1198.74 922.949 1206.04 921.368 1212.78 918.316C1219.51 915.265 1225.52 910.813 1230.39 905.258C1235.27 899.702 1238.91 893.171 1241.06 886.099C1243.22 879.027 1243.84 871.577 1242.89 864.246L1191.31 870.944L1139.72 864.317Z" fill="#B55373"/>
<path d="M1242.91 864.317C1241.97 871.65 1242.6 879.099 1244.76 886.168C1246.93 893.236 1250.57 899.763 1255.46 905.311C1260.34 910.86 1266.36 915.304 1273.09 918.346C1279.83 921.388 1287.14 922.959 1294.53 922.954C1301.93 922.949 1309.23 921.368 1315.97 918.316C1322.7 915.265 1328.7 910.813 1333.58 905.258C1338.46 899.702 1342.1 893.171 1344.25 886.099C1346.4 879.027 1347.03 871.577 1346.07 864.246L1294.5 870.944L1242.91 864.317Z" fill="#B55373"/>
<path d="M1346.08 864.317C1345.14 871.649 1345.76 879.096 1347.89 886.161C1350.02 893.226 1353.63 899.747 1358.46 905.289C1363.29 910.83 1369.23 915.265 1375.9 918.299C1382.57 921.332 1389.8 922.893 1397.12 922.879C1404.44 922.864 1411.68 921.274 1418.35 918.215C1425.02 915.155 1430.97 910.697 1435.81 905.136C1440.65 899.575 1444.26 893.04 1446.4 885.967C1448.54 878.894 1449.16 871.444 1448.23 864.116L1397.15 870.877L1346.08 864.317Z" fill="#B55373"/>
</svg>
