<svg width="87" height="73" viewBox="0 0 87 73" fill="none" xmlns="http://www.w3.org/2000/svg">
<path d="M53.1247 29.9772L66.8439 47.8404L77.7544 31.0353C77.5081 34.9705 77.7646 38.1563 78.742 41.2474C79.971 45.1341 82.3398 48.8711 86.2824 53.76C86.5156 54.0411 86.7522 54.3312 86.9922 54.632L72.1722 70.8136C67.151 73.5862 64.3948 73.7147 60.0188 70.8356C50.997 63.3048 48.7089 57.8714 45.7699 47.718C43.6367 39.3934 41.9944 34.5089 37.2766 24.9387C33.8892 18.8803 31.4621 18.2325 27.0017 18.1199C20.6499 18.3531 17.312 17.9514 12.6608 15.2496L1.2314 5.88553C-0.642845 3.39358 -0.235619 2.77065 1.50589 2.18838C0.645956 0.40058 1.03836 -0.231697 5.17114 0.0742346C9.27934 1.72336 10.7992 3.35997 13.906 5.91788C19.606 9.78104 22.9299 9.5622 28.8626 8.96317L35.7173 9.94784L30.8554 7.44127L18.3795 4.10176C15.3644 1.71903 15.6101 0.93771 19.9914 0.624015C23.407 1.21709 24.8516 1.86678 27.057 3.19912C36.4464 4.04733 38.6961 5.79364 41.7755 9.31766L53.1247 29.9772Z" fill="#F0E0D1"/>
</svg>
