<svg width="101" height="121" viewBox="0 0 101 121" fill="none" xmlns="http://www.w3.org/2000/svg">
<path d="M70.9563 63.7423C58.5118 68.1488 53.4335 64.9819 41.4574 70.8806L41.449 70.8782C47.6992 62.768 51.9369 57.018 55.0696 48.1599C58.2361 39.206 59.502 29.1227 65.5857 21.8296C68.0868 18.8313 71.5192 16.4313 77.3699 14.4929C82.5171 13.3148 87.384 12.6604 96.3445 11.47C101.605 10.2576 102.102 11.0011 97.8875 14.9495C93.6881 18.3313 91.1405 21.4299 89.6641 26.0643C87.1588 33.9286 87.2447 42.5427 83.7966 50.0417C80.7158 56.742 77.0591 60.4357 70.9563 63.7423Z" fill="#6A9B4D"/>
<path d="M27.9984 103.986C38.9712 107.318 43.2529 104.37 53.8782 109.015L53.8854 109.013C48.5916 102.754 44.8604 98.1678 41.9061 91.567C38.0264 82.8982 36.7959 72.3581 29.6628 66.0876C27.5225 64.2061 24.7 62.6888 20.4878 61.5028C15.9748 60.6839 11.7256 60.3082 3.90304 59.6291C-0.709664 58.7848 -1.11173 59.4497 2.70155 62.7095C5.97845 65.1112 8.16834 67.3771 9.64704 70.5225C13.1585 77.992 12.9812 86.8815 17.0947 94.0372C19.8489 98.8283 23.046 101.587 27.9984 103.986Z" fill="#6A9B4D"/>
</svg>
