<svg width="119" height="135" viewBox="0 0 119 135" fill="none" xmlns="http://www.w3.org/2000/svg">
<path d="M21.5146 73.6061C35.189 82.2181 42.1057 79.8034 54.8192 90.0712L54.8298 90.0706C49.7915 79.2246 46.3626 71.4376 44.8805 60.8253C43.129 48.2839 44.9315 34.5155 38.4545 23.6341C36.2469 19.9252 32.8773 16.5364 27.1133 13.0683C21.2839 10.276 15.6482 8.18429 5.2684 4.35071C-0.687045 1.48683 -1.48091 2.24088 2.48919 8.09047C6.27575 12.859 8.4483 16.9613 9.16684 22.2257C10.6551 33.1295 7.6064 44.4109 10.1681 55.1136C12.0964 63.1703 15.4432 68.2998 21.5146 73.6061Z" fill="#6A9B4D"/>
<path d="M70.4237 112.787C56.386 112.796 52.4165 107.822 38.3197 109.493L38.3122 109.488C46.2337 104.359 52.0114 100.473 57.499 94.4684C66.0416 85.1207 71.4825 71.5647 83.3713 67.2044C86.2634 66.1437 89.7329 65.5923 94.3015 65.6825C99.8794 66.3249 104.991 67.393 114.396 69.374C120.1 70.0221 120.335 70.9437 114.71 73.4092C110.524 74.8819 107.391 76.5351 104.74 79.1191C96.8606 86.8015 94.0048 98.6682 85.7231 105.915C81.1484 109.918 76.6233 111.806 70.4237 112.787Z" fill="#6A9B4D"/>
</svg>
