<svg width="762" height="589" viewBox="0 0 762 589" fill="none" xmlns="http://www.w3.org/2000/svg">
<path d="M0 0V46.3219L48.0153 71.8451H109.024V68.8406H52.835L10.5203 45.4647H748.514L703.733 69.5963H649.608V72.2188L706.104 73.2026L761.055 50.0138V0.0238337L0 0Z" fill="#C099AC"/>
<path d="M105.286 68.7686V97.0941H652.116V69.7034V45.1219L105.286 44.0508V68.7686Z" fill="#A4758B"/>
<path d="M4.39062 45.5922L47.1249 68.7686H105.286V44.0508L4.39062 45.5922Z" fill="#94677C"/>
<path d="M652.116 69.7034H704.485L751.252 45.1219H652.116V69.7034Z" fill="#93687C"/>
<path d="M280.927 39.884C280.019 50.9829 280.909 55.7563 289.438 56.3973L470.949 55.0323C476.887 54.4735 478.328 52.0952 478.94 45.7799V39.0508L280.927 39.884Z" fill="#C399AD"/>
<path d="M108.526 70.2617H59.6018C47.4938 71.001 44.3025 74.8434 43.5243 86.3378V571.421C43.477 583.094 45.2355 588.285 59.6018 588.896H291.659V580.172H468.154V588.896H699.785C717.263 588.677 719.463 581.669 718.046 564.313V86.6358C717.66 76.8131 718.359 70.9312 697.862 70.2967H652.209V95.7664H108.526V70.2617Z" fill="#EAC9D8"/>
<path d="M56.5043 121.61C56.4424 106.969 62.9842 104.726 81.2225 105.272L684.135 105.271C696.753 105.28 701.707 107.587 703.827 119.517V553.579C704.311 565.449 700.765 569.097 690.42 572.433H73.2637C61.8719 571.839 56.7877 569.961 56.5043 555.674V121.61Z" stroke="#D1ADBF" stroke-width="4"/>
<rect x="291.742" y="579.875" width="175.955" height="9.02744" fill="#B8849A"/>
<rect x="102.09" y="504.113" width="557.743" height="50.7523" rx="8" fill="#C196AA" stroke="#AA8499" stroke-width="2"/>
<path d="M199.312 516.949H180.141V543.021H199.312L229.883 537.981H293.193V523.032H229.883L199.312 516.949Z" fill="#5D5759" stroke="#B8B8B8" stroke-width="3"/>
<path d="M576.617 543.367L595.562 543.367L595.563 517.295L576.617 517.295L546.407 522.336L483.845 522.336L483.845 537.284L546.407 537.284L576.617 543.367Z" fill="#5D5759" stroke="#B8B8B8" stroke-width="3"/>
<path d="M291.285 518.432V542.468C367.601 545.18 410.149 545.397 485.654 542.468V518.432C409.731 514.667 367.214 514.965 291.285 518.432Z" fill="#4A322A"/>
<path d="M595.562 546.041V514.582H624.639C632.225 526.423 633.519 533.436 634.816 546.041H595.562Z" fill="url(#paint0_linear_3510_9261)"/>
<path d="M180.143 545.82V514.278C157.952 506.418 146.456 504.05 133.588 516.659C125.43 524.937 125.757 531.979 130.241 540.464C141.937 558.215 158.836 549.415 180.143 545.82Z" fill="url(#paint1_linear_3510_9261)"/>
<defs>
<linearGradient id="paint0_linear_3510_9261" x1="596.095" y1="530.312" x2="634.819" y2="530.312" gradientUnits="userSpaceOnUse">
<stop stop-color="#3E2721"/>
<stop offset="1" stop-color="#694D42"/>
</linearGradient>
<linearGradient id="paint1_linear_3510_9261" x1="127.825" y1="529.495" x2="180.147" y2="529.495" gradientUnits="userSpaceOnUse">
<stop stop-color="#3E2721"/>
<stop offset="1" stop-color="#694D42"/>
</linearGradient>
</defs>
</svg>
