<svg width="45" height="78" viewBox="0 0 45 78" fill="none" xmlns="http://www.w3.org/2000/svg">
<path d="M30.3363 58.7537C26.1213 60.2462 24.4013 59.1736 20.3449 61.1715L20.3421 61.1707C21.308 59.9174 22.1319 58.8305 22.8432 57.7341C26.3144 52.3834 26.4542 44.0787 32.5086 42.0728C34.252 41.6738 35.9004 41.4522 38.9354 41.049C40.7171 40.6383 40.8855 40.8902 39.458 42.2275C34.8188 45.9634 36.5774 54.2709 31.8017 57.8305C31.3625 58.1579 30.8779 58.4603 30.3363 58.7537Z" fill="#6A9B4D"/>
<path d="M15.3094 66.1133C19.0259 67.242 20.4761 66.2433 24.0749 67.8167L24.0773 67.8159C23.1897 66.7665 22.4318 65.8559 21.7713 64.9326C18.5478 60.4266 18.0985 53.2257 12.7655 51.7242C11.2369 51.4468 9.79771 51.3195 7.14819 51.0895C5.58585 50.8036 5.44967 51.0287 6.74124 52.1329C10.9144 55.1915 9.71655 62.4698 14.0013 65.3701C14.3953 65.6368 14.8278 65.8801 15.3094 66.1133Z" fill="#6A9B4D"/>
<path d="M22.2148 24.6133V77.5067" stroke="#8BA562" stroke-width="3"/>
<path d="M18.265 38.2987C20.0606 34.5361 21.557 33.424 20.9938 24.8874C19.9894 24.6675 19.3738 24.8036 18.0377 25.7963C15.5439 28.5521 14.3726 30.4072 13.0823 34.4799C12.453 36.814 12.2837 38.3661 14.5376 39.7992C16.0604 40.2689 17.0301 40.1906 18.265 38.2987Z" fill="#FFC800"/>
<path d="M29.7207 35.7881C28.6536 31.7578 25.896 24.915 23.403 24.8138C22.4951 25.2963 22.4869 25.9417 22.1111 27.5633C21.9943 31.2781 21.9776 32.826 23.6305 36.7655C24.6618 38.9519 25.4709 40.4966 28.1166 40.1299C29.5813 39.5021 30.0042 38.0295 29.7207 35.7881Z" fill="#FFC800"/>
<path d="M37.9603 10.4507C33.9854 11.7085 27.2816 14.7888 27.2993 17.2838C27.8246 18.1678 28.4696 18.1452 30.1072 18.4433C33.8234 18.3831 35.3703 18.326 39.2266 16.4874C41.3614 15.3532 42.8658 14.4714 42.3735 11.8462C41.6768 10.413 40.1856 10.0608 37.9603 10.4507Z" fill="#FFC800"/>
<path d="M19.5743 4.25953C19.508 8.14409 20.2436 14.9797 22.4533 15.7032C23.3899 15.501 23.5611 14.9244 24.3096 13.5658C25.3573 10.2646 25.7651 8.88092 25.2831 4.92899C24.9134 2.70683 24.58 1.11642 22.1147 0.773635C20.642 0.964686 19.889 2.17783 19.5743 4.25953Z" fill="#FFC800"/>
<path d="M29.1069 4.30612C26.8346 7.72688 23.5947 14.2318 25.1498 16.135C26.0989 16.4887 26.5798 16.0728 28.0203 15.2898C30.8341 12.9476 31.9856 11.9481 33.8081 8.15493C34.7451 5.96585 35.3545 4.35992 33.3549 2.65003C31.9349 1.98103 30.5733 2.63208 29.1069 4.30612Z" fill="#FFC800"/>
<path d="M10.6298 7.82045C12.7457 11.3401 17.233 17.0564 19.6191 16.4677C20.3456 15.7619 20.1761 15.1492 20.0864 13.512C19.1771 9.96572 18.7679 8.49686 16.1227 5.22384C14.5469 3.43866 13.3575 2.19951 10.9553 3.27273C9.74202 4.26866 9.74629 5.77792 10.6298 7.82045Z" fill="#FFC800"/>
<path d="M5.15655 16.2336C8.93183 17.8499 15.9154 19.86 17.506 17.9864C17.6822 16.989 17.1863 16.5912 16.1556 15.3161C13.3432 12.9722 12.152 12.0205 8.09176 10.9139C5.76932 10.3882 4.07967 10.0793 2.75958 12.3552C2.3584 13.8727 3.24494 15.0942 5.15655 16.2336Z" fill="#FFC800"/>
<path d="M37.6613 29.9623C34.8935 26.5999 29.3047 21.4409 26.7293 23.5718C25.1607 24.7215 26.4939 25.0057 26.9727 26.5999C28.7153 29.8827 29.4692 31.2347 32.8597 33.834C34.8402 35.2201 36.3094 36.1593 38.4241 34.5277C39.384 33.2557 39.02 31.7673 37.6613 29.9623Z" fill="#FFC800"/>
<path d="M41.0478 20.2543C36.9646 18.7396 29.5395 17.0906 28.385 20.2276C27.6073 22.0101 28.8821 22.2129 30.0477 22.8699C33.2794 24.6916 34.6065 25.4734 38.8443 26.0153C41.2532 26.2175 42.9954 26.2906 44.0028 23.8169C44.1929 22.2347 43.1299 21.1312 41.0478 20.2543Z" fill="#FFC800"/>
<path d="M9.31303 34.899C12.5813 32.3106 14.3633 31.3945 17.6144 23.4812C16.8093 22.8417 16.7717 23.1682 15.1351 23.4716C11.683 24.8487 9.14702 25.742 6.19596 28.8312C4.6037 30.6501 3.87929 32.4992 5.27248 34.778C6.43312 35.87 7.37157 36.0544 9.31303 34.899Z" fill="#FFC800"/>
<path d="M4.02877 26.7354C8.08932 25.1898 16.9039 22.0088 16.339 20.6311C15.9489 19.6797 15.7566 19.9463 14.1803 19.4115C10.4954 18.9268 8.87373 18.6799 4.2292 20.7553C1.90616 21.9266 1.61357 22.7783 1.716 25.4474C2.19533 26.9671 1.7703 26.7952 4.02877 26.7354Z" fill="#FFC800"/>
<ellipse cx="22.0974" cy="19.7491" rx="7.1169" ry="6.25305" fill="#FFEEB2"/>
</svg>
