<svg width="1453" height="532" viewBox="0 0 1453 532" fill="none" xmlns="http://www.w3.org/2000/svg">
<path d="M14.1955 66.0478C13.25 58.6931 13.8845 51.2215 16.0569 44.1312C18.2292 37.0408 21.8893 30.4946 26.7932 24.9291C31.6972 19.3635 37.7322 14.9064 44.496 11.8549C51.2598 8.8035 58.597 7.22781 66.0183 7.23293C73.4396 7.23805 80.7746 8.82386 87.5342 11.8846C94.2938 14.9454 100.323 19.4108 105.219 24.9832C110.115 30.5555 113.766 37.1067 115.929 44.2001C118.091 51.2934 118.715 58.7658 117.76 66.1192L65.9823 59.4015L14.1955 66.0478Z" fill="#97415D"/>
<path d="M117.762 66.0478C116.816 58.6931 117.451 51.2215 119.623 44.1312C121.796 37.0408 125.456 30.4946 130.36 24.9291C135.264 19.3635 141.299 14.9064 148.062 11.8549C154.826 8.8035 162.163 7.22781 169.585 7.23293C177.006 7.23805 184.341 8.82386 191.101 11.8846C197.86 14.9454 203.889 19.4108 208.785 24.9832C213.682 30.5555 217.333 37.1067 219.495 44.2001C221.658 51.2934 222.282 58.7658 221.326 66.1192L169.549 59.4015L117.762 66.0478Z" fill="#97415D"/>
<path d="M221.344 66.0478C220.398 58.6931 221.033 51.2215 223.205 44.1312C225.378 37.0408 229.038 30.4946 233.942 24.9291C238.846 19.3635 244.881 14.9064 251.644 11.8549C258.408 8.8035 265.745 7.22781 273.167 7.23293C280.588 7.23805 287.923 8.82386 294.683 11.8846C301.442 14.9454 307.471 19.4108 312.367 24.9832C317.264 30.5555 320.915 37.1067 323.077 44.2001C325.24 51.2934 325.864 58.7658 324.908 66.1192L273.131 59.4015L221.344 66.0478Z" fill="#97415D"/>
<path d="M324.785 66.0478C323.84 58.6931 324.474 51.2215 326.647 44.1312C328.819 37.0408 332.479 30.4946 337.383 24.9291C342.287 19.3635 348.322 14.9064 355.086 11.8549C361.85 8.8035 369.187 7.22781 376.608 7.23293C384.029 7.23805 391.364 8.82386 398.124 11.8846C404.884 14.9454 410.913 19.4108 415.809 24.9832C420.705 30.5555 424.356 37.1067 426.519 44.2001C428.681 51.2934 429.305 58.7658 428.35 66.1192L376.572 59.4015L324.785 66.0478Z" fill="#97415D"/>
<path d="M428.363 66.0478C427.418 58.6931 428.053 51.2215 430.225 44.1312C432.397 37.0408 436.057 30.4946 440.961 24.9291C445.865 19.3635 451.9 14.9064 458.664 11.8549C465.428 8.8035 472.765 7.22781 480.186 7.23293C487.608 7.23805 494.943 8.82386 501.702 11.8846C508.462 14.9454 514.491 19.4108 519.387 24.9832C524.283 30.5555 527.934 37.1067 530.097 44.2001C532.259 51.2934 532.883 58.7658 531.928 66.1192L480.15 59.4015L428.363 66.0478Z" fill="#97415D"/>
<path d="M531.934 66.0478C530.988 58.6931 531.623 51.2215 533.795 44.1312C535.967 37.0408 539.628 30.4946 544.532 24.9291C549.435 19.3635 555.47 14.9064 562.234 11.8549C568.998 8.8035 576.335 7.22781 583.757 7.23293C591.178 7.23805 598.513 8.82386 605.272 11.8846C612.032 14.9454 618.061 19.4108 622.957 24.9832C627.853 30.5555 631.505 37.1067 633.667 44.2001C635.83 51.2934 636.454 58.7658 635.498 66.1192L583.721 59.4015L531.934 66.0478Z" fill="#97415D"/>
<path d="M635.504 66.0478C634.559 58.6931 635.193 51.2215 637.365 44.1312C639.538 37.0408 643.198 30.4946 648.102 24.9291C653.006 19.3635 659.041 14.9064 665.805 11.8549C672.568 8.8035 679.906 7.22781 687.327 7.23293C694.748 7.23805 702.083 8.82386 708.843 11.8846C715.602 14.9454 721.631 19.4108 726.527 24.9832C731.424 30.5555 735.075 37.1067 737.237 44.2001C739.4 51.2934 740.024 58.7658 739.068 66.1192L687.291 59.4015L635.504 66.0478Z" fill="#97415D"/>
<path d="M739.094 66.0478C738.148 58.6931 738.783 51.2215 740.955 44.1312C743.128 37.0408 746.788 30.4946 751.692 24.9291C756.596 19.3635 762.631 14.9064 769.394 11.8549C776.158 8.8035 783.495 7.22781 790.917 7.23293C798.338 7.23805 805.673 8.82386 812.433 11.8846C819.192 14.9454 825.221 19.4108 830.117 24.9832C835.014 30.5555 838.665 37.1067 840.827 44.2001C842.99 51.2934 843.614 58.7658 842.658 66.1192L790.881 59.4015L739.094 66.0478Z" fill="#97415D"/>
<path d="M842.66 66.0478C841.715 58.6931 842.349 51.2215 844.522 44.1312C846.694 37.0408 850.354 30.4946 855.258 24.9291C860.162 19.3635 866.197 14.9064 872.961 11.8549C879.725 8.8035 887.062 7.22781 894.483 7.23293C901.904 7.23805 909.239 8.82386 915.999 11.8846C922.759 14.9454 928.788 19.4108 933.684 24.9832C938.58 30.5555 942.231 37.1067 944.394 44.2001C946.556 51.2934 947.18 58.7658 946.225 66.1192L894.447 59.4015L842.66 66.0478Z" fill="#97415D"/>
<path d="M948.235 65.0361C947.289 57.6814 947.924 50.2098 950.096 43.1194C952.268 36.0291 955.928 29.4829 960.832 23.9173C965.736 18.3518 971.771 13.8947 978.535 10.8432C985.299 7.79178 992.636 6.21609 1000.06 6.22121C1007.48 6.22633 1014.81 7.81214 1021.57 10.8729C1028.33 13.9337 1034.36 18.3991 1039.26 23.9714C1044.15 29.5438 1047.81 36.095 1049.97 43.1883C1052.13 50.2817 1052.75 57.7541 1051.8 65.1075L1000.02 58.3898L948.235 65.0361Z" fill="#97415D"/>
<path d="M1049.81 66.04C1048.86 58.6853 1049.5 51.2137 1051.67 44.1233C1053.84 37.033 1057.5 30.4868 1062.41 24.9213C1067.31 19.3557 1073.35 14.8986 1080.11 11.8471C1086.87 8.79569 1094.21 7.22 1101.63 7.22512C1109.05 7.23024 1116.39 8.81605 1123.15 11.8768C1129.91 14.9376 1135.94 19.403 1140.83 24.9754C1145.73 30.5477 1149.38 37.0989 1151.54 44.1922C1153.7 51.2856 1154.33 58.758 1153.37 66.1114L1101.6 59.3937L1049.81 66.04Z" fill="#97415D"/>
<path d="M1151.72 66.04C1150.77 58.6853 1151.41 51.2137 1153.58 44.1233C1155.75 37.033 1159.41 30.4868 1164.32 24.9213C1169.22 19.3557 1175.26 14.8986 1182.02 11.8471C1188.78 8.79569 1196.12 7.22 1203.54 7.22512C1210.96 7.23024 1218.3 8.81605 1225.06 11.8768C1231.82 14.9376 1237.85 19.403 1242.74 24.9754C1247.64 30.5477 1251.29 37.0989 1253.45 44.1922C1255.61 51.2856 1256.24 58.758 1255.28 66.1114L1203.51 59.3937L1151.72 66.04Z" fill="#97415D"/>
<path d="M1255.29 66.04C1254.34 58.6853 1254.97 51.2137 1257.15 44.1233C1259.32 37.033 1262.98 30.4868 1267.88 24.9213C1272.79 19.3557 1278.82 14.8986 1285.59 11.8471C1292.35 8.79569 1299.69 7.22 1307.11 7.22512C1314.53 7.23024 1321.86 8.81605 1328.62 11.8768C1335.38 14.9376 1341.41 19.403 1346.31 24.9754C1351.2 30.5477 1354.86 37.0989 1357.02 44.1922C1359.18 51.2856 1359.81 58.758 1358.85 66.1114L1307.07 59.3937L1255.29 66.04Z" fill="#97415D"/>
<path d="M1358.86 66.0411C1357.92 58.6864 1358.3 51.2466 1360 44.2178C1361.69 37.189 1364.65 30.7326 1368.68 25.2792C1372.71 19.8257 1377.72 15.5004 1383.37 12.5918C1389.02 9.68308 1395.19 8.25781 1401.45 8.41098C1407.72 8.56414 1413.95 10.2922 1419.72 13.48C1425.49 16.6678 1430.67 21.242 1434.92 26.8978C1439.16 32.5535 1442.38 39.1608 1444.34 46.279C1446.31 53.3973 1446.99 60.8631 1446.33 68.1785L1402.47 60.445L1358.86 66.0411Z" fill="#97415D"/>
<path d="M1445.96 74.9638C1446.91 67.5948 1446.35 60.1193 1444.34 53.0356C1442.32 45.9519 1438.89 39.4227 1434.27 33.8834C1429.64 28.3441 1423.94 23.922 1417.54 20.9118C1411.13 17.9016 1404.18 16.3726 1397.13 16.4267C1390.08 16.4807 1383.1 18.1166 1376.66 21.2253C1370.22 24.334 1364.47 28.844 1359.78 34.4547C1355.09 40.0654 1351.58 46.6478 1349.48 53.7631C1347.38 60.8784 1346.74 68.3631 1347.6 75.7182L1396.82 68.6517L1445.96 74.9638Z" fill="#B55373"/>
<path d="M1347.68 75.658C1348.63 68.2891 1347.99 60.803 1345.82 53.699C1343.64 46.5949 1339.98 40.0361 1335.07 34.4597C1330.16 28.8834 1324.12 24.4177 1317.35 21.3603C1310.58 18.303 1303.23 16.7242 1295.8 16.7293C1288.37 16.7345 1281.03 18.3234 1274.26 21.3901C1267.49 24.4568 1261.46 28.9308 1256.56 34.5139C1251.66 40.0971 1248 46.661 1245.84 53.768C1243.67 60.8751 1243.05 68.362 1244 75.7296L1295.84 68.9989L1347.68 75.658Z" fill="#B55373"/>
<path d="M1243.99 75.658C1244.94 68.2891 1244.3 60.803 1242.13 53.699C1239.95 46.5949 1236.29 40.0361 1231.38 34.4597C1226.47 28.8834 1220.43 24.4177 1213.66 21.3603C1206.89 18.303 1199.54 16.7242 1192.11 16.7293C1184.68 16.7345 1177.34 18.3234 1170.57 21.3901C1163.81 24.4568 1157.77 28.9308 1152.87 34.5139C1147.97 40.0971 1144.31 46.661 1142.15 53.768C1139.98 60.8751 1139.36 68.362 1140.31 75.7296L1192.15 68.9989L1243.99 75.658Z" fill="#B55373"/>
<path d="M1140.45 75.658C1141.39 68.2891 1140.76 60.803 1138.58 53.699C1136.41 46.5949 1132.74 40.0361 1127.83 34.4597C1122.93 28.8834 1116.88 24.4177 1110.11 21.3603C1103.34 18.303 1096 16.7242 1088.57 16.7293C1081.14 16.7345 1073.79 18.3234 1067.03 21.3901C1060.26 24.4568 1054.22 28.9308 1049.32 34.5139C1044.42 40.0971 1040.77 46.661 1038.6 53.768C1036.44 60.8751 1035.81 68.362 1036.77 75.7296L1088.6 68.9989L1140.45 75.658Z" fill="#B55373"/>
<path d="M1036.74 75.658C1037.69 68.2891 1037.05 60.803 1034.88 53.699C1032.7 46.5949 1029.04 40.0361 1024.13 34.4597C1019.22 28.8834 1013.18 24.4177 1006.41 21.3603C999.634 18.303 992.289 16.7242 984.859 16.7293C977.43 16.7345 970.087 18.3234 963.32 21.3901C956.553 24.4568 950.517 28.9308 945.616 34.5139C940.714 40.0971 937.059 46.661 934.894 53.768C932.729 60.8751 932.104 68.362 933.061 75.7296L984.895 68.9989L1036.74 75.658Z" fill="#B55373"/>
<path d="M933.051 75.658C933.998 68.2891 933.363 60.803 931.188 53.699C929.013 46.5949 925.349 40.0361 920.44 34.4597C915.531 28.8834 909.489 24.4177 902.718 21.3603C895.946 18.303 888.601 16.7242 881.172 16.7293C873.742 16.7345 866.399 18.3234 859.632 21.3901C852.865 24.4568 846.83 28.9308 841.928 34.5139C837.027 40.0971 833.372 46.661 831.207 53.768C829.042 60.8751 828.417 68.362 829.374 75.7296L881.208 68.9989L933.051 75.658Z" fill="#B55373"/>
<path d="M829.364 75.658C830.311 68.2891 829.675 60.803 827.501 53.699C825.326 46.5949 821.662 40.0361 816.752 34.4597C811.843 28.8834 805.801 24.4177 799.03 21.3603C792.259 18.303 784.914 16.7242 777.484 16.7293C770.055 16.7345 762.712 18.3234 755.945 21.3901C749.178 24.4568 743.142 28.9308 738.241 34.5139C733.339 40.0971 729.684 46.661 727.519 53.768C725.354 60.8751 724.729 68.362 725.686 75.7296L777.52 68.9989L829.364 75.658Z" fill="#B55373"/>
<path d="M725.676 75.658C726.623 68.2891 725.988 60.803 723.813 53.699C721.638 46.5949 717.974 40.0361 713.065 34.4597C708.156 28.8834 702.114 24.4177 695.343 21.3603C688.571 18.303 681.226 16.7242 673.797 16.7293C666.367 16.7345 659.024 18.3234 652.257 21.3901C645.49 24.4568 639.455 28.9308 634.553 34.5139C629.652 40.0971 625.997 46.661 623.832 53.768C621.667 60.8751 621.042 68.362 621.999 75.7296L673.833 68.9989L725.676 75.658Z" fill="#B55373"/>
<path d="M621.989 75.658C622.936 68.2891 622.3 60.803 620.126 53.699C617.951 46.5949 614.287 40.0361 609.377 34.4597C604.468 28.8834 598.426 24.4177 591.655 21.3603C584.884 18.303 577.539 16.7242 570.109 16.7293C562.68 16.7345 555.337 18.3234 548.57 21.3901C541.803 24.4568 535.767 28.9308 530.866 34.5139C525.964 40.0971 522.309 46.661 520.144 53.768C517.979 60.8751 517.354 68.362 518.311 75.7296L570.145 68.9989L621.989 75.658Z" fill="#B55373"/>
<path d="M414.618 75.658C415.564 68.2891 414.929 60.803 412.754 53.699C410.58 46.5949 406.916 40.0361 402.006 34.4597C397.097 28.8834 391.055 24.4177 384.284 21.3603C377.513 18.303 370.168 16.7242 362.738 16.7293C355.309 16.7345 347.966 18.3234 341.199 21.3901C334.432 24.4568 328.396 28.9308 323.495 34.5139C318.593 40.0971 314.938 46.661 312.773 53.768C310.608 60.8751 309.983 68.362 310.94 75.7296L362.774 68.9989L414.618 75.658Z" fill="#B55373"/>
<path d="M312.594 75.658C313.541 68.2891 312.906 60.803 310.731 53.699C308.556 46.5949 304.892 40.0361 299.983 34.4597C295.074 28.8834 289.032 24.4177 282.261 21.3603C275.489 18.303 268.144 16.7242 260.715 16.7293C253.285 16.7345 245.942 18.3234 239.175 21.3901C232.408 24.4568 226.373 28.9308 221.471 34.5139C216.57 40.0971 212.914 46.661 210.75 53.768C208.585 60.8751 207.96 68.362 208.916 75.7296L260.751 68.9989L312.594 75.658Z" fill="#B55373"/>
<path d="M208.899 75.658C209.846 68.2891 209.21 60.803 207.036 53.699C204.861 46.5949 201.197 40.0361 196.288 34.4597C191.378 28.8834 185.337 24.4177 178.565 21.3603C171.794 18.303 164.449 16.7242 157.019 16.7293C149.59 16.7345 142.247 18.3234 135.48 21.3901C128.713 24.4568 122.677 28.9308 117.776 34.5139C112.874 40.0971 109.219 46.661 107.054 53.768C104.889 60.8751 104.264 68.362 105.221 75.7296L157.056 68.9989L208.899 75.658Z" fill="#B55373"/>
<path d="M105.214 75.6587C106.161 68.2898 105.603 60.8137 103.579 53.729C101.555 46.6442 98.1101 40.1136 93.4749 34.5724C88.8396 29.0313 83.1201 24.607 76.6979 21.5944C70.2756 18.5819 63.2981 17.0504 56.2305 17.102C49.1628 17.1536 42.1676 18.7872 35.711 21.8937C29.2544 25.0003 23.4849 29.5085 18.7872 35.1178C14.0894 40.7272 10.5713 47.3086 8.46739 54.4235C6.3635 61.5384 5.72217 69.0232 6.58617 76.379L55.9378 69.3293L105.214 75.6587Z" fill="#B55373"/>
<path d="M516.305 74.658C517.252 67.2891 516.617 59.803 514.442 52.699C512.267 45.5949 508.603 39.0361 503.694 33.4597C498.784 27.8834 492.743 23.4177 485.972 20.3603C479.2 17.303 471.855 15.7242 464.426 15.7293C456.996 15.7345 449.653 17.3234 442.886 20.3901C436.119 23.4568 430.084 27.9308 425.182 33.5139C420.28 39.0971 416.625 45.661 414.461 52.768C412.296 59.8751 411.671 67.362 412.627 74.7296L464.462 67.9989L516.305 74.658Z" fill="#B55373"/>
<rect x="6.44141" y="67.4805" width="1440" height="463.887" fill="#B55373"/>
</svg>
