<svg width="433" height="796" viewBox="0 0 433 796" fill="none" xmlns="http://www.w3.org/2000/svg">
<path d="M32.0625 689.93L367.477 689.934L405.458 767.869L32.0625 764.909V689.93Z" fill="#C9C8C8"/>
<rect y="18.2656" width="32.8429" height="777.267" rx="4" fill="#FFFDFE"/>
<rect y="30.2852" width="30.2854" height="432.744" rx="10" transform="rotate(-90 0 30.2852)" fill="#FFFDFE"/>
<path d="M367.692 70.0173L401.738 27.4805V760.302L367.102 689.568L367.692 70.0173Z" fill="#D9D9D9"/>
<rect x="26.6406" y="70.8125" width="340.919" height="520.547" fill="#E8E7E2"/>
<rect x="399.898" y="13" width="32.8429" height="782.526" rx="10" fill="#FFFDFE"/>
<rect x="18.2891" y="795.516" width="32.8429" height="398.705" rx="10" transform="rotate(-90 18.2891 795.516)" fill="#FFFDFE"/>
<rect x="29.6641" y="617.336" width="337.895" height="72.5939" fill="#E8E7E2"/>
<path d="M29.1484 27.4805L399.788 30.7085L368.812 70.7074L29.1484 73.434V27.4805Z" fill="#D9D9D9"/>
<path d="M28.7812 601.744C28.7812 591.907 36.8551 583.986 46.6899 584.175L363.749 590.238C374.246 590.439 383.288 597.691 385.763 607.895C387.174 613.713 382.767 619.317 376.781 619.317H46.3539C36.6488 619.317 28.7812 611.449 28.7812 601.744Z" fill="#FDF9F6"/>
<path d="M50.0312 28.8516H392.85V42.3702L50.068 43.024L50.0312 28.8516Z" fill="#D9D9D9"/>
<circle cx="243.949" cy="116.566" r="14.1446" stroke="#6D4447" stroke-width="5"/>
<rect x="159.016" y="153.672" width="169.852" height="419.424" rx="21.5" stroke="#6D4447" stroke-width="5"/>
<rect x="172.352" y="168.027" width="143.722" height="392.585" rx="24" fill="#D3E8ED"/>
<path d="M182.109 353.7L314.639 229.715V307.034L182.109 430.378V353.7Z" fill="#FDFEFF"/>
<path d="M182.109 448.586L314.639 326.191V344.386L182.109 467.37V448.586Z" fill="#FDFEFF"/>
</svg>
