<svg width="106" height="724" viewBox="0 0 106 724" fill="none" xmlns="http://www.w3.org/2000/svg">
<path d="M91.256 34.6478C90.5943 19.4384 88.3855 13.5687 80.1125 15.4985C76.8525 16.8007 74.9856 19.4334 71.6997 23.2215C69.7262 25.1369 68.288 26.0366 66.9722 26.0506C65.5663 26.0657 64.3002 25.0696 62.67 23.2215L59.5854 17.6048C56.0545 12.7375 54.5386 13.6278 52.07 17.6048L47.7514 23.2215C46.0696 25.4246 44.8601 26.1962 43.7362 25.9546C42.7413 25.7407 41.8135 24.7329 40.6847 23.2215L37.6561 17.6048C35.3225 14.0159 33.9442 12.8876 30.5333 17.6048L25.8782 23.2215C24.1319 25.5024 22.794 26.5283 21.4598 26.4151C20.2158 26.3096 18.975 25.2137 17.4094 23.2215C13.4352 17.0085 10.8567 15.3552 5.76181 14.308H2.00391L3.0641 719.904C16.1561 710.737 24.7205 706.125 42.4702 719.904C44.4433 718.319 46.3209 716.927 48.123 715.716C62.9788 705.734 72.7071 708.06 88.5718 715.716C99.8263 715.015 102.51 712.001 103.1 703.592L91.256 456.809V34.6478Z" fill="#E494AE"/>
<path d="M48.123 715.716C62.9788 705.734 72.7071 708.06 88.5718 715.716C99.8263 715.015 102.51 712.001 103.1 703.592L91.256 456.809V34.6478C90.5943 19.4384 88.3855 13.5687 80.1125 15.4985C76.8525 16.8007 74.9856 19.4334 71.6997 23.2215C69.7262 25.1369 68.288 26.0366 66.9722 26.0506M48.123 715.716C46.3209 716.927 44.4433 718.319 42.4702 719.904C24.7205 706.125 16.1561 710.737 3.0641 719.904L2.00391 14.308H5.76181C10.8567 15.3552 13.4352 17.0085 17.4094 23.2215C18.975 25.2137 20.2158 26.3096 21.4598 26.4151M48.123 715.716L47.7514 44.1906M21.4598 26.4151C22.794 26.5283 24.1319 25.5024 25.8782 23.2215L30.5333 17.6048C33.9442 12.8876 35.3225 14.0159 37.6561 17.6048L40.6847 23.2215C41.8135 24.7329 42.7413 25.7407 43.7362 25.9546M21.4598 26.4151V0M43.7362 25.9546C44.8601 26.1962 46.0696 25.4246 47.7514 23.2215L52.07 17.6048C54.5386 13.6278 56.0545 12.7375 59.5854 17.6048L62.67 23.2215C64.3002 25.0696 65.5663 26.0657 66.9722 26.0506M43.7362 25.9546V1.06538M66.9722 26.0506V1.06538" stroke="#B55373" stroke-width="4"/>
</svg>
