<svg width="118" height="123" viewBox="0 0 118 123" fill="none" xmlns="http://www.w3.org/2000/svg">
<path d="M51.3037 5.07715C57.5308 2.21946 64.7208 2.35524 70.8359 5.44531L92.376 16.3301C97.1629 18.749 100.929 22.7982 102.994 27.748L113.181 52.165C115.502 57.7293 115.493 63.9921 113.156 69.5498L102.89 93.9658C100.886 98.7312 97.3021 102.661 92.7412 105.095L71.2588 116.558C64.9122 119.944 57.329 120.091 50.8555 116.954L25.9824 104.901C21.2089 102.588 17.4058 98.6629 15.2451 93.8184L4.61816 69.9912C2.02612 64.1792 2.01663 57.5412 4.5918 51.7217L15.1416 27.8818C17.3631 22.8618 21.3437 18.8268 26.333 16.5371L51.3037 5.07715Z" fill="white" stroke="#B85172"/>
<path d="M51.1426 12.6777C57.0928 9.94709 63.9634 10.0767 69.8066 13.0293L87.0283 21.7314C91.6024 24.0429 95.2005 27.9128 97.1738 32.6426L105.491 52.5771C107.71 57.8941 107.701 63.8797 105.468 69.1904L97.0674 89.168C95.1525 93.7216 91.7274 97.4773 87.3691 99.8027L70.209 108.959C64.1444 112.195 56.8977 112.335 50.7119 109.338L30.5459 99.5654C25.9844 97.355 22.3498 93.6039 20.2852 88.9746L11.6494 69.6113C9.17266 64.0577 9.16339 57.7151 11.624 52.1543L20.1797 32.8203C22.3024 28.0235 26.1056 24.1684 30.873 21.9805L51.1426 12.6777Z" stroke="#B85172" stroke-width="5"/>
</svg>
