<svg width="174" height="521" viewBox="0 0 174 521" fill="none" xmlns="http://www.w3.org/2000/svg">
<path d="M168.754 0L137.711 0.00112545C144.686 34.8885 145.549 62.4288 141.076 87.1916C139.68 94.9211 137.764 102.38 135.352 109.707C122.903 147.524 97.2379 181.834 61.6077 231.744C38.7054 272.788 21.4146 307.016 11.067 341.529C7.12628 354.672 4.19255 367.857 2.33934 381.476C-3.043 421.029 0.68917 464.238 15.3377 520.712H52.1086C24.8334 413.664 35.8292 352.33 82.5482 262.187C87.6155 252.41 93.103 242.294 99.0075 231.744C169.005 136.372 182.535 85.8349 168.754 0Z" fill="url(#paint0_linear_3413_2298)"/>
<defs>
<linearGradient id="paint0_linear_3413_2298" x1="86.7883" y1="0" x2="86.7883" y2="765.33" gradientUnits="userSpaceOnUse">
<stop stop-color="#6A9B4D"/>
<stop offset="1" stop-color="#24351A"/>
</linearGradient>
</defs>
</svg>
