<svg width="243" height="331" viewBox="0 0 243 331" fill="none" xmlns="http://www.w3.org/2000/svg">
<path d="M149.674 272.727L152.811 287.398L190.214 277.319L184.39 254.474L181.031 228.941L174.872 213.486L157.178 174.292C152.702 170.398 150.964 170.916 149.675 177.763L154.397 202.857L167.582 267.687L148.906 271.304L149.674 272.727Z" fill="#F0C3A2" stroke="#D9AE8E" stroke-width="2"/>
<path d="M44.4121 145.596C31.3951 148.165 18.7639 139.684 16.2138 126.663L4.59888 67.3589C2.05674 54.3791 10.4951 41.7891 23.4672 39.2076L197.077 4.65898C210.027 2.08184 222.627 10.45 225.274 23.3863L237.446 82.8748C240.116 95.9252 231.648 108.654 218.579 111.232L199.677 114.962L62.1221 142.102L44.4121 145.596Z" fill="white"/>
<path fill-rule="evenodd" clip-rule="evenodd" d="M23.4672 39.2076C10.4951 41.7891 2.05674 54.3791 4.59888 67.3589L16.2138 126.663C18.7639 139.684 31.3951 148.165 44.4121 145.596L62.1221 142.102L199.677 114.962L218.579 111.232C231.648 108.654 240.116 95.9252 237.446 82.8748L225.274 23.3863C222.627 10.45 210.027 2.08184 197.077 4.65898L23.4672 39.2076Z" fill="white"/>
<path d="M143.978 264.662C144.636 270.494 145.66 271.958 148.292 271.63L167.798 268.007L136.421 127.442L126.455 129.409L143.978 264.662Z" fill="white"/>
<path d="M44.4121 145.596C31.3951 148.165 18.7639 139.684 16.2138 126.663L4.59888 67.3589C2.05674 54.3791 10.4951 41.7891 23.4672 39.2076L197.077 4.65898C210.027 2.08184 222.627 10.45 225.274 23.3863L237.446 82.8748C240.116 95.9252 231.648 108.654 218.579 111.232L199.677 114.962L62.1221 142.102L44.4121 145.596Z" stroke="white" stroke-width="4"/>
<path fill-rule="evenodd" clip-rule="evenodd" d="M23.4672 39.2076C10.4951 41.7891 2.05674 54.3791 4.59888 67.3589L16.2138 126.663C18.7639 139.684 31.3951 148.165 44.4121 145.596L62.1221 142.102L199.677 114.962L218.579 111.232C231.648 108.654 240.116 95.9252 237.446 82.8748L225.274 23.3863C222.627 10.45 210.027 2.08184 197.077 4.65898L23.4672 39.2076Z" stroke="white" stroke-width="4"/>
<path d="M143.978 264.662C144.636 270.494 145.66 271.958 148.292 271.63L167.798 268.007L136.421 127.442L126.455 129.409L143.978 264.662Z" stroke="white" stroke-width="4"/>
<path d="M154.949 203.856L124.522 193.197C122.93 192.639 121.167 192.632 119.664 193.396C114.622 195.962 114.99 198.479 117.456 202.965L153.953 213.885C160.136 210.468 157.923 208.147 154.949 203.856Z" fill="#F0C3A2"/>
<path d="M153.953 213.885L117.456 202.965C112.216 207.988 111.208 210.839 116.163 216.184L155.964 223.943C160.07 219.384 159.901 217.096 153.953 213.885Z" fill="#F0C3A2"/>
<path d="M155.964 223.943L116.163 216.184C111.066 221.605 110.755 224.706 116.163 230.121C131.551 229.048 140.656 230.389 157.831 236.156C161.073 231.457 160.046 227.936 155.964 223.943Z" fill="#F0C3A2"/>
<path d="M157.831 236.156C140.656 230.389 131.551 229.048 116.163 230.121C111.789 235.901 110.19 239.052 118.749 243.772C118.749 243.772 131.625 243.205 138.202 242.758C139.878 242.644 140.165 242.571 140.876 242.478C144.375 242.022 148.306 244.383 156.765 241.32C158.902 239.125 158.88 238.021 157.831 236.156Z" fill="#F0C3A2"/>
<path d="M118.749 243.772L139.633 255.184L138.202 242.758C131.625 243.205 118.749 243.772 118.749 243.772Z" fill="#F0C3A2"/>
<path d="M117.456 202.965C114.99 198.479 114.622 195.962 119.664 193.396C121.167 192.632 122.93 192.639 124.522 193.197L154.949 203.856C157.923 208.147 160.136 210.468 153.953 213.885M117.456 202.965L153.953 213.885M117.456 202.965C112.216 207.988 111.208 210.839 116.163 216.184M153.953 213.885C159.901 217.096 160.07 219.384 155.964 223.943M155.964 223.943L116.163 216.184M155.964 223.943C160.046 227.936 161.073 231.457 157.831 236.156M116.163 216.184C111.066 221.605 110.755 224.706 116.163 230.121M116.163 230.121C131.551 229.048 140.656 230.389 157.831 236.156M116.163 230.121C111.789 235.901 110.19 239.052 118.749 243.772M157.831 236.156C158.88 238.021 158.902 239.125 156.765 241.32C148.306 244.383 144.375 242.022 140.876 242.478C140.165 242.571 139.878 242.644 138.202 242.758M118.749 243.772L139.633 255.184L138.202 242.758M118.749 243.772C118.749 243.772 131.625 243.205 138.202 242.758" stroke="#D9AE8E" stroke-width="2"/>
<path d="M195.636 275.516L144.901 290.699L148.234 303.29L198.783 287.736L195.636 275.516Z" fill="#EB8FB8"/>
<path d="M203.597 287.736H198.783L148.234 303.29L143.789 304.956L152.677 432.348L227.112 431.423L203.597 287.736Z" fill="#F8A1C8"/>
<rect x="7.3291" y="49.298" width="213.412" height="94.9391" rx="23" transform="rotate(-11.0298 7.3291 49.298)" stroke="#B55373" stroke-width="2"/>
<path d="M92.5147 51.8807L93.8353 51.6124L94.5908 55.3304L97.7184 50.8234L99.4482 50.4719L96.5277 54.6005L101.068 58.1474L99.3665 58.493L95.6575 55.6144L94.8533 56.6223L95.3973 59.2996L94.0766 59.5679L92.5147 51.8807ZM99.47 50.4675L100.92 50.1729L104.237 56.0161L104.266 56.0102L105.04 49.3358L106.49 49.0412L105.179 57.6334C105.112 58.0655 105.047 58.4425 104.983 58.7645C104.918 59.0864 104.847 59.3624 104.77 59.5925C104.693 59.8274 104.605 60.022 104.507 60.1765C104.414 60.33 104.3 60.4577 104.166 60.5596C104.038 60.6654 103.886 60.7487 103.709 60.8095C103.538 60.8742 103.335 60.9304 103.1 60.978C102.909 61.0169 102.756 61.038 102.642 61.0412C102.534 61.0482 102.437 61.048 102.351 61.0406L102.109 59.8492C102.201 59.8604 102.319 59.8662 102.464 59.8668C102.608 59.8673 102.757 59.852 102.91 59.8209C103.154 59.7713 103.338 59.6716 103.462 59.5218C103.592 59.3759 103.676 59.187 103.713 58.9551L103.924 57.7838L99.47 50.4675ZM107.258 48.885L108.579 48.6167L108.793 49.6718L108.822 49.666C108.872 49.4714 108.945 49.2821 109.043 49.0979C109.144 48.9128 109.275 48.7443 109.433 48.5925C109.595 48.435 109.789 48.2984 110.015 48.1828C110.246 48.0662 110.516 47.9763 110.827 47.9131C111.239 47.8295 111.65 47.8283 112.06 47.9094C112.47 47.9905 112.853 48.1593 113.209 48.4158C113.565 48.6723 113.878 49.0223 114.147 49.4658C114.416 49.9045 114.614 50.4397 114.743 51.0713C114.903 51.8608 114.958 52.5496 114.908 53.1378C114.862 53.7201 114.726 54.2161 114.501 54.6257C114.28 55.0343 113.977 55.3599 113.593 55.6024C113.209 55.8448 112.761 56.0181 112.249 56.1221C111.995 56.1737 111.751 56.1883 111.518 56.166C111.284 56.1438 111.068 56.098 110.869 56.0287C110.675 55.9536 110.502 55.8642 110.351 55.7602C110.2 55.6515 110.08 55.5413 109.993 55.4295L109.964 55.4354L110.756 59.3328L109.435 59.6011L107.258 48.885ZM109.339 52.5056C109.423 52.9219 109.542 53.2988 109.696 53.6364C109.848 53.9692 110.034 54.2477 110.254 54.4721C110.479 54.6955 110.733 54.8556 111.017 54.9524C111.304 55.0434 111.623 55.0535 111.972 54.9825C112.336 54.9086 112.635 54.7731 112.869 54.5761C113.107 54.3733 113.285 54.1252 113.405 53.8318C113.525 53.5384 113.59 53.2088 113.6 52.843C113.61 52.4724 113.572 52.0789 113.488 51.6626C113.399 51.2272 113.277 50.8359 113.122 50.4888C112.967 50.1416 112.776 49.854 112.55 49.6258C112.325 49.3976 112.063 49.239 111.766 49.1499C111.473 49.055 111.144 49.0445 110.781 49.1184C110.431 49.1894 110.143 49.3253 109.914 49.5262C109.69 49.7212 109.518 49.9679 109.4 50.266C109.286 50.5632 109.225 50.9019 109.217 51.2821C109.21 51.6623 109.25 52.0701 109.339 52.5056ZM115.672 49.5745C115.591 49.1027 115.599 48.6899 115.697 48.3363C115.793 47.9778 115.96 47.6699 116.197 47.4126C116.433 47.1552 116.732 46.945 117.093 46.7821C117.457 46.6134 117.864 46.4834 118.314 46.392C118.687 46.3161 119.056 46.281 119.421 46.2866C119.791 46.2912 120.129 46.3519 120.437 46.4688C120.744 46.5808 121.006 46.7567 121.224 46.9964C121.446 47.2303 121.597 47.5411 121.675 47.9287L122.584 52.4003C122.609 52.5247 122.665 52.6255 122.75 52.7028C122.835 52.7754 122.951 52.7965 123.099 52.7664C123.166 52.7528 123.235 52.7339 123.305 52.7098C123.373 52.6808 123.445 52.6514 123.518 52.6215L123.703 53.533C123.599 53.5841 123.495 53.6328 123.389 53.6791C123.289 53.7244 123.165 53.7621 123.016 53.7923C122.787 53.8389 122.584 53.8601 122.409 53.8559C122.238 53.8507 122.087 53.8167 121.955 53.7539C121.826 53.6853 121.717 53.588 121.626 53.4618C121.535 53.3309 121.459 53.1645 121.398 52.9627C121.271 53.1728 121.132 53.3729 120.982 53.5629C120.83 53.7482 120.653 53.9211 120.452 54.0817C120.249 54.2374 120.015 54.3746 119.751 54.4932C119.487 54.6166 119.18 54.7137 118.831 54.7847C118.534 54.845 118.235 54.856 117.933 54.8176C117.636 54.7783 117.356 54.6882 117.093 54.5473C116.835 54.4054 116.612 54.2117 116.422 53.9662C116.232 53.7159 116.1 53.4089 116.026 53.0452C115.945 52.6481 115.943 52.2923 116.018 51.978C116.093 51.6589 116.218 51.3817 116.395 51.1466C116.57 50.9067 116.786 50.7059 117.042 50.5442C117.298 50.3825 117.567 50.2558 117.847 50.164L119.953 49.4594C120.154 49.3937 120.299 49.2821 120.386 49.1248C120.478 48.9618 120.493 48.7295 120.432 48.428C120.337 47.9639 120.117 47.6624 119.769 47.5237C119.426 47.3792 118.97 47.3648 118.4 47.4805C117.817 47.5991 117.406 47.812 117.17 48.1192C116.932 48.4215 116.845 48.823 116.906 49.3237L115.672 49.5745ZM120.737 50.0775C120.647 50.1755 120.529 50.2668 120.381 50.3515C120.238 50.4305 120.076 50.5057 119.897 50.5771C119.717 50.6485 119.525 50.72 119.32 50.7915C119.114 50.8582 118.909 50.9273 118.704 50.9987C118.472 51.0809 118.261 51.1734 118.073 51.2765C117.885 51.3795 117.727 51.4963 117.599 51.627C117.471 51.7576 117.381 51.903 117.329 52.063C117.275 52.2183 117.268 52.3917 117.307 52.5831C117.352 52.8032 117.425 52.9902 117.526 53.144C117.632 53.2969 117.756 53.4186 117.899 53.5092C118.047 53.5987 118.212 53.6547 118.396 53.6771C118.58 53.6996 118.775 53.6899 118.981 53.6481C119.11 53.6218 119.256 53.5773 119.417 53.5146C119.578 53.4471 119.74 53.3642 119.905 53.266C120.069 53.1678 120.225 53.0539 120.373 52.9242C120.525 52.7887 120.654 52.6379 120.76 52.4719C120.866 52.3059 120.941 52.1262 120.987 51.9326C121.032 51.739 121.032 51.5322 120.988 51.3121L120.737 50.0775ZM125.385 46.3975L122.737 46.9357L122.504 45.7873L129.121 44.4426L129.355 45.591L126.706 46.1292L128.035 52.6679L126.714 52.9363L125.385 46.3975ZM136.31 46.973C136.223 46.5471 136.096 46.1669 135.929 45.8322C135.76 45.4928 135.554 45.2133 135.31 44.9938C135.066 44.7743 134.788 44.6215 134.477 44.5353C134.169 44.4433 133.831 44.4348 133.463 44.5097C133.094 44.5845 132.786 44.7243 132.539 44.9291C132.29 45.129 132.097 45.3776 131.958 45.6749C131.819 45.9722 131.738 46.31 131.715 46.6883C131.692 47.0618 131.723 47.4615 131.81 47.8874C131.897 48.3181 132.026 48.7055 132.195 49.0497C132.364 49.3891 132.57 49.6686 132.814 49.8881C133.058 50.1076 133.334 50.2633 133.641 50.3553C133.948 50.4424 134.286 50.4486 134.654 50.3737C135.023 50.2989 135.331 50.1614 135.579 49.9615C135.832 49.7558 136.027 49.5043 136.166 49.207C136.305 48.9097 136.386 48.5719 136.408 48.1936C136.43 47.8105 136.397 47.4036 136.31 46.973ZM137.631 46.7046C137.759 47.3363 137.793 47.9222 137.734 48.4625C137.673 48.998 137.526 49.4739 137.291 49.8902C137.057 50.3065 136.737 50.6556 136.331 50.9374C135.928 51.2135 135.447 51.4084 134.887 51.5221C134.328 51.6359 133.809 51.6442 133.331 51.547C132.851 51.4451 132.423 51.2481 132.045 50.9563C131.666 50.6644 131.345 50.2838 131.08 49.8144C130.814 49.3403 130.617 48.7874 130.489 48.1558C130.363 47.5337 130.33 46.9549 130.39 46.4194C130.451 45.884 130.598 45.4081 130.833 44.9917C131.067 44.5754 131.385 44.2292 131.788 43.9532C132.189 43.6723 132.669 43.475 133.229 43.3613C133.789 43.2475 134.309 43.2416 134.788 43.3435C135.271 43.4397 135.701 43.6338 136.079 43.9256C136.458 44.2175 136.779 44.5981 137.044 45.0675C137.309 45.5369 137.504 46.0826 137.631 46.7046ZM137.979 42.6428L139.3 42.3744L139.514 43.4295L139.543 43.4237C139.593 43.2292 139.667 43.0398 139.764 42.8557C139.866 42.6705 139.996 42.5021 140.154 42.3503C140.317 42.1927 140.511 42.0562 140.736 41.9406C140.967 41.824 141.237 41.7341 141.548 41.6709C141.96 41.5873 142.371 41.586 142.781 41.6671C143.191 41.7482 143.574 41.917 143.93 42.1735C144.286 42.43 144.599 42.78 144.868 43.2235C145.137 43.6622 145.335 44.1974 145.464 44.829C145.624 45.6186 145.679 46.3074 145.629 46.8955C145.583 47.4779 145.447 47.9738 145.222 48.3834C145.001 48.792 144.698 49.1176 144.314 49.3601C143.93 49.6026 143.482 49.7759 142.97 49.8799C142.716 49.9314 142.472 49.9461 142.239 49.9238C142.005 49.9015 141.789 49.8557 141.59 49.7864C141.396 49.7114 141.223 49.6219 141.073 49.518C140.921 49.4093 140.801 49.2991 140.714 49.1873L140.685 49.1931L141.477 53.0905L140.156 53.3589L137.979 42.6428ZM140.06 46.2633C140.145 46.6796 140.263 47.0566 140.417 47.3941C140.569 47.7269 140.755 48.0055 140.975 48.2298C141.2 48.4532 141.454 48.6133 141.738 48.7101C142.026 48.8012 142.344 48.8112 142.693 48.7402C143.057 48.6663 143.356 48.5309 143.59 48.3339C143.828 48.1311 144.006 47.883 144.126 47.5896C144.246 47.2962 144.311 46.9666 144.321 46.6007C144.331 46.2301 144.293 45.8367 144.209 45.4204C144.12 44.9849 143.998 44.5936 143.843 44.2465C143.688 43.8994 143.497 43.6117 143.272 43.3835C143.046 43.1554 142.784 42.9967 142.487 42.9076C142.194 42.8128 141.865 42.8023 141.502 42.8762C141.152 42.9472 140.864 43.0831 140.635 43.2839C140.411 43.479 140.239 43.7256 140.121 44.0238C140.007 44.321 139.946 44.6597 139.938 45.0399C139.931 45.4201 139.971 45.8279 140.06 46.2633Z" fill="#B55373"/>
<path d="M40.3584 92.3019L42.7031 91.8254L44.4434 100.391L51.2802 90.0826L54.558 89.4166L48.6783 97.998L58.3345 106.96L55.3199 107.573L47.3221 99.9677L45.0317 103.286L46.2762 109.41L43.9315 109.887L40.3584 92.3019ZM57.7321 97.7403C57.5972 96.9539 57.6111 96.266 57.7737 95.6766C57.9346 95.0792 58.2124 94.566 58.6068 94.1371C59.0013 93.7081 59.499 93.3579 60.0999 93.0863C60.7071 92.8051 61.3855 92.5884 62.1352 92.4361C62.7572 92.3097 63.3723 92.2511 63.9804 92.2604C64.5965 92.2681 65.161 92.3693 65.6739 92.5641C66.1852 92.7508 66.6226 93.044 66.9861 93.4434C67.356 93.8333 67.6066 94.3513 67.7378 94.9972L69.2522 102.45C69.2943 102.657 69.3866 102.825 69.529 102.954C69.6698 103.075 69.8639 103.11 70.1111 103.06C70.2227 103.037 70.3367 103.006 70.4531 102.966C70.5679 102.918 70.6867 102.868 70.8094 102.819L71.1181 104.338C70.9444 104.423 70.7699 104.504 70.5945 104.581C70.4272 104.657 70.2199 104.72 69.9727 104.77C69.5899 104.848 69.2524 104.883 68.9603 104.876C68.6762 104.867 68.4239 104.811 68.2033 104.706C67.9891 104.592 67.8067 104.429 67.656 104.219C67.5037 104.001 67.3768 103.724 67.2752 103.387C67.064 103.737 66.8328 104.071 66.5816 104.388C66.3288 104.696 66.0344 104.985 65.6985 105.252C65.3609 105.512 64.9714 105.74 64.5299 105.938C64.09 106.144 63.579 106.306 62.9968 106.424C62.5024 106.524 62.0037 106.543 61.5007 106.479C61.0058 106.413 60.5393 106.263 60.1013 106.028C59.6712 105.792 59.2984 105.469 58.9827 105.06C58.6654 104.643 58.4452 104.131 58.322 103.525C58.1875 102.863 58.1833 102.27 58.3094 101.746C58.4338 101.214 58.6431 100.752 58.9372 100.36C59.2296 99.9606 59.5893 99.6259 60.0162 99.3565C60.4431 99.087 60.8901 98.8758 61.3573 98.7227L64.8681 97.5485C65.2029 97.4389 65.4433 97.253 65.5893 96.9909C65.7417 96.7191 65.7669 96.332 65.6648 95.8295C65.5076 95.0559 65.1398 94.5535 64.5613 94.3223C63.9892 94.0815 63.2286 94.0575 62.2796 94.2503C61.3066 94.448 60.623 94.8028 60.2288 95.3147C59.8329 95.8187 59.6866 96.4879 59.7897 97.3223L57.7321 97.7403ZM66.1736 98.5787C66.024 98.7419 65.8266 98.8942 65.5812 99.0354C65.3422 99.167 65.0729 99.2923 64.7732 99.4113C64.4735 99.5303 64.1531 99.6494 63.8119 99.7686C63.4691 99.8797 63.1271 99.9949 62.786 100.114C62.3986 100.251 62.0479 100.405 61.734 100.577C61.4201 100.749 61.1566 100.943 60.9434 101.161C60.7302 101.379 60.5801 101.621 60.4932 101.888C60.4046 102.147 60.3927 102.436 60.4575 102.755C60.532 103.121 60.6535 103.433 60.8219 103.69C60.9982 103.944 61.2055 104.147 61.4438 104.298C61.69 104.447 61.9664 104.541 62.273 104.578C62.5795 104.615 62.9043 104.599 63.2472 104.53C63.4625 104.486 63.7049 104.412 63.9743 104.307C64.2421 104.195 64.513 104.056 64.787 103.893C65.061 103.729 65.3213 103.539 65.5681 103.323C65.8211 103.097 66.0358 102.846 66.2121 102.569C66.3884 102.293 66.5144 101.993 66.59 101.67C66.6656 101.348 66.6662 101.003 66.5916 100.636L66.1736 98.5787ZM70.1231 91.2241L73.3291 90.5726L78.8487 100.388L78.8965 100.378L80.1956 89.1774L83.2102 88.5649L85.8135 101.377L83.7559 101.795L81.6607 91.4831L81.6128 91.4929L80.3227 102.492L78.2172 102.92L72.7366 93.2964L72.6887 93.3062L74.784 103.618L72.7264 104.036L70.1231 91.2241ZM85.9501 88.0082L88.1512 87.5609L90.1468 97.3822L90.1947 97.3725L94.4914 86.2726L97.0155 85.7598L99.6188 98.5717L97.4057 99.0214L95.4101 89.2001L95.3622 89.2098L91.0775 100.307L88.5534 100.82L85.9501 88.0082ZM108.781 85.3621L103.877 86.3587L104.406 89.4525C104.674 91.0174 104.818 92.3416 104.839 93.4252C104.858 94.5009 104.765 95.3877 104.558 96.0858C104.359 96.7823 104.051 97.3099 103.634 97.6687C103.217 98.0275 102.705 98.2685 102.099 98.3916C101.876 98.437 101.673 98.4408 101.491 98.4031C101.318 98.3717 101.181 98.329 101.079 98.275L100.685 96.3371C101.02 96.3935 101.308 96.3974 101.547 96.3488C101.714 96.3148 101.868 96.2545 102.008 96.1679C102.156 96.0796 102.282 95.942 102.385 95.7549C102.496 95.5663 102.583 95.3162 102.644 95.0048C102.704 94.6854 102.729 94.2816 102.722 93.7932C102.722 93.3032 102.682 92.7176 102.601 92.0364C102.529 91.3535 102.411 90.5471 102.247 89.6171L101.394 84.87L110.594 83.0008L113.197 95.8128L110.996 96.26L108.781 85.3621ZM114.102 86.2865C113.967 85.5001 113.981 84.8122 114.143 84.2228C114.304 83.6254 114.582 83.1122 114.976 82.6833C115.371 82.2543 115.869 81.9041 116.469 81.6325C117.077 81.3513 117.755 81.1346 118.505 80.9823C119.127 80.8559 119.742 80.7973 120.35 80.8066C120.966 80.8143 121.531 80.9155 122.044 81.1103C122.555 81.297 122.992 81.5901 123.356 81.9896C123.726 82.3795 123.976 82.8974 124.107 83.5434L125.622 90.9961C125.664 91.2035 125.756 91.3716 125.899 91.5004C126.039 91.6213 126.233 91.6566 126.481 91.6063C126.592 91.5837 126.706 91.5522 126.823 91.5119C126.937 91.4637 127.056 91.4147 127.179 91.3648L127.488 92.884C127.314 92.9692 127.139 93.0503 126.964 93.1275C126.797 93.203 126.59 93.2659 126.342 93.3161C125.959 93.3939 125.622 93.4292 125.33 93.4221C125.046 93.4134 124.793 93.3567 124.573 93.2521C124.359 93.1378 124.176 92.9756 124.026 92.7654C123.873 92.5472 123.746 92.2699 123.645 91.9334C123.434 92.2836 123.202 92.6171 122.951 92.9339C122.698 93.2427 122.404 93.5309 122.068 93.7984C121.731 94.058 121.341 94.2866 120.899 94.4843C120.46 94.6899 119.949 94.8519 119.366 94.9702C118.872 95.0707 118.373 95.089 117.87 95.0251C117.375 94.9595 116.909 94.8094 116.471 94.5745C116.041 94.338 115.668 94.0152 115.352 93.606C115.035 93.1888 114.815 92.6771 114.692 92.071C114.557 91.4091 114.553 90.8162 114.679 90.2923C114.803 89.7605 115.013 89.2986 115.307 88.9067C115.599 88.5068 115.959 88.1721 116.386 87.9027C116.813 87.6332 117.26 87.422 117.727 87.2689L121.238 86.0947C121.572 85.9851 121.813 85.7992 121.959 85.537C122.111 85.2653 122.136 84.8781 122.034 84.3757C121.877 83.6021 121.509 83.0997 120.931 82.8685C120.359 82.6276 119.598 82.6036 118.649 82.7965C117.676 82.9942 116.993 83.349 116.598 83.8609C116.203 84.3649 116.056 85.034 116.159 85.8684L114.102 86.2865ZM122.543 87.1249C122.394 87.2881 122.196 87.4403 121.951 87.5815C121.712 87.7132 121.443 87.8385 121.143 87.9575C120.843 88.0765 120.523 88.1956 120.182 88.3148C119.839 88.4259 119.497 88.5411 119.156 88.6602C118.768 88.7971 118.417 88.9514 118.104 89.1231C117.79 89.2949 117.526 89.4896 117.313 89.7073C117.1 89.925 116.95 90.1672 116.863 90.434C116.774 90.6929 116.762 90.9818 116.827 91.3008C116.902 91.6676 117.023 91.9793 117.191 92.2357C117.368 92.4905 117.575 92.6934 117.813 92.8443C118.06 92.9936 118.336 93.0869 118.643 93.1242C118.949 93.1616 119.274 93.1454 119.617 93.0758C119.832 93.032 120.074 92.9579 120.344 92.8533C120.612 92.7407 120.883 92.6027 121.157 92.439C121.431 92.2754 121.691 92.0855 121.938 91.8693C122.191 91.6434 122.405 91.3922 122.582 91.1156C122.758 90.8389 122.884 90.5393 122.96 90.2166C123.035 89.894 123.036 89.5493 122.961 89.1824L122.543 87.1249ZM140.881 80.4466C142.125 80.1938 142.969 79.7483 143.412 79.1102C143.855 78.472 143.975 77.6505 143.771 76.6456C143.567 75.6408 143.136 74.9311 142.479 74.5165C141.821 74.102 140.871 74.0211 139.627 74.2739L134.818 75.2511L136.072 81.4238L140.881 80.4466ZM132.055 73.6699L139.448 72.1677C140.413 71.9717 141.271 71.9259 142.023 72.0306C142.783 72.1336 143.441 72.3654 143.996 72.726C144.549 73.0786 145.001 73.5472 145.353 74.1319C145.712 74.7149 145.97 75.3932 146.127 76.1668C146.285 76.9404 146.312 77.6657 146.208 78.3427C146.113 79.0181 145.88 79.6301 145.51 80.1787C145.138 80.7192 144.623 81.1853 143.963 81.5767C143.311 81.9665 142.503 82.2595 141.538 82.4556L136.49 83.4813L137.973 90.7785L135.628 91.2549L132.055 73.6699ZM148.672 75.2635L150.873 74.8163L152.869 84.6376L152.917 84.6278L157.214 73.528L159.738 73.0152L162.341 85.8271L160.128 86.2768L158.132 76.4555L158.084 76.4652L153.8 87.5626L151.276 88.0755L148.672 75.2635ZM168.489 79.6076L166.445 84.9932L163.717 85.5474L166.869 78.0685L161.341 72.6893L164.105 72.1278L168.05 75.9725L170.038 70.9222L172.682 70.385L169.62 77.5094L175.488 83.1556L172.713 83.7196L168.489 79.6076ZM178.048 71.2878L173.633 72.1847L173.244 70.2707L184.274 68.0296L184.663 69.9436L180.249 70.8405L182.463 81.7385L180.262 82.1857L178.048 71.2878ZM198.691 74.181C198.717 74.7571 198.636 75.3422 198.45 75.9365C198.263 76.5308 197.974 77.0879 197.581 77.6078C197.188 78.1277 196.691 78.5817 196.089 78.9698C195.496 79.3642 194.805 79.6417 194.016 79.8021C193.154 79.9771 192.329 79.9996 191.538 79.8695C190.754 79.7299 190.037 79.4312 189.388 78.9736C188.745 78.5063 188.184 77.8728 187.706 77.0731C187.228 76.2734 186.871 75.2913 186.634 74.127C186.476 73.3454 186.416 72.6226 186.455 71.9586C186.501 71.2849 186.617 70.6717 186.804 70.1189C186.997 69.5565 187.249 69.057 187.558 68.6203C187.867 68.1757 188.209 67.7948 188.584 67.4776C188.966 67.1509 189.369 66.8863 189.793 66.6839C190.216 66.4735 190.634 66.3262 191.049 66.242C191.926 66.0637 192.754 66.0324 193.533 66.1482C194.313 66.2639 195.017 66.5402 195.645 66.9772C196.28 67.4046 196.824 67.9958 197.276 68.7509C197.735 69.4965 198.075 70.4155 198.297 71.5081L198.521 72.6086L189.154 74.5119C189.288 75.1323 189.491 75.6807 189.762 76.1571C190.032 76.6255 190.359 77.0075 190.743 77.3032C191.127 77.5989 191.558 77.8019 192.037 77.9121C192.523 78.0128 193.045 78.0064 193.603 77.8929C194.169 77.7779 194.631 77.6009 194.99 77.362C195.348 77.1231 195.634 76.8533 195.847 76.5526C196.06 76.2519 196.215 75.9338 196.313 75.5983C196.419 75.2613 196.498 74.9338 196.55 74.6161L198.691 74.181ZM195.95 71.2998C195.808 70.681 195.6 70.1462 195.325 69.6954C195.059 69.2429 194.737 68.8848 194.36 68.621C193.989 68.3476 193.571 68.171 193.106 68.091C192.64 68.0031 192.143 68.0126 191.617 68.1195C191.115 68.2216 190.672 68.4153 190.29 68.7005C189.906 68.9778 189.591 69.3243 189.343 69.74C189.094 70.1478 188.922 70.6104 188.828 71.1278C188.732 71.6372 188.722 72.179 188.797 72.7534L195.95 71.2998ZM199.037 65.0299L201.238 64.5827L201.595 66.3412L201.643 66.3315C201.727 66.0072 201.849 65.6916 202.011 65.3847C202.181 65.0762 202.398 64.7954 202.662 64.5424C202.933 64.2798 203.256 64.0522 203.632 63.8595C204.016 63.6652 204.467 63.5154 204.986 63.4101C205.671 63.2707 206.356 63.2686 207.04 63.4038C207.723 63.539 208.362 63.8203 208.955 64.2478C209.548 64.6753 210.07 65.2586 210.519 65.9978C210.966 66.729 211.297 67.621 211.511 68.6737C211.778 69.9895 211.871 71.1376 211.787 72.1178C211.711 73.0884 211.484 73.915 211.108 74.5977C210.74 75.2787 210.235 75.8213 209.595 76.2254C208.955 76.6296 208.208 76.9184 207.355 77.0918C206.932 77.1777 206.526 77.202 206.136 77.1649C205.747 77.1278 205.387 77.0515 205.056 76.936C204.731 76.8109 204.444 76.6618 204.193 76.4886C203.94 76.3074 203.741 76.1237 203.595 75.9374L203.547 75.9471L204.867 82.4428L202.666 82.8901L199.037 65.0299ZM202.505 71.0642C202.646 71.758 202.844 72.3862 203.1 72.9488C203.354 73.5035 203.664 73.9677 204.03 74.3417C204.405 74.714 204.829 74.9808 205.302 75.1422C205.781 75.2939 206.312 75.3106 206.894 75.1923C207.5 75.0692 207.998 74.8434 208.388 74.515C208.784 74.1771 209.082 73.7636 209.282 73.2746C209.482 72.7856 209.59 72.2362 209.607 71.6265C209.623 71.0088 209.56 70.3531 209.419 69.6592C209.272 68.9335 209.069 68.2814 208.81 67.7028C208.551 67.1242 208.234 66.6448 207.858 66.2645C207.481 65.8842 207.046 65.6198 206.55 65.4713C206.062 65.3132 205.514 65.2958 204.908 65.4189C204.326 65.5372 203.845 65.7637 203.464 66.0984C203.09 66.4236 202.804 66.8346 202.606 67.3316C202.416 67.8269 202.315 68.3914 202.302 69.0251C202.29 69.6587 202.358 70.3384 202.505 71.0642Z" fill="#B55373"/>
</svg>
