<svg width="283" height="419" viewBox="0 0 283 419" fill="none" xmlns="http://www.w3.org/2000/svg">
<path d="M186.026 290.035L135.291 305.219L138.624 317.809L189.173 302.255L186.026 290.035Z" fill="#EB8FB8"/>
<path d="M193.987 302.255H189.173L138.624 317.809L134.18 319.476L143.068 446.868L217.503 445.942L193.987 302.255Z" fill="#F8A1C8"/>
<path d="M131.389 286.41L155.345 286.41L148.992 126.795L139.593 126.794L131.389 286.41Z" fill="white" stroke="white" stroke-width="4"/>
<rect width="282.484" height="139.397" rx="24" fill="white"/>
<path d="M123.171 30.5264C123.186 30.0479 123.276 29.645 123.442 29.3179C123.608 28.9858 123.833 28.7173 124.116 28.5122C124.399 28.3071 124.734 28.1606 125.12 28.0728C125.51 27.98 125.935 27.9336 126.394 27.9336C126.775 27.9336 127.143 27.9727 127.5 28.0508C127.861 28.1289 128.181 28.2559 128.459 28.4316C128.738 28.6025 128.96 28.8271 129.126 29.1055C129.297 29.3789 129.382 29.7134 129.382 30.1089V34.6719C129.382 34.7988 129.416 34.9087 129.485 35.0015C129.553 35.0894 129.663 35.1333 129.814 35.1333C129.883 35.1333 129.954 35.1284 130.027 35.1187C130.1 35.104 130.176 35.0894 130.254 35.0747V36.0049C130.142 36.0342 130.029 36.061 129.917 36.0854C129.809 36.1099 129.68 36.1221 129.529 36.1221C129.294 36.1221 129.092 36.1025 128.921 36.0635C128.755 36.0244 128.613 35.9609 128.496 35.873C128.384 35.7803 128.296 35.6631 128.232 35.5215C128.169 35.375 128.127 35.1968 128.108 34.9868C127.942 35.1675 127.766 35.3359 127.58 35.4922C127.395 35.6436 127.187 35.7778 126.958 35.895C126.728 36.0073 126.472 36.0952 126.189 36.1587C125.906 36.2271 125.586 36.2612 125.229 36.2612C124.927 36.2612 124.631 36.2124 124.343 36.1147C124.06 36.0171 123.804 35.873 123.574 35.6826C123.35 35.4922 123.169 35.2578 123.032 34.9795C122.895 34.6963 122.827 34.3691 122.827 33.998C122.827 33.5928 122.895 33.2437 123.032 32.9507C123.169 32.6528 123.347 32.4062 123.567 32.2109C123.787 32.0107 124.038 31.8569 124.321 31.7495C124.604 31.6421 124.892 31.5713 125.185 31.5371L127.39 31.2661C127.6 31.2417 127.764 31.1611 127.881 31.0244C128.003 30.8828 128.064 30.6582 128.064 30.3506C128.064 29.877 127.908 29.5376 127.595 29.3325C127.288 29.1226 126.843 29.0176 126.262 29.0176C125.666 29.0176 125.222 29.1445 124.929 29.3984C124.636 29.6475 124.47 30.0234 124.431 30.5264H123.171ZM128.035 32.0278C127.927 32.106 127.793 32.1719 127.632 32.2256C127.475 32.2744 127.302 32.3159 127.112 32.3501C126.921 32.3843 126.719 32.416 126.504 32.4453C126.289 32.4697 126.074 32.4966 125.859 32.5259C125.615 32.5601 125.391 32.6089 125.185 32.6724C124.98 32.7358 124.802 32.8188 124.651 32.9214C124.499 33.0239 124.382 33.1484 124.299 33.2949C124.216 33.4365 124.175 33.605 124.175 33.8003C124.175 34.0249 124.209 34.2227 124.277 34.3936C124.35 34.5645 124.448 34.7085 124.57 34.8257C124.697 34.9429 124.849 35.0308 125.024 35.0894C125.2 35.1479 125.393 35.1772 125.603 35.1772C125.735 35.1772 125.886 35.1626 126.057 35.1333C126.228 35.0991 126.404 35.0503 126.584 34.9868C126.765 34.9233 126.941 34.8428 127.112 34.7451C127.288 34.6426 127.444 34.5205 127.58 34.3789C127.717 34.2373 127.827 34.0762 127.91 33.8955C127.993 33.7148 128.035 33.5122 128.035 33.2876V32.0278ZM131.236 28.1753H134.575C135.532 28.1753 136.248 28.3535 136.721 28.71C137.2 29.0664 137.439 29.584 137.439 30.2627C137.439 30.624 137.351 30.9292 137.175 31.1782C137 31.4272 136.768 31.647 136.48 31.8374C136.895 31.9937 137.224 32.2183 137.468 32.5112C137.713 32.8042 137.835 33.1826 137.835 33.6465C137.835 34.0127 137.774 34.3423 137.652 34.6353C137.529 34.9282 137.344 35.1772 137.095 35.3823C136.846 35.5874 136.529 35.7461 136.143 35.8584C135.762 35.9658 135.31 36.0195 134.788 36.0195H131.236V28.1753ZM132.583 34.9429H134.634C134.99 34.9429 135.286 34.916 135.52 34.8623C135.759 34.8037 135.95 34.7207 136.092 34.6133C136.233 34.5059 136.333 34.3765 136.392 34.2251C136.45 34.0737 136.48 33.9028 136.48 33.7124C136.48 33.522 136.45 33.3511 136.392 33.1997C136.333 33.0435 136.233 32.9141 136.092 32.8115C135.95 32.7041 135.759 32.6235 135.52 32.5698C135.286 32.5112 134.99 32.4819 134.634 32.4819H132.583V34.9429ZM132.583 31.4932H134.619C135.073 31.4932 135.432 31.4028 135.696 31.2222C135.96 31.0415 136.092 30.7607 136.092 30.3799C136.092 30.165 136.055 29.9868 135.982 29.8452C135.908 29.6987 135.811 29.5815 135.689 29.4937C135.567 29.4058 135.427 29.3447 135.271 29.3105C135.12 29.2715 134.964 29.252 134.802 29.252H132.583V31.4932ZM141.241 29.3472H138.538V28.1753H145.291V29.3472H142.588V36.0195H141.241V29.3472ZM151.832 32.0864C151.832 31.6519 151.783 31.2539 151.685 30.8926C151.588 30.5264 151.441 30.2114 151.246 29.9478C151.051 29.6841 150.809 29.479 150.521 29.3325C150.238 29.1812 149.908 29.1055 149.532 29.1055C149.156 29.1055 148.826 29.1812 148.543 29.3325C148.26 29.479 148.021 29.6841 147.825 29.9478C147.63 30.2114 147.484 30.5264 147.386 30.8926C147.288 31.2539 147.24 31.6519 147.24 32.0864C147.24 32.5259 147.288 32.9312 147.386 33.3022C147.484 33.6685 147.63 33.9834 147.825 34.2471C148.021 34.5107 148.26 34.7183 148.543 34.8696C148.826 35.0161 149.156 35.0894 149.532 35.0894C149.908 35.0894 150.238 35.0161 150.521 34.8696C150.809 34.7183 151.051 34.5107 151.246 34.2471C151.441 33.9834 151.588 33.6685 151.685 33.3022C151.783 32.9312 151.832 32.5259 151.832 32.0864ZM153.179 32.0864C153.179 32.731 153.096 33.312 152.93 33.8296C152.764 34.3423 152.525 34.7793 152.213 35.1406C151.9 35.502 151.517 35.7803 151.063 35.9756C150.614 36.166 150.103 36.2612 149.532 36.2612C148.961 36.2612 148.45 36.166 148.001 35.9756C147.552 35.7803 147.171 35.502 146.859 35.1406C146.546 34.7793 146.307 34.3423 146.141 33.8296C145.975 33.312 145.892 32.731 145.892 32.0864C145.892 31.4517 145.975 30.8779 146.141 30.3652C146.307 29.8525 146.546 29.4155 146.859 29.0542C147.171 28.6929 147.552 28.417 148.001 28.2266C148.45 28.0312 148.961 27.9336 149.532 27.9336C150.103 27.9336 150.614 28.0312 151.063 28.2266C151.517 28.417 151.9 28.6929 152.213 29.0542C152.525 29.4155 152.764 29.8525 152.93 30.3652C153.096 30.8779 153.179 31.4517 153.179 32.0864ZM154.33 28.1753H155.677V29.252H155.707C155.795 29.0713 155.904 28.9004 156.036 28.7393C156.173 28.5781 156.334 28.439 156.52 28.3218C156.71 28.1997 156.927 28.1045 157.171 28.0361C157.421 27.9678 157.704 27.9336 158.021 27.9336C158.441 27.9336 158.844 28.0142 159.23 28.1753C159.615 28.3364 159.957 28.5781 160.255 28.9004C160.553 29.2227 160.79 29.6279 160.965 30.1162C161.141 30.5996 161.229 31.1636 161.229 31.8081C161.229 32.6138 161.146 33.2998 160.98 33.8662C160.819 34.4277 160.587 34.8867 160.284 35.2432C159.986 35.5996 159.625 35.8584 159.2 36.0195C158.775 36.1807 158.302 36.2612 157.779 36.2612C157.521 36.2612 157.279 36.2271 157.054 36.1587C156.83 36.0903 156.627 36.0024 156.446 35.895C156.271 35.7827 156.119 35.6606 155.992 35.5288C155.865 35.3921 155.77 35.2603 155.707 35.1333H155.677V39.1104H154.33V28.1753ZM155.648 32.1377C155.648 32.5625 155.69 32.9556 155.773 33.3169C155.856 33.6733 155.983 33.9834 156.153 34.2471C156.329 34.5107 156.546 34.7183 156.805 34.8696C157.069 35.0161 157.379 35.0894 157.735 35.0894C158.107 35.0894 158.426 35.0161 158.695 34.8696C158.968 34.7183 159.193 34.5107 159.369 34.2471C159.545 33.9834 159.674 33.6733 159.757 33.3169C159.84 32.9556 159.881 32.5625 159.881 32.1377C159.881 31.6934 159.84 31.2856 159.757 30.9146C159.674 30.5435 159.545 30.2236 159.369 29.9551C159.193 29.6865 158.968 29.479 158.695 29.3325C158.426 29.1812 158.107 29.1055 157.735 29.1055C157.379 29.1055 157.069 29.1812 156.805 29.3325C156.546 29.479 156.329 29.6865 156.153 29.9551C155.983 30.2236 155.856 30.5435 155.773 30.9146C155.69 31.2856 155.648 31.6934 155.648 32.1377Z" fill="#B55373"/>
<path d="M140.061 287.246L143.197 301.917L180.6 291.838L174.777 268.993L171.418 243.461L165.258 228.006L147.565 188.811C143.088 184.918 141.35 185.435 140.062 192.282L144.783 217.376L157.968 282.207L139.293 285.824L140.061 287.246Z" fill="#F0C3A2" stroke="#D9AE8E" stroke-width="2"/>
<path d="M145.335 218.375L114.909 207.716C113.317 207.159 111.554 207.151 110.051 207.916C105.008 210.482 105.377 212.999 107.843 217.484L144.339 228.404C150.523 224.987 148.309 222.666 145.335 218.375Z" fill="#F0C3A2"/>
<path d="M144.339 228.404L107.843 217.484C102.603 222.508 101.594 225.358 106.55 230.703L146.351 238.462C150.457 233.903 150.288 231.616 144.339 228.404Z" fill="#F0C3A2"/>
<path d="M146.351 238.462L106.55 230.703C101.453 236.124 101.141 239.225 106.55 244.641C121.938 243.568 131.043 244.908 148.218 250.676C151.46 245.976 150.433 242.456 146.351 238.462Z" fill="#F0C3A2"/>
<path d="M148.218 250.676C131.043 244.908 121.938 243.568 106.55 244.641C102.176 250.42 100.577 253.572 109.135 258.291C109.135 258.291 122.012 257.725 128.588 257.278C130.265 257.164 130.552 257.091 131.263 256.998C134.762 256.541 138.693 258.902 147.152 255.839C149.289 253.645 149.266 252.541 148.218 250.676Z" fill="#F0C3A2"/>
<path d="M109.135 258.291L130.02 269.703L128.588 257.278C122.012 257.725 109.135 258.291 109.135 258.291Z" fill="#F0C3A2"/>
<path d="M107.843 217.484C105.377 212.999 105.008 210.482 110.051 207.916C111.554 207.151 113.317 207.159 114.909 207.716L145.335 218.375C148.309 222.666 150.523 224.987 144.339 228.404M107.843 217.484L144.339 228.404M107.843 217.484C102.603 222.508 101.594 225.358 106.55 230.703M144.339 228.404C150.288 231.616 150.457 233.903 146.351 238.462M146.351 238.462L106.55 230.703M146.351 238.462C150.433 242.456 151.46 245.976 148.218 250.676M106.55 230.703C101.453 236.124 101.141 239.225 106.55 244.641M106.55 244.641C121.938 243.568 131.043 244.908 148.218 250.676M106.55 244.641C102.176 250.42 100.577 253.572 109.135 258.291M148.218 250.676C149.266 252.541 149.289 253.645 147.152 255.839C138.693 258.902 134.762 256.541 131.263 256.998C130.552 257.091 130.265 257.164 128.588 257.278M109.135 258.291L130.02 269.703L128.588 257.278M109.135 258.291C109.135 258.291 122.012 257.725 128.588 257.278" stroke="#D9AE8E" stroke-width="2"/>
<rect x="7.94922" y="9.30859" width="266.426" height="122.217" rx="23" stroke="#B55373" stroke-width="2"/>
<path d="M63.5861 63.2158H67.3385C67.9333 63.2158 68.4477 63.1261 68.882 62.9468C69.3162 62.758 69.6749 62.5125 69.9582 62.2104C70.2414 61.8989 70.449 61.5544 70.5812 61.1768C70.7228 60.7897 70.7936 60.3979 70.7936 60.0015C70.7936 59.3501 70.6662 58.7979 70.4113 58.3447C70.1564 57.8916 69.8071 57.5234 69.3634 57.2402C68.9197 56.9476 68.3911 56.7352 67.7775 56.603C67.1733 56.4709 66.5125 56.4048 65.7951 56.4048C64.8983 56.4048 64.1053 56.5322 63.4162 56.7871C62.7365 57.0326 62.1653 57.3677 61.7028 57.7925C61.2497 58.2078 60.9098 58.694 60.6833 59.251C60.4661 59.8079 60.367 60.3932 60.3859 61.0068H57.7663C57.7663 60.1195 57.8701 59.3265 58.0778 58.6279C58.2949 57.9294 58.5923 57.3205 58.9699 56.8013C59.3475 56.2821 59.7912 55.8431 60.3009 55.4844C60.8107 55.1257 61.3629 54.833 61.9577 54.6064C62.5618 54.3799 63.1943 54.2194 63.8551 54.125C64.5254 54.0212 65.2003 53.9692 65.88 53.9692C66.994 53.9692 68.0088 54.092 68.9245 54.3374C69.8496 54.5734 70.6426 54.9321 71.3034 55.4136C71.9642 55.8856 72.4787 56.4803 72.8468 57.1978C73.215 57.9058 73.3991 58.7318 73.3991 59.6758C73.3991 60.752 73.1867 61.6629 72.7619 62.4087C72.3465 63.145 71.6243 63.702 70.5954 64.0796V64.1504C71.1334 64.3014 71.6243 64.5233 72.068 64.8159C72.5211 65.0991 72.9082 65.4578 73.2291 65.8921C73.5596 66.3169 73.8144 66.8219 73.9938 67.4072C74.1826 67.9925 74.277 68.6628 74.277 69.418C74.277 70.4753 74.0457 71.4051 73.5832 72.2075C73.1206 73.0099 72.5023 73.6802 71.7282 74.2183C70.9541 74.7563 70.0526 75.1576 69.0236 75.4219C68.0041 75.6956 66.9373 75.8325 65.8234 75.8325C64.6339 75.8325 63.5247 75.7192 62.4958 75.4927C61.4668 75.2756 60.5605 74.9121 59.777 74.4023C59.0029 73.8926 58.3799 73.2223 57.9079 72.3916C57.4359 71.5514 57.1668 70.5225 57.1007 69.3047H59.8336C59.8808 69.8994 60.0177 70.4469 60.2443 70.9473C60.4803 71.4476 60.8249 71.8818 61.278 72.25C61.7405 72.6087 62.3211 72.8919 63.0197 73.0996C63.7277 73.2979 64.5773 73.397 65.5685 73.397C66.4653 73.397 67.2772 73.3215 68.0041 73.1704C68.7404 73.0194 69.3634 72.7786 69.8732 72.4482C70.3924 72.1178 70.7889 71.693 71.0626 71.1738C71.3458 70.6452 71.4874 70.0127 71.4874 69.2764C71.4874 68.7288 71.3978 68.2285 71.2184 67.7754C71.0485 67.3223 70.7842 66.9305 70.4254 66.6001C70.0667 66.2697 69.6183 66.0148 69.0802 65.8354C68.5421 65.6466 67.9049 65.5522 67.1686 65.5522H63.5861V63.2158ZM76.7414 64.6885C76.7698 63.7633 76.9444 62.9845 77.2654 62.3521C77.5863 61.7101 78.0206 61.1909 78.5681 60.7944C79.1156 60.3979 79.7623 60.1147 80.508 59.9448C81.2632 59.7655 82.0845 59.6758 82.9719 59.6758C83.7082 59.6758 84.421 59.7513 85.1101 59.9023C85.8087 60.0534 86.427 60.2988 86.9651 60.6387C87.5032 60.9691 87.9327 61.4033 88.2536 61.9414C88.584 62.4701 88.7492 63.1167 88.7492 63.8813V72.7031C88.7492 72.9486 88.8153 73.161 88.9475 73.3403C89.0796 73.5103 89.2921 73.5952 89.5847 73.5952C89.7169 73.5952 89.8537 73.5858 89.9953 73.5669C90.1369 73.5386 90.2833 73.5103 90.4343 73.4819V75.2803C90.2172 75.3369 90.0001 75.3888 89.7829 75.436C89.5753 75.4832 89.3251 75.5068 89.0324 75.5068C88.5793 75.5068 88.1876 75.4691 87.8572 75.3936C87.5362 75.318 87.2624 75.1953 87.0359 75.0254C86.8187 74.846 86.6488 74.6195 86.5261 74.3457C86.4034 74.0625 86.3231 73.7179 86.2854 73.312C85.9644 73.6613 85.6246 73.987 85.2658 74.2891C84.9071 74.5817 84.5059 74.8413 84.0622 75.0679C83.6185 75.285 83.1229 75.4549 82.5754 75.5776C82.0279 75.7098 81.4096 75.7759 80.7204 75.7759C80.1351 75.7759 79.564 75.6815 79.0071 75.4927C78.4595 75.3039 77.9639 75.0254 77.5202 74.6572C77.086 74.2891 76.7367 73.8359 76.4724 73.2979C76.2081 72.7503 76.0759 72.1178 76.0759 71.4004C76.0759 70.6169 76.2081 69.9419 76.4724 69.3755C76.7367 68.7996 77.0813 68.3229 77.5061 67.9453C77.9309 67.5583 78.4171 67.2609 78.9646 67.0532C79.5121 66.8455 80.0691 66.7087 80.6355 66.6426L84.8977 66.1187C85.3036 66.0715 85.6199 65.9157 85.8464 65.6514C86.0824 65.3776 86.2004 64.9434 86.2004 64.3486C86.2004 63.4329 85.8983 62.7769 85.2942 62.3804C84.6994 61.9744 83.8404 61.7715 82.717 61.7715C81.5653 61.7715 80.7063 62.0169 80.1399 62.5078C79.5735 62.9893 79.2525 63.7161 79.177 64.6885H76.7414ZM86.1438 67.5913C85.9361 67.7424 85.6765 67.8698 85.365 67.9736C85.0629 68.068 84.7278 68.1483 84.3596 68.2144C83.9914 68.2804 83.5997 68.3418 83.1843 68.3984C82.7689 68.4456 82.3536 68.4976 81.9382 68.5542C81.4662 68.6203 81.032 68.7147 80.6355 68.8374C80.239 68.9601 79.8944 69.1206 79.6018 69.3188C79.3091 69.5171 79.0826 69.7578 78.9221 70.041C78.7616 70.3148 78.6814 70.6405 78.6814 71.0181C78.6814 71.4523 78.7475 71.8346 78.8796 72.165C79.0212 72.4954 79.21 72.7739 79.446 73.0005C79.6915 73.2271 79.9841 73.397 80.324 73.5103C80.6638 73.6235 81.0367 73.6802 81.4426 73.6802C81.6975 73.6802 81.9901 73.6519 82.3205 73.5952C82.6509 73.5291 82.9908 73.4347 83.3401 73.312C83.6893 73.1893 84.0292 73.0335 84.3596 72.8447C84.6994 72.6465 85.0015 72.4105 85.2658 72.1367C85.5302 71.863 85.7426 71.5514 85.9031 71.2021C86.0635 70.8529 86.1438 70.4611 86.1438 70.0269V67.5913ZM92.3323 60.1431H98.7894C100.64 60.1431 102.023 60.4876 102.938 61.1768C103.863 61.8659 104.326 62.8665 104.326 64.1787C104.326 64.8773 104.156 65.4673 103.816 65.9487C103.476 66.4302 103.028 66.855 102.471 67.2231C103.273 67.5252 103.911 67.9595 104.383 68.5259C104.855 69.0923 105.091 69.8239 105.091 70.7207C105.091 71.4287 104.973 72.0659 104.737 72.6323C104.501 73.1987 104.142 73.6802 103.66 74.0767C103.179 74.4731 102.565 74.7799 101.82 74.9971C101.083 75.2048 100.21 75.3086 99.2 75.3086H92.3323V60.1431ZM94.9378 73.2271H98.9026C99.5918 73.2271 100.163 73.1751 100.616 73.0713C101.079 72.958 101.447 72.7975 101.721 72.5898C101.994 72.3822 102.188 72.132 102.301 71.8394C102.414 71.5467 102.471 71.2163 102.471 70.8481C102.471 70.48 102.414 70.1496 102.301 69.8569C102.188 69.5549 101.994 69.3047 101.721 69.1064C101.447 68.8988 101.079 68.743 100.616 68.6392C100.163 68.5259 99.5918 68.4692 98.9026 68.4692H94.9378V73.2271ZM94.9378 66.5576H98.8743C99.7523 66.5576 100.446 66.383 100.956 66.0337C101.466 65.6844 101.721 65.1416 101.721 64.4053C101.721 63.9899 101.65 63.6453 101.508 63.3716C101.367 63.0884 101.178 62.8618 100.942 62.6919C100.706 62.522 100.437 62.404 100.135 62.3379C99.8419 62.2624 99.5399 62.2246 99.2283 62.2246H94.9378V66.5576ZM107.64 60.1431H117.057V62.4087H110.245V75.3086H107.64V60.1431ZM129.348 67.7046C129.348 66.8644 129.254 66.0951 129.065 65.3965C128.876 64.6885 128.593 64.0796 128.215 63.5698C127.838 63.0601 127.37 62.6636 126.813 62.3804C126.266 62.0877 125.629 61.9414 124.902 61.9414C124.175 61.9414 123.538 62.0877 122.99 62.3804C122.443 62.6636 121.98 63.0601 121.603 63.5698C121.225 64.0796 120.942 64.6885 120.753 65.3965C120.564 66.0951 120.47 66.8644 120.47 67.7046C120.47 68.5542 120.564 69.3377 120.753 70.0552C120.942 70.7632 121.225 71.3721 121.603 71.8818C121.98 72.3916 122.443 72.7928 122.99 73.0854C123.538 73.3687 124.175 73.5103 124.902 73.5103C125.629 73.5103 126.266 73.3687 126.813 73.0854C127.37 72.7928 127.838 72.3916 128.215 71.8818C128.593 71.3721 128.876 70.7632 129.065 70.0552C129.254 69.3377 129.348 68.5542 129.348 67.7046ZM131.954 67.7046C131.954 68.9507 131.793 70.0741 131.472 71.0747C131.151 72.0659 130.689 72.9108 130.084 73.6094C129.48 74.3079 128.739 74.846 127.861 75.2236C126.993 75.5918 126.006 75.7759 124.902 75.7759C123.797 75.7759 122.811 75.5918 121.942 75.2236C121.074 74.846 120.338 74.3079 119.733 73.6094C119.129 72.9108 118.667 72.0659 118.346 71.0747C118.025 70.0741 117.864 68.9507 117.864 67.7046C117.864 66.4774 118.025 65.3682 118.346 64.377C118.667 63.3857 119.129 62.5409 119.733 61.8423C120.338 61.1437 121.074 60.6104 121.942 60.2422C122.811 59.8646 123.797 59.6758 124.902 59.6758C126.006 59.6758 126.993 59.8646 127.861 60.2422C128.739 60.6104 129.48 61.1437 130.084 61.8423C130.689 62.5409 131.151 63.3857 131.472 64.377C131.793 65.3682 131.954 66.4774 131.954 67.7046ZM134.177 60.1431H136.783V62.2246H136.839C137.009 61.8753 137.222 61.5449 137.477 61.2334C137.741 60.9219 138.052 60.6528 138.411 60.4263C138.779 60.1903 139.199 60.0062 139.671 59.874C140.153 59.7419 140.7 59.6758 141.314 59.6758C142.126 59.6758 142.905 59.8315 143.65 60.1431C144.396 60.4546 145.057 60.9219 145.633 61.5449C146.209 62.168 146.667 62.9515 147.006 63.8955C147.346 64.8301 147.516 65.9204 147.516 67.1665C147.516 68.7241 147.356 70.0505 147.035 71.1455C146.723 72.2311 146.275 73.1185 145.689 73.8076C145.114 74.4967 144.415 74.9971 143.594 75.3086C142.773 75.6201 141.857 75.7759 140.847 75.7759C140.346 75.7759 139.879 75.7098 139.445 75.5776C139.011 75.4455 138.619 75.2756 138.27 75.0679C137.93 74.8507 137.637 74.6147 137.392 74.3599C137.146 74.0955 136.962 73.8407 136.839 73.5952H136.783V81.2842H134.177V60.1431ZM136.726 67.8037C136.726 68.625 136.806 69.3849 136.967 70.0835C137.127 70.7726 137.373 71.3721 137.703 71.8818C138.043 72.3916 138.463 72.7928 138.963 73.0854C139.473 73.3687 140.073 73.5103 140.762 73.5103C141.479 73.5103 142.098 73.3687 142.617 73.0854C143.145 72.7928 143.58 72.3916 143.919 71.8818C144.259 71.3721 144.509 70.7726 144.67 70.0835C144.83 69.3849 144.911 68.625 144.911 67.8037C144.911 66.9447 144.83 66.1564 144.67 65.439C144.509 64.7215 144.259 64.1032 143.919 63.584C143.58 63.0648 143.145 62.6636 142.617 62.3804C142.098 62.0877 141.479 61.9414 140.762 61.9414C140.073 61.9414 139.473 62.0877 138.963 62.3804C138.463 62.6636 138.043 63.0648 137.703 63.584C137.373 64.1032 137.127 64.7215 136.967 65.439C136.806 66.1564 136.726 66.9447 136.726 67.8037ZM160.473 67.7046C160.473 66.8644 160.379 66.0951 160.19 65.3965C160.001 64.6885 159.718 64.0796 159.34 63.5698C158.963 63.0601 158.496 62.6636 157.939 62.3804C157.391 62.0877 156.754 61.9414 156.027 61.9414C155.3 61.9414 154.663 62.0877 154.115 62.3804C153.568 62.6636 153.105 63.0601 152.728 63.5698C152.35 64.0796 152.067 64.6885 151.878 65.3965C151.689 66.0951 151.595 66.8644 151.595 67.7046C151.595 68.5542 151.689 69.3377 151.878 70.0552C152.067 70.7632 152.35 71.3721 152.728 71.8818C153.105 72.3916 153.568 72.7928 154.115 73.0854C154.663 73.3687 155.3 73.5103 156.027 73.5103C156.754 73.5103 157.391 73.3687 157.939 73.0854C158.496 72.7928 158.963 72.3916 159.34 71.8818C159.718 71.3721 160.001 70.7632 160.19 70.0552C160.379 69.3377 160.473 68.5542 160.473 67.7046ZM163.079 67.7046C163.079 68.9507 162.918 70.0741 162.597 71.0747C162.276 72.0659 161.814 72.9108 161.21 73.6094C160.605 74.3079 159.864 74.846 158.986 75.2236C158.118 75.5918 157.131 75.7759 156.027 75.7759C154.922 75.7759 153.936 75.5918 153.068 75.2236C152.199 74.846 151.463 74.3079 150.859 73.6094C150.254 72.9108 149.792 72.0659 149.471 71.0747C149.15 70.0741 148.989 68.9507 148.989 67.7046C148.989 66.4774 149.15 65.3682 149.471 64.377C149.792 63.3857 150.254 62.5409 150.859 61.8423C151.463 61.1437 152.199 60.6104 153.068 60.2422C153.936 59.8646 154.922 59.6758 156.027 59.6758C157.131 59.6758 158.118 59.8646 158.986 60.2422C159.864 60.6104 160.605 61.1437 161.21 61.8423C161.814 62.5409 162.276 63.3857 162.597 64.377C162.918 65.3682 163.079 66.4774 163.079 67.7046ZM178.089 75.3086H166.364V79.0186H163.929V73.043H165.926C166.341 72.0234 166.671 70.985 166.917 69.9277C167.162 68.861 167.351 67.7896 167.483 66.7134C167.615 65.6278 167.7 64.5374 167.738 63.4424C167.776 62.3473 167.795 61.2476 167.795 60.1431H178.386V73.043H180.525V79.0186H178.089V75.3086ZM175.781 73.043V62.4087H170.287C170.221 63.2677 170.15 64.1504 170.074 65.0566C170.008 65.9629 169.914 66.8739 169.791 67.7896C169.678 68.6958 169.522 69.5926 169.324 70.48C169.135 71.3674 168.885 72.2217 168.573 73.043H175.781ZM182.451 60.1431H185.056V66.2603H192.137V60.1431H194.756V75.3086H192.137V68.5259H185.056V75.3086H182.451V60.1431ZM210.347 75.3086H207.727V69.3047H204.371C203.767 69.3047 203.239 69.3188 202.786 69.3472C202.342 69.366 201.964 69.451 201.653 69.6021C201.341 69.7531 201.096 69.9891 200.916 70.3101C200.746 70.631 200.638 71.0889 200.591 71.6836L200.477 73.312C200.468 73.3592 200.459 73.4536 200.449 73.5952C200.44 73.7368 200.421 73.9067 200.392 74.105C200.364 74.2938 200.326 74.4967 200.279 74.7139C200.232 74.931 200.175 75.1292 200.109 75.3086H197.235C197.301 75.2236 197.362 75.1387 197.419 75.0537C197.485 74.9593 197.546 74.8319 197.603 74.6714C197.669 74.5109 197.726 74.3032 197.773 74.0483C197.829 73.7935 197.881 73.4678 197.929 73.0713L198.099 71.1313C198.155 70.6216 198.221 70.2062 198.297 69.8853C198.382 69.5643 198.495 69.3 198.637 69.0923C198.788 68.8752 198.981 68.7005 199.217 68.5684C199.453 68.4268 199.751 68.2852 200.109 68.1436C198.486 67.5583 197.674 66.3594 197.674 64.5469C197.674 64.0938 197.73 63.6784 197.844 63.3008C197.957 62.9137 198.103 62.5692 198.283 62.2671C198.471 61.965 198.679 61.7007 198.906 61.4741C199.142 61.2381 199.378 61.0446 199.614 60.8936C199.906 60.7048 200.227 60.5632 200.577 60.4688C200.926 60.3649 201.275 60.2894 201.624 60.2422C201.983 60.195 202.332 60.1667 202.672 60.1572C203.012 60.1478 203.324 60.1431 203.607 60.1431H210.347V75.3086ZM207.727 62.437H203.763C203.423 62.437 203.13 62.4417 202.885 62.4512C202.639 62.4512 202.422 62.4606 202.233 62.4795C202.054 62.4984 201.889 62.5314 201.738 62.5786C201.587 62.6258 201.431 62.6919 201.27 62.7769C200.94 62.9657 200.685 63.2441 200.506 63.6123C200.336 63.9805 200.251 64.3722 200.251 64.7876C200.251 65.1935 200.312 65.5381 200.435 65.8213C200.558 66.0951 200.718 66.3216 200.916 66.501C201.124 66.6803 201.351 66.8219 201.596 66.9258C201.851 67.0202 202.106 67.091 202.361 67.1382C202.625 67.1759 202.88 67.1995 203.125 67.209C203.371 67.2184 203.583 67.2231 203.763 67.2231H207.727V62.437ZM225.966 75.3086H223.347V69.3047H219.991C219.386 69.3047 218.858 69.3188 218.405 69.3472C217.961 69.366 217.583 69.451 217.272 69.6021C216.96 69.7531 216.715 69.9891 216.536 70.3101C216.366 70.631 216.257 71.0889 216.21 71.6836L216.097 73.312C216.087 73.3592 216.078 73.4536 216.068 73.5952C216.059 73.7368 216.04 73.9067 216.012 74.105C215.983 74.2938 215.946 74.4967 215.898 74.7139C215.851 74.931 215.795 75.1292 215.728 75.3086H212.854C212.92 75.2236 212.981 75.1387 213.038 75.0537C213.104 74.9593 213.165 74.8319 213.222 74.6714C213.288 74.5109 213.345 74.3032 213.392 74.0483C213.449 73.7935 213.501 73.4678 213.548 73.0713L213.718 71.1313C213.774 70.6216 213.84 70.2062 213.916 69.8853C214.001 69.5643 214.114 69.3 214.256 69.0923C214.407 68.8752 214.6 68.7005 214.836 68.5684C215.072 68.4268 215.37 68.2852 215.728 68.1436C214.105 67.5583 213.293 66.3594 213.293 64.5469C213.293 64.0938 213.35 63.6784 213.463 63.3008C213.576 62.9137 213.722 62.5692 213.902 62.2671C214.091 61.965 214.298 61.7007 214.525 61.4741C214.761 61.2381 214.997 61.0446 215.233 60.8936C215.525 60.7048 215.846 60.5632 216.196 60.4688C216.545 60.3649 216.894 60.2894 217.244 60.2422C217.602 60.195 217.952 60.1667 218.291 60.1572C218.631 60.1478 218.943 60.1431 219.226 60.1431H225.966V75.3086ZM223.347 62.437H219.382C219.042 62.437 218.749 62.4417 218.504 62.4512C218.258 62.4512 218.041 62.4606 217.852 62.4795C217.673 62.4984 217.508 62.5314 217.357 62.5786C217.206 62.6258 217.05 62.6919 216.89 62.7769C216.559 62.9657 216.304 63.2441 216.125 63.6123C215.955 63.9805 215.87 64.3722 215.87 64.7876C215.87 65.1935 215.931 65.5381 216.054 65.8213C216.177 66.0951 216.337 66.3216 216.536 66.501C216.743 66.6803 216.97 66.8219 217.215 66.9258C217.47 67.0202 217.725 67.091 217.98 67.1382C218.244 67.1759 218.499 67.1995 218.745 67.209C218.99 67.2184 219.202 67.2231 219.382 67.2231H223.347V62.437ZM95.703 84.4932H98.4784V94.6318L108.631 84.4932H112.511L103.845 92.8901L112.752 105.309H109.183L101.849 94.8159L98.4784 98.0586V105.309H95.703V84.4932ZM126.148 99.9702C126.11 100.338 126.035 100.74 125.921 101.174C125.818 101.608 125.662 102.042 125.454 102.477C125.246 102.901 124.977 103.312 124.647 103.708C124.326 104.105 123.929 104.459 123.457 104.771C122.995 105.073 122.447 105.313 121.815 105.493C121.182 105.681 120.46 105.776 119.648 105.776C119.205 105.776 118.737 105.719 118.247 105.606C117.756 105.502 117.274 105.323 116.802 105.068C116.34 104.813 115.896 104.487 115.471 104.091C115.056 103.685 114.688 103.185 114.367 102.59C114.055 101.995 113.805 101.306 113.616 100.522C113.427 99.7295 113.333 98.8232 113.333 97.8037C113.333 96.5482 113.512 95.4201 113.871 94.4194C114.23 93.4093 114.707 92.555 115.301 91.8564C115.905 91.1579 116.604 90.6198 117.397 90.2422C118.199 89.8646 119.04 89.6758 119.917 89.6758C120.71 89.6758 121.409 89.7607 122.013 89.9307C122.627 90.1006 123.16 90.3271 123.613 90.6104C124.066 90.8936 124.449 91.224 124.76 91.6016C125.072 91.9697 125.322 92.3615 125.511 92.7769C125.709 93.1828 125.855 93.5981 125.95 94.0229C126.054 94.4478 126.12 94.8537 126.148 95.2407H123.712C123.58 94.2118 123.221 93.4046 122.636 92.8193C122.06 92.234 121.249 91.9414 120.201 91.9414C119.483 91.9414 118.855 92.0877 118.317 92.3804C117.789 92.673 117.345 93.0837 116.986 93.6123C116.637 94.1315 116.373 94.764 116.193 95.5098C116.023 96.2461 115.938 97.0579 115.938 97.9453C115.938 98.946 116.033 99.8097 116.222 100.537C116.41 101.254 116.679 101.849 117.029 102.321C117.378 102.783 117.803 103.128 118.303 103.354C118.813 103.572 119.389 103.68 120.031 103.68C120.484 103.68 120.913 103.6 121.319 103.439C121.725 103.27 122.089 103.029 122.41 102.717C122.731 102.396 123.004 102.005 123.231 101.542C123.457 101.079 123.618 100.556 123.712 99.9702H126.148ZM141.059 100.466C140.955 101.127 140.729 101.773 140.379 102.406C140.03 103.038 139.572 103.605 139.006 104.105C138.439 104.605 137.769 105.007 136.995 105.309C136.231 105.62 135.381 105.776 134.446 105.776C133.427 105.776 132.483 105.611 131.614 105.28C130.755 104.94 130.009 104.435 129.377 103.765C128.754 103.085 128.263 102.236 127.904 101.216C127.546 100.197 127.366 98.9979 127.366 97.6196C127.366 96.6945 127.465 95.859 127.664 95.1133C127.871 94.3581 128.145 93.6878 128.485 93.1025C128.834 92.5078 129.235 91.998 129.689 91.5732C130.142 91.139 130.618 90.785 131.119 90.5112C131.628 90.228 132.148 90.0203 132.676 89.8882C133.205 89.7466 133.715 89.6758 134.206 89.6758C135.244 89.6758 136.193 89.8315 137.052 90.1431C137.911 90.4546 138.647 90.9313 139.261 91.5732C139.884 92.2057 140.365 93.0034 140.705 93.9663C141.054 94.9198 141.229 96.0431 141.229 97.3364V98.6392H130.142C130.151 99.3755 130.255 100.046 130.453 100.65C130.651 101.245 130.935 101.754 131.303 102.179C131.671 102.604 132.115 102.934 132.634 103.17C133.162 103.397 133.757 103.51 134.418 103.51C135.088 103.51 135.655 103.416 136.117 103.227C136.58 103.038 136.967 102.798 137.278 102.505C137.59 102.212 137.84 101.887 138.029 101.528C138.227 101.169 138.392 100.815 138.524 100.466H141.059ZM138.609 96.5576C138.591 95.8213 138.477 95.1652 138.27 94.5894C138.071 94.0135 137.788 93.5321 137.42 93.145C137.061 92.7485 136.627 92.4512 136.117 92.2529C135.607 92.0452 135.041 91.9414 134.418 91.9414C133.823 91.9414 133.276 92.0594 132.775 92.2954C132.275 92.522 131.836 92.8429 131.459 93.2583C131.081 93.6642 130.779 94.1504 130.552 94.7168C130.326 95.2738 130.189 95.8874 130.142 96.5576H138.609ZM143.708 90.1431H146.313V96.2603H153.393V90.1431H156.013V105.309H153.393V98.5259H146.313V105.309H143.708V90.1431ZM159.27 90.1431H161.876V101.769H161.932L169.381 90.1431H172.368V105.309H169.749V93.6831H169.692L162.258 105.309H159.27V90.1431ZM187.959 105.309H185.34V99.3047H181.984C181.38 99.3047 180.851 99.3188 180.398 99.3472C179.954 99.366 179.576 99.451 179.265 99.6021C178.953 99.7531 178.708 99.9891 178.529 100.31C178.359 100.631 178.25 101.089 178.203 101.684L178.09 103.312C178.08 103.359 178.071 103.454 178.061 103.595C178.052 103.737 178.033 103.907 178.005 104.105C177.976 104.294 177.939 104.497 177.891 104.714C177.844 104.931 177.788 105.129 177.721 105.309H174.847C174.913 105.224 174.974 105.139 175.031 105.054C175.097 104.959 175.158 104.832 175.215 104.671C175.281 104.511 175.338 104.303 175.385 104.048C175.442 103.793 175.494 103.468 175.541 103.071L175.711 101.131C175.767 100.622 175.833 100.206 175.909 99.8853C175.994 99.5643 176.107 99.3 176.249 99.0923C176.4 98.8752 176.593 98.7005 176.829 98.5684C177.065 98.4268 177.363 98.2852 177.721 98.1436C176.098 97.5583 175.286 96.3594 175.286 94.5469C175.286 94.0938 175.343 93.6784 175.456 93.3008C175.569 92.9137 175.715 92.5692 175.895 92.2671C176.084 91.965 176.291 91.7007 176.518 91.4741C176.754 91.2381 176.99 91.0446 177.226 90.8936C177.519 90.7048 177.839 90.5632 178.189 90.4688C178.538 90.3649 178.887 90.2894 179.237 90.2422C179.595 90.195 179.945 90.1667 180.284 90.1572C180.624 90.1478 180.936 90.1431 181.219 90.1431H187.959V105.309ZM185.34 92.437H181.375C181.035 92.437 180.742 92.4417 180.497 92.4512C180.251 92.4512 180.034 92.4606 179.845 92.4795C179.666 92.4984 179.501 92.5314 179.35 92.5786C179.199 92.6258 179.043 92.6919 178.883 92.7769C178.552 92.9657 178.297 93.2441 178.118 93.6123C177.948 93.9805 177.863 94.3722 177.863 94.7876C177.863 95.1935 177.924 95.5381 178.047 95.8213C178.17 96.0951 178.33 96.3216 178.529 96.501C178.736 96.6803 178.963 96.8219 179.208 96.9258C179.463 97.0202 179.718 97.091 179.973 97.1382C180.237 97.1759 180.492 97.1995 180.738 97.209C180.983 97.2184 181.195 97.2231 181.375 97.2231H185.34V92.437Z" fill="#B55373"/>
</svg>
