<svg width="241" height="332" viewBox="0 0 241 332" fill="none" xmlns="http://www.w3.org/2000/svg">
<path d="M91.7823 270.266L88.6737 284.805L51.6081 274.817L57.3789 252.178L60.7082 226.876L66.8118 211.56L84.346 172.719C88.7819 168.861 90.5042 169.374 91.7813 176.159L87.1021 201.026L74.036 265.272L92.543 268.856L91.7823 270.266Z" fill="#F0C3A2" stroke="#D9AE8E" stroke-width="2"/>
<path d="M195.881 144.241C208.898 146.809 221.529 138.328 224.08 125.308L235.507 66.9631C238.049 53.9833 229.61 41.3933 216.638 38.8118L45.018 4.65899C32.0676 2.08185 19.4679 10.45 16.8209 23.3863L4.84512 81.9136C2.17476 94.964 10.6433 107.692 23.7121 110.271L42.2302 113.925L178.544 140.82L195.881 144.241Z" fill="white"/>
<path fill-rule="evenodd" clip-rule="evenodd" d="M216.638 38.8118C229.61 41.3933 238.049 53.9833 235.507 66.9631L224.08 125.308C221.529 138.328 208.898 146.809 195.881 144.241L178.544 140.82L42.2302 113.925L23.7121 110.271C10.6433 107.692 2.17476 94.964 4.84512 81.9136L16.8209 23.3863C19.4679 10.45 32.0676 2.08185 45.018 4.65899L216.638 38.8118Z" fill="white"/>
<path d="M97.4263 262.274C96.7738 268.054 95.7593 269.505 93.1508 269.18L73.8215 265.59L104.915 126.293L114.791 128.241L97.4263 262.274Z" fill="white"/>
<path d="M195.881 144.241C208.898 146.809 221.529 138.328 224.08 125.308L235.507 66.9631C238.049 53.9833 229.61 41.3933 216.638 38.8118L45.018 4.65899C32.0676 2.08185 19.4679 10.45 16.8209 23.3863L4.84512 81.9136C2.17476 94.964 10.6433 107.692 23.7121 110.271L42.2302 113.925L178.544 140.82L195.881 144.241Z" stroke="white" stroke-width="4"/>
<path fill-rule="evenodd" clip-rule="evenodd" d="M216.638 38.8118C229.61 41.3933 238.049 53.9833 235.507 66.9631L224.08 125.308C221.529 138.328 208.898 146.809 195.881 144.241L178.544 140.82L42.2302 113.925L23.7121 110.271C10.6433 107.692 2.17476 94.964 4.84512 81.9136L16.8209 23.3863C19.4679 10.45 32.0676 2.08185 45.018 4.65899L216.638 38.8118Z" stroke="white" stroke-width="4"/>
<path d="M97.4263 262.274C96.7738 268.054 95.7593 269.505 93.1508 269.18L73.8215 265.59L104.915 126.293L114.791 128.241L97.4263 262.274Z" stroke="white" stroke-width="4"/>
<path d="M86.5538 202.018L116.684 191.462C118.275 190.905 120.039 190.896 121.541 191.663C126.516 194.202 126.149 196.695 123.708 201.134L87.541 211.956C81.413 208.57 83.6069 206.27 86.5538 202.018Z" fill="#F0C3A2"/>
<path d="M87.541 211.956L123.708 201.134C128.901 206.113 129.9 208.937 124.989 214.234L85.5479 221.923C81.4784 217.405 81.6459 215.139 87.541 211.956Z" fill="#F0C3A2"/>
<path d="M85.5479 221.923L124.989 214.234C130.041 219.606 130.349 222.679 124.989 228.046C109.74 226.983 100.717 228.311 83.6975 234.027C80.4847 229.369 81.5022 225.881 85.5479 221.923Z" fill="#F0C3A2"/>
<path d="M83.6975 234.027C100.717 228.311 109.74 226.983 124.989 228.046C129.324 233.773 130.908 236.897 122.427 241.573C122.427 241.573 109.667 241.012 103.15 240.569C101.488 240.456 101.204 240.384 100.499 240.292C97.0321 239.839 93.1365 242.179 84.7542 239.143C82.6364 236.969 82.6585 235.875 83.6975 234.027Z" fill="#F0C3A2"/>
<path d="M122.427 241.573L101.731 252.882L103.15 240.569C109.667 241.012 122.427 241.573 122.427 241.573Z" fill="#F0C3A2"/>
<path d="M123.708 201.134C126.149 196.695 126.516 194.202 121.541 191.663C120.039 190.896 118.275 190.905 116.684 191.462L86.5538 202.018C83.6069 206.27 81.413 208.57 87.541 211.956M123.708 201.134L87.541 211.956M123.708 201.134C128.901 206.113 129.9 208.937 124.989 214.234M87.541 211.956C81.6459 215.139 81.4784 217.405 85.5479 221.923M85.5479 221.923L124.989 214.234M85.5479 221.923C81.5022 225.881 80.4847 229.369 83.6975 234.027M124.989 214.234C130.041 219.606 130.349 222.679 124.989 228.046M124.989 228.046C109.74 226.983 100.717 228.311 83.6975 234.027M124.989 228.046C129.324 233.773 130.908 236.897 122.427 241.573M83.6975 234.027C82.6585 235.875 82.6364 236.969 84.7542 239.143C93.1365 242.179 97.0321 239.839 100.499 240.292C101.204 240.384 101.488 240.456 103.15 240.569M122.427 241.573L101.731 252.882L103.15 240.569M122.427 241.573C122.427 241.573 109.667 241.012 103.15 240.569" stroke="#D9AE8E" stroke-width="2"/>
<path d="M46.2343 273.031L96.5116 288.078L93.2089 300.555L43.1159 285.141L46.2343 273.031Z" fill="#EB8FB8"/>
<path d="M38.3451 285.141H43.1159L93.2089 300.555L97.6133 302.206L88.8056 428.449L15.0415 427.532L38.3451 285.141Z" fill="#F8A1C8"/>
<rect x="26.0306" y="7.08159" width="209.935" height="97.4206" rx="23" transform="rotate(10.9276 26.0306 7.08159)" stroke="#B55373" stroke-width="2"/>
<path d="M100.728 41.2742L102.049 41.5405L101.3 45.2596L105.934 42.3232L107.664 42.672L103.368 45.3402L106.172 50.3732L104.47 50.0302L102.172 45.936L101.039 46.552L100.5 49.2301L99.1786 48.9639L100.728 41.2742ZM107.686 42.6764L109.136 42.9686L109.921 49.6419L109.949 49.6476L113.257 43.7992L114.708 44.0914L110.159 51.498C109.93 51.8702 109.723 52.1921 109.539 52.4638C109.355 52.7355 109.182 52.9622 109.021 53.1439C108.859 53.3304 108.702 53.4757 108.552 53.5799C108.406 53.685 108.252 53.7585 108.089 53.8004C107.93 53.8481 107.757 53.8655 107.57 53.8528C107.387 53.8458 107.179 53.8187 106.944 53.7714C106.753 53.7329 106.604 53.6929 106.498 53.6516C106.395 53.616 106.306 53.578 106.229 53.5377L106.469 52.3458C106.55 52.3919 106.656 52.4433 106.789 52.5C106.923 52.5567 107.066 52.6005 107.219 52.6313C107.463 52.6805 107.671 52.6603 107.844 52.5705C108.02 52.4865 108.171 52.345 108.295 52.146L108.945 51.1486L107.686 42.6764ZM115.476 44.2463L116.797 44.5126L116.585 45.568L116.613 45.5738C116.735 45.4141 116.877 45.2682 117.038 45.1363C117.204 45.0054 117.389 44.9008 117.594 44.8226C117.805 44.7405 118.037 44.6901 118.29 44.6713C118.547 44.6535 118.832 44.6759 119.143 44.7386C119.554 44.8216 119.933 44.9802 120.28 45.2143C120.626 45.4485 120.913 45.7529 121.142 46.1277C121.37 46.5025 121.522 46.9465 121.598 47.4599C121.675 47.9685 121.649 48.5387 121.522 49.1706C121.363 49.9603 121.146 50.6165 120.871 51.1389C120.602 51.6575 120.284 52.0616 119.917 52.3513C119.555 52.6418 119.15 52.8241 118.701 52.8982C118.253 52.9722 117.773 52.9576 117.261 52.8544C117.007 52.8033 116.777 52.722 116.57 52.6106C116.363 52.4993 116.182 52.3731 116.026 52.2321C115.876 52.0873 115.752 51.9377 115.653 51.7834C115.556 51.6243 115.489 51.4762 115.452 51.3392L115.423 51.3334L114.637 55.2321L113.316 54.9659L115.476 44.2463ZM115.986 48.3911C115.902 48.8075 115.865 49.201 115.875 49.5716C115.886 49.9375 115.949 50.2665 116.065 50.5587C116.185 50.8519 116.357 51.0983 116.581 51.2978C116.81 51.4935 117.1 51.6265 117.449 51.697C117.813 51.7703 118.141 51.7616 118.433 51.6711C118.731 51.5767 118.992 51.4177 119.217 51.1939C119.441 50.9702 119.629 50.6918 119.781 50.3588C119.934 50.021 120.052 49.6438 120.136 49.2274C120.224 48.7918 120.263 48.384 120.255 48.0038C120.247 47.6236 120.184 47.2845 120.064 46.9865C119.945 46.6885 119.766 46.4407 119.527 46.2431C119.294 46.0417 118.995 45.9043 118.631 45.831C118.282 45.7606 117.963 45.7735 117.674 45.8698C117.392 45.9623 117.138 46.1228 116.912 46.3513C116.692 46.5808 116.504 46.8693 116.35 47.2166C116.195 47.564 116.074 47.9555 115.986 48.3911ZM122.96 48.1529C123.069 47.6867 123.237 47.3096 123.465 47.0217C123.693 46.729 123.966 46.5102 124.284 46.3651C124.602 46.22 124.959 46.1425 125.355 46.1325C125.756 46.1187 126.182 46.1572 126.632 46.2479C127.005 46.3231 127.359 46.4342 127.693 46.5812C128.031 46.7292 128.32 46.9168 128.558 47.1441C128.797 47.3666 128.97 47.6307 129.078 47.9363C129.192 48.2381 129.209 48.5829 129.131 48.9706L128.23 53.4437C128.205 53.5681 128.217 53.6826 128.265 53.787C128.315 53.8867 128.414 53.9515 128.562 53.9814C128.629 53.9949 128.7 54.0041 128.773 54.009C128.848 54.0091 128.925 54.0097 129.005 54.0108L128.821 54.9226C128.705 54.9291 128.59 54.9333 128.475 54.935C128.365 54.9377 128.235 54.9241 128.087 54.8942C127.857 54.8479 127.662 54.7888 127.503 54.7167C127.348 54.6456 127.221 54.5554 127.124 54.4461C127.032 54.333 126.969 54.2007 126.935 54.0494C126.901 53.8932 126.896 53.7103 126.918 53.5007C126.72 53.645 126.514 53.7754 126.301 53.8919C126.09 54.0036 125.86 54.0942 125.612 54.1638C125.364 54.2285 125.096 54.2641 124.806 54.2703C124.515 54.2814 124.194 54.2517 123.845 54.1813C123.548 54.1215 123.268 54.0153 123.005 53.8626C122.747 53.711 122.524 53.5191 122.336 53.2871C122.154 53.056 122.023 52.7906 121.944 52.4907C121.866 52.1861 121.864 51.8519 121.937 51.4881C122.017 51.0908 122.153 50.7621 122.345 50.5019C122.538 50.237 122.761 50.0304 123.015 49.8824C123.27 49.7295 123.547 49.6284 123.846 49.5791C124.145 49.5297 124.441 49.5172 124.735 49.5416L126.95 49.7115C127.16 49.729 127.337 49.6824 127.478 49.5715C127.626 49.4568 127.73 49.2487 127.791 48.9471C127.885 48.4828 127.799 48.1193 127.533 47.8565C127.273 47.5899 126.858 47.3992 126.288 47.2844C125.704 47.1667 125.244 47.2034 124.906 47.3944C124.57 47.5807 124.333 47.9164 124.195 48.4018L122.96 48.1529ZM127.431 50.5855C127.31 50.6409 127.166 50.679 126.997 50.6998C126.834 50.7168 126.656 50.7232 126.463 50.7191C126.269 50.715 126.064 50.7061 125.848 50.6924C125.633 50.6738 125.417 50.6577 125.2 50.644C124.954 50.6293 124.724 50.6328 124.511 50.6545C124.297 50.6762 124.106 50.7224 123.937 50.793C123.769 50.8636 123.629 50.9625 123.519 51.0897C123.41 51.2121 123.336 51.369 123.297 51.5605C123.253 51.7807 123.247 51.9813 123.28 52.1623C123.318 52.3443 123.386 52.5048 123.482 52.6438C123.584 52.7838 123.715 52.8998 123.875 52.992C124.036 53.0842 124.219 53.151 124.425 53.1925C124.554 53.2185 124.706 53.2341 124.879 53.2391C125.053 53.2394 125.235 53.2262 125.425 53.1997C125.615 53.1732 125.803 53.1289 125.99 53.0669C126.182 53.0011 126.359 52.9123 126.521 52.8005C126.683 52.6887 126.823 52.5525 126.94 52.3918C127.057 52.2311 127.138 52.0406 127.182 51.8205L127.431 50.5855ZM133.145 49.0024L130.495 48.4685L130.727 47.3197L137.347 48.6538L137.115 49.8026L134.466 49.2687L133.148 55.8095L131.827 55.5433L133.145 49.0024ZM142.986 53.78C143.072 53.354 143.103 52.9543 143.078 52.5808C143.055 52.2025 142.973 51.8648 142.834 51.5677C142.695 51.2707 142.498 51.0219 142.245 50.8214C141.997 50.6171 141.689 50.4777 141.32 50.4035C140.952 50.3292 140.614 50.3383 140.306 50.4307C140 50.5184 139.725 50.6721 139.481 50.892C139.238 51.1119 139.032 51.3917 138.864 51.7314C138.697 52.0663 138.57 52.4468 138.484 52.8728C138.397 53.3036 138.365 53.7105 138.388 54.0936C138.411 54.4719 138.492 54.8095 138.632 55.1066C138.771 55.4037 138.965 55.6544 139.212 55.8587C139.461 56.0582 139.77 56.1952 140.138 56.2694C140.507 56.3437 140.844 56.337 141.151 56.2494C141.463 56.1579 141.741 56.0022 141.985 55.7823C142.228 55.5624 142.434 55.2826 142.602 54.9429C142.771 54.5984 142.899 54.2108 142.986 53.78ZM144.307 54.0463C144.18 54.6781 143.984 55.2313 143.719 55.7059C143.455 56.1757 143.134 56.5568 142.756 56.8493C142.378 57.1417 141.948 57.3388 141.464 57.4406C140.986 57.5385 140.467 57.5311 139.907 57.4182C139.347 57.3053 138.865 57.1112 138.463 56.8358C138.061 56.5556 137.742 56.2075 137.508 55.7916C137.273 55.3756 137.124 54.8999 137.063 54.3646C137.002 53.8244 137.036 53.2384 137.163 52.6066C137.289 51.9843 137.483 51.4383 137.747 50.9685C138.011 50.4987 138.332 50.1176 138.71 49.8251C139.088 49.5326 139.515 49.3374 139.993 49.2395C140.472 49.1368 140.992 49.1418 141.552 49.2547C142.112 49.3676 142.593 49.5641 142.995 49.8443C143.402 50.1207 143.723 50.4668 143.958 50.8828C144.193 51.2987 144.342 51.7744 144.403 52.3098C144.464 52.8452 144.433 53.424 144.307 54.0463ZM146.207 50.4394L147.528 50.7057L147.316 51.7611L147.344 51.7669C147.466 51.6072 147.608 51.4613 147.769 51.3294C147.935 51.1985 148.12 51.0939 148.325 51.0157C148.536 50.9336 148.768 50.8832 149.021 50.8644C149.278 50.8466 149.563 50.869 149.874 50.9317C150.285 51.0147 150.664 51.1733 151.011 51.4074C151.357 51.6416 151.644 51.946 151.873 52.3208C152.101 52.6956 152.253 53.1396 152.329 53.653C152.406 54.1616 152.38 54.7318 152.253 55.3637C152.094 56.1534 151.877 56.8096 151.602 57.332C151.333 57.8506 151.015 58.2547 150.648 58.5444C150.286 58.8349 149.881 59.0172 149.432 59.0913C148.984 59.1653 148.504 59.1507 147.992 59.0475C147.738 58.9964 147.508 58.9151 147.301 58.8037C147.094 58.6924 146.913 58.5662 146.757 58.4252C146.607 58.2804 146.483 58.1308 146.384 57.9765C146.287 57.8174 146.22 57.6693 146.183 57.5323L146.154 57.5265L145.368 61.4252L144.047 61.159L146.207 50.4394ZM146.717 54.5842C146.633 55.0006 146.596 55.3941 146.606 55.7647C146.617 56.1306 146.68 56.4596 146.796 56.7518C146.916 57.045 147.088 57.2914 147.312 57.4909C147.541 57.6866 147.831 57.8196 148.18 57.89C148.544 57.9634 148.872 57.9547 149.164 57.8642C149.462 57.7698 149.723 57.6108 149.948 57.387C150.172 57.1633 150.36 56.8849 150.512 56.5519C150.665 56.2141 150.783 55.8369 150.867 55.4205C150.955 54.9849 150.994 54.5771 150.986 54.1969C150.978 53.8167 150.915 53.4776 150.795 53.1796C150.676 52.8816 150.497 52.6338 150.258 52.4362C150.025 52.2348 149.726 52.0974 149.362 52.0241C149.013 51.9537 148.694 51.9666 148.405 52.0629C148.123 52.1554 147.869 52.3159 147.643 52.5444C147.423 52.7739 147.235 53.0624 147.081 53.4097C146.926 53.7571 146.805 54.1486 146.717 54.5842Z" fill="#B55373"/>
<path d="M36.8412 57.2094L39.1866 57.682L37.7252 64.9337L47.083 66.8195L48.5444 59.5679L50.9018 60.0429L47.3568 77.6336L44.9994 77.1586L46.6682 68.8778L37.3104 66.9919L35.6416 75.2727L33.2962 74.8001L36.8412 57.2094ZM60.5589 73.6072C60.702 72.8972 60.7532 72.231 60.7127 71.6085C60.6737 70.978 60.5381 70.4152 60.3058 69.9201C60.0735 69.425 59.7461 69.0104 59.3237 68.6762C58.9108 68.3356 58.3972 68.1035 57.7829 67.9797C57.1687 67.8559 56.6053 67.871 56.0927 68.0251C55.5818 68.1711 55.1233 68.4274 54.7174 68.7939C54.3115 69.1604 53.9685 69.6267 53.6883 70.1929C53.4098 70.7511 53.199 71.3852 53.0559 72.0952C52.9112 72.8132 52.8576 73.4914 52.8949 74.1299C52.9339 74.7603 53.0696 75.3231 53.3018 75.8182C53.5341 76.3133 53.8567 76.7311 54.2696 77.0717C54.684 77.4043 55.1984 77.6325 55.8127 77.7563C56.427 77.88 56.9896 77.8689 57.5005 77.7228C58.021 77.5704 58.4843 77.3109 58.8902 76.9444C59.2961 76.5779 59.6391 76.1116 59.9193 75.5454C60.201 74.9713 60.4142 74.3252 60.5589 73.6072ZM62.7607 74.051C62.5485 75.104 62.2216 76.026 61.7799 76.817C61.3399 77.6 60.8051 78.2352 60.1755 78.7226C59.546 79.2101 58.8281 79.5386 58.0219 79.7082C57.2252 79.8714 56.3602 79.859 55.4269 79.6709C54.4935 79.4828 53.6912 79.1592 53.0199 78.7002C52.3503 78.2332 51.8197 77.653 51.4281 76.9598C51.0365 76.2666 50.7895 75.4738 50.687 74.5815C50.5862 73.6812 50.6419 72.7045 50.8541 71.6515C51.0631 70.6144 51.3876 69.7043 51.8277 68.9213C52.2677 68.1384 52.8025 67.5031 53.4321 67.0157C54.0616 66.5282 54.7747 66.2029 55.5713 66.0397C56.3696 65.8685 57.2354 65.8769 58.1688 66.065C59.1022 66.2531 59.9037 66.5807 60.5733 67.0477C61.2525 67.5083 61.7879 68.0853 62.1795 68.7785C62.5711 69.4718 62.8182 70.2645 62.9206 71.1569C63.023 72.0492 62.9697 73.0139 62.7607 74.051ZM66.0474 68.0637L68.2492 68.5074L67.2074 73.6769L73.1906 74.8827L74.2324 69.7132L76.4462 70.1593L73.8635 82.9754L71.6497 82.5293L72.8048 76.7973L66.8216 75.5916L65.6664 81.3235L63.4646 80.8798L66.0474 68.0637ZM78.4009 74.5505C78.5824 73.7735 78.8627 73.1451 79.2416 72.6653C79.6222 72.1774 80.0776 71.8126 80.6078 71.5708C81.138 71.329 81.7327 71.1998 82.3919 71.1832C83.0607 71.1603 83.77 71.2243 84.5199 71.3755C85.1421 71.5009 85.7316 71.6861 86.2882 71.9311C86.8528 72.1777 87.3336 72.4904 87.7304 72.8692C88.1289 73.2401 88.4179 73.6802 88.5975 74.1896C88.7867 74.6926 88.8162 75.2672 88.686 75.9134L87.1836 83.3685C87.1418 83.5759 87.1614 83.7667 87.2426 83.9408C87.3253 84.1069 87.4903 84.2148 87.7377 84.2647C87.8493 84.2872 87.9666 84.3025 88.0895 84.3107C88.214 84.3109 88.3425 84.3119 88.4749 84.3136L88.1687 85.8334C87.9755 85.8443 87.7832 85.8512 87.5917 85.8541C87.4081 85.8586 87.1927 85.8359 86.9454 85.7861C86.5625 85.7089 86.2378 85.6103 85.9715 85.4902C85.7131 85.3717 85.5027 85.2214 85.3401 85.0392C85.1872 84.8507 85.0822 84.6303 85.0251 84.378C84.9696 84.1178 84.9605 83.8129 84.9977 83.4635C84.667 83.704 84.3243 83.9213 83.9697 84.1155C83.6167 84.3017 83.2335 84.4528 82.8199 84.5687C82.408 84.6766 81.9602 84.7358 81.4766 84.7463C80.9914 84.7647 80.4576 84.7152 79.8753 84.5979C79.3807 84.4982 78.9141 84.3212 78.4756 84.0668C78.045 83.814 77.6736 83.4942 77.3614 83.1075C77.0571 82.7224 76.8391 82.28 76.7074 81.7803C76.5772 81.2726 76.5733 80.7156 76.6954 80.1093C76.8289 79.4471 77.0555 78.8992 77.3754 78.4656C77.6968 78.024 78.0692 77.6798 78.4925 77.433C78.9174 77.1783 79.3789 77.0098 79.877 76.9275C80.375 76.8453 80.869 76.8244 81.3589 76.865L85.0501 77.1482C85.4011 77.1774 85.6949 77.0996 85.9314 76.9148C86.1775 76.7237 86.3511 76.3768 86.4524 75.8742C86.6084 75.1004 86.4648 74.4945 86.0218 74.0565C85.5883 73.6122 84.8969 73.2944 83.9476 73.1031C82.9743 72.9069 82.2065 72.9681 81.6443 73.2864C81.0836 73.5968 80.6886 74.1565 80.4592 74.9653L78.4009 74.5505ZM85.8523 78.6049C85.6511 78.6972 85.41 78.7607 85.129 78.7954C84.8577 78.8237 84.5608 78.8344 84.2384 78.8276C83.916 78.8207 83.5745 78.8058 83.2139 78.783C82.8548 78.7521 82.4949 78.7253 82.1343 78.7024C81.7241 78.6778 81.3411 78.6837 80.9851 78.7198C80.6292 78.756 80.3107 78.833 80.0296 78.9507C79.7485 79.0684 79.5161 79.2332 79.3322 79.4452C79.15 79.6492 79.0267 79.9108 78.9624 80.2299C78.8884 80.5969 78.8792 80.9312 78.9346 81.2329C78.998 81.5363 79.1101 81.8038 79.271 82.0354C79.4398 82.2687 79.6582 82.4621 79.9261 82.6157C80.194 82.7693 80.4994 82.8807 80.8425 82.9498C81.0579 82.9932 81.31 83.0191 81.5989 83.0276C81.8893 83.028 82.1926 83.0061 82.5087 82.9619C82.8248 82.9176 83.1385 82.8439 83.4498 82.7406C83.7708 82.6309 84.0663 82.4829 84.3363 82.2966C84.6063 82.1103 84.8388 81.8832 85.0339 81.6153C85.229 81.3475 85.3636 81.0301 85.4375 80.6631L85.8523 78.6049ZM107.073 82.1219L105.97 73.7556L101.425 80.9836L107.073 82.1219ZM94.9139 87.2176L105.108 70.6805L107.968 71.2568L110.745 90.4081L108.137 89.8824L107.367 84.1237L100.451 82.7298L97.4029 87.7192L94.9139 87.2176ZM114.705 77.8695L116.907 78.3132L116.552 80.0723L116.6 80.0819C116.803 79.8157 117.039 79.5726 117.307 79.3528C117.584 79.1345 117.893 78.9602 118.235 78.8298C118.586 78.6931 118.972 78.6091 119.394 78.5778C119.823 78.5481 120.297 78.5855 120.816 78.69C121.502 78.8282 122.133 79.0925 122.71 79.4828C123.288 79.8731 123.766 80.3805 124.147 81.0051C124.528 81.6297 124.781 82.3698 124.907 83.2254C125.035 84.0731 124.993 85.0235 124.781 86.0765C124.516 87.3928 124.154 88.4863 123.697 89.3571C123.249 90.2215 122.718 90.895 122.106 91.3777C121.502 91.862 120.827 92.1658 120.08 92.2892C119.333 92.4126 118.532 92.3883 117.679 92.2163C117.256 92.1311 116.872 91.9956 116.528 91.81C116.183 91.6243 115.881 91.414 115.621 91.179C115.371 90.9377 115.164 90.6884 115 90.4312C114.838 90.166 114.726 89.9193 114.664 89.691L114.616 89.6813L113.306 96.1791L111.104 95.7354L114.705 77.8695ZM115.554 84.7774C115.414 85.4714 115.353 86.1273 115.369 86.745C115.388 87.3547 115.493 87.9031 115.685 88.3901C115.886 88.8788 116.172 89.2894 116.545 89.6219C116.928 89.948 117.41 90.1698 117.993 90.2872C118.599 90.4093 119.146 90.395 119.633 90.2441C120.129 90.0868 120.565 89.8217 120.939 89.4488C121.313 89.0759 121.626 88.6119 121.879 88.0569C122.134 87.4939 122.331 86.8653 122.471 86.1713C122.617 85.4453 122.684 84.7655 122.67 84.1319C122.657 83.4982 122.551 82.9331 122.352 82.4365C122.153 81.9398 121.854 81.5268 121.456 81.1974C121.067 80.8617 120.569 80.6328 119.963 80.5106C119.381 80.3932 118.849 80.4148 118.369 80.5753C117.897 80.7294 117.474 80.9969 117.099 81.3778C116.731 81.7603 116.418 82.241 116.16 82.82C115.903 83.399 115.701 84.0514 115.554 84.7774ZM127.178 84.3804C127.36 83.6034 127.64 82.975 128.019 82.4951C128.399 82.0073 128.855 81.6425 129.385 81.4007C129.915 81.1589 130.51 81.0297 131.169 81.0131C131.838 80.9901 132.547 81.0542 133.297 81.2053C133.919 81.3307 134.509 81.5159 135.065 81.7609C135.63 82.0076 136.111 82.3203 136.508 82.6991C136.906 83.07 137.195 83.5101 137.375 84.0195C137.564 84.5225 137.593 85.0971 137.463 85.7433L135.961 93.1984C135.919 93.4058 135.939 93.5966 136.02 93.7706C136.103 93.9367 136.268 94.0447 136.515 94.0946C136.627 94.1171 136.744 94.1324 136.867 94.1406C136.991 94.1407 137.12 94.1417 137.252 94.1435L136.946 95.6633C136.753 95.6741 136.56 95.681 136.369 95.684C136.185 95.6885 135.97 95.6658 135.723 95.616C135.34 95.5388 135.015 95.4402 134.749 95.3201C134.49 95.2016 134.28 95.0513 134.117 94.8691C133.964 94.6805 133.859 94.4601 133.802 94.2079C133.747 93.9476 133.738 93.6428 133.775 93.2933C133.444 93.5338 133.101 93.7512 132.747 93.9454C132.394 94.1316 132.011 94.2827 131.597 94.3986C131.185 94.5065 130.737 94.5657 130.254 94.5761C129.769 94.5946 129.235 94.5451 128.652 94.4278C128.158 94.3281 127.691 94.151 127.253 93.8966C126.822 93.6438 126.451 93.3241 126.139 92.9374C125.834 92.5523 125.616 92.1099 125.485 91.6102C125.354 91.1024 125.35 90.5454 125.473 89.9391C125.606 89.277 125.833 88.7291 126.153 88.2955C126.474 87.8538 126.846 87.5096 127.27 87.2629C127.695 87.0081 128.156 86.8396 128.654 86.7574C129.152 86.6751 129.646 86.6543 130.136 86.6949L133.827 86.978C134.178 87.0073 134.472 86.9295 134.709 86.7447C134.955 86.5536 135.128 86.2067 135.23 85.7041C135.386 84.9303 135.242 84.3244 134.799 83.8864C134.365 83.4421 133.674 83.1243 132.725 82.933C131.751 82.7368 130.984 82.7979 130.421 83.1163C129.861 83.4267 129.466 83.9863 129.236 84.7952L127.178 84.3804ZM134.629 88.4348C134.428 88.527 134.187 88.5905 133.906 88.6252C133.635 88.6536 133.338 88.6643 133.016 88.6574C132.693 88.6506 132.352 88.6357 131.991 88.6128C131.632 88.582 131.272 88.5551 130.911 88.5323C130.501 88.5077 130.118 88.5135 129.762 88.5497C129.406 88.5859 129.088 88.6628 128.807 88.7805C128.526 88.8982 128.293 89.0631 128.109 89.2751C127.927 89.4791 127.804 89.7407 127.74 90.0598C127.666 90.4267 127.656 90.7611 127.712 91.0628C127.775 91.3661 127.887 91.6336 128.048 91.8653C128.217 92.0986 128.435 92.292 128.703 92.4456C128.971 92.5992 129.277 92.7106 129.62 92.7797C129.835 92.8231 130.087 92.849 130.376 92.8574C130.667 92.8579 130.97 92.836 131.286 92.7917C131.602 92.7475 131.916 92.6738 132.227 92.5705C132.548 92.4608 132.843 92.3128 133.113 92.1265C133.383 91.9401 133.616 91.7131 133.811 91.4452C134.006 91.1774 134.141 90.86 134.215 90.493L134.629 88.4348ZM141.128 83.1944L143.33 83.6381L142.08 89.8367L149.803 84.9427L152.687 85.5239L145.528 89.971L150.2 98.3593L147.364 97.7877L143.534 90.964L141.646 91.9907L140.747 96.4542L138.545 96.0104L141.128 83.1944ZM163.219 96.7242C163.019 97.265 162.717 97.7729 162.315 98.2479C161.912 98.7229 161.428 99.1236 160.864 99.4499C160.301 99.7763 159.666 100.001 158.96 100.125C158.261 100.258 157.517 100.245 156.727 100.085C155.865 99.9118 155.096 99.6114 154.418 99.1843C153.75 98.7508 153.206 98.197 152.785 97.5229C152.374 96.8424 152.104 96.0408 151.975 95.1181C151.845 94.1954 151.898 93.1517 152.133 91.987C152.29 91.2052 152.516 90.516 152.811 89.9196C153.115 89.3167 153.46 88.7969 153.847 88.3602C154.244 87.9171 154.669 87.5546 155.125 87.2728C155.582 86.983 156.045 86.765 156.514 86.6189C156.993 86.4664 157.467 86.3793 157.937 86.3576C158.408 86.328 158.85 86.355 159.265 86.4386C160.143 86.6154 160.918 86.9086 161.591 87.3182C162.264 87.7278 162.805 88.256 163.214 88.903C163.633 89.5436 163.904 90.2997 164.027 91.1713C164.16 92.0366 164.116 93.0156 163.896 94.1086L163.674 95.2095L154.304 93.3212C154.187 93.9451 154.161 94.5292 154.225 95.0735C154.291 95.6099 154.444 96.0889 154.683 96.5106C154.921 96.9323 155.24 97.2871 155.639 97.5749C156.047 97.8564 156.53 98.0535 157.089 98.166C157.655 98.2801 158.15 98.2968 158.573 98.2161C158.996 98.1353 159.364 97.9978 159.677 97.8035C159.99 97.6093 160.257 97.3766 160.478 97.1056C160.706 96.8362 160.906 96.5652 161.077 96.2926L163.219 96.7242ZM161.815 93.0043C161.924 92.3788 161.94 91.8051 161.863 91.2831C161.793 90.7627 161.636 90.3076 161.391 89.9178C161.155 89.5216 160.839 89.1964 160.442 88.942C160.046 88.6797 159.585 88.4955 159.059 88.3894C158.556 88.2881 158.073 88.2946 157.61 88.4088C157.149 88.5151 156.723 88.7116 156.334 88.9983C155.945 89.277 155.607 89.6364 155.319 90.0765C155.033 90.5086 154.813 91.0038 154.659 91.5622L161.815 93.0043ZM175.458 92.1051L170.551 91.1164L169.836 94.1724C169.474 95.7184 169.093 96.9947 168.691 98.0012C168.29 98.9997 167.859 99.7803 167.397 100.343C166.943 100.907 166.454 101.274 165.93 101.442C165.406 101.61 164.841 101.634 164.235 101.511C164.012 101.466 163.823 101.391 163.67 101.286C163.524 101.19 163.414 101.097 163.34 101.007L163.731 99.0688C164.018 99.2512 164.281 99.3665 164.521 99.4147C164.688 99.4484 164.853 99.4527 165.016 99.4274C165.187 99.4037 165.356 99.3257 165.524 99.1935C165.7 99.0629 165.876 98.8661 166.054 98.603C166.233 98.3319 166.414 97.9699 166.597 97.5169C166.787 97.0655 166.978 96.5104 167.169 95.8515C167.368 95.1943 167.572 94.4053 167.783 93.4848L168.843 88.7797L178.045 90.6342L175.462 103.45L173.261 103.007L175.458 92.1051ZM188.638 106.105L186.424 105.659L187.447 100.586L184.611 100.014C184.1 99.9111 183.651 99.8331 183.263 99.7798C182.885 99.7202 182.551 99.7277 182.262 99.8023C181.973 99.8769 181.726 100.035 181.52 100.275C181.321 100.518 181.152 100.886 181.01 101.381L180.637 102.737C180.621 102.776 180.597 102.854 180.565 102.972C180.533 103.09 180.488 103.23 180.431 103.393C180.374 103.548 180.308 103.713 180.231 103.888C180.154 104.064 180.073 104.222 179.986 104.362L177.557 103.872C177.627 103.812 177.694 103.75 177.756 103.688C177.828 103.62 177.902 103.523 177.977 103.397C178.06 103.272 178.143 103.106 178.226 102.899C178.318 102.693 178.417 102.427 178.524 102.1L178.998 100.489C179.133 100.068 179.26 99.7285 179.378 99.4701C179.505 99.2133 179.645 99.0092 179.8 98.8579C179.965 98.7001 180.158 98.5855 180.38 98.514C180.604 98.4345 180.879 98.3655 181.207 98.3069C179.934 97.5358 179.452 96.3843 179.761 94.8526C179.838 94.4697 179.957 94.1283 180.117 93.8285C180.278 93.5207 180.461 93.2545 180.664 93.0297C180.875 92.8066 181.095 92.6186 181.325 92.4657C181.565 92.3065 181.797 92.1831 182.022 92.0957C182.302 91.986 182.597 91.921 182.908 91.9007C183.221 91.8724 183.529 91.8681 183.833 91.8877C184.144 91.9089 184.444 91.9444 184.733 91.9943C185.021 92.0442 185.285 92.0933 185.525 92.1415L191.221 93.2894L188.638 106.105ZM188.616 94.7818L185.266 94.1066C184.979 94.0487 184.73 94.0029 184.521 93.969C184.314 93.9272 184.129 93.8982 183.966 93.8821C183.811 93.8675 183.666 93.8672 183.53 93.8814C183.395 93.8956 183.252 93.9249 183.102 93.9694C182.79 94.0726 182.528 94.2646 182.313 94.5452C182.107 94.8273 181.968 95.1439 181.898 95.495C181.829 95.838 181.822 96.1396 181.877 96.3999C181.934 96.6521 182.031 96.8709 182.168 97.0562C182.313 97.2432 182.481 97.4014 182.67 97.531C182.87 97.6542 183.073 97.7574 183.28 97.8407C183.497 97.9176 183.709 97.981 183.915 98.0308C184.12 98.0806 184.299 98.1207 184.451 98.1513L187.801 98.8265L188.616 94.7818ZM193.997 93.849L196.199 94.2927L195.158 99.4622L201.141 100.668L202.183 95.4985L204.396 95.9446L201.814 108.761L199.6 108.315L200.755 102.583L194.772 101.377L193.617 107.109L191.415 106.665L193.997 93.849Z" fill="#B55373"/>
</svg>
