<svg width="206" height="206" viewBox="0 0 206 206" fill="none" xmlns="http://www.w3.org/2000/svg">
<circle cx="102.963" cy="102.963" r="102.963" fill="white"/>
<path d="M49.4814 86.2514C45.3938 111.26 44.8852 125.333 45.4289 150.409C43.1256 153.14 41.9583 155.066 41.731 156.625C41.4924 158.262 42.2901 159.494 43.8974 160.826L62.1895 161.2C78.6862 164.311 87.9499 165.132 104.248 164.406C126.405 164.315 138.576 163.152 160.053 160.292C164.954 159.753 164.814 158.521 163.284 155.912C160.947 152.994 160.174 151.365 160.053 148.379C160.508 124.231 158.909 110.686 156.329 86.5185C114.258 93.9674 91.2074 94.1189 49.4814 86.2514Z" fill="#8E5639"/>
<path d="M51.0076 58.9956C45.9934 61.672 46.6982 64.0707 48.9877 68.6217C50.3816 70.1204 51.0909 71.2214 50.9066 72.2469C50.7542 73.0953 49.9901 73.892 48.4958 74.8194C43.9137 78.4861 45.3061 81.1725 49.4814 86.2514C91.2074 94.1189 114.258 93.9674 156.329 86.5185C158.645 84.4819 159.481 83.0393 158.987 80.9784L158.246 79.0396L155.179 73.0565C159.838 66.6423 162.815 62.9875 153.317 58.7933C114.135 67.3549 91.9512 66.4417 54.3088 59.6029C53.2215 59.4054 52.1214 59.2029 51.0076 58.9956Z" fill="#B4724F"/>
<path d="M54.3088 59.6029C91.9512 66.4417 114.135 67.3549 153.317 58.7933C150.02 56.1129 148.207 54.0505 144.807 53.4144C140.393 52.4869 138.406 51.4824 135.822 49.1475C130.982 44.9607 128.849 41.1409 120.926 41.7669C116.513 43.3133 114.389 42.2146 110.641 40.1523C99.1234 35.7772 92.44 36.1507 81.322 42.92C77.9855 47.1709 75.8183 47.4407 71.9825 48.1097C63.6439 48.3472 59.9013 51.3223 54.3088 59.6029Z" fill="#543322"/>
<ellipse cx="102.965" cy="126.988" rx="26.6896" ry="26.0348" fill="#D9D9D9"/>
<path d="M101.582 131.097C99.1419 121.225 94.979 119.74 85.0371 121.903C87.2173 128.317 88.1981 132.11 99.2653 131.741L101.582 131.097Z" fill="#768D1A"/>
<path d="M106.168 131.741C117.709 132.103 119.157 128.66 120.876 121.903C110.795 119.471 106.953 121.315 103.767 131.097L106.168 131.741Z" fill="#768D1A"/>
<path d="M103.767 121.318C109.243 114.209 109.924 110.333 103.227 103.691C95.8719 110.001 94.9903 113.683 101.306 121.318H103.767Z" fill="#768D1A"/>
<path d="M103.767 141.608V133.849V131.097V121.318H101.306L101.582 131.097L99.2653 131.741C100.562 132.714 101.261 133.275 101.306 134.669V141.608H103.767Z" fill="#542F31"/>
<path d="M98.4305 142.165C94.0136 143.599 90.7609 145.346 87.6979 148.574C99.0469 154.901 107.15 155.859 118.34 148.267C114.102 144.896 111.531 141.624 103.767 141.608H101.306C100.271 141.751 99.4494 141.711 98.4305 142.165Z" fill="#542F31"/>
<path d="M103.767 133.849L106.168 131.741L103.767 131.097V133.849Z" fill="#542F31"/>
</svg>
