<svg width="238" height="230" viewBox="0 0 238 230" fill="none" xmlns="http://www.w3.org/2000/svg">
<circle cx="118.686" cy="122.572" r="102.963" fill="white"/>
<path d="M191.39 139.253L189.005 130.942C187.056 127.082 185.33 123.562 183.76 120.245C177.484 106.984 173.713 96.9702 168.214 81.521L166.528 78.5143C163.049 84.7786 159.642 86.9771 152.753 90.1614C145.913 92.7455 142.113 93.9875 135.678 95.694C128.303 97.1696 124.392 97.5495 117.351 96.827L112.485 95.5438C113.34 101.459 114.622 106.645 118.135 115.076C118.672 116.354 118.924 117.215 118.754 117.726L123.527 120.052C128.011 123.898 129.508 126.88 129.911 134.039C129.926 135.844 129.354 136.267 126.879 135.548C124.129 134.779 123.245 134.859 122.297 135.49L127.378 155.694C128.892 159.579 130.415 160.384 133.004 162.078C147.829 166.734 156.164 167.075 171.432 160.696C181.228 154.865 192.369 147.01 191.39 139.253Z" fill="#97BD82"/>
<path d="M91.7088 128.241C112.825 131.885 120.382 133.6 122.297 135.49C123.245 134.859 124.129 134.779 126.879 135.548C129.354 136.267 129.926 135.844 129.911 134.039C129.508 126.88 128.011 123.898 123.527 120.052L118.754 117.726C118.58 118.252 117.961 118.407 116.75 118.265L86.8996 117.254L82.2341 117.167L67.775 114.743C75.1828 123.064 78.9262 127.936 77.8075 140.582L85.7732 131.167C87.4253 128.828 88.4339 127.655 91.7088 128.241Z" fill="#97BD82"/>
<path d="M117.351 96.827C124.392 97.5495 128.303 97.1696 135.678 95.694C142.113 93.9875 145.913 92.7455 152.753 90.1614C159.642 86.9771 163.049 84.7786 166.528 78.5143C164.328 77.9624 162.851 77.7494 161.05 76.3893L152.731 77.4385L133.612 83.885L116.414 93.7733C116.689 94.7068 117.01 95.6463 117.351 96.827Z" fill="#347521"/>
<path d="M118.819 65.7803C113.803 73.5256 111.561 78.1327 111.59 88.2211L111.608 88.3762C111.903 91.0074 112.164 93.3268 112.485 95.5438L117.351 96.827C117.01 95.6463 116.689 94.7068 116.414 93.7733C115.974 92.2756 115.651 90.7935 115.55 88.3555C116.419 80.5648 117.192 76.2724 120.613 69.1561C123.188 65.044 124.502 62.6027 129.364 60.8955C135.336 58.9566 138.69 58.3197 144.773 61.2023C149.952 64.2834 153.013 65.6367 156.986 71.657L159.122 74.6129C159.825 75.3658 160.455 75.9401 161.05 76.3893C162.851 77.7494 164.328 77.9624 166.528 78.5143L164.148 74.269L155.949 64.1491C150.93 59.2078 146.218 57.306 138.972 56.467C129.969 57.7793 125.129 58.9075 118.819 65.7803Z" fill="#97BD82"/>
<path d="M189.005 130.942C194.234 108.81 195.098 96.7213 191.405 75.724C190.463 74.2066 189.398 72.933 188.231 71.9548C189 73.8005 189.168 76.2327 189.21 79.6089C188.69 97.9077 186.403 105.154 183.76 120.245C185.33 123.562 187.056 127.082 189.005 130.942Z" fill="#97BD82"/>
<path d="M184.758 68.3433C180.55 66.7131 179.842 65.8087 172.123 68.4139C168.654 69.7402 166.878 70.89 164.148 74.269L166.528 78.5143L168.214 81.521C175.604 69.1439 182.958 67.5365 188.231 71.9548C187.587 70.4097 186.522 69.2757 184.758 68.3433Z" fill="#97BD82"/>
<path d="M72.5482 137.317C74.1309 140.169 75.6571 141.134 77.8075 140.582C78.9262 127.936 75.1828 123.064 67.775 114.743C65.5502 112.345 64.9314 113.411 65.4439 118.457C67.1591 126.207 68.8614 130.264 72.5482 137.317Z" fill="#347521"/>
<path d="M47.8295 122.373C48.7549 121.586 51.6136 120.557 52.8108 120.999C53.0025 122.237 51.4918 124.98 50.5663 125.767C49.6409 126.554 48.278 126.432 47.5222 125.494C46.7665 124.557 46.904 123.16 47.8295 122.373Z" fill="#65BBE7"/>
<path d="M45.0116 133.012C46.1514 132.629 49.1648 132.754 50.1104 133.622C49.8387 134.851 47.4496 136.838 46.3099 137.221C45.1701 137.604 43.9555 136.972 43.597 135.81C43.2385 134.648 43.8718 133.395 45.0116 133.012Z" fill="#65BBE7"/>
<path d="M39.3324 125.973C40.5273 125.958 43.3514 127.008 43.9936 128.131C43.3737 129.224 40.5204 130.389 39.3255 130.403C38.1307 130.418 37.1637 129.438 37.1656 128.214C37.1675 126.991 38.1376 125.987 39.3324 125.973Z" fill="#65BBE7"/>
<path d="M54.4772 138.389C55.2361 137.433 57.849 135.851 59.1109 136.042C59.537 137.215 58.5782 140.201 57.8194 141.157C57.0605 142.112 55.6972 142.267 54.7743 141.503C53.8514 140.738 53.7184 139.344 54.4772 138.389Z" fill="#65BBE7"/>
<path d="M52.5593 129.99C53.3182 129.035 55.931 127.453 57.1929 127.644C57.6191 128.816 56.6603 131.803 55.9014 132.758C55.1425 133.714 53.7792 133.869 52.8563 133.104C51.9334 132.34 51.8004 130.946 52.5593 129.99Z" fill="#65BBE7"/>
<path d="M45.0804 141.276C45.9651 140.441 48.7694 139.261 49.9883 139.638C50.2431 140.864 48.8733 143.682 47.9886 144.516C47.1039 145.351 45.7357 145.302 44.9326 144.407C44.1295 143.512 44.1957 142.11 45.0804 141.276Z" fill="#65BBE7"/>
<path d="M55.0221 147.789C55.63 146.727 57.9796 144.756 59.2578 144.746C59.8559 145.834 59.3551 148.93 58.7472 149.992C58.1393 151.053 56.8126 151.421 55.784 150.813C54.7553 150.204 54.4142 148.851 55.0221 147.789Z" fill="#65BBE7"/>
<path d="M46.7253 150.898C47.3332 149.837 49.6827 147.865 50.961 147.855C51.559 148.944 51.0582 152.039 50.4503 153.101C49.8424 154.163 48.5157 154.53 47.4871 153.922C46.4585 153.314 46.1174 151.96 46.7253 150.898Z" fill="#65BBE7"/>
<path d="M38.5534 154.625C39.1613 153.563 41.5108 151.591 42.7891 151.581C43.3871 152.67 42.8863 155.766 42.2784 156.828C41.6705 157.889 40.3439 158.257 39.3152 157.649C38.2866 157.04 37.9455 155.687 38.5534 154.625Z" fill="#65BBE7"/>
<path d="M35.6627 146.434C36.3933 145.456 38.9592 143.794 40.2267 143.946C40.6875 145.104 39.8171 148.118 39.0865 149.096C38.3559 150.074 36.9972 150.271 36.0518 149.536C35.1063 148.801 34.9321 147.412 35.6627 146.434Z" fill="#65BBE7"/>
<path d="M34.5628 136.147C35.4475 135.312 38.2518 134.132 39.4708 134.509C39.7255 135.735 38.3557 138.553 37.471 139.387C36.5863 140.222 35.2181 140.173 34.415 139.278C33.612 138.383 33.6781 136.981 34.5628 136.147Z" fill="#65BBE7"/>
<path d="M59.1077 120.845C60.2997 120.746 63.1908 121.592 63.908 122.666C63.3631 123.799 60.5928 125.162 59.4007 125.262C58.2086 125.361 57.1766 124.453 57.0957 123.233C57.0148 122.014 57.9156 120.944 59.1077 120.845Z" fill="#65BBE7"/>
<path d="M63.2412 140.341C64.2696 139.704 67.241 139.123 68.3575 139.745C68.3651 141.001 66.4725 143.487 65.4441 144.124C64.4157 144.761 63.0889 144.43 62.4806 143.386C61.8723 142.341 62.2128 140.978 63.2412 140.341Z" fill="#65BBE7"/>
<path d="M61.2607 129.332C62.3855 128.903 65.403 128.907 66.3817 129.735C66.1573 130.974 63.845 133.054 62.7202 133.482C61.5954 133.911 60.3569 133.329 59.9538 132.182C59.5508 131.036 60.1359 129.76 61.2607 129.332Z" fill="#65BBE7"/>
</svg>
