<svg width="206" height="206" viewBox="0 0 206 206" fill="none" xmlns="http://www.w3.org/2000/svg">
<circle cx="102.963" cy="102.963" r="102.963" fill="white"/>
<path d="M84.1877 147.055L108.661 157.714C111.616 139.92 118.097 133.936 128.951 122.722L125.316 117.523L101.824 83.9256C95.1957 78.1902 93.9684 80.2067 93.6771 87.3778L98.6862 101.372L65.9444 76.8194C56.6716 73.8979 55.8085 75.88 59.7585 83.9841L80.703 104.908L50.3831 88.4979C41.2677 87.7683 41.165 90.1862 45.2608 96.8964L67.9906 115.416L41.5173 106.044C31.6999 107.435 32.8587 109.998 39.9454 115.797L62.6598 126.93L50.4274 123.176C37.6163 124.926 40.4186 130.545 46.9947 133.904C65.6239 137.17 72.0446 140.82 84.1877 147.055Z" fill="#FFB9CA"/>
<path d="M108.661 157.714C115.834 163.391 120.783 167.824 122.882 166.802C126.129 156.812 128.36 151.142 138.251 140.804C142.589 135.973 144.021 133.541 140.656 130.068L128.951 122.722C118.097 133.936 111.616 139.92 108.661 157.714Z" fill="#D35982"/>
<path d="M93.6771 87.3778C93.9684 80.2067 95.1957 78.1902 101.824 83.9256L125.316 117.523L149.904 106.327C152.864 98.8326 154.29 94.6204 152.348 86.8099C150.189 75.7923 149.641 69.4731 151.412 57.6065C150.713 48.749 148.611 48.299 142.999 52.4219L136.308 75.7341L121.848 34.4033C116.645 32.0033 114.188 31.173 112.564 39.3703L117.918 66.6015L106.1 35.8356C99.3038 30.0673 98.7839 34.3277 98.2025 41.2693L106.491 68.848L92.4817 45.5361C84.7762 41.6303 81.9534 41.8615 82.9624 52.5827L97.118 76.6393L85.1661 63.7918C78.3178 62.9939 75.9058 64.1367 78.4528 71.9502L93.6771 87.3778Z" fill="#DF7A92"/>
<path d="M128.951 122.722L140.656 130.068L153.193 123.055C155.355 120.243 155.155 118.671 153.571 115.587L149.904 106.327L125.316 117.523L128.951 122.722Z" fill="#D35982"/>
</svg>
