<svg width="118" height="113" viewBox="0 0 118 113" fill="none" xmlns="http://www.w3.org/2000/svg">
<path d="M51.5238 96.4875L54.3307 103.675C56.8372 107.444 58.2278 106.669 60.7328 103.675L63.4283 95.589L88.8106 75.1485C93.4586 75.5968 96.1028 76.0269 100.491 75.1485C105.027 73.7967 104.905 72.2863 101.726 68.7467L96.6723 65.1528L82.8581 35.0537L86.9013 25.9568C88.0344 18.0191 85.7685 18.6424 81.3981 20.341L73.7609 25.9568L40.5169 26.6302L33.1047 20.341C27.3815 18.276 27.4229 20.3097 27.377 23.8224C28.5952 29.369 29.8885 32.1315 33.1047 36.6259L17.2689 65.7144C14.8157 67.1522 13.6512 68.0212 12.2148 69.7576C9.44405 72.1021 9.4797 73.2981 12.7769 75.1485C18.2337 76.0564 21.4873 75.6184 27.377 74.4746L51.5238 96.4875Z" fill="#FFF4CB"/>
<path d="M38.0079 68.2077C50.9177 63.8398 56.0047 65.0563 57.2853 80.6007C55.2313 91.6461 52.3685 96.8829 45.3513 105.157C40.9736 108.653 39.12 108.055 36.0565 105.845C32.0329 99.5555 29.2674 97.0405 22.7459 95.6327C17.9426 93.4727 15.9009 91.9485 19.1881 85.879C25.6332 77.645 29.5708 73.509 38.0079 68.2077Z" fill="#FFD747"/>
<path d="M43.9362 44.5376C52.271 55.3207 52.7778 60.5264 38.4983 66.8004C27.3862 68.4563 21.5025 67.4554 11.394 63.5159C6.66247 60.5158 6.62419 58.5685 7.71551 54.9524C12.3518 49.0994 13.8288 45.6654 13.0356 39.0411C13.5133 33.7962 14.2892 31.3693 21.0985 32.5002C30.9828 35.9118 36.1759 38.2875 43.9362 44.5376Z" fill="#FFD747"/>
<path d="M68.5481 44.1424C60.2266 54.9357 55.3188 56.7441 45.6338 44.5183C41.2185 34.1875 40.6971 28.2421 41.9489 17.4655C43.6533 12.1286 45.5275 11.5985 49.3021 11.7387C56.1382 14.742 59.8343 15.3015 66.0419 12.857C71.2369 11.9911 73.7812 12.1274 74.4111 19.0011C73.6132 29.4271 72.6298 35.0524 68.5481 44.1424Z" fill="#FFD747"/>
<path d="M77.6241 66.1886C64.591 62.2034 61.1695 58.2474 69.1992 44.876C77.3119 37.104 82.6925 34.5215 93.219 31.8962C98.8143 31.611 99.9707 33.1783 101.169 36.7602C100.767 44.2162 101.546 47.8723 106.021 52.8207C108.661 57.3775 109.43 59.8066 103.219 62.8179C93.1804 65.7445 87.5692 66.806 77.6241 66.1886Z" fill="#FFD747"/>
<path d="M58.811 81.9495C58.2039 68.3343 60.7865 63.786 76.0742 66.8769C86.1134 71.9203 90.348 76.126 96.3452 85.1667C98.4868 90.3437 97.397 91.958 94.4229 94.2864C87.2624 96.403 84.0777 98.3604 80.9126 104.234C77.5025 108.247 75.4708 109.785 70.5543 104.94C64.4364 96.4598 61.558 91.5277 58.811 81.9495Z" fill="#FFD747"/>
<circle cx="57.6409" cy="60.8519" r="7.67609" fill="#885E5B"/>
</svg>
