<svg width="106" height="105" viewBox="0 0 106 105" fill="none" xmlns="http://www.w3.org/2000/svg">
<path d="M15.2968 81.3799C14.5205 79.4166 13.629 78.9201 10.263 80.29C6.81073 78.0443 6.29634 75.7624 11.895 67.3626C14.8192 63.7769 16.6952 60.6932 20.4687 52.1211C25.5255 47.4611 28.9494 46.999 36.6633 51.1683L46.5978 59.8779C49.0421 63.8176 48.9173 65.4764 45.7813 67.3626C39.8321 67.4782 37.0672 68.0387 33.5332 70.3561C25.6299 76.6129 21.3513 79.7863 15.2968 81.3799Z" fill="#F9C300"/>
<path d="M45.8946 57.5876C44.8792 52.2108 44.2513 49.201 37.0906 44.4742C33.4414 41.3624 32.9574 37.7419 31.7722 31.6359C31.2668 28.0908 27.4195 26.6359 19.5739 24.2083C5.18875 19.3883 5.61659 21.3058 2.05696 22.3742C-0.313065 24.7428 -1.20349 25.9149 2.51554 26.318C2.88272 27.8609 3.70314 28.465 6.12526 29.3497C8.68896 34.2971 10.5761 35.2831 13.9622 37.0436C22.0787 39.8742 26.5649 41.7527 34.3564 46.3497C39.9308 49.8361 41.8993 52.7598 45.8946 57.5876Z" fill="#F9C300"/>
<path d="M48.5012 57.5876C54.0134 48.0551 54.6124 45.3699 56.7516 39.4333C59.0989 31.2029 59.3296 26.4286 57.3726 17.6499C54.9212 11.2607 52.6671 7.757 45.8946 1.84823C43.1144 -0.908156 41.5278 -0.305654 38.7426 1.84823C35.1734 0.235679 35.4376 1.87695 37.0906 6.10685C36.6356 12.8426 36.519 16.9497 36.436 24.4936C36.1523 37.4368 36.7964 40.5553 38.7426 42.4512C41.9578 44.9469 43.7629 46.3582 46.5495 52.0609L48.5012 57.5876Z" fill="#F9C300"/>
<path d="M50.414 58.4212L61.4532 48.9275C66.3692 45.066 69.1612 43.6151 74.0379 42.4512C78.7909 39.8972 81.0142 38.0349 83.3108 33.031L96.1163 26.9963C98.1897 27.7154 98.4782 27.2833 97.7354 25.3772L93.0253 18.2385C89.9765 17.1124 88.0884 17.1599 84.6355 17.6499C78.0602 18.3262 74.5996 19.4608 69.1806 24.4936C64.2064 30.0235 60.9312 32.7713 59.0246 39.4333L55.4184 48.2651L50.414 58.4212Z" fill="#F9C300"/>
<path d="M54.4617 58.7892L62.1892 62.5425C65.5137 66.1595 67.7079 67.3553 72.566 66.811C78.2311 66.1965 81.1377 67.1222 86.1074 69.4604L101.415 74.1704C104.621 73.7408 105.824 72.8411 104.506 67.3997L95.1595 57.0965C90.7443 52.8575 87.7938 50.778 80.5142 48.2651C71.3001 47.355 66.5188 47.1749 62.1892 50.473L54.0202 56.5813C51.0589 58.2271 52.1775 58.4577 54.4617 58.7892Z" fill="#F9C300"/>
<path d="M50.414 64.8975L50.0461 61.5858C50.5737 59.2471 51.5166 59.4703 53.5786 60.9234L65.5009 70.7115C69.1143 76.928 70.0207 80.6833 68.2239 88.3742C64.6786 93.7131 62.3213 96.6745 63.0723 102.431C61.6624 105.031 60.8251 104.838 59.3926 103.093C57.4541 100.267 56.1738 99.286 55.7128 91.9804C55.1991 87.0583 54.5074 84.3667 51.0764 79.8372L45.8946 71.9626C45.2969 69.3862 46.2855 67.7854 50.414 64.8975Z" fill="#F9C300"/>
<path fill-rule="evenodd" clip-rule="evenodd" d="M56.1812 54.3485C53.1887 57.2089 51.3101 59.0045 48.5351 62.6619C48.1961 60.4353 48.078 59.0985 48.1531 56.5452C47.4219 52.6645 46.6904 50.5011 45.1573 46.6657C45.1397 45.3559 44.6417 45.0811 43.1814 45.0719C40.5641 43.9412 39.1899 43.2276 37.5731 41.2478C36.5768 38.6291 36.6575 37.5328 40.185 37.551C41.7442 38.0389 42.4504 38.8649 43.691 40.3555C44.5425 41.1195 44.8995 41.2762 44.6471 39.8456L44.0721 37.551C44.0452 34.0468 44.5963 33.1162 48.5351 36.1487C48.8209 36.6454 49.0981 37.1162 49.3629 37.5658C51.121 40.5519 52.3287 42.6031 51.8483 45.0719C50.9668 47.1605 51.0774 48.1053 51.2744 49.7873L51.2746 49.7889V54.6328C51.3787 56.0791 51.549 56.0433 51.8483 54.6328C51.9113 53.6767 51.9661 52.8255 52.0181 52.0188C52.1982 49.2226 52.3439 46.9607 52.6769 42.7135C52.7717 40.6781 52.5901 39.5692 51.8483 37.551C51.2802 34.4665 51.0553 32.7335 51.8483 29.6476C53.429 25.4651 54.4011 23.8645 56.8843 29.6476C57.415 32.796 57.2257 34.2298 56.8843 36.7858C54.8077 38.9531 54.5014 40.1639 54.3978 42.3311C53.9373 47.1631 53.6569 49.8353 52.9956 53.9954C52.5675 55.6485 52.9316 55.4283 53.6967 54.6328C55.559 52.8038 56.4063 51.4857 57.5848 48.6413C57.6184 48.5226 57.6511 48.4067 57.6831 48.2932C58.2657 46.2248 58.6189 44.9713 60.3256 42.7135C63.68 40.5469 64.9114 40.4983 64.7873 45.0719C65.712 43.8726 66.2401 43.387 67.1457 42.7135C70.7713 42.0283 72.1689 42.2286 70.97 45.7088C70.9179 45.7875 70.8668 45.8651 70.8164 45.9415C69.4197 48.0602 68.588 49.3218 63.5125 51.4446C60.8812 51.4253 59.4436 51.8363 56.8843 53.676C56.6429 53.9072 56.4088 54.1309 56.1812 54.3485ZM46.0212 44.182C48.122 49.0893 48.9499 51.881 49.4654 57.1187C49.9059 57.0674 50.0269 56.8109 50.2214 56.1947C50.2175 49.6465 48.7978 47.5773 46.0212 44.182Z" fill="#522920"/>
</svg>
