<svg width="260" height="114" viewBox="0 0 260 114" fill="none" xmlns="http://www.w3.org/2000/svg">
<path d="M134.716 24.7021C135.876 16.7902 135.78 13.4783 131.92 13.0408C126.961 14.2606 128.172 18.1445 129.394 24.3188C122.584 19.647 119.778 18.6171 117.73 21.5511C116.851 25.5045 120.123 27.0024 126.619 29.5283C118.12 32.9539 116.153 34.8214 118.257 38.0456C120.91 40.8628 123.94 38.5772 129.511 34.1254C128.039 42.6156 128.298 45.5385 131.833 45.6755C136.58 45.9296 135.954 41.8397 134.843 34.5853L134.832 34.5085C141.682 39.3076 143.91 39.3566 146.447 36.9908C147.332 33.3526 144.932 31.7258 137.671 29.3645C146.12 25.4256 147.813 23.7008 146.496 21.0857C143.829 18.0415 140.958 19.4658 134.716 24.7021Z" fill="white"/>
<circle cx="132.093" cy="29.3748" r="3.23338" transform="rotate(-175.881 132.093 29.3748)" fill="#EDD87B"/>
<path d="M80.4941 72.2721C76.326 76.1372 74.2237 78.6585 72.0156 85.4536L73.2536 86.8771C75.1398 80.4399 76.6515 77.6164 80.4941 74.5618C82.0788 86.9747 83.8743 87.0958 86.8066 89.3526C89.8319 82.9521 89.1345 79.3926 82.4127 73.0147L82.8459 72.2721C82.8447 72.1508 82.0859 72.1895 80.4941 72.2721Z" fill="#7B9C5E"/>
<path d="M103.887 72.2721L103.206 74.1286C95.3918 73.7757 92.869 75.3658 91.0767 80.8742C94.6515 81.6278 96.9391 81.209 101.845 77.8418C100.542 81.4298 99.8744 83.3873 98.8744 86.8771L100.174 87.5579C101.798 81.2471 102.82 78.4979 104.754 74.1286C104.927 81.8133 106.344 84.148 110.138 86.3201C111.609 81.9905 114.398 80.3963 106.92 72.2721H103.887Z" fill="#7B9C5E"/>
<path d="M174.066 72.272C174.452 73.7632 174.681 74.6215 175.118 76.2327C169.361 79.8002 168.661 82.1804 169.177 86.6914C172.623 85.4197 174.039 83.7531 176.046 79.5746C176.114 84.505 176.649 87.0791 177.469 91.7042L178.955 91.3329C178.016 86.945 177.785 84.8436 177.903 81.7406C181.894 87.2775 184.12 88.3453 188.052 88.1767C186.794 82.9973 185.625 80.3297 177.469 78.5844C176.499 76.045 176.141 74.6599 176.046 72.272H174.066Z" fill="#7B9C5E"/>
<path d="M200.553 78.9557C206.306 80.2399 209.528 80.6281 215.282 78.9557C220.868 66.8875 224.444 67.7284 230.691 67.0117C229.521 74.6553 225.432 77.7795 212.559 81.3693C216.793 82.5942 218.346 83.785 219.799 86.568C215.882 87.1258 213.589 86.8919 208.66 81.9884C202.195 80.9113 200.421 80.2211 197.83 78.9557H200.553Z" fill="#7B9C5E"/>
<path d="M182.173 72.272C187.625 75.2842 190.445 77.1091 193.745 81.3693C187.438 87.7107 188.436 91.174 190.466 97.3358C194.467 93.6986 196.006 91.0396 195.54 83.4734L199.625 90.2189L200.986 89.6001C198.768 85.1121 197.23 82.6519 192.941 78.5844C202.272 78.383 206.002 77.5321 209.341 74.3761C204.013 70.6757 200.347 70.1254 190.775 76.2327L184.896 72.272H182.173Z" fill="#7B9C5E"/>
<path d="M75.6748 91.527C77.1983 96.8484 75.2868 97.8033 70.4745 98.4803C66.9103 94.3002 64.3641 91.8391 73.6882 90.4461C67.7745 88.1714 66.2073 90.1504 65.3326 97.1948C66.5469 99.2565 67.3968 100.131 70.4745 99.2691C72.3632 101.283 73.477 101.269 75.4703 99.5028C79.2601 96.6791 79.913 94.9749 75.6748 91.527Z" fill="#A9586F"/>
<path d="M69.1007 93.0878C68.1962 95.0302 68.8554 95.9664 71.0863 96.6697C72.3187 95.715 72.2591 95.0647 71.0863 93.7886C70.1493 92.9028 69.7465 92.7567 69.1007 93.0878Z" fill="#AA586F"/>
<path fill-rule="evenodd" clip-rule="evenodd" d="M73.4195 87.1277C63.5735 81.0692 61.6148 83.0715 61.8203 92.1818C59.1904 96.7549 59.3149 98.7964 64.9684 100.632C69.2699 106.218 71.8512 106.59 76.8158 101.958C81.6104 101.52 83.2398 100.421 81.9524 95.0811C84.1988 87.6302 81.6826 86.3766 73.4195 87.1277ZM70.4745 98.4803C75.2868 97.8033 77.1983 96.8484 75.6748 91.527C79.913 94.9749 79.2601 96.6791 75.4703 99.5028C73.477 101.269 72.3632 101.283 70.4745 99.2691C67.3968 100.131 66.5469 99.2565 65.3326 97.1948C66.2073 90.1504 67.7745 88.1714 73.6882 90.4461C64.3641 91.8391 66.9103 94.3002 70.4745 98.4803ZM71.0863 96.6697C68.8554 95.9664 68.1962 95.0302 69.1007 93.0878C69.7465 92.7567 70.1493 92.9028 71.0863 93.7886C72.2591 95.0647 72.3187 95.715 71.0863 96.6697Z" fill="#E2A2A3"/>
<path d="M47.9453 97.2803C50.0455 92.8006 51.5849 91.2917 55.9023 92.9542C59.8518 95.2326 59.1748 97.5048 57.039 101.884L54.8472 99.2054C52.0095 102.508 50.6631 101.812 51.1401 97.6089L47.9453 97.2803Z" fill="#E2A2A3"/>
<path d="M87.3672 99.9298C90.7214 89.7379 92.9258 85.2667 99.5149 87.2675C105.979 90.5553 104.823 95.2825 100.913 104.862L98.1159 99.9298C93.0345 106.175 92.0057 105.433 92.5944 98.6045L87.3672 99.9298Z" fill="#F2DD9E"/>
<path d="M175.362 109.466C171.733 99.0478 170.735 94.0247 177.331 91.5927C184.627 90.2915 186.634 94.877 189.432 105.137L184.087 102.826C183.854 111.079 182.557 111.107 178.779 105.152L175.362 109.466Z" fill="#EAADAE"/>
<path d="M200.045 109.272C195.219 98.6661 193.722 93.4088 200.79 89.5096C208.72 86.703 211.295 91.2924 215.192 101.885L209.123 100.401C209.524 109.397 208.097 109.675 203.464 103.939L200.045 109.272Z" fill="#F7E498"/>
<path d="M7.98131 77.4591C14.4417 77.2989 17.1034 78.2172 17.6803 84.2326C17.3227 90.1774 14.2725 90.7124 7.90842 90.7725L9.75969 86.6478C4.24373 85.2594 4.27135 83.2799 9.46181 81.3842L7.98131 77.4591Z" fill="#ECD2DB"/>
<path d="M67.0813 72.405C56.3807 79.8216 50.9573 81.8771 42.7826 80.3484C36.6658 69.0032 32.7889 69.2679 25.9609 68.1992C27.2733 77.1262 32.9117 78.4344 42.2635 81.2834L46.9956 82.2714C43.0967 83.9517 41.673 85.2165 41.2234 88.3555C47.1076 88.1191 48.7363 86.3912 50.9997 82.6874L58.4358 79.6193C68.4415 81.9538 72.035 81.7114 75.0762 78.7353C72.8023 75.8956 70.3403 75.3586 65.404 74.8872L68.004 72.405H67.0813Z" fill="#7B9C5E"/>
<path d="M32.611 90.8284C32.244 95.8042 32.4518 97.8611 34.874 97.9604C37.905 96.9791 36.9776 94.6162 35.9405 90.8284C40.3881 93.4307 42.1805 93.9459 43.3232 92.0282C43.6931 89.5285 41.59 88.7429 37.4341 87.462C42.5697 84.9493 43.7103 83.6989 42.2564 81.7866C40.4793 80.1523 38.6956 81.7105 35.4284 84.7307C35.9636 79.381 35.6719 77.5735 33.4654 77.6467C30.4997 77.7012 31.0727 80.2185 32.089 84.6834L32.0998 84.7307C27.6212 82.051 26.2328 82.1203 24.7598 83.7064C24.372 86.0102 25.9388 86.9151 30.5631 88.0592C25.4815 90.8892 24.5054 92.0385 25.4422 93.6069C27.2384 95.3819 28.9611 94.3669 32.611 90.8284Z" fill="white"/>
<circle cx="34.0253" cy="87.8026" r="2.01746" fill="#EDD87B"/>
<path d="M14.5062 65.3808C14.9793 72.8818 15.7114 75.9087 19.3465 75.5599C23.6686 73.4736 21.7998 70.1376 19.475 64.6977C26.6462 67.6688 29.4269 68.0699 30.7388 64.9736C30.778 61.1672 27.4782 60.4263 21.0133 59.3674C28.162 54.5639 29.6076 52.4639 27.0455 49.9084C24.0581 47.834 21.7159 50.5253 17.4597 55.7027C17.1609 47.6093 16.3547 44.9717 13.0768 45.5336C8.66215 46.2235 10.0337 49.8626 12.4665 56.3173L12.4922 56.3856C5.25882 53.3055 3.20104 53.6938 1.32817 56.363C1.22218 59.8806 3.74606 60.9096 10.8819 61.6683C3.87891 66.9342 2.65806 68.8495 4.37775 70.9981C7.42255 73.2785 9.78517 71.4103 14.5062 65.3808Z" fill="white"/>
<circle cx="16.0067" cy="60.5773" r="3.03909" transform="rotate(-7.82763 16.0067 60.5773)" fill="#EDD87B"/>
<path d="M226.26 91.3552C226.627 96.4524 227.142 98.506 229.612 98.2471C232.538 96.8028 231.247 94.5458 229.634 90.8611C234.528 92.8382 236.421 93.0943 237.294 90.9812C237.298 88.393 235.05 87.909 230.648 87.2278C235.48 83.919 236.45 82.4826 234.693 80.7604C232.649 79.3679 231.073 81.2117 228.21 84.7574C227.959 79.2564 227.395 77.4679 225.169 77.8696C222.172 78.3651 223.126 80.8311 224.819 85.2051L224.837 85.2515C219.9 83.2005 218.504 83.4769 217.246 85.3028C217.195 87.6952 218.917 88.3797 223.774 88.8528C219.044 92.475 218.225 93.7846 219.407 95.2351C221.491 96.7674 223.086 95.483 226.26 91.3552Z" fill="white"/>
<circle cx="227.25" cy="88.0772" r="2.06638" transform="rotate(-8.33202 227.25 88.0772)" fill="#EDD87B"/>
<path d="M128.757 84.1783C127.905 92.1292 128.128 95.4349 132.003 95.7224C136.91 94.3113 135.55 90.4772 134.09 84.3549C141.076 88.7593 143.92 89.6796 145.852 86.6684C146.577 82.6839 143.25 81.3139 136.661 79.0418C145.021 75.2893 146.914 73.347 144.686 70.2067C141.926 67.4945 138.987 69.8958 133.593 74.5603C134.734 66.0194 134.363 63.1087 130.824 63.1089C126.071 63.039 126.855 67.1016 128.246 74.3074L128.261 74.3837C121.229 69.8538 119.002 69.8912 116.558 72.3536C115.815 76.0233 118.277 77.5559 125.623 79.6339C117.333 83.8974 115.709 85.6865 117.126 88.2486C119.909 91.1872 122.722 89.6527 128.757 84.1783Z" fill="white"/>
<circle cx="131.199" cy="79.4128" r="3.23338" transform="rotate(1.89686 131.199 79.4128)" fill="#EDD87B"/>
<path d="M180.263 45.5399C184.578 41.8392 186.776 39.4014 189.246 32.697L188.064 31.2265C185.93 37.5858 184.31 40.3486 180.352 43.2519C179.25 30.7869 177.46 30.5963 174.617 28.2276C171.346 34.506 171.905 38.0898 178.375 44.7235L177.913 45.4488C177.91 45.57 178.669 45.5607 180.263 45.5399Z" fill="#7B9C5E"/>
<path d="M156.888 44.6331L157.64 42.8043C165.435 43.4599 168.017 41.9688 170.022 36.534C166.479 35.6424 164.177 35.9722 159.144 39.1467C160.585 35.6119 161.328 33.6818 162.463 30.2333L161.191 29.5027C159.323 35.7457 158.195 38.4532 156.094 42.7443C156.219 35.0587 154.893 32.6708 151.186 30.3532C149.548 34.6225 146.699 36.1074 153.858 44.5155L156.888 44.6331Z" fill="#7B9C5E"/>
<path d="M86.7618 41.9125C86.4341 40.4075 86.2382 39.541 85.8641 37.914C91.7546 34.5723 92.5469 32.2211 92.2061 27.6934C88.7134 28.8306 87.2335 30.4411 85.066 34.5387C85.1893 29.6093 84.7542 27.0164 84.1139 22.363L82.6154 22.6764C83.383 27.0974 83.5327 29.2062 83.2948 32.3023C79.5211 26.6148 77.3383 25.4616 73.4026 25.4776C74.459 30.7018 75.5233 33.4127 83.6053 35.4729C84.4765 38.048 84.7804 39.446 84.7829 41.8357L86.7618 41.9125Z" fill="#7B9C5E"/>
<path d="M60.5536 34.207C54.8544 32.7008 51.65 32.1879 45.8359 33.636C39.7856 45.4785 36.2455 44.4997 29.9748 44.9736C31.4403 37.3811 35.6476 34.4178 48.6504 31.3298C44.4672 29.9416 42.9607 28.6915 41.6167 25.8543C45.5526 25.4488 47.8351 25.7714 52.5702 30.8623C58.9886 32.1892 60.7348 32.9477 63.2746 34.3126L60.5536 34.207Z" fill="#7B9C5E"/>
<path d="M78.6608 41.5982C73.3294 38.3769 70.582 36.4441 67.4495 32.0592C73.9981 25.967 73.1348 22.4676 71.346 16.2318C67.2067 19.7111 65.5659 22.3084 65.7378 29.8871L61.9179 22.9882L60.5334 23.5538C62.5762 28.1244 64.0175 30.6424 68.1455 34.8731C58.8133 34.7126 55.0534 35.4183 51.5949 38.4424C56.7755 42.3466 60.4175 43.0387 70.2187 37.307L75.9399 41.4926L78.6608 41.5982Z" fill="#7B9C5E"/>
<path d="M185.822 26.4909C184.505 21.1144 186.453 20.2343 191.288 19.7444C194.687 24.0595 197.136 26.6176 187.765 27.648C193.586 30.1503 195.229 28.2335 196.376 21.2283C195.242 19.1211 194.427 18.214 191.318 18.9562C189.509 16.8703 188.395 16.8417 186.335 18.529C182.439 21.2037 181.72 22.8813 185.822 26.4909Z" fill="#A9586F"/>
<path d="M192.451 25.1862C193.43 23.2803 192.808 22.3191 190.606 21.53C189.337 22.4361 189.372 23.0883 190.494 24.4089C191.396 25.3303 191.793 25.4919 192.451 25.1862Z" fill="#AA586F"/>
<path fill-rule="evenodd" clip-rule="evenodd" d="M187.905 30.9744C197.508 37.41 199.543 35.4851 199.691 26.3737C202.496 21.906 202.451 19.8612 196.873 17.8078C192.791 12.0589 190.226 11.5871 185.086 16.0239C180.278 16.2748 178.607 17.3105 179.686 22.6961C177.153 30.0544 179.619 31.4046 187.905 30.9744ZM191.288 19.7444C186.453 20.2343 184.505 21.1144 185.822 26.4909C181.72 22.8813 182.439 21.2037 186.335 18.529C188.395 16.8417 189.509 16.8703 191.318 18.9562C194.427 18.214 195.242 19.1211 196.376 21.2283C195.229 28.2335 193.586 30.1503 187.765 27.648C197.136 26.6176 194.687 24.0595 191.288 19.7444ZM190.606 21.53C192.808 22.3191 193.43 23.2803 192.451 25.1862C191.793 25.4919 191.396 25.3303 190.494 24.4089C189.372 23.0883 189.337 22.4361 190.606 21.53Z" fill="#E2A2A3"/>
<path d="M213.748 21.8094C211.476 26.2043 209.879 27.6524 205.629 25.8238C201.771 23.394 202.536 21.1497 204.839 16.8564L206.926 19.6182C209.889 16.4276 211.208 17.1753 210.568 21.3572L213.748 21.8094Z" fill="#E2A2A3"/>
<path d="M174.462 17.6425C170.715 27.6968 168.339 32.0792 161.833 29.8244C155.501 26.2885 156.839 21.6097 161.117 12.1888L163.722 17.2258C169.041 11.1827 170.04 11.9638 169.187 18.7643L174.462 17.6425Z" fill="#F2DD9E"/>
<path d="M86.8967 4.70143C90.1195 15.2525 90.9213 20.3105 84.2367 22.485C76.8957 23.5023 75.0674 18.8425 72.6701 8.48212L77.9212 10.9983C78.4735 2.76076 79.771 2.78291 83.3152 8.88021L86.8967 4.70143Z" fill="#EAADAE"/>
<path d="M62.229 3.93557C66.6395 14.7201 67.9325 20.0316 60.7184 23.6538C52.6855 26.1509 50.29 21.4651 46.8072 10.7293L52.814 12.4475C52.7622 3.44322 54.1982 3.22006 58.606 9.13201L62.229 3.93557Z" fill="#F7E498"/>
<path d="M250.341 96.6793C244.398 94.1418 242.358 92.2009 244.332 86.4894C247.126 81.23 250.123 82.0103 255.937 84.5988L252.54 87.5819C256.981 91.1359 256.134 92.9251 250.625 92.4939L250.341 96.6793Z" fill="#F2DD90"/>
<path d="M193.66 45.9298C204.64 38.9336 210.139 37.09 218.248 38.9343C223.92 50.5082 227.805 50.394 234.586 51.7266C233.621 42.7554 228.037 41.2296 218.803 38.0202L214.113 36.8495C218.074 35.3216 219.545 34.113 220.116 30.9937C214.227 31.0019 212.533 32.6653 210.128 36.2786L202.578 39.0561C192.671 36.3354 189.07 36.4384 185.916 39.2943C188.078 42.2201 190.517 42.8521 195.432 43.5145L192.737 45.8941L193.66 45.9298Z" fill="#7B9C5E"/>
<path d="M228.828 28.8515C229.388 23.8936 229.26 21.8303 226.843 21.6372C223.776 22.5002 224.611 24.8973 225.501 28.7224C221.158 25.9496 219.386 25.3653 218.17 27.2373C217.704 29.7208 219.775 30.5874 223.878 32.0284C218.649 34.3401 217.461 35.5453 218.839 37.5126C220.552 39.2146 222.394 37.7267 225.776 34.8355C225.034 40.1604 225.256 41.9778 227.463 41.9902C230.429 42.0506 229.954 39.5131 229.111 35.0121L229.102 34.9645C233.474 37.8158 234.864 37.8003 236.397 36.2725C236.874 33.9855 235.343 33.0205 230.767 31.698C235.954 29.0672 236.974 27.9566 236.099 26.353C234.373 24.5097 232.612 25.4572 228.828 28.8515Z" fill="white"/>
<circle cx="227.297" cy="31.8199" r="2.01746" transform="rotate(-177.778 227.297 31.8199)" fill="#EDD87B"/>
<path d="M245.931 54.9923C245.749 47.4786 245.135 44.4256 241.489 44.6332C237.089 46.5503 238.827 49.9563 240.94 55.4822C233.889 52.2354 231.126 51.7267 229.695 54.7699C229.508 58.5719 232.777 59.4402 239.196 60.7489C231.866 65.2717 230.34 67.314 232.801 69.967C235.706 72.1556 238.151 69.5572 242.605 64.5486C242.589 72.6475 243.293 75.3144 246.59 74.8799C251.028 74.3617 249.799 70.6722 247.618 64.128L247.595 64.0588C254.703 67.417 256.775 67.1088 258.75 64.5142C258.992 61.0033 256.51 59.8773 249.409 58.8425C256.611 53.8521 257.905 51.9855 256.27 49.7719C253.316 47.3751 250.882 49.1503 245.931 54.9923Z" fill="white"/>
<circle cx="244.253" cy="59.7372" r="3.03909" transform="rotate(174.394 244.253 59.7372)" fill="#EDD87B"/>
<path d="M35.3372 20.826C35.1685 15.7185 34.7327 13.6463 32.255 13.8093C29.2751 15.1392 30.4772 17.4445 31.9463 21.189C27.1331 19.0236 25.2515 18.6943 24.2968 20.772C24.1926 23.3581 26.4201 23.9289 30.7922 24.7802C25.8359 27.8992 24.8106 29.2969 26.4999 31.0859C28.4879 32.5566 30.1346 30.7753 33.1327 27.3432C33.1708 32.8499 33.665 34.6588 35.9042 34.3437C38.9186 33.9648 38.0606 31.4636 36.5387 27.0273L36.5226 26.9803C41.3759 29.2211 42.7823 28.9991 44.1096 27.2233C44.2533 24.8347 42.5589 24.084 37.7247 23.4229C42.5914 19.9868 43.4602 18.7099 42.3352 17.2147C40.3123 15.6028 38.6686 16.8244 35.3372 20.826Z" fill="white"/>
<circle cx="34.2215" cy="24.0677" r="2.06638" transform="rotate(173.89 34.2215 24.0677)" fill="#EDD87B"/>
<path d="M159.255 87.2754L161.074 88.3414C157.839 91.4847 156.399 90.7818 154.844 85.7748C158.026 82.1994 159.598 82.2569 161.938 86.8661L159.255 87.2754Z" fill="#EAC2C6"/>
<path d="M152.241 88.9925C154.364 91.6231 155.748 92.5598 158.873 92.5454L158.865 92.5528C157.311 94.0433 156.438 94.881 154.254 93.5521C151.668 91.5714 151.996 90.6598 152.241 88.9925Z" fill="#EAC2C6"/>
<path d="M153.366 88.3414C153.439 82.9354 154.811 81.0955 160.649 80.8207C157.348 79.3016 155.559 78.936 152.774 81.2945C151.235 84.1314 151.664 85.6675 153.366 88.3414Z" fill="#EAC2C6"/>
<path d="M160.649 82.6564C164.472 86.8964 164.748 89.0968 159.702 92.5454C162.722 92.6902 164.438 92.8389 166.097 88.9925C166.06 85.8169 163.864 84.7663 160.649 82.6564Z" fill="#EAC2C6"/>
<path fill-rule="evenodd" clip-rule="evenodd" d="M154.254 95.1509C157.779 99.1078 159.851 99.5211 163.847 95.8022C168.275 95.6783 169.672 94.5342 167.992 88.3414C170.03 78.4294 167.34 77.2368 160.649 77.2085C156.148 73.3524 154.16 74.3242 150.878 78.3337C143.952 82.1256 145.927 84.8621 148.984 89.7031C148.328 94.5525 149.098 96.1309 154.254 95.1509ZM160.649 80.8207C154.811 81.0955 153.439 82.9354 153.366 88.3414C151.664 85.6675 151.235 84.1314 152.774 81.2945C155.559 78.936 157.348 79.3016 160.649 80.8207ZM158.873 92.5454C155.748 92.5598 154.364 91.6231 152.241 88.9925C151.996 90.6598 151.668 91.5714 154.254 93.5521C156.438 94.881 157.311 94.0433 158.865 92.5528L158.873 92.5454ZM159.702 92.5454C164.748 89.0968 164.472 86.8964 160.649 82.6564C163.864 84.7663 166.06 85.8169 166.097 88.9925C164.438 92.8389 162.722 92.6902 159.702 92.5454ZM161.074 88.3414L159.255 87.2754L161.938 86.8661C159.598 82.2569 158.026 82.1994 154.844 85.7748C156.399 90.7818 157.839 91.4847 161.074 88.3414Z" fill="#F5E7E8"/>
<path d="M101.475 29.5205L99.8294 28.2031C103.484 25.5595 104.808 26.463 105.624 31.6419C101.959 34.7207 100.412 34.437 98.7616 29.5383L101.475 29.5205Z" fill="#EAC2C6"/>
<path d="M108.664 28.8336C106.943 25.9241 105.709 24.7975 102.614 24.3608L102.623 24.3546C104.376 23.104 105.361 22.4011 107.33 24.0312C109.604 26.3644 109.147 27.219 108.664 28.8336Z" fill="#EAC2C6"/>
<path d="M107.457 29.3156C106.605 34.6544 104.982 36.2771 99.1647 35.7064C102.212 37.6859 103.93 38.306 107.026 36.3742C108.958 33.7889 108.755 32.207 107.457 29.3156Z" fill="#EAC2C6"/>
<path d="M99.4297 33.8899C96.2584 29.1426 96.3033 26.9255 101.794 24.2412C98.8263 23.662 97.1494 23.2671 94.953 26.834C94.5315 29.9817 96.5523 31.3381 99.4297 33.8899Z" fill="#EAC2C6"/>
<path fill-rule="evenodd" clip-rule="evenodd" d="M107.561 22.4491C104.644 18.025 102.653 17.317 98.1627 20.4204C93.7625 19.9037 92.2148 20.8343 92.9842 27.2048C89.5364 36.7189 92.027 38.2873 98.6434 39.2808C102.541 43.7461 104.648 43.0714 108.474 39.5774C115.875 36.8248 114.315 33.8319 111.99 28.6005C113.338 23.8964 112.805 22.2235 107.561 22.4491ZM99.1647 35.7064C104.982 36.2771 106.605 34.6544 107.457 29.3156C108.755 32.207 108.958 33.7889 107.026 36.3742C103.93 38.306 102.212 37.6859 99.1647 35.7064ZM102.614 24.3608C105.709 24.7975 106.943 25.9241 108.664 28.8336C109.147 27.219 109.604 26.3644 107.33 24.0312C105.361 22.4011 104.376 23.104 102.623 24.3546L102.614 24.3608ZM101.794 24.2412C96.3033 26.9255 96.2584 29.1426 99.4297 33.8899C96.5523 31.3381 94.5315 29.9817 94.953 26.834C97.1494 23.2671 98.8263 23.662 101.794 24.2412ZM99.8294 28.2031L101.475 29.5205L98.7616 29.5383C100.412 34.437 101.959 34.7207 105.624 31.6419C104.808 26.463 103.484 25.5595 99.8294 28.2031Z" fill="#F5E7E8"/>
</svg>
