<svg width="108" height="101" viewBox="0 0 108 101" fill="none" xmlns="http://www.w3.org/2000/svg">
<path d="M44.3785 93.0629C48.7413 83.9209 52.3771 81.2189 51.0086 60.4778C48.5682 59.9434 47.0725 60.2742 43.8262 62.6862C37.7671 69.3819 34.9213 73.8892 31.7862 83.7846C30.2572 89.4555 29.8459 93.2266 35.3223 96.7087C39.022 97.8499 41.3783 97.6597 44.3785 93.0629Z" fill="#FFC800"/>
<path d="M72.201 86.9526C69.6084 77.1604 62.9084 60.5345 56.8511 60.2887C54.6451 61.4611 54.6253 63.0292 53.7123 66.9691C53.4284 75.9949 53.3879 79.7557 57.4039 89.3275C59.9095 94.6397 61.8754 98.3928 68.3036 97.5018C71.8624 95.9767 72.8898 92.3985 72.201 86.9526Z" fill="#FFC800"/>
<path d="M92.2223 25.4041C82.5647 28.4601 66.2767 35.9443 66.3196 42.0064C67.5958 44.1541 69.163 44.0992 73.1419 44.8235C82.171 44.6773 85.9295 44.5386 95.2992 40.0713C100.486 37.3155 104.141 35.1731 102.945 28.7946C101.252 25.3126 97.6292 24.4567 92.2223 25.4041Z" fill="#FFC800"/>
<path d="M47.5452 10.3548C47.3842 19.7931 49.1715 36.4013 54.5403 38.1592C56.816 37.6679 57.2318 36.267 59.0505 32.966C61.5961 24.9452 62.587 21.5833 61.4157 11.9814C60.5175 6.58227 59.7074 2.71807 53.7175 1.88523C50.1394 2.34942 48.3099 5.29696 47.5452 10.3548Z" fill="#FFC800"/>
<path d="M70.732 10.4545C65.2109 18.7658 57.3391 34.5708 61.1174 39.195C63.4234 40.0542 64.5918 39.0438 68.0918 37.1412C74.9284 31.4505 77.7262 29.022 82.1544 19.8059C84.431 14.4871 85.9115 10.5852 81.0531 6.43072C77.603 4.80528 74.2947 6.38711 70.732 10.4545Z" fill="#FFC800"/>
<path d="M25.8278 19.0282C30.9687 27.5799 41.8713 41.4686 47.6689 40.0382C49.4339 38.3235 49.0222 36.8346 48.8042 32.8569C46.5949 24.2405 45.6008 20.6716 39.1738 12.7193C35.3451 8.38183 32.455 5.37111 26.6186 7.97869C23.6707 10.3985 23.6811 14.0655 25.8278 19.0282Z" fill="#FFC800"/>
<path d="M12.5181 39.4626C21.6908 43.3896 38.6587 48.2735 42.5234 43.7213C42.9514 41.2979 41.7464 40.3315 39.2422 37.2332C32.409 31.5384 29.5146 29.226 19.6497 26.5374C14.0069 25.2602 9.90158 24.5096 6.69418 30.0392C5.71944 33.7264 7.87345 36.6941 12.5181 39.4626Z" fill="#FFC800"/>
<path d="M91.5071 72.8131C84.7824 64.6435 71.2033 52.1086 64.9458 57.2862C61.1348 60.0796 64.374 60.7701 65.5372 64.6435C69.7712 72.6196 71.603 75.9045 79.8408 82.2201C84.6529 85.5877 88.2225 87.8698 93.3605 83.9054C95.6927 80.8148 94.8084 77.1986 91.5071 72.8131Z" fill="#FFC800"/>
<path d="M99.7148 49.2332C89.7942 45.5531 71.7536 41.5464 68.9483 49.1683C67.0588 53.4993 70.1562 53.992 72.9881 55.5883C80.8401 60.0143 84.0647 61.914 94.3611 63.2307C100.214 63.7218 104.447 63.8995 106.895 57.8891C107.356 54.045 104.774 51.3639 99.7148 49.2332Z" fill="#FFC800"/>
<path d="M22.623 84.7955C30.5639 78.5065 34.8935 76.2807 42.7928 57.054C40.8366 55.5 40.7452 56.2934 36.7687 57.0306C28.3812 60.3764 22.2196 62.5468 15.0495 70.0527C11.1808 74.472 9.42075 78.9646 12.8058 84.5015C15.6257 87.1545 17.9059 87.6028 22.623 84.7955Z" fill="#FFC800"/>
<path d="M9.7893 64.9615C19.6551 61.2061 41.0718 53.4774 39.6992 50.1299C38.7514 47.8184 38.2841 48.4661 34.4543 47.1668C25.5011 45.9889 21.561 45.3892 10.2763 50.4317C4.63203 53.2777 3.92114 55.347 4.17002 61.8319C5.33464 65.5244 4.30195 65.1067 9.7893 64.9615Z" fill="#FFC800"/>
<ellipse cx="53.6824" cy="47.9742" rx="17.2918" ry="15.1929" fill="#FFEEB2"/>
</svg>
