<svg width="31" height="26" viewBox="0 0 31 26" fill="none" xmlns="http://www.w3.org/2000/svg">
<path d="M16.7729 23.3457C17.3945 23.3347 18.0587 22.7484 18.9328 21.4158C19.3365 20.7375 19.4151 20.7876 19.2537 21.7562C18.9192 22.7013 18.5984 23.3137 18.1794 23.7463C17.4325 24.5174 16.2492 24.7658 15.1959 24.5584C14.2838 24.3788 13.7642 23.8498 13.4068 23.0967C12.9649 22.1657 12.7111 21.0686 13.0512 20.0958C13.2927 19.4051 13.8642 18.9244 15.0435 18.5161C15.7042 18.2874 16.835 18.3651 16.2239 18.7049C15.9916 18.7757 15.786 18.8484 15.6047 18.9245C13.7532 19.7027 14.7648 23.3815 16.7729 23.3457Z" fill="#DEAE00"/>
<path d="M0.234375 0.0820312C9.95071 27.3736 23.1827 21.4813 30.0058 0.0820312" stroke="#FF0202" stroke-width="0.5"/>
</svg>
