<svg width="31" height="26" viewBox="0 0 31 26" fill="none" xmlns="http://www.w3.org/2000/svg">
<circle cx="2.53516" cy="13.3203" r="1.72656" fill="#DEAE00"/>
<line x1="2.63516" y1="12.1342" x2="2.57985" y2="6.27095" stroke="white" stroke-width="0.3"/>
<circle cx="7.1454" cy="17.9188" r="1.25477" fill="#DEAE00"/>
<line x1="7.17813" y1="17.0552" x2="7.16622" y2="13.7427" stroke="white" stroke-width="0.3"/>
<circle cx="1.71951" cy="1.71951" r="1.71951" transform="matrix(-1 0 0 1 29.4023 11.625)" fill="#DEAE00"/>
<line y1="-0.15" x2="5.83959" y2="-0.15" transform="matrix(0.00943354 -0.999956 -0.999956 -0.00943354 27.4336 12.1641)" stroke="white" stroke-width="0.3"/>
<circle cx="1.24965" cy="1.24965" r="1.24965" transform="matrix(-1 0 0 1 24.3398 16.6758)" fill="#DEAE00"/>
<line y1="-0.15" x2="2.98386" y2="-0.15" transform="matrix(4.37105e-08 -1 -1 -4.37105e-08 22.9102 17.0664)" stroke="white" stroke-width="0.3"/>
<path d="M15.4053 21.2812L15.5176 21.627H16.7988L16.0557 22.167L15.7617 22.3799L15.874 22.7256L16.1572 23.5986L15.415 23.0596L15.1211 22.8457L14.8271 23.0596L14.084 23.5986L14.3682 22.7256L14.4805 22.3799L14.1865 22.167L13.4434 21.627H14.7246L14.8369 21.2812L15.1211 20.4062L15.4053 21.2812Z" stroke="#E4B302"/>
<path d="M0.234375 0.0820312C9.95071 27.3736 23.1827 21.4813 30.0058 0.0820312" stroke="#3F3B90" stroke-width="0.5"/>
</svg>
