<svg width="62" height="64" viewBox="0 0 62 64" fill="none" xmlns="http://www.w3.org/2000/svg">
<path d="M13.5781 20.6328V1.09766L22.4375 8.79238" stroke="white"/>
<path d="M1.18089e-06 49.9609C1.83308e-06 42.5008 8.45691 21.6436 13.5078 16.9794C19.2104 21.6545 27.0156 42.5008 27.0156 49.9609C27.0156 57.4211 20.968 63.4687 13.5078 63.4687C6.04765 63.4687 5.28703e-07 57.4211 1.18089e-06 49.9609Z" fill="#D0E1FF"/>
<path d="M48.2891 20.6328V1.09766L57.1484 8.79238" stroke="white"/>
<path d="M34.7109 49.9609C34.7109 42.5008 43.1678 21.6436 48.2188 16.9794C53.9213 21.6545 61.7266 42.5008 61.7266 49.9609C61.7266 57.4211 55.6789 63.4687 48.2188 63.4687C40.7586 63.4687 34.7109 57.4211 34.7109 49.9609Z" fill="#D0E1FF"/>
</svg>
