<svg width="128" height="108" viewBox="0 0 128 108" fill="none" xmlns="http://www.w3.org/2000/svg">
<g clip-path="url(#clip0_3805_7209)">
<path d="M69.255 96.9743C71.8216 96.9286 74.5641 94.4932 78.1733 88.9578C79.8402 86.1402 80.1647 86.3483 79.4983 90.3718C78.1172 94.2976 76.7926 96.8414 75.0625 98.6383C71.9785 101.841 67.0926 102.873 62.7435 102.012C58.9774 101.266 56.832 99.0682 55.3563 95.94C53.5317 92.0728 52.4837 87.5156 53.888 83.4747C54.8851 80.6056 57.2449 78.6089 62.1143 76.9129C64.8423 75.9629 69.5114 76.2856 66.9882 77.6971C66.029 77.9912 65.1801 78.2932 64.4315 78.6093C56.7866 81.8418 60.9635 97.123 69.255 96.9743Z" fill="#DEAE00"/>
<path d="M0.966797 0.339844C41.0859 113.705 95.7212 89.2291 123.894 0.339844" stroke="#FF0202" stroke-width="4"/>
</g>
<defs>
<clipPath id="clip0_3805_7209">
<rect width="128" height="108" fill="white"/>
</clipPath>
</defs>
</svg>
