<svg width="117" height="98" viewBox="0 0 117 98" fill="none" xmlns="http://www.w3.org/2000/svg">
<g clip-path="url(#clip0_3701_30621)">
<path d="M9.56911 56.7148C13.168 56.7148 16.0855 53.8012 16.0855 50.207C16.0855 46.6129 13.168 43.6992 9.56911 43.6992C5.97021 43.6992 3.05273 46.6129 3.05273 50.207C3.05273 53.8012 5.97021 56.7148 9.56911 56.7148Z" fill="#DEAE00"/>
<path d="M9.94508 45.7367L9.73633 23.6367" stroke="white"/>
<path d="M26.9682 72.2715C29.5836 72.2715 31.7039 70.1541 31.7039 67.542C31.7039 64.93 29.5836 62.8125 26.9682 62.8125C24.3527 62.8125 22.2324 64.93 22.2324 67.542C22.2324 70.1541 24.3527 72.2715 26.9682 72.2715Z" fill="#DEAE00"/>
<path d="M27.0918 64.2864L27.0469 51.8008" stroke="white"/>
<path d="M104.481 56.7789C100.897 56.7789 97.9912 53.8771 97.9912 50.2976C97.9912 46.7182 100.897 43.8164 104.481 43.8164C108.065 43.8164 110.971 46.7182 110.971 50.2976C110.971 53.8771 108.065 56.7789 104.481 56.7789Z" fill="#DEAE00"/>
<path d="M104.105 45.8555L104.313 23.8457" stroke="white"/>
<path d="M87.1469 72.2759C84.5421 72.2759 82.4304 70.1671 82.4304 67.5657C82.4304 64.9643 84.5421 62.8555 87.1469 62.8555C89.7517 62.8555 91.8633 64.9643 91.8633 67.5657C91.8633 70.1671 89.7517 72.2759 87.1469 72.2759Z" fill="#DEAE00"/>
<path d="M87.0332 64.3281L87.0332 53.0813" stroke="white"/>
<path d="M58.8914 79.6193L59.6126 81.8369H67.8398L63.068 85.3L61.1801 86.6654L61.9012 88.8824L63.7198 94.481L58.9537 91.0244L57.0664 89.6526L55.1785 91.0244L50.4066 94.481L52.2316 88.8824L52.9528 86.6654L51.0648 85.3L46.293 81.8369H54.5203L55.2414 79.6193L57.0664 74.0078L58.8914 79.6193Z" stroke="#E4B302" stroke-width="2"/>
<path d="M0.884766 0.308594C37.5561 103.177 87.4962 80.9674 113.248 0.308594" stroke="#3F3B90" stroke-width="4"/>
</g>
<defs>
<clipPath id="clip0_3701_30621">
<rect width="117" height="98" fill="white"/>
</clipPath>
</defs>
</svg>
