<svg width="129" height="117" viewBox="0 0 129 117" fill="none" xmlns="http://www.w3.org/2000/svg">
<path d="M64.3757 114.31C73.5168 114.31 80.9271 106.9 80.9271 97.7585C80.9271 88.6174 73.5168 81.207 64.3757 81.207C55.2346 81.207 47.8242 88.6174 47.8242 97.7585C47.8242 106.9 55.2346 114.31 64.3757 114.31Z" stroke="#E4B302" stroke-width="4"/>
<path d="M64.3656 107.833C69.9253 107.833 74.4323 103.326 74.4323 97.766C74.4323 92.2063 69.9253 87.6992 64.3656 87.6992C58.8059 87.6992 54.2988 92.2063 54.2988 97.766C54.2988 103.326 58.8059 107.833 64.3656 107.833Z" stroke="#E4B302" stroke-width="4"/>
<path d="M1.81836 0.890625C50.7318 107.743 73.6533 107.739 126.928 0.890625" stroke="#EA131A" stroke-width="4"/>
</svg>
