<svg width="134" height="86" viewBox="0 0 134 86" fill="none" xmlns="http://www.w3.org/2000/svg">
<g clip-path="url(#clip0_3805_7208)">
<path d="M0.691406 -7.28906C42.691 117.449 99.887 90.5175 129.381 -7.28906" stroke="#3F3B90" stroke-width="2"/>
<path d="M13.041 39.4147C18.8162 39.4147 23.498 34.4644 23.498 28.3578C23.498 22.2512 18.8162 17.3008 13.041 17.3008C7.26575 17.3008 2.58398 22.2512 2.58398 28.3578C2.58398 34.4644 7.26575 39.4147 13.041 39.4147Z" fill="#3F3B90"/>
<path d="M24.9453 59.9577C30.7205 59.9577 35.4023 55.0073 35.4023 48.9007C35.4023 42.7941 30.7205 37.8438 24.9453 37.8438C19.17 37.8438 14.4883 42.7941 14.4883 48.9007C14.4883 55.0073 19.17 59.9577 24.9453 59.9577Z" fill="#3F3B90"/>
<path d="M41.5078 77.4265C47.283 77.4265 51.9648 72.4761 51.9648 66.3695C51.9648 60.2629 47.283 55.3125 41.5078 55.3125C35.7325 55.3125 31.0508 60.2629 31.0508 66.3695C31.0508 72.4761 35.7325 77.4265 41.5078 77.4265Z" fill="#3F3B90"/>
<path d="M65.334 83.8913C71.1092 83.8913 75.791 78.9409 75.791 72.8343C75.791 66.7277 71.1092 61.7773 65.334 61.7773C59.5587 61.7773 54.877 66.7277 54.877 72.8343C54.877 78.9409 59.5587 83.8913 65.334 83.8913Z" fill="#3F3B90"/>
<path d="M87.707 75.9147C93.4823 75.9147 98.164 70.9644 98.164 64.8578C98.164 58.7512 93.4823 53.8008 87.707 53.8008C81.9318 53.8008 77.25 58.7512 77.25 64.8578C77.25 70.9644 81.9318 75.9147 87.707 75.9147Z" fill="#3F3B90"/>
<path d="M104.422 58.5124C110.197 58.5124 114.879 53.562 114.879 47.4554C114.879 41.3488 110.197 36.3984 104.422 36.3984C98.6466 36.3984 93.9648 41.3488 93.9648 47.4554C93.9648 53.562 98.6466 58.5124 104.422 58.5124Z" fill="#3F3B90"/>
<path d="M117.98 37.8522C123.756 37.8522 128.437 32.9019 128.437 26.7953C128.437 20.6887 123.756 15.7383 117.98 15.7383C112.205 15.7383 107.523 20.6887 107.523 26.7953C107.523 32.9019 112.205 37.8522 117.98 37.8522Z" fill="#3F3B90"/>
</g>
<defs>
<clipPath id="clip0_3805_7208">
<rect width="134" height="86" fill="white"/>
</clipPath>
</defs>
</svg>
