<svg width="96" height="65" viewBox="0 0 96 65" fill="none" xmlns="http://www.w3.org/2000/svg">
<path d="M11.146 63.4653C11.5224 56.58 12.7695 52.1678 11.146 46.3483C7.43487 37.4943 6.49494 31.0307 4.05469 20.5505L9.09481 19.2319L17.6865 27.8636C21.795 30.2803 24.0488 31.8859 29.5551 27.4639C33.8564 23.1053 37.6714 17.5712 43.5416 9.72104L51.6538 9.51953L63.8021 25.7439C69.2062 31.2697 72.2109 31.429 77.9085 27.3823L85.9807 19.3501L91.4954 20.2292C89.2348 30.177 88.8351 35.3775 84.8218 46.0843C83.0598 52.8045 84.0543 56.9616 84.8218 64.1786L11.146 63.4653Z" fill="#DEAE00"/>
<circle cx="5.48312" cy="15.0027" r="5.48312" fill="#DEAE00"/>
<circle cx="47.5144" cy="5.48312" r="5.48312" fill="#DEAE00"/>
<circle cx="89.5456" cy="15.0027" r="5.48312" fill="#DEAE00"/>
</svg>
