<svg viewBox="0 0 541 866" width="541" height="866" preserveAspectRatio="none" xmlns="http://www.w3.org/2000/svg">
<path d="M135.998 499.762C82.9539 487.97 53.1113 476.818 0 442.57V513.307C37.3468 526.965 56.2933 536.011 120.987 530.615C144.706 516.392 150.56 509.374 135.998 499.762Z" fill="url(#paint0_linear_2867_6242)"/>
<path d="M0 0V424.51C8.34323 426.366 13.5223 430.771 22.6689 438.055C66.6622 323.732 88.8047 260.337 112.732 141.562C106.895 253.967 93.8112 320.962 46.6856 450.095C61.8489 459.655 70.5646 464.587 87.2139 471.166C194.557 364.529 247.597 298.64 326.631 167.9C280.769 277.607 235.733 345.007 112.732 477.939C131.989 480.257 143.214 481.321 147.256 492.237C416.601 327.261 473.282 212.557 540.53 0H0Z" fill="url(#paint1_linear_2867_6242)"/>
<path d="M0 865.677H181.203C189.176 733.78 178.055 663.944 127.742 547.923H80.4592C96.0331 615.212 88.6936 649.002 80.4592 710.468C77.4216 643.695 77.4323 605.938 51.9393 543.408L0 530.615V865.677Z" fill="url(#paint2_linear_2867_6242)"/>
<path d="M80.4592 710.468C88.6936 649.002 96.0331 615.212 80.4592 547.923L51.9393 543.408C77.4323 605.938 77.4216 643.695 80.4592 710.468Z" fill="#5A8541"/>
<path d="M112.732 141.562C88.8047 260.337 66.6622 323.732 22.6689 438.055L46.6856 450.095C93.8112 320.962 106.895 253.967 112.732 141.562Z" fill="#5A8541"/>
<path d="M326.631 167.9C247.597 298.64 194.557 364.529 87.2139 471.166L112.732 477.939C235.733 345.007 280.769 277.607 326.631 167.9Z" fill="#5A8541"/>
<defs>
<linearGradient id="paint0_linear_2867_6242" x1="270.265" y1="0" x2="270.265" y2="865.677" gradientUnits="userSpaceOnUse">
<stop offset="0.201923" stop-color="#79B057"/>
<stop offset="1" stop-color="#547E3C"/>
</linearGradient>
<linearGradient id="paint1_linear_2867_6242" x1="270.265" y1="0" x2="270.265" y2="865.677" gradientUnits="userSpaceOnUse">
<stop offset="0.201923" stop-color="#79B057"/>
<stop offset="1" stop-color="#547E3C"/>
</linearGradient>
<linearGradient id="paint2_linear_2867_6242" x1="270.265" y1="0" x2="270.265" y2="865.677" gradientUnits="userSpaceOnUse">
<stop offset="0.201923" stop-color="#79B057"/>
<stop offset="1" stop-color="#547E3C"/>
</linearGradient>
</defs>
</svg>
