<svg width="535" height="872" viewBox="0 0 535 872" fill="none" xmlns="http://www.w3.org/2000/svg">
<path d="M414.567 537.898C465.942 540.344 491.882 535.196 535.609 519.945V448.633C482.844 484.197 454.806 491.835 404.971 505.41L404.701 505.483C388.928 517.816 392.221 525.031 414.567 537.898Z" fill="url(#paint0_linear_2867_6243)"/>
<path d="M535.609 0H0C48.2388 193.692 87.9479 302.431 389.409 499L423.446 484.539C304.72 365.711 269.594 295.812 209.356 170.866C282.699 294.119 325.979 362.946 451.071 476.56L493.001 456.114C439.086 317.005 432.584 253.3 426.406 142.94C443.578 257.135 458.154 322.15 515.692 444.644L535.609 428.187V0Z" fill="url(#paint1_linear_2867_6243)"/>
<path d="M451.071 476.56C325.979 362.946 282.699 294.119 209.356 170.866C269.594 295.812 304.72 365.711 423.446 484.539L451.071 476.56Z" fill="#5A8541"/>
<path d="M515.692 444.644C458.154 322.15 443.578 257.135 426.406 142.94C432.584 253.3 439.086 317.005 493.001 456.114L515.692 444.644Z" fill="#5A8541"/>
<path d="M359.824 871.824H535.609V537.898L485.108 549.368C462.183 613.84 458.791 651.45 458.47 719.419C450.04 658.93 445.758 624.76 458.47 553.388H411.734C366.547 669.498 342.054 734.873 359.824 871.824Z" fill="url(#paint2_linear_2867_6243)"/>
<path d="M458.47 553.388C445.758 624.76 450.04 658.93 458.47 719.419C458.791 651.45 462.183 613.84 485.108 549.368L458.47 553.388Z" fill="#5A8541"/>
<defs>
<linearGradient id="paint0_linear_2867_6243" x1="267.805" y1="0" x2="267.805" y2="871.824" gradientUnits="userSpaceOnUse">
<stop offset="0.201923" stop-color="#79B057"/>
<stop offset="1" stop-color="#547E3C"/>
</linearGradient>
<linearGradient id="paint1_linear_2867_6243" x1="267.805" y1="0" x2="267.805" y2="871.824" gradientUnits="userSpaceOnUse">
<stop offset="0.201923" stop-color="#79B057"/>
<stop offset="1" stop-color="#547E3C"/>
</linearGradient>
<linearGradient id="paint2_linear_2867_6243" x1="267.805" y1="0" x2="267.805" y2="871.824" gradientUnits="userSpaceOnUse">
<stop offset="0.201923" stop-color="#79B057"/>
<stop offset="1" stop-color="#547E3C"/>
</linearGradient>
</defs>
</svg>
