<svg width="1456" height="1103" viewBox="0 0 1456 1103" fill="none" xmlns="http://www.w3.org/2000/svg">
<rect x="7.49219" y="75.3594" width="1441.57" height="960.016" fill="#B55373"/>
<path d="M6.6525 70.0478C5.70701 62.6931 6.34158 55.2215 8.51388 48.1312C10.6862 41.0408 14.3463 34.4946 19.2503 28.9291C24.1542 23.3635 30.1892 18.9064 36.953 15.8549C43.7169 12.8035 51.054 11.2278 58.4753 11.2329C65.8967 11.238 73.2316 12.8239 79.9912 15.8846C86.7508 18.9454 92.7797 23.4108 97.6759 28.9832C102.572 34.5555 106.223 41.1067 108.386 48.2001C110.548 55.2934 111.172 62.7658 110.217 70.1192L58.4393 63.4015L6.6525 70.0478Z" fill="#97415D"/>
<path d="M110.219 66.0478C109.273 58.6931 109.908 51.2215 112.08 44.1312C114.253 37.0408 117.913 30.4946 122.817 24.9291C127.721 19.3635 133.756 14.9064 140.519 11.8549C147.283 8.8035 154.62 7.22781 162.042 7.23293C169.463 7.23805 176.798 8.82386 183.558 11.8846C190.317 14.9454 196.346 19.4108 201.242 24.9832C206.139 30.5555 209.79 37.1067 211.952 44.2001C214.115 51.2934 214.739 58.7658 213.783 66.1192L162.006 59.4015L110.219 66.0478Z" fill="#97415D"/>
<path d="M213.805 66.0478C212.859 58.6931 213.494 51.2215 215.666 44.1312C217.839 37.0408 221.499 30.4946 226.403 24.9291C231.307 19.3635 237.342 14.9064 244.105 11.8549C250.869 8.8035 258.206 7.22781 265.628 7.23293C273.049 7.23805 280.384 8.82386 287.144 11.8846C293.903 14.9454 299.932 19.4108 304.828 24.9832C309.725 30.5555 313.376 37.1067 315.538 44.2001C317.701 51.2934 318.325 58.7658 317.369 66.1192L265.592 59.4015L213.805 66.0478Z" fill="#97415D"/>
<path d="M317.242 66.0478C316.297 58.6931 316.931 51.2215 319.104 44.1312C321.276 37.0408 324.936 30.4946 329.84 24.9291C334.744 19.3635 340.779 14.9064 347.543 11.8549C354.307 8.8035 361.644 7.22781 369.065 7.23293C376.487 7.23805 383.821 8.82386 390.581 11.8846C397.341 14.9454 403.37 19.4108 408.266 24.9832C413.162 30.5555 416.813 37.1067 418.976 44.2001C421.138 51.2934 421.762 58.7658 420.807 66.1192L369.029 59.4015L317.242 66.0478Z" fill="#97415D"/>
<path d="M420.82 66.0478C419.875 58.6931 420.51 51.2215 422.682 44.1312C424.854 37.0408 428.514 30.4946 433.418 24.9291C438.322 19.3635 444.357 14.9064 451.121 11.8549C457.885 8.8035 465.222 7.22781 472.643 7.23293C480.065 7.23805 487.4 8.82386 494.159 11.8846C500.919 14.9454 506.948 19.4108 511.844 24.9832C516.74 30.5555 520.391 37.1067 522.554 44.2001C524.716 51.2934 525.34 58.7658 524.385 66.1192L472.607 59.4015L420.82 66.0478Z" fill="#97415D"/>
<path d="M524.387 66.0478C523.441 58.6931 524.076 51.2215 526.248 44.1312C528.421 37.0408 532.081 30.4946 536.985 24.9291C541.889 19.3635 547.924 14.9064 554.687 11.8549C561.451 8.8035 568.788 7.22781 576.21 7.23293C583.631 7.23805 590.966 8.82386 597.726 11.8846C604.485 14.9454 610.514 19.4108 615.41 24.9832C620.307 30.5555 623.958 37.1067 626.12 44.2001C628.283 51.2934 628.907 58.7658 627.951 66.1192L576.174 59.4015L524.387 66.0478Z" fill="#97415D"/>
<path d="M627.957 66.0478C627.012 58.6931 627.646 51.2215 629.819 44.1312C631.991 37.0408 635.651 30.4946 640.555 24.9291C645.459 19.3635 651.494 14.9064 658.258 11.8549C665.022 8.8035 672.359 7.22781 679.78 7.23293C687.201 7.23805 694.536 8.82386 701.296 11.8846C708.056 14.9454 714.084 19.4108 718.981 24.9832C723.877 30.5555 727.528 37.1067 729.69 44.2001C731.853 51.2934 732.477 58.7658 731.522 66.1192L679.744 59.4015L627.957 66.0478Z" fill="#97415D"/>
<path d="M731.547 66.0478C730.602 58.6931 731.236 51.2215 733.408 44.1312C735.581 37.0408 739.241 30.4946 744.145 24.9291C749.049 19.3635 755.084 14.9064 761.848 11.8549C768.611 8.8035 775.949 7.22781 783.37 7.23293C790.791 7.23805 798.126 8.82386 804.886 11.8846C811.645 14.9454 817.674 19.4108 822.57 24.9832C827.467 30.5555 831.118 37.1067 833.28 44.2001C835.443 51.2934 836.067 58.7658 835.111 66.1192L783.334 59.4015L731.547 66.0478Z" fill="#97415D"/>
<path d="M835.113 66.0478C834.168 58.6931 834.803 51.2215 836.975 44.1312C839.147 37.0408 842.807 30.4946 847.711 24.9291C852.615 19.3635 858.65 14.9064 865.414 11.8549C872.178 8.8035 879.515 7.22781 886.936 7.23293C894.358 7.23805 901.693 8.82386 908.452 11.8846C915.212 14.9454 921.241 19.4108 926.137 24.9832C931.033 30.5555 934.684 37.1067 936.847 44.2001C939.009 51.2934 939.633 58.7658 938.678 66.1192L886.9 59.4015L835.113 66.0478Z" fill="#97415D"/>
<path d="M940.688 65.0361C939.742 57.6814 940.377 50.2098 942.549 43.1194C944.721 36.0291 948.381 29.4829 953.285 23.9173C958.189 18.3518 964.224 13.8947 970.988 10.8432C977.752 7.79178 985.089 6.21609 992.51 6.22121C999.932 6.22633 1007.27 7.81214 1014.03 10.8729C1020.79 13.9337 1026.81 18.3991 1031.71 23.9714C1036.61 29.5438 1040.26 36.095 1042.42 43.1883C1044.58 50.2817 1045.21 57.7541 1044.25 65.1075L992.474 58.3898L940.688 65.0361Z" fill="#97415D"/>
<path d="M1042.26 66.04C1041.32 58.6853 1041.95 51.2137 1044.12 44.1233C1046.3 37.033 1049.96 30.4868 1054.86 24.9213C1059.76 19.3557 1065.8 14.8986 1072.56 11.8471C1079.33 8.79569 1086.66 7.22 1094.08 7.22512C1101.51 7.23024 1108.84 8.81605 1115.6 11.8768C1122.36 14.9376 1128.39 19.403 1133.29 24.9754C1138.18 30.5477 1141.83 37.0989 1144 44.1922C1146.16 51.2856 1146.78 58.758 1145.83 66.1114L1094.05 59.3937L1042.26 66.04Z" fill="#97415D"/>
<path d="M1144.17 66.04C1143.23 58.6853 1143.86 51.2137 1146.03 44.1233C1148.21 37.033 1151.87 30.4868 1156.77 24.9213C1161.67 19.3557 1167.71 14.8986 1174.47 11.8471C1181.24 8.79569 1188.57 7.22 1195.99 7.22512C1203.42 7.23024 1210.75 8.81605 1217.51 11.8768C1224.27 14.9376 1230.3 19.403 1235.2 24.9754C1240.09 30.5477 1243.74 37.0989 1245.91 44.1922C1248.07 51.2856 1248.69 58.758 1247.74 66.1114L1195.96 59.3937L1144.17 66.04Z" fill="#97415D"/>
<path d="M1247.74 66.04C1246.79 58.6853 1247.43 51.2137 1249.6 44.1233C1251.77 37.033 1255.43 30.4868 1260.34 24.9213C1265.24 19.3557 1271.28 14.8986 1278.04 11.8471C1284.8 8.79569 1292.14 7.22 1299.56 7.22512C1306.98 7.23024 1314.32 8.81605 1321.08 11.8768C1327.84 14.9376 1333.87 19.403 1338.76 24.9754C1343.66 30.5477 1347.31 37.0989 1349.47 44.1922C1351.63 51.2856 1352.26 58.758 1351.3 66.1114L1299.53 59.3937L1247.74 66.04Z" fill="#97415D"/>
<path d="M1352.62 73.9885C1351.67 66.6338 1352.19 59.1772 1354.14 52.116C1356.08 45.0547 1359.41 38.551 1363.9 33.0384C1368.39 27.5258 1373.94 23.1311 1380.18 20.1471C1386.42 17.1631 1393.2 15.6585 1400.08 15.7337C1406.95 15.8088 1413.77 17.4618 1420.06 20.5826C1426.35 23.7035 1431.98 28.2203 1436.57 33.8321C1441.16 39.4438 1444.6 46.0215 1446.67 53.1267C1448.74 60.2318 1449.39 67.7011 1448.57 75.0365L1400.54 67.8386L1352.62 73.9885Z" fill="#97415D"/>
<path d="M1446.57 1036.81C1447.5 1044.17 1446.87 1051.64 1444.73 1058.73C1442.58 1065.82 1438.96 1072.36 1434.11 1077.93C1429.26 1083.5 1423.29 1087.95 1416.6 1091C1409.91 1094.06 1402.65 1095.63 1395.31 1095.63C1387.97 1095.62 1380.71 1094.04 1374.03 1090.97C1367.34 1087.91 1361.38 1083.45 1356.53 1077.88C1351.69 1072.3 1348.08 1065.75 1345.94 1058.66C1343.8 1051.57 1343.18 1044.09 1344.13 1036.74L1395.34 1043.46L1446.57 1036.81Z" fill="#97415D"/>
<path d="M1344.13 1036.81C1345.06 1044.17 1344.44 1051.64 1342.29 1058.73C1340.14 1065.82 1336.52 1072.36 1331.67 1077.93C1326.82 1083.5 1320.85 1087.95 1314.16 1091C1307.47 1094.06 1300.21 1095.63 1292.87 1095.63C1285.53 1095.62 1278.27 1094.04 1271.59 1090.97C1264.9 1087.91 1258.94 1083.45 1254.1 1077.88C1249.25 1072.3 1245.64 1065.75 1243.5 1058.66C1241.36 1051.57 1240.75 1044.09 1241.69 1036.74L1292.91 1043.46L1344.13 1036.81Z" fill="#97415D"/>
<path d="M1241.67 1036.81C1242.6 1044.17 1241.98 1051.64 1239.83 1058.73C1237.68 1065.82 1234.06 1072.36 1229.21 1077.93C1224.36 1083.5 1218.39 1087.95 1211.7 1091C1205.01 1094.06 1197.75 1095.63 1190.41 1095.63C1183.07 1095.62 1175.81 1094.04 1169.13 1090.97C1162.44 1087.91 1156.48 1083.45 1151.63 1077.88C1146.79 1072.3 1143.18 1065.75 1141.04 1058.66C1138.9 1051.57 1138.29 1044.09 1139.23 1036.74L1190.45 1043.46L1241.67 1036.81Z" fill="#97415D"/>
<path d="M1139.36 1036.81C1140.29 1044.17 1139.66 1051.64 1137.52 1058.73C1135.37 1065.82 1131.75 1072.36 1126.9 1077.93C1122.04 1083.5 1116.08 1087.95 1109.39 1091C1102.69 1094.06 1095.44 1095.63 1088.1 1095.63C1080.76 1095.62 1073.5 1094.04 1066.81 1090.97C1060.13 1087.91 1054.17 1083.45 1049.32 1077.88C1044.48 1072.3 1040.87 1065.75 1038.73 1058.66C1036.59 1051.57 1035.97 1044.09 1036.92 1036.74L1088.13 1043.46L1139.36 1036.81Z" fill="#97415D"/>
<path d="M1036.9 1036.81C1037.84 1044.17 1037.21 1051.64 1035.06 1058.73C1032.91 1065.82 1029.29 1072.36 1024.44 1077.93C1019.59 1083.5 1013.62 1087.95 1006.93 1091C1000.24 1094.06 992.984 1095.63 985.644 1095.63C978.303 1095.62 971.048 1094.04 964.362 1090.97C957.676 1087.91 951.712 1083.45 946.869 1077.88C942.026 1072.3 938.415 1065.75 936.276 1058.66C934.137 1051.57 933.519 1044.09 934.465 1036.74L985.679 1043.46L1036.9 1036.81Z" fill="#97415D"/>
<path d="M934.466 1036.81C935.401 1044.17 934.773 1051.64 932.625 1058.73C930.476 1065.82 926.856 1072.36 922.005 1077.93C917.154 1083.5 911.185 1087.95 904.495 1091C897.804 1094.06 890.547 1095.63 883.206 1095.63C875.866 1095.62 868.61 1094.04 861.924 1090.97C855.238 1087.91 849.275 1083.45 844.432 1077.88C839.589 1072.3 835.977 1065.75 833.838 1058.66C831.699 1051.57 831.082 1044.09 832.027 1036.74L883.242 1043.46L934.466 1036.81Z" fill="#97415D"/>
<path d="M832.02 1036.81C832.956 1044.17 832.328 1051.64 830.179 1058.73C828.031 1065.82 824.41 1072.36 819.56 1077.93C814.709 1083.5 808.74 1087.95 802.049 1091C795.359 1094.06 788.102 1095.63 780.761 1095.63C773.42 1095.62 766.165 1094.04 759.479 1090.97C752.793 1087.91 746.83 1083.45 741.987 1077.88C737.143 1072.3 733.532 1065.75 731.393 1058.66C729.254 1051.57 728.637 1044.09 729.582 1036.74L780.797 1043.46L832.02 1036.81Z" fill="#97415D"/>
<path d="M729.556 1036.81C730.491 1044.17 729.863 1051.64 727.714 1058.73C725.566 1065.82 721.945 1072.36 717.095 1077.93C712.244 1083.5 706.275 1087.95 699.584 1091C692.894 1094.06 685.637 1095.63 678.296 1095.63C670.955 1095.62 663.7 1094.04 657.014 1090.97C650.328 1087.91 644.365 1083.45 639.522 1077.88C634.679 1072.3 631.067 1065.75 628.928 1058.66C626.789 1051.57 626.172 1044.09 627.117 1036.74L678.332 1043.46L729.556 1036.81Z" fill="#97415D"/>
<path d="M627.114 1036.81C628.049 1044.17 627.422 1051.64 625.273 1058.73C623.124 1065.82 619.504 1072.36 614.653 1077.93C609.803 1083.5 603.833 1087.95 597.143 1091C590.453 1094.06 583.195 1095.63 575.855 1095.63C568.514 1095.62 561.259 1094.04 554.573 1090.97C547.887 1087.91 541.923 1083.45 537.08 1077.88C532.237 1072.3 528.626 1065.75 526.487 1058.66C524.348 1051.57 523.73 1044.09 524.676 1036.74L575.89 1043.46L627.114 1036.81Z" fill="#97415D"/>
<path d="M522.688 1037.82C523.624 1045.18 522.996 1052.65 520.847 1059.74C518.699 1066.83 515.078 1073.38 510.228 1078.94C505.377 1084.51 499.408 1088.96 492.717 1092.02C486.027 1095.07 478.77 1096.64 471.429 1096.64C464.088 1096.63 456.833 1095.05 450.147 1091.99C443.461 1088.93 437.497 1084.46 432.654 1078.89C427.811 1073.32 424.2 1066.76 422.061 1059.67C419.922 1052.58 419.305 1045.11 420.25 1037.75L471.465 1044.47L522.688 1037.82Z" fill="#97415D"/>
<path d="M422.22 1036.82C423.155 1044.17 422.527 1051.65 420.378 1058.74C418.23 1065.83 414.609 1072.37 409.759 1077.94C404.908 1083.5 398.939 1087.96 392.248 1091.01C385.558 1094.06 378.301 1095.64 370.96 1095.63C363.62 1095.63 356.364 1094.04 349.678 1090.98C342.992 1087.92 337.029 1083.46 332.186 1077.88C327.343 1072.31 323.731 1065.76 321.592 1058.67C319.453 1051.57 318.836 1044.1 319.781 1036.75L370.996 1043.47L422.22 1036.82Z" fill="#97415D"/>
<path d="M321.415 1036.82C322.35 1044.17 321.722 1051.65 319.574 1058.74C317.425 1065.83 313.805 1072.37 308.954 1077.94C304.104 1083.5 298.134 1087.96 291.444 1091.01C284.754 1094.06 277.496 1095.64 270.155 1095.63C262.815 1095.63 255.56 1094.04 248.873 1090.98C242.187 1087.92 236.224 1083.46 231.381 1077.88C226.538 1072.31 222.927 1065.76 220.788 1058.67C218.649 1051.57 218.031 1044.1 218.976 1036.75L270.191 1043.47L321.415 1036.82Z" fill="#97415D"/>
<path d="M218.977 1036.82C219.913 1044.17 219.285 1051.65 217.136 1058.74C214.988 1065.83 211.367 1072.37 206.517 1077.94C201.666 1083.5 195.697 1087.96 189.006 1091.01C182.316 1094.06 175.059 1095.64 167.718 1095.63C160.377 1095.63 153.122 1094.04 146.436 1090.98C139.75 1087.92 133.787 1083.46 128.944 1077.88C124.101 1072.31 120.489 1065.76 118.35 1058.67C116.211 1051.57 115.594 1044.1 116.539 1036.75L167.754 1043.47L218.977 1036.82Z" fill="#97415D"/>
<path d="M116.52 1036.82C117.456 1044.17 116.828 1051.65 114.679 1058.74C112.531 1065.83 108.91 1072.37 104.06 1077.94C99.209 1083.5 93.2395 1087.96 86.5493 1091.01C79.859 1094.06 72.6016 1095.64 65.2609 1095.63C57.9203 1095.63 50.6651 1094.04 43.979 1090.98C37.2929 1087.92 31.3295 1083.46 26.4865 1077.88C21.6435 1072.31 18.0321 1065.76 15.8931 1058.67C13.7541 1051.57 13.1367 1044.1 14.0819 1036.75L65.2966 1043.47L116.52 1036.82Z" fill="#97415D"/>
<path d="M7.51779 81.4944C6.56405 74.0692 7.0511 66.5457 8.94647 59.4254C10.8418 52.3052 14.102 45.7517 18.5095 40.2021C22.9171 34.6525 28.3707 30.2341 34.507 27.2416C40.6432 24.2491 47.321 22.7513 54.095 22.8479C60.8691 22.9445 67.5839 24.6334 73.7917 27.802C79.9994 30.9706 85.5576 35.546 90.0955 41.2233C94.6334 46.9005 98.0468 53.5492 100.108 60.7259C102.17 67.9026 102.832 75.4425 102.05 82.8429L54.7057 75.4332L7.51779 81.4944Z" fill="#B55373"/>
<path d="M101.899 82.7921C100.946 75.3669 101.586 67.8237 103.777 60.6654C105.968 53.5072 109.66 46.8983 114.607 41.2793C119.554 35.6604 125.642 31.1606 132.465 28.0799C139.288 24.9993 146.689 23.4085 154.175 23.4136C161.661 23.4188 169.06 25.0198 175.879 28.1099C182.698 31.2 188.779 35.7082 193.718 41.334C198.657 46.9597 202.34 53.5737 204.522 60.735C206.703 67.8963 207.333 75.4404 206.369 82.8642L154.139 76.0821L101.899 82.7921Z" fill="#B55373"/>
<path d="M206.376 82.7921C205.422 75.3669 206.062 67.8237 208.254 60.6654C210.445 53.5072 214.137 46.8983 219.084 41.2793C224.031 35.6604 230.118 31.1606 236.941 28.0799C243.764 24.9993 251.165 23.4085 258.652 23.4136C266.138 23.4188 273.537 25.0198 280.355 28.1099C287.174 31.2 293.256 35.7082 298.195 41.334C303.134 46.9597 306.817 53.5737 308.998 60.735C311.18 67.8963 311.809 75.4404 310.845 82.8642L258.615 76.0821L206.376 82.7921Z" fill="#B55373"/>
<path d="M310.712 82.7921C309.758 75.3669 310.398 67.8237 312.59 60.6654C314.781 53.5072 318.473 46.8983 323.42 41.2793C328.367 35.6604 334.454 31.1606 341.277 28.0799C348.1 24.9993 355.501 23.4085 362.988 23.4136C370.474 23.4188 377.873 25.0198 384.691 28.1099C391.51 31.2 397.592 35.7082 402.531 41.334C407.47 46.9597 411.153 53.5737 413.334 60.735C415.515 67.8963 416.145 75.4404 415.181 82.8642L362.951 76.0821L310.712 82.7921Z" fill="#B55373"/>
<path d="M415.196 82.7921C414.243 75.3669 414.883 67.8237 417.074 60.6654C419.265 53.5072 422.957 46.8983 427.904 41.2793C432.851 35.6604 438.939 31.1606 445.762 28.0799C452.584 24.9993 459.986 23.4085 467.472 23.4136C474.958 23.4188 482.357 25.0198 489.176 28.1099C495.994 31.2 502.076 35.7082 507.015 41.334C511.954 46.9597 515.637 53.5737 517.818 60.735C520 67.8963 520.63 75.4404 519.666 82.8642L467.436 76.0821L415.196 82.7921Z" fill="#B55373"/>
<path d="M519.673 82.7921C518.719 75.3669 519.359 67.8237 521.55 60.6654C523.742 53.5072 527.434 46.8983 532.381 41.2793C537.327 35.6604 543.415 31.1606 550.238 28.0799C557.061 24.9993 564.462 23.4085 571.948 23.4136C579.435 23.4188 586.834 25.0198 593.652 28.1099C600.471 31.2 606.553 35.7082 611.492 41.334C616.431 46.9597 620.114 53.5737 622.295 60.735C624.476 67.8963 625.106 75.4404 624.142 82.8642L571.912 76.0821L519.673 82.7921Z" fill="#B55373"/>
<path d="M624.142 82.7921C623.188 75.3669 623.828 67.8237 626.019 60.6654C628.211 53.5072 631.903 46.8983 636.849 41.2793C641.796 35.6604 647.884 31.1606 654.707 28.0799C661.53 24.9993 668.931 23.4085 676.417 23.4136C683.903 23.4188 691.302 25.0198 698.121 28.1099C704.94 31.2 711.021 35.7082 715.96 41.334C720.899 46.9597 724.582 53.5737 726.764 60.735C728.945 67.8963 729.575 75.4404 728.611 82.8642L676.381 76.0821L624.142 82.7921Z" fill="#B55373"/>
<path d="M728.626 82.7921C727.672 75.3669 728.312 67.8237 730.504 60.6654C732.695 53.5072 736.387 46.8983 741.334 41.2793C746.281 35.6604 752.368 31.1606 759.191 28.0799C766.014 24.9993 773.415 23.4085 780.902 23.4136C788.388 23.4188 795.787 25.0198 802.605 28.1099C809.424 31.2 815.506 35.7082 820.445 41.334C825.384 46.9597 829.067 53.5737 831.248 60.735C833.43 67.8963 834.059 75.4404 833.095 82.8642L780.865 76.0821L728.626 82.7921Z" fill="#B55373"/>
<path d="M833.103 82.7921C832.149 75.3669 832.789 67.8237 834.98 60.6654C837.171 53.5072 840.864 46.8983 845.81 41.2793C850.757 35.6604 856.845 31.1606 863.668 28.0799C870.491 24.9993 877.892 23.4085 885.378 23.4136C892.864 23.4188 900.263 25.0198 907.082 28.1099C913.901 31.2 919.982 35.7082 924.921 41.334C929.86 46.9597 933.543 53.5737 935.725 60.735C937.906 67.8963 938.536 75.4404 937.572 82.8642L885.342 76.0821L833.103 82.7921Z" fill="#B55373"/>
<path d="M939.61 82.7843C938.657 75.3591 939.297 67.8159 941.488 60.6576C943.679 53.4993 947.371 46.8904 952.318 41.2715C957.265 35.6526 963.353 31.1528 970.176 28.0721C976.999 24.9914 984.4 23.4007 991.886 23.4058C999.372 23.411 1006.77 25.012 1013.59 28.1021C1020.41 31.1922 1026.49 35.7004 1031.43 41.3262C1036.37 46.9519 1040.05 53.5659 1042.23 60.7272C1044.41 67.8885 1045.04 75.4325 1044.08 82.8564L991.85 76.0743L939.61 82.7843Z" fill="#B55373"/>
<path d="M1042.08 82.7921C1041.13 75.3669 1041.77 67.8237 1043.96 60.6654C1046.15 53.5072 1049.84 46.8983 1054.79 41.2793C1059.73 35.6604 1065.82 31.1606 1072.64 28.0799C1079.47 24.9993 1086.87 23.4085 1094.35 23.4136C1101.84 23.4188 1109.24 25.0198 1116.06 28.1099C1122.88 31.2 1128.96 35.7082 1133.9 41.334C1138.84 46.9597 1142.52 53.5737 1144.7 60.735C1146.88 67.8963 1147.51 75.4404 1146.55 82.8642L1094.32 76.0821L1042.08 82.7921Z" fill="#B55373"/>
<path d="M1144.88 82.7921C1143.93 75.3669 1144.57 67.8237 1146.76 60.6654C1148.95 53.5072 1152.64 46.8983 1157.59 41.2793C1162.54 35.6604 1168.63 31.1606 1175.45 28.0799C1182.27 24.9993 1189.67 23.4085 1197.16 23.4136C1204.65 23.4188 1212.04 25.0198 1218.86 28.1099C1225.68 31.2 1231.76 35.7082 1236.7 41.334C1241.64 46.9597 1245.32 53.5737 1247.51 60.735C1249.69 67.8963 1250.32 75.4404 1249.35 82.8642L1197.12 76.0821L1144.88 82.7921Z" fill="#B55373"/>
<path d="M1249.36 82.7921C1248.41 75.3669 1249.05 67.8237 1251.24 60.6654C1253.43 53.5072 1257.12 46.8983 1262.07 41.2793C1267.01 35.6604 1273.1 31.1606 1279.93 28.0799C1286.75 24.9993 1294.15 23.4085 1301.64 23.4136C1309.12 23.4188 1316.52 25.0198 1323.34 28.1099C1330.16 31.2 1336.24 35.7082 1341.18 41.334C1346.12 46.9597 1349.8 53.5737 1351.98 60.735C1354.16 67.8963 1354.79 75.4404 1353.83 82.8642L1301.6 76.0821L1249.36 82.7921Z" fill="#B55373"/>
<path d="M1353.84 82.7903C1352.88 75.3652 1353.38 67.8403 1355.3 60.7174C1357.21 53.5945 1360.5 47.0373 1364.95 41.4829C1369.39 35.9285 1374.89 31.5046 1381.07 28.5061C1387.25 25.5075 1393.98 24.0033 1400.81 24.0937C1407.63 24.1841 1414.39 25.8669 1420.64 29.0301C1426.89 32.1933 1432.48 36.7642 1437.05 42.4379C1441.61 48.1116 1445.05 54.7579 1447.12 61.9335C1449.18 69.1092 1449.84 76.6494 1449.05 84.0514L1401.37 76.6847L1353.84 82.7903Z" fill="#B55373"/>
<path d="M1448.93 1023.17C1449.87 1030.56 1449.24 1038.06 1447.08 1045.19C1444.92 1052.31 1441.28 1058.89 1436.39 1064.48C1431.51 1070.07 1425.51 1074.55 1418.77 1077.61C1412.04 1080.68 1404.74 1082.26 1397.35 1082.25C1389.97 1082.25 1382.67 1080.66 1375.94 1077.58C1369.21 1074.51 1363.21 1070.02 1358.34 1064.42C1353.46 1058.82 1349.83 1052.24 1347.68 1045.12C1345.52 1037.99 1344.9 1030.48 1345.85 1023.1L1397.39 1029.85L1448.93 1023.17Z" fill="#B55373"/>
<path d="M1345.84 1023.17C1346.78 1030.56 1346.15 1038.06 1343.99 1045.19C1341.82 1052.31 1338.18 1058.89 1333.3 1064.48C1328.42 1070.07 1322.41 1074.55 1315.68 1077.61C1308.95 1080.68 1301.65 1082.26 1294.26 1082.25C1286.87 1082.25 1279.57 1080.66 1272.84 1077.58C1266.12 1074.51 1260.12 1070.02 1255.24 1064.42C1250.37 1058.82 1246.73 1052.24 1244.58 1045.12C1242.43 1037.99 1241.81 1030.48 1242.76 1023.1L1294.29 1029.85L1345.84 1023.17Z" fill="#B55373"/>
<path d="M1242.76 1023.17C1243.7 1030.56 1243.07 1038.06 1240.91 1045.19C1238.75 1052.31 1235.1 1058.89 1230.22 1064.48C1225.34 1070.07 1219.33 1074.55 1212.6 1077.61C1205.87 1080.68 1198.57 1082.26 1191.18 1082.25C1183.79 1082.25 1176.49 1080.66 1169.77 1077.58C1163.04 1074.51 1157.04 1070.02 1152.16 1064.42C1147.29 1058.82 1143.66 1052.24 1141.5 1045.12C1139.35 1037.99 1138.73 1030.48 1139.68 1023.1L1191.22 1029.85L1242.76 1023.17Z" fill="#B55373"/>
<path d="M1139.81 1023.17C1140.75 1030.56 1140.12 1038.06 1137.96 1045.19C1135.79 1052.31 1132.15 1058.89 1127.27 1064.48C1122.39 1070.07 1116.38 1074.55 1109.65 1077.61C1102.92 1080.68 1095.61 1082.26 1088.23 1082.25C1080.84 1082.25 1073.54 1080.66 1066.81 1077.58C1060.08 1074.51 1054.08 1070.02 1049.21 1064.42C1044.34 1058.82 1040.7 1052.24 1038.55 1045.12C1036.4 1037.99 1035.78 1030.48 1036.73 1023.1L1088.26 1029.85L1139.81 1023.17Z" fill="#B55373"/>
<path d="M1036.72 1023.17C1037.66 1030.56 1037.03 1038.06 1034.87 1045.19C1032.71 1052.31 1029.06 1058.89 1024.18 1064.48C1019.3 1070.07 1013.3 1074.55 1006.56 1077.61C999.831 1080.68 992.528 1082.26 985.142 1082.25C977.755 1082.25 970.454 1080.66 963.727 1077.58C956.999 1074.51 950.998 1070.02 946.125 1064.42C941.251 1058.82 937.617 1052.24 935.465 1045.12C933.313 1037.99 932.691 1030.48 933.642 1023.1L985.178 1029.85L1036.72 1023.17Z" fill="#B55373"/>
<path d="M933.628 1023.17C934.569 1030.56 933.938 1038.06 931.776 1045.19C929.613 1052.31 925.97 1058.89 921.089 1064.48C916.208 1070.07 910.202 1074.55 903.469 1077.61C896.737 1080.68 889.435 1082.26 882.048 1082.25C874.661 1082.25 867.361 1080.66 860.633 1077.58C853.905 1074.51 847.904 1070.02 843.031 1064.42C838.158 1058.82 834.524 1052.24 832.371 1045.12C830.219 1037.99 829.597 1030.48 830.549 1023.1L882.084 1029.85L933.628 1023.17Z" fill="#B55373"/>
<path d="M830.546 1023.17C831.487 1030.56 830.856 1038.06 828.694 1045.19C826.531 1052.31 822.888 1058.89 818.007 1064.48C813.126 1070.07 807.12 1074.55 800.387 1077.61C793.655 1080.68 786.352 1082.26 778.966 1082.25C771.579 1082.25 764.279 1080.66 757.551 1077.58C750.823 1074.51 744.822 1070.02 739.949 1064.42C735.075 1058.82 731.441 1052.24 729.289 1045.12C727.137 1037.99 726.515 1030.48 727.467 1023.1L779.002 1029.85L830.546 1023.17Z" fill="#B55373"/>
<path d="M727.452 1023.17C728.393 1030.56 727.762 1038.06 725.6 1045.19C723.438 1052.31 719.795 1058.89 714.914 1064.48C710.033 1070.07 704.026 1074.55 697.294 1077.61C690.562 1080.68 683.259 1082.26 675.872 1082.25C668.486 1082.25 661.185 1080.66 654.457 1077.58C647.729 1074.51 641.728 1070.02 636.855 1064.42C631.982 1058.82 628.348 1052.24 626.195 1045.12C624.043 1037.99 623.422 1030.48 624.373 1023.1L675.908 1029.85L727.452 1023.17Z" fill="#B55373"/>
<path d="M624.363 1023.17C625.304 1030.56 624.672 1038.06 622.51 1045.19C620.348 1052.31 616.705 1058.89 611.824 1064.48C606.943 1070.07 600.936 1074.55 594.204 1077.61C587.472 1080.68 580.169 1082.26 572.782 1082.25C565.396 1082.25 558.095 1080.66 551.367 1077.58C544.639 1074.51 538.639 1070.02 533.765 1064.42C528.892 1058.82 525.258 1052.24 523.106 1045.12C520.953 1037.99 520.332 1030.48 521.283 1023.1L572.818 1029.85L624.363 1023.17Z" fill="#B55373"/>
<path d="M519.21 1024.19C520.151 1031.58 519.52 1039.08 517.358 1046.21C515.195 1053.33 511.552 1059.91 506.671 1065.5C501.79 1071.09 495.784 1075.56 489.052 1078.63C482.319 1081.7 475.017 1083.28 467.63 1083.27C460.243 1083.27 452.943 1081.68 446.215 1078.6C439.487 1075.53 433.486 1071.04 428.613 1065.44C423.74 1059.84 420.106 1053.26 417.953 1046.14C415.801 1039.01 415.179 1031.5 416.131 1024.12L467.666 1030.87L519.21 1024.19Z" fill="#B55373"/>
<path d="M418.109 1023.18C419.05 1030.57 418.418 1038.08 416.256 1045.2C414.094 1052.32 410.451 1058.9 405.57 1064.49C400.689 1070.08 394.682 1074.56 387.95 1077.63C381.218 1080.69 373.915 1082.27 366.528 1082.27C359.142 1082.26 351.841 1080.67 345.113 1077.6C338.385 1074.52 332.385 1070.04 327.511 1064.44C322.638 1058.84 319.004 1052.26 316.852 1045.13C314.699 1038.01 314.078 1030.5 315.029 1023.11L366.564 1029.86L418.109 1023.18Z" fill="#B55373"/>
<path d="M316.679 1023.18C317.62 1030.57 316.988 1038.08 314.826 1045.2C312.664 1052.32 309.021 1058.9 304.14 1064.49C299.259 1070.08 293.252 1074.56 286.52 1077.63C279.788 1080.69 272.485 1082.27 265.099 1082.27C257.712 1082.26 250.411 1080.67 243.684 1077.6C236.956 1074.52 230.955 1070.04 226.082 1064.44C221.208 1058.84 217.574 1052.26 215.422 1045.13C213.27 1038.01 212.648 1030.5 213.599 1023.11L265.135 1029.86L316.679 1023.18Z" fill="#B55373"/>
<path d="M213.589 1023.18C214.53 1030.57 213.899 1038.08 211.736 1045.2C209.574 1052.32 205.931 1058.9 201.05 1064.49C196.169 1070.08 190.163 1074.56 183.43 1077.63C176.698 1080.69 169.395 1082.27 162.009 1082.27C154.622 1082.26 147.322 1080.67 140.594 1077.6C133.866 1074.52 127.865 1070.04 122.992 1064.44C118.118 1058.84 114.484 1052.26 112.332 1045.13C110.18 1038.01 109.558 1030.5 110.51 1023.11L162.045 1029.86L213.589 1023.18Z" fill="#B55373"/>
<path d="M110.495 1023.18C111.436 1030.57 110.805 1038.08 108.643 1045.2C106.481 1052.32 102.838 1058.9 97.9566 1064.49C93.0756 1070.08 87.0688 1074.56 80.3367 1077.63C73.6045 1080.69 66.3017 1082.27 58.9151 1082.27C51.5285 1082.26 44.2279 1080.67 37.5 1077.6C30.772 1074.52 24.7713 1070.04 19.898 1064.44C15.0247 1058.84 11.3907 1052.26 9.23833 1045.13C7.08595 1038.01 6.46464 1030.5 7.41581 1023.11L58.951 1029.86L110.495 1023.18Z" fill="#B55373"/>
</svg>
